<svg width="37" height="37" viewBox="0 0 37 37" fill="none" xmlns="http://www.w3.org/2000/svg">
<g clip-path="url(#clip0_2_50042)">
<path d="M12.5991 0.963284C11.6358 1.17422 11.2843 1.58906 11.6569 2.06719C11.8257 2.28516 12.0718 2.29922 12.5991 2.1375C13.0562 1.99688 14.2233 1.99688 14.7788 2.14453C15.3905 2.29922 16.2694 2.74922 16.7194 3.14297C17.2749 3.61406 17.289 3.65625 17.1343 3.97969C16.9444 4.35234 16.853 4.90078 16.853 5.59688V6.1875H13.7593H10.6655L10.7077 5.56875C10.7288 5.23125 10.778 4.71797 10.8132 4.42969C10.9749 3.17109 10.9819 3.26953 10.771 3.10781C10.546 2.93203 10.2648 2.91094 10.0608 3.05859C9.86397 3.19219 9.70225 3.81094 9.65303 4.60547C9.62491 4.95 9.58975 5.44922 9.56866 5.70938L9.52647 6.1875H9.2171C8.6335 6.1875 8.13428 6.50391 7.83194 7.06641C7.68428 7.3336 7.67725 7.46016 7.65616 9.18984C7.63507 10.7297 7.64913 11.1023 7.74757 11.4258C7.90225 11.9742 8.27491 12.3328 8.83741 12.4945L9.25928 12.607V17.2336V21.8531L9.06944 21.9023C8.66163 22.0008 7.78975 22.3664 7.40303 22.6055C6.96007 22.8727 6.86866 22.8656 6.86866 22.5984C6.86866 22.1977 6.44678 21.7195 5.96866 21.5859C5.62413 21.4945 2.20694 21.4945 1.86241 21.5859C1.71475 21.6281 1.50382 21.7406 1.38428 21.8461C0.955378 22.2047 0.962409 22.1203 0.962409 25.6219V28.8211L1.14522 28.9617C1.39132 29.1586 1.61632 29.1445 1.85538 28.9406L2.05225 28.7719L2.08741 25.7203L2.12257 22.6758L3.88038 22.6547C5.46944 22.6406 5.64522 22.6477 5.72257 22.7602C5.85616 22.9359 5.85616 34.5797 5.7296 34.7555C5.64522 34.868 5.46944 34.875 3.88038 34.8609L2.12257 34.8398L2.08741 32.8148L2.05225 30.7828L1.85538 30.6141C1.61632 30.4102 1.39132 30.3961 1.14522 30.593L0.962409 30.7336V32.9133C0.962409 35.2969 0.969441 35.318 1.38428 35.6695C1.72882 35.9648 2.01007 36 3.91553 36C5.821 36 6.10225 35.9648 6.44678 35.6695C6.78429 35.3883 6.87569 35.1352 6.91788 34.4039C6.95303 33.8414 6.97413 33.743 7.07257 33.7711C7.13585 33.7852 8.6335 34.3758 10.4054 35.0789C12.1702 35.775 13.8929 36.4289 14.2304 36.5273C15.1726 36.8016 16.0163 36.9141 17.1413 36.9141C18.6038 36.9141 19.8554 36.675 21.1351 36.1477C21.7046 35.9086 27.0202 33.0539 27.3858 32.7867C27.5757 32.6461 27.6108 32.5687 27.6108 32.3367C27.6108 31.9922 27.421 31.7812 27.1116 31.7812C26.9569 31.7812 26.1062 32.2031 24.3132 33.1805C21.2265 34.8539 20.7343 35.107 20.0733 35.325C18.2804 35.9297 16.1429 35.9578 14.3991 35.4023C14.1038 35.3039 12.3179 34.6148 10.4194 33.8625L6.97413 32.4984L6.95303 28.4133L6.93897 24.3281L7.33975 24.0117C8.17647 23.3578 9.46319 22.8656 10.771 22.7109C11.9241 22.5703 14.2374 22.7391 15.2499 23.0344C16.1007 23.2875 21.5429 26.1703 21.9999 26.6203C22.6327 27.232 22.8577 28.1813 22.5483 28.9828C22.3726 29.4609 22.0983 29.693 21.7187 29.693C21.5148 29.693 20.6569 29.2711 17.8726 27.8016C15.3273 26.4656 14.2163 25.9172 14.0546 25.9172C13.7382 25.9172 13.5202 26.1492 13.5202 26.4797C13.5202 26.6555 13.5694 26.775 13.6608 26.8523C13.7382 26.9156 15.4187 27.8086 17.3944 28.8492C21.3108 30.8953 21.4515 30.9586 22.1335 30.7828C22.3796 30.7195 24.3554 29.6789 27.7304 27.8297C30.5921 26.2547 33.0882 24.9258 33.271 24.8836C33.9882 24.7008 34.839 24.9539 35.3523 25.5023C35.746 25.9172 35.8374 26.093 35.8374 26.4234C35.8374 26.6766 35.7952 26.775 35.6054 26.9578C35.4858 27.0773 33.9038 27.9844 32.0898 28.9617C30.2827 29.9391 28.771 30.7969 28.7358 30.8672C28.6233 31.0852 28.6585 31.4227 28.8062 31.5703C29.1015 31.8656 29.2351 31.8094 32.7858 29.8828C34.6351 28.8773 36.2523 27.9492 36.3858 27.8297C36.9905 27.2531 37.1452 26.2688 36.7515 25.4813C36.2733 24.525 35.2468 23.8219 34.164 23.7164C33.8124 23.6742 33.7843 23.6602 33.6437 23.3859C33.271 22.6617 32.2937 21.9727 31.3585 21.7969L30.9155 21.7055V17.1562V12.607L31.3374 12.4945C31.8999 12.3328 32.2726 11.9742 32.4273 11.4258C32.5257 11.1023 32.5398 10.7297 32.5187 9.18984C32.4976 7.46016 32.4905 7.3336 32.3429 7.06641C32.0405 6.50391 31.5413 6.1875 30.9577 6.1875H30.6483L30.6062 5.70938C30.5851 5.44922 30.5499 4.97109 30.5288 4.64062C30.5007 4.31016 30.4374 3.86016 30.3812 3.62812C30.0788 2.39062 29.0382 1.35 27.7866 1.01953C27.2593 0.885937 25.9093 0.878906 25.2835 1.0125C24.2148 1.24453 23.153 1.80703 22.3937 2.55938L22.0069 2.93203L21.803 2.81953C21.6343 2.72813 21.346 2.70703 20.0874 2.70703C18.8288 2.70703 18.5405 2.72813 18.3718 2.81953L18.1679 2.93203L17.7812 2.55938C17.0218 1.80703 15.9601 1.24453 14.8913 1.0125C14.4624 0.921093 12.9296 0.885937 12.5991 0.963284ZM27.4913 2.12344C28.2226 2.28516 29.0312 3.05156 29.2562 3.80391C29.3124 3.97969 29.3757 4.40156 29.3968 4.75312C29.4249 5.09766 29.4601 5.56172 29.4812 5.77969L29.5233 6.1875H26.4226H23.3218V5.59688C23.3218 4.90078 23.2304 4.35234 23.0405 3.97969C22.8788 3.65625 22.8999 3.61406 23.4554 3.14297C24.5523 2.20781 26.0921 1.81406 27.4913 2.12344ZM21.5429 3.98672C22.0069 4.28906 22.1546 4.61953 22.1827 5.46328L22.2108 6.1875H20.0874H17.964L17.9921 5.46328C18.0202 4.6125 18.1819 4.24688 18.646 3.96563C18.9132 3.80391 18.9835 3.79688 20.0874 3.79688C21.2335 3.79688 21.2616 3.80391 21.5429 3.98672ZM16.853 9.38672V11.4609H13.0562C10.4265 11.4609 9.21007 11.4398 9.09757 11.3836C8.79522 11.25 8.7671 11.0602 8.7671 9.32344C8.7671 7.76953 8.77413 7.67109 8.91475 7.49531L9.05538 7.3125H12.9577H16.853V9.38672ZM22.1968 9.38672V11.4609H20.0874H17.978V9.38672V7.3125H20.0874H22.1968V9.38672ZM31.2601 7.49531C31.4007 7.67109 31.4077 7.76953 31.4077 9.32344C31.4077 10.3711 31.3796 11.025 31.3304 11.1305C31.1968 11.4258 31.0069 11.4609 29.3898 11.4609C27.9202 11.4609 27.8569 11.468 27.7023 11.6156C27.4983 11.8055 27.4913 12.157 27.6741 12.382C27.8007 12.5438 27.8569 12.5508 28.7991 12.5719L29.7905 12.6V17.2266V21.8531L29.5726 21.9305C29.453 21.9727 28.0116 22.732 26.3804 23.625C24.7421 24.5109 23.3851 25.2422 23.364 25.2422C23.3429 25.2422 23.3218 22.3945 23.3218 18.9141V12.5859H24.5171C25.2483 12.5859 25.7757 12.5578 25.8812 12.5086C26.2327 12.3469 26.2819 11.7844 25.9726 11.5664C25.853 11.482 25.5577 11.4609 24.5733 11.4609H23.3218V9.38672V7.3125H27.2171H31.1194L31.2601 7.49531ZM16.853 17.5148C16.853 21.4313 16.8319 22.4367 16.7687 22.4086C15.7913 22.0148 15.4608 21.9023 14.8632 21.7898C13.9351 21.607 12.0999 21.4945 11.1437 21.5508L10.3843 21.6V17.093V12.5859H13.6187H16.853V17.5148ZM22.1968 18.9492V25.3195L21.9015 25.1438C21.5499 24.9469 19.2366 23.7023 18.4913 23.3086L17.978 23.0484V17.8172V12.5859H20.0874H22.1968V18.9492ZM31.6608 23.0766C31.8437 23.1609 32.139 23.3719 32.3148 23.5406L32.6382 23.85L32.3569 23.9906C32.2023 24.075 30.2687 25.1297 28.0538 26.3461C25.839 27.5555 23.9898 28.568 23.9335 28.5891C23.8562 28.6172 23.828 28.4977 23.7999 28.0055C23.7718 27.5766 23.7085 27.2602 23.589 26.9648L23.4132 26.5359L26.5773 24.8203C28.314 23.8711 29.8046 23.0695 29.889 23.0344C30.4304 22.8164 31.1405 22.8305 31.6608 23.0766Z" fill="#4CAF50"/>
<path d="M4.1406 6.27874C3.97888 6.45452 3.94372 6.7428 4.05622 6.96077C4.09138 7.03108 4.40076 7.25608 4.73826 7.45999C5.43435 7.88186 5.75076 7.93108 5.96873 7.66389C6.11638 7.48108 6.13748 7.10843 6.01091 6.94671C5.96169 6.88343 5.65232 6.67249 5.32185 6.47561C4.64685 6.0678 4.37966 6.02561 4.1406 6.27874Z" fill="#4CAF50"/>
<path d="M34.853 6.47561C34.5225 6.67249 34.2132 6.88343 34.171 6.94671C34.0374 7.10843 34.0585 7.48108 34.2061 7.66389C34.4241 7.93108 34.7405 7.88186 35.4366 7.45999C35.7741 7.25608 36.0835 7.03108 36.1186 6.96077C36.3225 6.58108 36.0624 6.11702 35.6546 6.11702C35.535 6.11702 35.2046 6.26468 34.853 6.47561Z" fill="#4CAF50"/>
<path d="M3.36686 8.94375C3.14186 9.18984 3.15593 9.57656 3.39499 9.76641C3.55671 9.89297 3.68327 9.91406 4.37233 9.91406C5.02624 9.91406 5.19499 9.89297 5.32155 9.7875C5.53952 9.61172 5.54655 9.18984 5.33561 8.97891C5.19499 8.83828 5.09655 8.82422 4.35124 8.80313C3.55671 8.78203 3.52155 8.78203 3.36686 8.94375Z" fill="#4CAF50"/>
<path d="M35.0287 8.85938C34.7967 8.95078 34.6842 9.13359 34.6912 9.40781C34.7053 9.83672 34.874 9.91406 35.8022 9.91406C36.4912 9.91406 36.6178 9.89297 36.7795 9.76641C37.0256 9.57656 37.0326 9.16172 36.8006 8.94375C36.6529 8.80312 36.5615 8.78906 35.9006 8.79609C35.4998 8.79609 35.1061 8.82422 35.0287 8.85938Z" fill="#4CAF50"/>
<path d="M4.78037 11.2148C4.10537 11.5663 3.84521 11.7984 3.84521 12.0585C3.84521 12.2554 4.09834 12.5577 4.31631 12.621C4.41475 12.6491 4.66084 12.5577 5.08975 12.3398C5.96162 11.8827 6.14443 11.6577 5.94756 11.2218C5.88428 11.0812 5.58193 10.8984 5.42021 10.8984C5.40615 10.8984 5.11787 11.039 4.78037 11.2148Z" fill="#4CAF50"/>
<path d="M34.4944 10.9762C34.3046 11.0465 34.1499 11.2997 34.1499 11.5317C34.1499 11.7567 34.4382 12.0028 35.0851 12.3403C35.7671 12.6919 35.9007 12.6989 36.1749 12.4036C36.5124 12.0239 36.3226 11.7005 35.514 11.2786C34.846 10.927 34.7335 10.8919 34.4944 10.9762Z" fill="#4CAF50"/>
</g>
<defs>
<clipPath id="clip0_2_50042">
<rect width="36" height="36" fill="white" transform="translate(0.962402 0.914062)"/>
</clipPath>
</defs>
</svg>
