<svg width="24" height="25" viewBox="0 0 24 25" fill="none" xmlns="http://www.w3.org/2000/svg">
<path d="M6.75 22.416V20.916H8.25V19.416H4.5C3.53338 19.417 2.60373 19.0446 1.90502 18.3766C1.20632 17.7087 0.792533 16.7967 0.750002 15.831V6.66602C0.749066 5.69939 1.12142 4.76974 1.78939 4.07104C2.45735 3.37233 3.36931 2.95855 4.335 2.91602H19.5C20.4666 2.91508 21.3963 3.28744 22.095 3.9554C22.7937 4.62336 23.2075 5.53533 23.25 6.50102V15.666C23.2509 16.6326 22.8786 17.5623 22.2106 18.261C21.5427 18.9597 20.6307 19.3735 19.665 19.416H15.75V20.916H17.25V22.416H6.75ZM14.25 19.416H9.75V20.916H14.25V19.416ZM19.5 4.41602H4.5C3.92593 4.41498 3.37318 4.63342 2.9549 5.0266C2.53662 5.41979 2.28445 5.95798 2.25 6.53102V15.666C2.24897 16.2401 2.4674 16.7928 2.86059 17.2111C3.25377 17.6294 3.79197 17.8816 4.365 17.916H19.5C20.0741 17.9171 20.6268 17.6986 21.0451 17.3054C21.4634 16.9122 21.7156 16.3741 21.75 15.801V6.66602C21.751 6.09195 21.5326 5.5392 21.1394 5.12092C20.7462 4.70263 20.208 4.45046 19.635 4.41602H19.5Z" fill="#020617"/>
</svg>
