<svg width="24" height="25" viewBox="0 0 24 25" fill="none" xmlns="http://www.w3.org/2000/svg">
<path d="M11.9997 15.916C12.7297 15.916 13.4298 16.206 13.946 16.7222C14.4622 17.2384 14.7522 17.9385 14.7522 18.6685C14.7522 19.3985 14.4622 20.0986 13.946 20.6148C13.4298 21.131 12.7297 21.421 11.9997 21.421C11.2697 21.421 10.5696 21.131 10.0534 20.6148C9.53718 20.0986 9.24719 19.3985 9.24719 18.6685C9.24719 17.9385 9.53718 17.2384 10.0534 16.7222C10.5696 16.206 11.2697 15.916 11.9997 15.916ZM11.9997 17.416C11.6675 17.416 11.3489 17.548 11.114 17.7829C10.8791 18.0178 10.7472 18.3363 10.7472 18.6685C10.7472 19.0007 10.8791 19.3193 11.114 19.5542C11.3489 19.7891 11.6675 19.921 11.9997 19.921C12.3319 19.921 12.6504 19.7891 12.8853 19.5542C13.1202 19.3193 13.2522 19.0007 13.2522 18.6685C13.2522 18.3363 13.1202 18.0178 12.8853 17.7829C12.6504 17.548 12.3319 17.416 11.9997 17.416ZM11.9997 11.9185C13.2508 11.9188 14.4772 12.2669 15.542 12.9238C16.6068 13.5806 17.4681 14.5205 18.0297 15.6385L16.8972 16.771C16.5153 15.7822 15.8431 14.9322 14.969 14.3327C14.0948 13.7332 13.0597 13.4123 11.9997 13.4123C10.9397 13.4123 9.90457 13.7332 9.03041 14.3327C8.15626 14.9322 7.48404 15.7822 7.10219 16.771L5.96969 15.6385C6.5313 14.5205 7.39258 13.5806 8.45737 12.9238C9.52216 12.2669 10.7486 11.9188 11.9997 11.9185ZM11.9997 7.92102C15.7347 7.92102 19.0272 9.82602 20.9547 12.721L19.8672 13.801C19.0386 12.4596 17.8808 11.3524 16.5038 10.5845C15.1268 9.81654 13.5763 9.41342 11.9997 9.41342C10.423 9.41342 8.87256 9.81654 7.49556 10.5845C6.11857 11.3524 4.96078 12.4596 4.13219 13.801L3.04469 12.7135C4.02521 11.2365 5.35613 10.0251 6.91868 9.1876C8.48123 8.35005 10.2268 7.91234 11.9997 7.91352V7.92102ZM11.9997 3.91602C16.8372 3.91602 21.1347 6.24102 23.8197 9.84102L22.7472 10.921C21.5222 9.21458 19.9085 7.82436 18.0396 6.86538C16.1707 5.90639 14.1003 5.4062 11.9997 5.4062C9.89909 5.4062 7.82869 5.90639 5.95978 6.86538C4.09087 7.82436 2.47717 9.21458 1.25219 10.921L0.179688 9.84852C2.86469 6.24852 7.15469 3.92352 11.9997 3.92352V3.91602Z" fill="#020617"/>
</svg>
