<svg width="22" height="19" viewBox="0 0 22 19" fill="none" xmlns="http://www.w3.org/2000/svg">
<path d="M18.5 10.916C18.5 11.1149 18.421 11.3057 18.2803 11.4463C18.1397 11.587 17.9489 11.666 17.75 11.666C17.5511 11.666 17.3603 11.587 17.2197 11.4463C17.079 11.3057 17 11.1149 17 10.916C17 10.7171 17.079 10.5263 17.2197 10.3857C17.3603 10.245 17.5511 10.166 17.75 10.166C17.9489 10.166 18.1397 10.245 18.2803 10.3857C18.421 10.5263 18.5 10.7171 18.5 10.916ZM4.25 10.166C4.05109 10.166 3.86032 10.245 3.71967 10.3857C3.57902 10.5263 3.5 10.7171 3.5 10.916C3.5 11.1149 3.57902 11.3057 3.71967 11.4463C3.86032 11.587 4.05109 11.666 4.25 11.666C4.44891 11.666 4.63968 11.587 4.78033 11.4463C4.92098 11.3057 5 11.1149 5 10.916C5 10.7171 4.92098 10.5263 4.78033 10.3857C4.63968 10.245 4.44891 10.166 4.25 10.166ZM19.775 6.41602L20.0825 7.25602C20.5223 7.60331 20.8782 8.0453 21.1236 8.54912C21.369 9.05294 21.4977 9.60561 21.5 10.166V16.916C21.5 17.3138 21.342 17.6954 21.0607 17.9767C20.7794 18.258 20.3978 18.416 20 18.416H18.5C18.1022 18.416 17.7206 18.258 17.4393 17.9767C17.158 17.6954 17 17.3138 17 16.916V15.416H5V16.916C5 17.3138 4.84196 17.6954 4.56066 17.9767C4.27936 18.258 3.89782 18.416 3.5 18.416H2C1.60218 18.416 1.22064 18.258 0.93934 17.9767C0.658035 17.6954 0.5 17.3138 0.5 16.916V10.166C0.5 8.98852 1.0625 7.94602 1.9175 7.25602L2.225 6.41602H0.5V4.91602H2.75V5.02852L4.115 1.39102C4.22182 1.10511 4.41332 0.858601 4.66391 0.684387C4.91451 0.510173 5.21229 0.41655 5.5175 0.416016H16.4825C17.105 0.416016 17.6675 0.806016 17.885 1.39102L19.25 5.02852V4.91602H21.5V6.41602H19.775ZM3.5 15.416H2V16.916H3.5V15.416ZM20 15.416H18.5V16.916H20V15.416ZM20 13.916V10.166C20 9.56928 19.7629 8.99698 19.341 8.57503C18.919 8.15307 18.3467 7.91602 17.75 7.91602H4.25C3.65326 7.91602 3.08097 8.15307 2.65901 8.57503C2.23705 8.99698 2 9.56928 2 10.166V13.916H20ZM17.75 6.41602H18.17L16.475 1.91602H5.5175L3.83 6.41602H17.75ZM6.5 11.666H15.5V10.166H6.5V11.666Z" fill="#020617"/>
</svg>
