<svg width="24" height="25" viewBox="0 0 24 25" fill="none" xmlns="http://www.w3.org/2000/svg">
<path d="M19.5 1.41602C19.9925 1.41602 20.4801 1.51301 20.9351 1.70147C21.39 1.88992 21.8034 2.16615 22.1516 2.51437C22.4999 2.86259 22.7761 3.27598 22.9645 3.73095C23.153 4.18593 23.25 4.67356 23.25 5.16602C23.25 9.95852 22.05 15.0585 20.25 16.191V23.916H18.75V16.191C16.98 15.081 15.795 10.1385 15.75 5.42102V5.00102C15.7925 4.03533 16.2063 3.12336 16.905 2.4554C17.6037 1.78744 18.5334 1.41508 19.5 1.41602ZM12.75 1.41602V15.006C14.49 15.4185 15.75 17.256 15.75 19.416C15.75 21.8685 14.115 23.916 12 23.916C9.885 23.916 8.25 21.8685 8.25 19.416C8.25 17.2635 9.51 15.4185 11.25 15.006V1.41602H12.75ZM1.5 1.41602H2.25C5.6025 1.41602 7.4475 6.19352 7.5 15.291V16.416H3V23.916H1.5V1.41602ZM12 16.416C10.8 16.416 9.75 17.7285 9.75 19.416C9.75 21.1035 10.8 22.416 12 22.416C13.2 22.416 14.25 21.1035 14.25 19.416C14.25 17.7285 13.2 16.416 12 16.416ZM3 3.09602V14.916H6L5.985 14.196L5.9625 13.4835C5.7525 7.53602 4.68 4.13102 3.165 3.18602L3.075 3.14102L3 3.09602ZM17.25 5.03102V5.39852C17.2875 8.63852 18.0225 12.246 18.75 13.941V3.04352C18.3321 3.19037 17.9668 3.4573 17.7 3.81086C17.4332 4.16441 17.2766 4.58887 17.25 5.03102ZM20.25 3.04352V13.941C20.9925 12.2085 21.75 8.46602 21.75 5.16602C21.7502 4.70053 21.6061 4.24642 21.3375 3.86628C21.0688 3.48614 20.6889 3.19868 20.25 3.04352Z" fill="#020617"/>
</svg>
