<svg width="20" height="21" viewBox="0 0 20 21" fill="none" xmlns="http://www.w3.org/2000/svg">
<path d="M17.5 11.4993V13.9993C17.5 14.8834 17.1488 15.7312 16.5237 16.3564C15.8986 16.9815 15.0507 17.3327 14.1667 17.3327H5.83333C4.94928 17.3327 4.10143 16.9815 3.47631 16.3564C2.85119 15.7312 2.5 14.8834 2.5 13.9993V11.9993C2.5 11.8667 2.55268 11.7396 2.64645 11.6458C2.74021 11.552 2.86739 11.4993 3 11.4993H17.5ZM17.5 11.4993V6.49935C17.5 5.61529 17.1488 4.76745 16.5237 4.14233C15.8986 3.5172 15.0507 3.16602 14.1667 3.16602H10M13.3333 17.3327L14.1667 18.9993M6.66667 17.3327L5.83333 18.9993" stroke="#020617" stroke-width="1.25" stroke-linecap="round" stroke-linejoin="round"/>
<path d="M12.8333 7.33268H7.16667C6.89083 7.33268 6.67 7.10935 6.7 6.83435C6.82167 5.72852 7.38583 3.16602 10 3.16602C12.6142 3.16602 13.1783 5.72852 13.3 6.83435C13.33 7.10935 13.1092 7.33268 12.8333 7.33268Z" stroke="#020617" stroke-width="1.25" stroke-linecap="round" stroke-linejoin="round"/>
</svg>
