<svg width="20" height="21" viewBox="0 0 20 21" fill="none" xmlns="http://www.w3.org/2000/svg">
<path fill-rule="evenodd" clip-rule="evenodd" d="M2.5013 4.83398C2.70541 4.83401 2.90242 4.90895 3.05495 5.04458C3.20747 5.18021 3.30492 5.36711 3.3288 5.56982L3.33464 5.66732V11.5007H9.16797V7.33398C9.168 7.12987 9.24293 6.93287 9.37856 6.78034C9.5142 6.62781 9.70109 6.53037 9.9038 6.50648L10.0013 6.50065H15.8346C16.4723 6.50062 17.0859 6.74426 17.5499 7.18172C18.0138 7.61919 18.2931 8.21741 18.3305 8.85398L18.3346 9.00065V15.6673C18.3344 15.8797 18.2531 16.084 18.1073 16.2385C17.9615 16.3929 17.7622 16.4858 17.5501 16.4983C17.3381 16.5107 17.1293 16.4418 16.9664 16.3054C16.8036 16.1691 16.6989 15.9757 16.6738 15.7648L16.668 15.6673V13.1673H3.33464V15.6673C3.3344 15.8797 3.25307 16.084 3.10726 16.2385C2.96145 16.3929 2.76217 16.4858 2.55014 16.4983C2.3381 16.5107 2.12932 16.4418 1.96644 16.3054C1.80356 16.1691 1.69889 15.9757 1.6738 15.7648L1.66797 15.6673V5.66732C1.66797 5.4463 1.75577 5.23434 1.91205 5.07806C2.06833 4.92178 2.28029 4.83398 2.5013 4.83398ZM15.8346 8.16732H10.8346V11.5007H16.668V9.00065C16.668 8.77964 16.5802 8.56768 16.4239 8.4114C16.2676 8.25512 16.0556 8.16732 15.8346 8.16732ZM6.2513 6.50065C6.80384 6.50065 7.33374 6.72014 7.72444 7.11085C8.11514 7.50155 8.33464 8.03145 8.33464 8.58398C8.33464 9.13652 8.11514 9.66642 7.72444 10.0571C7.33374 10.4478 6.80384 10.6673 6.2513 10.6673C5.69877 10.6673 5.16886 10.4478 4.77816 10.0571C4.38746 9.66642 4.16797 9.13652 4.16797 8.58398C4.16797 8.03145 4.38746 7.50155 4.77816 7.11085C5.16886 6.72014 5.69877 6.50065 6.2513 6.50065ZM6.2513 8.16732C6.1408 8.16732 6.03481 8.21122 5.95667 8.28936C5.87853 8.3675 5.83464 8.47348 5.83464 8.58398C5.83464 8.69449 5.87853 8.80047 5.95667 8.87861C6.03481 8.95675 6.1408 9.00065 6.2513 9.00065C6.36181 9.00065 6.46779 8.95675 6.54593 8.87861C6.62407 8.80047 6.66797 8.69449 6.66797 8.58398C6.66797 8.47348 6.62407 8.3675 6.54593 8.28936C6.46779 8.21122 6.36181 8.16732 6.2513 8.16732Z" fill="#020617"/>
</svg>
