<svg width="24" height="25" viewBox="0 0 24 25" fill="none" xmlns="http://www.w3.org/2000/svg">
<path d="M18.75 1.41602C19.1291 1.41495 19.4945 1.55745 19.7728 1.81487C20.0511 2.07228 20.2216 2.42551 20.25 2.80352V22.416C20.2511 22.7951 20.1086 23.1605 19.8512 23.4388C19.5937 23.7171 19.2405 23.8876 18.8625 23.916H5.25001C4.87093 23.9171 4.5055 23.7746 4.22722 23.5172C3.94894 23.2598 3.77844 22.9065 3.75001 22.5285V2.91602C3.74894 2.53694 3.89144 2.17152 4.14885 1.89323C4.40626 1.61495 4.75949 1.44445 5.13751 1.41602H5.25001H18.75ZM18.75 8.91602H5.25001V22.416H18.75V8.91602ZM7.50001 10.416C7.69892 10.416 7.88968 10.495 8.03034 10.6357C8.17099 10.7763 8.25001 10.9671 8.25001 11.166C8.25001 11.3649 8.17099 11.5557 8.03034 11.6964C7.88968 11.837 7.69892 11.916 7.50001 11.916C7.30109 11.916 7.11033 11.837 6.96968 11.6964C6.82902 11.5557 6.75001 11.3649 6.75001 11.166C6.75001 10.9671 6.82902 10.7763 6.96968 10.6357C7.11033 10.495 7.30109 10.416 7.50001 10.416ZM18.75 2.91602H5.25001V7.41602H18.75V2.91602ZM7.50001 4.41602C7.69892 4.41602 7.88968 4.49504 8.03034 4.63569C8.17099 4.77634 8.25001 4.96711 8.25001 5.16602C8.25001 5.36493 8.17099 5.5557 8.03034 5.69635C7.88968 5.837 7.69892 5.91602 7.50001 5.91602C7.30109 5.91602 7.11033 5.837 6.96968 5.69635C6.82902 5.5557 6.75001 5.36493 6.75001 5.16602C6.75001 4.96711 6.82902 4.77634 6.96968 4.63569C7.11033 4.49504 7.30109 4.41602 7.50001 4.41602Z" fill="#020617"/>
</svg>
