<svg width="24" height="25" viewBox="0 0 24 25" fill="none" xmlns="http://www.w3.org/2000/svg">
<path d="M12.7491 1.41602V4.43852L15.7716 2.69852L16.5216 3.99602L12.7491 6.17102V11.3685L17.2491 8.76602V4.41602H18.7491V7.90352L21.3666 6.38852L22.1166 7.69352L19.4991 9.20102L22.5216 10.9485L21.7716 12.246L17.9991 10.071L13.4991 12.666L17.9991 15.261L21.7716 13.086L22.5216 14.3835L19.4991 16.131L22.1166 17.6385L21.3666 18.9435L18.7491 17.4285V20.916H17.2491V16.566L12.7491 13.9635V19.161L16.5216 21.336L15.7716 22.6335L12.7491 20.8935V23.916H11.2491V20.8935L8.22656 22.6335L7.47656 21.336L11.2491 19.161V13.9635L6.74906 16.566V20.916H5.24906V17.4285L2.63156 18.9435L1.88156 17.6385L4.49906 16.131L1.47656 14.3835L2.22656 13.086L5.99906 15.261L10.4991 12.666L5.99906 10.071L2.22656 12.246L1.47656 10.9485L4.49906 9.20102L1.88156 7.69352L2.63156 6.38852L5.24906 7.90352V4.41602H6.74906V8.76602L11.2491 11.3685V6.17102L7.47656 3.99602L8.22656 2.69852L11.2491 4.43852V1.41602H12.7491Z" fill="#020617"/>
</svg>
