<svg width="24" height="25" viewBox="0 0 24 25" fill="none" xmlns="http://www.w3.org/2000/svg">
<path d="M12 1.41602C12.4925 1.41602 12.9801 1.51301 13.4351 1.70147C13.89 1.88992 14.3034 2.16615 14.6517 2.51437C14.9999 2.86259 15.2761 3.27598 15.4645 3.73095C15.653 4.18593 15.75 4.67356 15.75 5.16602C16.7446 5.16602 17.6984 5.56111 18.4017 6.26437C19.1049 6.96763 19.5 7.92146 19.5 8.91602C19.5 9.91058 19.1049 10.8644 18.4017 11.5677C17.6984 12.2709 16.7446 12.666 15.75 12.666C15.7502 13.5305 15.4517 14.3685 14.905 15.0382C14.3583 15.7079 13.597 16.1681 12.75 16.341V19.5585C13.3912 18.803 14.1902 18.1973 15.0908 17.784C15.9914 17.3706 16.9716 17.1597 17.9625 17.166C18.9304 17.1637 19.8873 17.3709 20.7675 17.7735L21 17.886V19.6335C20.1132 19.0022 19.0511 18.6639 17.9625 18.666C16.7092 18.6434 15.4906 19.0777 14.5341 19.8878C13.5777 20.698 12.9488 21.8286 12.765 23.0685L12.75 23.181V23.256C12.7292 23.4231 12.6528 23.5783 12.533 23.6966C12.4133 23.815 12.2573 23.8896 12.09 23.9085L12 23.916C11.8315 23.9155 11.6681 23.8582 11.5361 23.7534C11.4041 23.6487 11.3113 23.5025 11.2725 23.3385L11.2575 23.2485C11.1016 21.9662 10.4752 20.7875 9.49967 19.9408C8.52413 19.0941 7.26896 18.6399 5.9775 18.666C4.91421 18.6631 3.87538 18.9849 3 19.5885V17.856C4.3714 17.1863 5.92674 16.9924 7.42061 17.3047C8.91448 17.6171 10.2618 18.418 11.25 19.581V16.341C10.43 16.1745 9.68934 15.7385 9.14572 15.1025C8.6021 14.4665 8.28681 13.6669 8.25 12.831V12.666H8.085C7.09044 12.666 6.13661 12.2709 5.43335 11.5677C4.73009 10.8644 4.335 9.91058 4.335 8.91602C4.335 7.92146 4.73009 6.96763 5.43335 6.26437C6.13661 5.56111 7.09044 5.16602 8.085 5.16602H8.25V5.00102C8.29253 4.03533 8.70632 3.12336 9.40502 2.4554C10.1037 1.78744 11.0334 1.41508 12 1.41602ZM14.145 11.991C13.5166 12.4319 12.7676 12.6684 12 12.6684C11.2324 12.6684 10.4834 12.4319 9.855 11.991L9.8025 12.1635C9.7274 12.493 9.7275 12.8352 9.80278 13.1647C9.87807 13.4941 10.0266 13.8024 10.2374 14.0666C10.4481 14.3308 10.7157 14.5441 11.0202 14.6907C11.3247 14.8373 11.6583 14.9135 11.9963 14.9135C12.3342 14.9135 12.6678 14.8373 12.9723 14.6907C13.2768 14.5441 13.5444 14.3308 13.7551 14.0666C13.9659 13.8024 14.1144 13.4941 14.1897 13.1647C14.265 12.8352 14.2651 12.493 14.19 12.1635L14.145 11.991ZM8.25 6.66602C7.93488 6.66877 7.62386 6.73769 7.33707 6.86831C7.05028 6.99893 6.79413 7.18834 6.58521 7.42426C6.37629 7.66018 6.21926 7.93736 6.12429 8.23784C6.02932 8.53832 5.99852 8.8554 6.0339 9.16854C6.06928 9.48168 6.17005 9.78389 6.32967 10.0556C6.48929 10.3273 6.70421 10.5625 6.9605 10.7458C7.21679 10.9292 7.50875 11.0567 7.81745 11.12C8.12615 11.1834 8.44471 11.1811 8.7525 11.1135L8.925 11.061C8.48499 10.4323 8.24931 9.68338 8.25 8.91602C8.25 8.12102 8.4975 7.37852 8.925 6.77102L8.7525 6.71852C8.58749 6.68227 8.41894 6.66466 8.25 6.66602ZM15.75 6.66602C15.5775 6.66602 15.4125 6.68852 15.2475 6.71852L15.075 6.77102C15.5025 7.37102 15.75 8.12102 15.75 8.91602C15.7507 9.68338 15.515 10.4323 15.075 11.061L15.2475 11.1135C15.5553 11.1811 15.8739 11.1834 16.1826 11.12C16.4913 11.0567 16.7832 10.9292 17.0395 10.7458C17.2958 10.5625 17.5107 10.3273 17.6703 10.0556C17.83 9.78389 17.9307 9.48168 17.9661 9.16854C18.0015 8.8554 17.9707 8.53832 17.8757 8.23784C17.7807 7.93736 17.6237 7.66018 17.4148 7.42426C17.2059 7.18834 16.9497 6.99893 16.6629 6.86831C16.3761 6.73769 16.0651 6.66877 15.75 6.66602ZM12 6.66602C11.7045 6.66602 11.4119 6.72422 11.139 6.83729C10.866 6.95036 10.6179 7.1161 10.409 7.32503C10.2001 7.53396 10.0343 7.782 9.92127 8.05498C9.8082 8.32796 9.75 8.62054 9.75 8.91602C9.75 9.21149 9.8082 9.50407 9.92127 9.77705C10.0343 10.05 10.2001 10.2981 10.409 10.507C10.6179 10.7159 10.866 10.8817 11.139 10.9947C11.4119 11.1078 11.7045 11.166 12 11.166C12.5967 11.166 13.169 10.929 13.591 10.507C14.0129 10.0851 14.25 9.51275 14.25 8.91602C14.25 8.31928 14.0129 7.74698 13.591 7.32503C13.169 6.90307 12.5967 6.66602 12 6.66602ZM12 2.91602C11.6615 2.91537 11.3271 2.99112 11.0219 3.13763C10.7167 3.28414 10.4485 3.49763 10.2373 3.7622C10.0261 4.02677 9.87729 4.33559 9.80201 4.66566C9.72672 4.99573 9.72689 5.33853 9.8025 5.66852L9.855 5.84102C10.4834 5.40018 11.2324 5.16366 12 5.16366C12.7676 5.16366 13.5166 5.40018 14.145 5.84102L14.1975 5.66852C14.2731 5.33853 14.2733 4.99573 14.198 4.66566C14.1227 4.33559 13.9739 4.02677 13.7627 3.7622C13.5515 3.49763 13.2833 3.28414 12.9781 3.13763C12.6729 2.99112 12.3385 2.91537 12 2.91602Z" fill="#020617"/>
</svg>
