<svg width="24" height="24" viewBox="0 0 24 24" fill="none" xmlns="http://www.w3.org/2000/svg">
<g clip-path="url(#clip0_1728_4210)">
<path d="M12.1875 4.50002C12.2747 4.55925 12.2747 4.55925 12.3615 4.63918C12.3939 4.669 12.4264 4.69882 12.4599 4.72954C12.6744 4.9356 12.8831 5.14706 13.0917 5.35915C13.2503 5.51944 13.4087 5.67665 13.5806 5.82277C13.9047 6.10134 14.1982 6.41448 14.4985 6.71818C14.8993 7.12347 14.8993 7.12347 15.3225 7.50487C15.5981 7.75143 15.8524 8.0222 16.1122 8.28508C16.4604 8.64116 16.4604 8.64116 16.8281 8.97658C17.1392 9.24133 17.4191 9.54166 17.706 9.83196C17.7853 9.91216 17.8648 9.99227 17.9443 10.0723C17.9697 10.0978 17.9951 10.1233 18.0213 10.1497C18.186 10.3142 18.3551 10.4708 18.535 10.6189C18.6457 10.721 18.738 10.8196 18.7703 10.9688C18.7704 10.9997 18.7704 11.0306 18.7705 11.0625C18.7719 11.1089 18.7719 11.1089 18.7733 11.1563C18.7379 11.299 18.6792 11.3483 18.5625 11.4375C18.4271 11.4539 18.31 11.4595 18.1751 11.4558C18.1379 11.4556 18.1007 11.4553 18.0624 11.455C17.9439 11.454 17.8255 11.4516 17.707 11.4492C17.6266 11.4483 17.5461 11.4474 17.4657 11.4467C17.2688 11.4446 17.0719 11.4414 16.875 11.4375C16.8752 11.4644 16.8754 11.4913 16.8755 11.519C16.8797 12.1731 16.8828 12.8272 16.8847 13.4813C16.8857 13.7977 16.887 14.114 16.8891 14.4303C16.8912 14.7355 16.8923 15.0406 16.8928 15.3458C16.8931 15.4623 16.8938 15.5789 16.8948 15.6954C16.8962 15.8584 16.8964 16.0213 16.8963 16.1843C16.897 16.2327 16.8976 16.2811 16.8983 16.331C16.8981 16.3754 16.8978 16.4199 16.8976 16.4657C16.8977 16.5042 16.8979 16.5427 16.8981 16.5825C16.8647 16.7346 16.8149 16.7856 16.6875 16.875C16.5556 16.8934 16.4421 16.9004 16.3103 16.8988C16.2528 16.8993 16.2528 16.8993 16.1942 16.8997C16.0657 16.9005 15.9372 16.8999 15.8086 16.8993C15.7165 16.8995 15.6244 16.8999 15.5323 16.9003C15.2821 16.9011 15.0318 16.9008 14.7816 16.9002C14.5199 16.8997 14.2583 16.9002 13.9966 16.9005C13.5571 16.9008 13.1177 16.9004 12.6782 16.8995C12.1699 16.8984 11.6615 16.8988 11.1532 16.8998C10.717 16.9007 10.2809 16.9008 9.8447 16.9003C9.58407 16.9 9.32344 16.9 9.06281 16.9006C8.8178 16.9011 8.57281 16.9007 8.3278 16.8997C8.23777 16.8994 8.14775 16.8995 8.05773 16.8999C7.93503 16.9004 7.81239 16.8998 7.6897 16.8988C7.636 16.8995 7.636 16.8995 7.58121 16.9001C7.42219 16.8977 7.32817 16.886 7.19659 16.7936C7.11432 16.6717 7.1018 16.6115 7.10246 16.4657C7.1022 16.4212 7.10194 16.3768 7.10168 16.331C7.10235 16.2826 7.10302 16.2342 7.10372 16.1843C7.10369 16.1331 7.10366 16.0818 7.10364 16.029C7.10377 15.8596 7.10523 15.6902 7.10669 15.5208C7.10704 15.4033 7.10731 15.2859 7.1075 15.1685C7.10814 14.8909 7.10962 14.6133 7.1115 14.3358C7.1138 13.9887 7.11481 13.6416 7.11585 13.2946C7.11786 12.6755 7.12103 12.0565 7.12501 11.4375C7.07487 11.4385 7.02473 11.4395 6.97307 11.4405C6.78683 11.4439 6.60059 11.446 6.41433 11.4478C6.33376 11.4488 6.25319 11.45 6.17263 11.4517C6.05673 11.4539 5.94087 11.455 5.82496 11.4558C5.77104 11.4573 5.77104 11.4573 5.71603 11.4588C5.5519 11.4588 5.45626 11.4511 5.32155 11.3536C5.23521 11.2286 5.2146 11.1265 5.22382 10.9748C5.30263 10.6744 5.61569 10.4648 5.83594 10.2658C6.13872 9.99016 6.42731 9.70157 6.71485 9.41017C7.24474 8.87327 7.24474 8.87327 7.44947 8.69899C7.73247 8.45736 7.98863 8.18637 8.25001 7.92189C8.84219 7.32268 8.84219 7.32268 9.13422 7.07411C9.38142 6.85267 9.61055 6.61099 9.84376 6.37502C10.4447 5.76692 10.4447 5.76692 10.737 5.51822C10.9308 5.34665 11.1095 5.15896 11.291 4.97463C11.3699 4.89456 11.4489 4.8146 11.528 4.73476C11.5624 4.69978 11.5968 4.6648 11.6323 4.62876C11.7951 4.47461 11.9719 4.45413 12.1875 4.50002ZM11.7935 5.60597C11.7445 5.65165 11.7445 5.65165 11.6946 5.69826C11.4428 5.9453 11.1933 6.19449 10.9453 6.44533C10.3268 7.07086 10.3268 7.07086 10.0368 7.31737C9.78983 7.53843 9.56106 7.77995 9.32813 8.01564C8.73594 8.61486 8.73594 8.61486 8.44391 8.86342C8.19671 9.08486 7.96759 9.32654 7.73438 9.56252C7.62808 9.67008 7.52167 9.77753 7.41504 9.88478C7.38966 9.91031 7.36428 9.93585 7.33813 9.96216C7.17337 10.1267 7.00426 10.2833 6.82435 10.4314C6.73998 10.5093 6.67572 10.594 6.60938 10.6875C6.6413 10.6882 6.67323 10.6889 6.70612 10.6896C6.85066 10.6931 6.99514 10.6976 7.13965 10.7022C7.1899 10.7032 7.24014 10.7043 7.29191 10.7054C7.36419 10.7079 7.36419 10.7079 7.43793 10.7104C7.50458 10.7122 7.50458 10.7122 7.57257 10.7141C7.7075 10.7379 7.74903 10.7645 7.82813 10.875C7.87052 11.0112 7.88126 11.1351 7.88242 11.2773C7.88288 11.3201 7.88334 11.363 7.88381 11.4071C7.88422 11.4771 7.88422 11.4771 7.88463 11.5485C7.88509 11.5979 7.88556 11.6473 7.88604 11.6982C7.88752 11.8616 7.88868 12.0249 7.88984 12.1882C7.8908 12.3015 7.89179 12.4147 7.89279 12.528C7.89538 12.826 7.89769 13.1241 7.89995 13.4222C7.90272 13.7798 7.90583 14.1374 7.90887 14.495C7.91347 15.0384 7.91763 15.5817 7.92188 16.125C8.71079 16.125 9.49969 16.125 10.3125 16.125C10.3143 15.8424 10.316 15.5598 10.3178 15.2686C10.3192 15.0898 10.3207 14.911 10.3223 14.7322C10.3249 14.4483 10.3272 14.1644 10.3287 13.8804C10.33 13.6515 10.3319 13.4227 10.3342 13.1938C10.335 13.1064 10.3355 13.019 10.3358 12.9316C10.3363 12.8094 10.3376 12.6872 10.3391 12.5649C10.339 12.5105 10.339 12.5105 10.3389 12.4549C10.3413 12.3197 10.3445 12.2134 10.4129 12.0948C10.5405 12.0246 10.6439 12.029 10.7891 12.0287C10.8487 12.0283 10.9083 12.0278 10.9697 12.0274C11.0348 12.0276 11.0999 12.0279 11.165 12.0282C11.2318 12.0281 11.2985 12.028 11.3652 12.0278C11.505 12.0276 11.6448 12.0279 11.7846 12.0286C11.9639 12.0294 12.1431 12.0289 12.3223 12.0281C12.4601 12.0275 12.5978 12.0277 12.7356 12.0281C12.8017 12.0282 12.8678 12.0281 12.9338 12.0277C13.0262 12.0274 13.1185 12.028 13.2109 12.0287C13.2634 12.0288 13.316 12.0289 13.3701 12.029C13.5 12.0469 13.5 12.0469 13.5855 12.1066C13.7163 12.2985 13.6954 12.5159 13.6971 12.7405C13.6976 12.7771 13.6981 12.8137 13.6985 12.8515C13.7 12.9722 13.7012 13.0929 13.7023 13.2136C13.7033 13.2974 13.7043 13.3813 13.7053 13.4651C13.7079 13.6855 13.7102 13.9059 13.7125 14.1262C13.7152 14.3908 13.7183 14.6553 13.7214 14.9199C13.726 15.3216 13.7301 15.7233 13.7344 16.125C14.5233 16.125 15.3122 16.125 16.125 16.125C16.1268 15.7477 16.1285 15.3703 16.1303 14.9815C16.1317 14.7429 16.1332 14.5043 16.1348 14.2657C16.1374 13.8867 16.1398 13.5077 16.1412 13.1287C16.1424 12.8232 16.1444 12.5178 16.1467 12.2123C16.1475 12.0956 16.148 11.9789 16.1483 11.8622C16.1488 11.6991 16.1501 11.536 16.1516 11.3729C16.1515 11.3243 16.1515 11.2757 16.1514 11.2257C16.152 11.1813 16.1526 11.1369 16.1532 11.0912C16.1534 11.0527 16.1536 11.0141 16.1538 10.9743C16.1762 10.8511 16.2138 10.8095 16.3125 10.7344C16.4274 10.7141 16.4274 10.7141 16.5621 10.7104C16.6344 10.7079 16.6344 10.7079 16.7081 10.7054C16.7583 10.7043 16.8086 10.7033 16.8604 10.7022C16.9111 10.7006 16.9619 10.699 17.0143 10.6973C17.1397 10.6934 17.2651 10.6902 17.3906 10.6875C17.2094 10.4672 17.0192 10.2691 16.8076 10.0781C16.4296 9.73178 16.0689 9.36869 15.7088 9.00395C15.4352 8.72724 15.4352 8.72724 15.1463 8.46663C14.8338 8.19934 14.5516 7.89785 14.2628 7.60558C13.9151 7.24989 13.9151 7.24989 13.5476 6.91518C13.3767 6.76985 13.22 6.61272 13.0627 6.45302C13.0233 6.41299 13.0233 6.41299 12.983 6.37215C12.8734 6.26083 12.7639 6.14937 12.6549 6.03748C12.5744 5.95498 12.4934 5.87292 12.4124 5.79091C12.3756 5.75283 12.3756 5.75283 12.3381 5.71398C12.2446 5.61984 12.1607 5.54067 12.0399 5.484C11.9183 5.48455 11.8817 5.52306 11.7935 5.60597ZM11.1094 12.75C11.1094 13.8638 11.1094 14.9775 11.1094 16.125C11.7127 16.125 12.3159 16.125 12.9375 16.125C12.9375 15.0113 12.9375 13.8975 12.9375 12.75C12.3342 12.75 11.7309 12.75 11.1094 12.75Z" fill="#222222"/>
<path d="M19.849 17.2903C20.1226 17.4421 20.3389 17.704 20.4375 18C20.4668 18.3776 20.4863 18.7205 20.25 19.0312C20.0088 19.2714 19.737 19.4597 19.4502 19.6406C19.3671 19.6938 19.2841 19.747 19.201 19.8003C19.1364 19.8415 19.1364 19.8415 19.0704 19.8836C18.8455 20.0277 18.622 20.1741 18.3984 20.3203C18.0627 20.5394 17.7268 20.7582 17.3906 20.9765C16.9203 21.2821 16.4505 21.5885 15.9808 21.8949C15.8451 21.9835 15.7094 22.072 15.5737 22.1605C15.5293 22.1895 15.4848 22.2184 15.4391 22.2483C15.3496 22.3066 15.2602 22.3649 15.1707 22.4233C14.9418 22.5725 14.7131 22.7218 14.4846 22.8715C14.0797 23.1365 13.6746 23.4014 13.2656 23.6601C13.2368 23.6786 13.2079 23.6971 13.1781 23.7161C12.7487 23.9854 12.3581 24.0895 11.8594 24C11.4362 23.8846 11.0286 23.7186 10.6208 23.5582C10.4668 23.498 10.3121 23.4392 10.1575 23.3802C9.85632 23.2651 9.55568 23.1485 9.25519 23.0315C8.95361 22.9142 8.65143 22.7985 8.34923 22.6828C8.21905 22.633 8.08908 22.5827 7.95926 22.532C7.49927 22.3535 7.1038 22.2527 6.60938 22.2363C6.56413 22.2345 6.51887 22.2327 6.47224 22.2308C6.36171 22.2264 6.25118 22.2224 6.14063 22.2187C6.12758 22.2552 6.11453 22.2917 6.10108 22.3293C6.02233 22.5092 5.89197 22.6009 5.71876 22.6875C5.59555 22.6938 5.47364 22.6974 5.35035 22.6986C5.31369 22.699 5.27704 22.6994 5.23927 22.6998C5.16157 22.7004 5.08386 22.7009 5.00616 22.7013C4.88783 22.7021 4.76956 22.7042 4.65125 22.7062C4.57569 22.7067 4.50013 22.7071 4.42457 22.7074C4.3894 22.7083 4.35424 22.7091 4.318 22.7099C4.07291 22.7089 3.93526 22.6596 3.75001 22.5C3.57111 22.2801 3.53529 22.1058 3.53825 21.8298C3.53792 21.7918 3.53759 21.7538 3.53725 21.7147C3.53643 21.5897 3.53697 21.4648 3.53761 21.3398C3.53748 21.2526 3.5373 21.1654 3.53706 21.0782C3.53679 20.8957 3.53719 20.7132 3.53806 20.5307C3.53913 20.2971 3.53852 20.0635 3.53739 19.8299C3.53672 19.6499 3.53693 19.4699 3.53742 19.2899C3.53754 19.2038 3.53739 19.1177 3.53695 19.0316C3.53648 18.9111 3.53721 18.7906 3.53825 18.6701C3.53787 18.6348 3.53749 18.5994 3.5371 18.563C3.54095 18.3218 3.59862 18.186 3.75001 18C3.96437 17.8164 4.14379 17.7846 4.41798 17.7876C4.45437 17.7874 4.49076 17.7872 4.52825 17.787C4.60484 17.7869 4.68142 17.7872 4.758 17.788C4.87469 17.789 4.99124 17.788 5.10792 17.7868C5.18263 17.787 5.25733 17.7872 5.33204 17.7876C5.38391 17.787 5.38391 17.787 5.43682 17.7864C5.67843 17.7908 5.8132 17.8493 6.00001 18C6.01984 18.0263 6.03967 18.0525 6.0601 18.0796C6.14112 18.1549 6.14112 18.1549 6.27026 18.1308C6.32279 18.118 6.37532 18.1052 6.42944 18.092C6.4891 18.0779 6.54876 18.0638 6.61022 18.0493C6.64215 18.0414 6.67407 18.0334 6.70696 18.0252C6.80742 18.0003 6.90807 17.9763 7.00884 17.9526C7.22357 17.9019 7.43797 17.85 7.65235 17.7978C7.89904 17.7378 8.14584 17.6784 8.39296 17.6203C8.49102 17.5969 8.58882 17.5726 8.68664 17.5483C9.23405 17.4161 9.81568 17.3173 10.3332 17.5924C10.3838 17.6171 10.3838 17.6171 10.4354 17.6422C10.5445 17.6958 10.6526 17.7512 10.7608 17.8066C10.8376 17.8448 10.9146 17.8828 10.9916 17.9206C11.1522 17.9997 11.3124 18.0794 11.4726 18.1595C11.7193 18.2822 11.9681 18.4001 12.2177 18.5169C12.2582 18.5358 12.2986 18.5548 12.3403 18.5743C12.4975 18.6479 12.6548 18.7214 12.8122 18.7948C12.9203 18.8453 13.0284 18.8962 13.1364 18.9472C13.1677 18.9617 13.1991 18.9763 13.2314 18.9913C13.5843 19.1584 13.8721 19.3265 14.1094 19.6406C14.1403 19.6715 14.1713 19.7025 14.2031 19.7343C14.3722 19.6505 14.5411 19.5665 14.71 19.4824C14.7562 19.4595 14.8024 19.4366 14.85 19.413C15.1495 19.2637 15.4465 19.1102 15.7423 18.9538C16.223 18.6997 16.7068 18.452 17.1912 18.2051C17.3357 18.1315 17.4801 18.0577 17.6246 17.9839C17.8085 17.89 17.9927 17.7964 18.1769 17.703C18.3265 17.627 18.4754 17.5502 18.6237 17.4717C18.6534 17.4562 18.6831 17.4407 18.7137 17.4248C18.789 17.3855 18.864 17.3456 18.939 17.3057C19.2313 17.1886 19.552 17.1859 19.849 17.2903ZM18.8311 18.2547C18.7889 18.2764 18.7467 18.2982 18.7032 18.3206C18.5652 18.3919 18.4276 18.464 18.29 18.5361C18.1943 18.5857 18.0985 18.6353 18.0028 18.6849C17.8104 18.7845 17.6181 18.8843 17.426 18.9845C17.1582 19.1241 16.8899 19.2625 16.6212 19.4003C16.4642 19.4809 16.3073 19.5616 16.1508 19.6432C15.8754 19.7865 15.5995 19.9278 15.3191 20.0611C15.1925 20.1214 15.0665 20.183 14.9406 20.2447C14.8818 20.273 14.8228 20.3007 14.7634 20.3278C14.3776 20.5037 14.1845 20.6592 14.0283 21.0594C13.9358 21.2584 13.7837 21.3663 13.5938 21.4687C13.0989 21.6337 12.6513 21.4695 12.1992 21.2636C12.138 21.2367 12.0767 21.2098 12.0153 21.1831C11.8812 21.1244 11.7473 21.065 11.6136 21.0052C11.3685 20.8959 11.1218 20.7903 10.8752 20.6845C10.7436 20.6278 10.6121 20.571 10.4806 20.5141C10.3942 20.4768 10.3078 20.4396 10.2214 20.4025C10.0995 20.3501 9.97792 20.2971 9.85639 20.2439C9.81993 20.2284 9.78347 20.2128 9.74591 20.1968C9.55946 20.1145 9.40765 20.0416 9.28126 19.875C9.26575 19.6981 9.272 19.5746 9.32813 19.4062C9.71587 19.3244 9.954 19.4169 10.3083 19.5791C10.3611 19.6023 10.4138 19.6255 10.4682 19.6494C10.6364 19.7237 10.8041 19.7993 10.9717 19.875C11.0831 19.9244 11.1945 19.9738 11.3059 20.0231C11.695 20.1955 12.084 20.3681 12.4706 20.5459C12.505 20.5615 12.5395 20.5771 12.575 20.5932C12.6626 20.633 12.7499 20.6733 12.8372 20.7136C12.9918 20.7682 13.1031 20.7811 13.2656 20.7656C13.3849 20.6751 13.4453 20.588 13.466 20.438C13.4683 20.3841 13.4683 20.3841 13.4707 20.3291C13.4742 20.2757 13.4742 20.2757 13.4777 20.2212C13.4407 20.0528 13.3551 19.971 13.2188 19.875C13.0299 19.7729 12.8348 19.6865 12.6387 19.5996C12.5203 19.5461 12.4022 19.4923 12.284 19.4384C12.2534 19.4245 12.2227 19.4106 12.1911 19.3963C11.8082 19.2221 11.4305 19.0373 11.0524 18.8529C11.0092 18.8319 11.0092 18.8319 10.9651 18.8104C10.9224 18.7896 10.9224 18.7896 10.8788 18.7684C10.7942 18.7273 10.7095 18.6864 10.6248 18.6456C10.5049 18.5879 10.3858 18.5286 10.267 18.4687C10.2054 18.4383 10.1437 18.4079 10.082 18.3775C10.0273 18.3501 9.97259 18.3227 9.91623 18.2944C9.49445 18.142 9.07262 18.2911 8.65138 18.3882C8.58151 18.404 8.51163 18.4197 8.44174 18.4354C8.25888 18.4767 8.07612 18.5184 7.89339 18.5603C7.67355 18.6105 7.45358 18.6601 7.23363 18.7099C6.90044 18.7853 6.56743 18.8614 6.23438 18.9375C6.23438 19.7573 6.23438 20.5772 6.23438 21.4218C6.55923 21.4373 6.88407 21.4528 7.21876 21.4687C7.72927 21.5623 8.20823 21.76 8.69239 21.9433C8.78002 21.9763 8.86767 22.0092 8.95532 22.042C9.18753 22.1292 9.4196 22.2168 9.65163 22.3045C9.84954 22.3792 10.0475 22.4537 10.2455 22.5282C10.4876 22.6193 10.7297 22.7105 10.9717 22.8017C11.0182 22.8193 11.0647 22.8368 11.1127 22.8549C11.244 22.9044 11.3753 22.954 11.5065 23.0037C11.5458 23.0185 11.5851 23.0333 11.6255 23.0486C11.8954 23.1508 11.8954 23.1508 12 23.2031C12.265 23.2685 12.4732 23.2174 12.7055 23.0782C12.8372 22.9937 12.967 22.9067 13.0961 22.8183C13.2373 22.7216 13.3797 22.6266 13.5222 22.5318C13.5765 22.4957 13.6308 22.4596 13.685 22.4234C13.7261 22.3961 13.7261 22.3961 13.768 22.3682C13.852 22.3122 13.9358 22.2561 14.0197 22.1999C14.2969 22.0142 14.5748 21.8306 14.8594 21.6562C15.1984 21.4484 15.5282 21.2272 15.8584 21.0058C16.2517 20.7421 16.647 20.4827 17.049 20.2323C17.4093 20.0065 17.7619 19.7694 18.1148 19.5324C18.4664 19.2964 18.819 19.0633 19.1834 18.8475C19.3606 18.7404 19.5047 18.6253 19.6406 18.4687C19.6678 18.2746 19.6568 18.2118 19.5469 18.0468C19.2726 17.9968 19.0658 18.1304 18.8311 18.2547ZM4.35938 18.5625C4.35938 19.6762 4.35938 20.79 4.35938 21.9375C4.71516 21.9375 5.07095 21.9375 5.43751 21.9375C5.43751 20.8237 5.43751 19.71 5.43751 18.5625C5.08173 18.5625 4.72595 18.5625 4.35938 18.5625Z" fill="black"/>
<path d="M18.3836 0.458936C19.0407 0.896445 19.5072 1.59338 19.669 2.36644C19.7618 2.95795 19.7482 3.62305 19.5 4.17188C19.4778 4.22209 19.4555 4.27231 19.4326 4.32404C19.0562 5.09227 18.4298 5.61665 17.625 5.90626C16.8085 6.14327 15.9097 6.04876 15.1679 5.64658C14.4835 5.25036 13.9764 4.6097 13.7546 3.84569C13.546 3.00878 13.6629 2.13308 14.0925 1.39142C14.544 0.659394 15.2151 0.256326 16.0255 0.0213716C16.8381 -0.153105 17.6881 0.0300829 18.3836 0.458936ZM14.981 1.54981C14.5196 2.1107 14.4157 2.7153 14.4844 3.42188C14.5895 3.97859 14.9323 4.47844 15.375 4.82813C15.9733 5.18712 16.5893 5.3046 17.2745 5.1709C17.8132 5.00474 18.3055 4.65727 18.6013 4.17188C18.9082 3.57603 19.0154 2.92201 18.8145 2.27051C18.5763 1.66797 18.1615 1.22412 17.5778 0.946478C16.6374 0.572049 15.6721 0.819591 14.981 1.54981Z" fill="#222222"/>
<path d="M9.00861 0.458936C9.66566 0.896445 10.1322 1.59338 10.294 2.36644C10.3868 2.95795 10.3732 3.62305 10.125 4.17188C10.1028 4.22209 10.0805 4.27231 10.0576 4.32404C9.6812 5.09227 9.05483 5.61665 8.25 5.90626C7.43352 6.14327 6.53467 6.04876 5.79292 5.64658C5.10851 5.25036 4.60138 4.6097 4.3796 3.84569C4.17104 3.00878 4.28789 2.13308 4.71753 1.39142C5.16901 0.659394 5.84011 0.256326 6.65048 0.0213716C7.46315 -0.153105 8.31315 0.0300829 9.00861 0.458936ZM5.60596 1.54981C5.14458 2.1107 5.0407 2.7153 5.10938 3.42188C5.21446 3.97859 5.55726 4.47844 6 4.82813C6.59832 5.18712 7.21435 5.3046 7.89954 5.1709C8.43817 5.00474 8.93053 4.65727 9.22632 4.17188C9.53318 3.57603 9.64043 2.92201 9.43945 2.27051C9.20126 1.66797 8.78652 1.22412 8.20276 0.946478C7.26239 0.572049 6.29706 0.819591 5.60596 1.54981Z" fill="#222222"/>
<path d="M2.67187 5.90625C2.74273 5.961 2.74273 5.961 2.81543 6.02929C3.26675 6.45202 3.86545 6.60904 4.46557 6.64013C4.59477 6.65638 4.67287 6.67902 4.78125 6.75C5.05594 7.16204 4.91219 8.04317 4.81965 8.51584C4.55372 9.67204 3.94035 10.6846 2.94433 11.3525C2.91819 11.3707 2.89205 11.3888 2.86512 11.4075C2.64763 11.5457 2.49928 11.5581 2.25 11.5312C1.87063 11.3687 1.56052 11.0629 1.26562 10.7812C1.22239 10.7433 1.22239 10.7433 1.17828 10.7045C0.472483 10.0604 0.0454538 8.95141 -0.00830078 8.01111C-0.0113976 7.8466 -0.0133478 7.68212 -0.0146523 7.51758C-0.0160118 7.46005 -0.0173714 7.40253 -0.0187721 7.34326C-0.0191649 7.28803 -0.0195576 7.2328 -0.0199623 7.1759C-0.0206459 7.12565 -0.0213294 7.0754 -0.0220337 7.02363C0.00526708 6.8588 0.0590051 6.80613 0.187496 6.70312C0.304866 6.64444 0.415032 6.642 0.544266 6.63076C1.10972 6.57924 1.54513 6.42024 2.00372 6.07727C2.24535 5.90055 2.37036 5.81787 2.67187 5.90625ZM2.39062 6.79687C2.30128 6.84585 2.30128 6.84585 2.20898 6.91992C1.78772 7.21419 1.29323 7.34312 0.796871 7.45312C0.735127 8.43931 1.0889 9.37941 1.73437 10.125C1.96598 10.3613 2.18275 10.5476 2.48437 10.6875C3.35072 9.99284 3.92725 9.18679 4.07812 8.0625C4.08118 7.95512 4.08215 7.84765 4.08105 7.74023C4.08063 7.68621 4.0802 7.63219 4.07977 7.57654C4.07923 7.53581 4.07868 7.49508 4.07812 7.45312C4.05125 7.44632 4.02437 7.43952 3.99669 7.43251C3.50896 7.30696 3.05788 7.18888 2.63342 6.91022C2.52981 6.8367 2.52981 6.8367 2.39062 6.79687Z" fill="black"/>
<path d="M23.3399 7.03196C23.9508 7.50143 23.9508 7.50143 24.0265 7.78782C24.0354 7.94227 24.0089 8.04769 23.9297 8.17966C23.7664 8.27761 23.6202 8.29168 23.4375 8.24998C23.3262 8.15623 23.3262 8.15623 23.2031 8.0156C22.6215 7.49011 21.9301 7.17282 21.1406 7.17185C20.4784 7.21348 19.9275 7.42029 19.4062 7.8281C19.341 7.87741 19.341 7.87741 19.2744 7.92771C19.165 8.01664 19.165 8.01664 19.0635 8.14451C18.9345 8.25248 18.9057 8.26841 18.7471 8.27634C18.5625 8.24998 18.5625 8.24998 18.4453 8.17966C18.3661 8.04769 18.3396 7.94227 18.3484 7.78782C18.4029 7.58198 18.5508 7.45349 18.7031 7.31248C18.736 7.28154 18.769 7.2506 18.8029 7.21873C20.0891 6.10442 21.966 6.08291 23.3399 7.03196Z" fill="#222222"/>
<path d="M17.1094 1.1719C17.2471 1.26858 17.2471 1.26858 17.3437 1.40627C17.3973 1.73485 17.2449 1.92189 17.0625 2.17678C17.0357 2.21554 17.0088 2.25431 16.9812 2.29424C16.9152 2.38937 16.8486 2.48396 16.7812 2.57815C16.8366 2.57652 16.8919 2.57489 16.949 2.57321C17.022 2.57189 17.095 2.57061 17.168 2.56936C17.2044 2.56818 17.2408 2.567 17.2784 2.56579C17.4404 2.56371 17.5486 2.56263 17.6938 2.63894C17.7883 2.744 17.8218 2.84158 17.8306 2.98208C17.7939 3.20832 17.6437 3.37616 17.51 3.55646C17.421 3.67901 17.3357 3.80383 17.2504 3.92892C17.1829 4.0275 17.1154 4.12607 17.0478 4.22463C16.9982 4.29724 16.9982 4.29724 16.9476 4.37131C16.9003 4.43956 16.9003 4.43956 16.8521 4.50918C16.8097 4.57082 16.8097 4.57082 16.7663 4.63371C16.6517 4.78014 16.5735 4.8247 16.3887 4.84866C16.2187 4.82815 16.2187 4.82815 16.081 4.73147C15.9568 4.55448 15.9582 4.47949 15.9844 4.26565C16.0552 4.12593 16.1452 4.00386 16.2392 3.87893C16.2872 3.81336 16.335 3.74768 16.3826 3.68191C16.404 3.65331 16.4253 3.62472 16.4473 3.59525C16.5086 3.51013 16.5086 3.51013 16.5469 3.37502C16.4799 3.37747 16.4799 3.37747 16.4115 3.37997C16.3528 3.38124 16.294 3.38251 16.2334 3.38381C16.1461 3.38626 16.1461 3.38626 16.0571 3.38876C15.8791 3.37407 15.7962 3.34257 15.6562 3.2344C15.552 3.07803 15.5496 3.00506 15.5782 2.82266C15.6377 2.6243 15.7649 2.47307 15.8906 2.31155C15.9462 2.23768 16.0018 2.16376 16.0572 2.08981C16.0847 2.05365 16.1121 2.01749 16.1403 1.98024C16.2861 1.78461 16.4204 1.58117 16.556 1.37844C16.7165 1.16451 16.8516 1.14079 17.1094 1.1719Z" fill="#222222"/>
<path d="M22.6725 8.30967C22.9883 8.54466 22.9883 8.54466 23.0625 8.76267C23.0625 8.9399 23.0154 9.03848 22.9219 9.18748C22.7635 9.26666 22.6223 9.27329 22.4531 9.23435C22.3152 9.14828 22.1898 9.05141 22.0611 8.95219C21.6843 8.66915 21.2667 8.67879 20.8125 8.71873C20.5354 8.78055 20.3428 8.90135 20.127 9.08201C19.99 9.19474 19.8991 9.25829 19.7197 9.26658C19.5469 9.23435 19.5469 9.23435 19.4326 9.15818C19.3419 9.02032 19.3159 8.93077 19.3125 8.7656C19.444 8.39934 19.8912 8.18199 20.2194 8.01762C21.0305 7.69867 21.9612 7.82237 22.6725 8.30967Z" fill="black"/>
<path d="M8.2423 1.66865C8.34374 1.68751 8.34374 1.68751 8.46386 1.77833C8.5547 1.97187 8.55861 2.13331 8.53124 2.34376C8.50659 2.40467 8.50659 2.40467 8.48143 2.4668C8.40359 2.664 8.46629 2.85203 8.53124 3.04688C8.57362 3.44569 8.52436 3.92691 8.28002 4.25831C8.15182 4.34866 8.03496 4.33757 7.88268 4.33137C7.78124 4.31251 7.78124 4.31251 7.66112 4.22169C7.57028 4.02815 7.56637 3.8667 7.59374 3.65626C7.61018 3.61565 7.62661 3.57505 7.64354 3.53321C7.72139 3.33601 7.65869 3.14798 7.59374 2.95313C7.55136 2.55432 7.60062 2.07311 7.84496 1.74171C7.97316 1.65136 8.09002 1.66245 8.2423 1.66865Z" fill="#222222"/>
<path d="M6.7423 1.66865C6.84374 1.68751 6.84374 1.68751 6.96386 1.77833C7.0547 1.97187 7.05861 2.13331 7.03124 2.34376C7.00659 2.40467 7.00659 2.40467 6.98143 2.4668C6.90359 2.664 6.96629 2.85203 7.03124 3.04688C7.07362 3.44569 7.02436 3.92691 6.78002 4.25831C6.65182 4.34866 6.53496 4.33757 6.38268 4.33137C6.28124 4.31251 6.28124 4.31251 6.16112 4.22169C6.07028 4.02815 6.06637 3.8667 6.09374 3.65626C6.11018 3.61565 6.12661 3.57505 6.14354 3.53321C6.22139 3.33601 6.15869 3.14798 6.09374 2.95313C6.05136 2.55432 6.10062 2.07311 6.34496 1.74171C6.47316 1.65136 6.59002 1.66245 6.7423 1.66865Z" fill="#222222"/>
<path d="M21.5156 9.37502C21.705 9.45905 21.8893 9.55983 21.9844 9.75002C22.0074 9.95314 22.0068 10.0463 21.8877 10.2158C21.7171 10.3356 21.6264 10.339 21.4219 10.3125C21.3755 10.2816 21.3291 10.2506 21.2812 10.2188C21.1578 10.2338 21.0644 10.2569 20.9531 10.3125C20.75 10.3355 20.6569 10.3349 20.4873 10.2158C20.3906 10.0781 20.3906 10.0781 20.3613 9.91408C20.4051 9.6691 20.5348 9.57989 20.7307 9.44039C20.9774 9.31508 21.2469 9.33731 21.5156 9.37502Z" fill="#222222"/>
</g>
<defs>
<clipPath id="clip0_1728_4210">
<rect width="24" height="24" fill="white"/>
</clipPath>
</defs>
</svg>
