<svg width="24" height="25" viewBox="0 0 24 25" fill="none" xmlns="http://www.w3.org/2000/svg">
<path d="M22.5 14.916V20.916H21V14.916H22.5ZM19.5 14.916V20.916H2.25001C1.87093 20.9171 1.5055 20.7746 1.22722 20.5172C0.948936 20.2598 0.778436 19.9065 0.750006 19.5285V16.416C0.748938 16.0369 0.891439 15.6715 1.14885 15.3932C1.40626 15.115 1.75949 14.9444 2.13751 14.916H2.25001H19.5ZM18 16.416H2.25001V19.416H18V16.416ZM15.75 2.91602C16.2904 2.91517 16.8211 3.06033 17.2858 3.33616C17.7506 3.61199 18.1322 4.00824 18.3903 4.48305C18.6485 4.95785 18.7736 5.49357 18.7524 6.03359C18.7312 6.57362 18.5645 7.09789 18.27 7.55102L18.195 7.65602L18.2925 7.68602C19.4826 8.05972 20.5267 8.79508 21.2795 9.7898C22.0322 10.7845 22.4562 11.9891 22.4925 13.236L22.5 13.416H21C21.0008 12.2506 20.5494 11.1303 19.7408 10.291C18.9323 9.45166 17.8297 8.95875 16.665 8.91602H15.75V7.41602C16.1478 7.43094 16.5353 7.28721 16.8271 7.01645C17.119 6.7457 17.2913 6.37009 17.3063 5.97227C17.3212 5.57444 17.1774 5.18699 16.9067 4.89513C16.6359 4.60328 16.2603 4.43094 15.8625 4.41602H15.75V2.91602ZM12.75 2.91602V4.41602C11.9544 4.39613 11.1834 4.69312 10.6067 5.24167C10.03 5.79021 9.6949 6.54537 9.675 7.34102C9.65511 8.13667 9.95211 8.90763 10.5007 9.48431C11.0492 10.061 11.8044 10.3961 12.6 10.416H16.5C17.2703 10.4151 18.0115 10.7105 18.57 11.241C19.1285 11.7716 19.4615 12.4967 19.5 13.266V13.416H18C18.0011 13.0369 17.8586 12.6715 17.6012 12.3932C17.3437 12.1149 16.9905 11.9444 16.6125 11.916H12.75C11.5565 11.9389 10.4029 11.4867 9.54276 10.659C8.68267 9.83125 8.18663 8.69574 8.16376 7.50227C8.14088 6.30879 8.59305 5.15512 9.42079 4.29503C10.2485 3.43494 11.384 2.93889 12.5775 2.91602H12.75Z" fill="#020617"/>
</svg>
