<svg width="24" height="24" viewBox="0 0 24 24" fill="none" xmlns="http://www.w3.org/2000/svg">
<g clip-path="url(#clip0_164_10791)">
<path d="M11.089 1.88606C11.8904 2.56194 12.4882 3.53898 12.6095 4.59309C12.7083 5.9291 12.4245 7.03782 11.5526 8.07576C11.2406 8.41958 10.8969 8.71147 10.5002 8.95247C10.5496 8.96733 10.5991 8.9822 10.6501 8.99751C11.0693 9.12794 11.469 9.28172 11.8654 9.47102C11.9059 9.49029 11.9463 9.50956 11.988 9.52941C12.172 9.61909 12.3373 9.70868 12.5008 9.83174C12.7717 10.0058 13.0952 9.97356 13.4064 9.97493C13.4702 9.97602 13.534 9.9772 13.5977 9.9785C13.7527 9.98125 13.9076 9.98296 14.0627 9.98372C14.0619 9.95116 14.0612 9.91861 14.0604 9.88507C14.0575 9.73436 14.0557 9.58366 14.0539 9.43294C14.0521 9.35617 14.0521 9.35617 14.0503 9.27785C14.0431 8.46951 14.3343 7.76249 14.8866 7.17515C15.4499 6.61429 16.1985 6.33473 16.9835 6.31282C17.8069 6.33127 18.5639 6.63371 19.1429 7.2223C19.6087 7.73949 19.9302 8.38357 19.9266 9.09108C19.9265 9.14319 19.9263 9.19531 19.9261 9.24901C19.9258 9.30294 19.9254 9.35686 19.925 9.41243C19.9247 9.46726 19.9245 9.5221 19.9243 9.5786C19.9238 9.71364 19.923 9.84868 19.922 9.98372C19.9823 9.98274 20.0426 9.98175 20.1047 9.98074C20.3298 9.97733 20.5549 9.97519 20.78 9.97342C20.8772 9.97248 20.9744 9.9712 21.0715 9.96957C21.2117 9.96728 21.3519 9.96623 21.4922 9.96541C21.5566 9.96395 21.5566 9.96395 21.6223 9.96247C21.9572 9.96236 22.2459 10.0353 22.5058 10.2554C22.652 10.4723 22.7072 10.6622 22.7363 10.9218C22.74 10.9542 22.7437 10.9867 22.7475 11.0201C22.7961 11.4563 22.8347 11.8935 22.8738 12.3306C22.8826 12.4277 22.8914 12.5247 22.9002 12.6217C22.9238 12.8831 22.9473 13.1445 22.9707 13.4059C22.9854 13.5698 23.0002 13.7336 23.0149 13.8975C23.0611 14.4116 23.1072 14.9257 23.1532 15.4399C23.206 16.0307 23.2592 16.6214 23.3126 17.2121C23.3541 17.6707 23.3953 18.1294 23.4362 18.588C23.4606 18.8611 23.4851 19.1341 23.51 19.4072C23.5333 19.6641 23.5563 19.9211 23.579 20.1781C23.5873 20.2717 23.5958 20.3653 23.6044 20.4588C23.6458 20.9095 23.6803 21.3596 23.6888 21.8122C23.69 21.8477 23.6913 21.8832 23.6926 21.9197C23.6943 22.2428 23.583 22.4791 23.3732 22.722C23.1404 22.9215 22.9418 23.0674 22.6297 23.0681C22.589 23.0683 22.5483 23.0686 22.5064 23.0688C22.4616 23.0688 22.4169 23.0687 22.3708 23.0687C22.3233 23.0689 22.2757 23.0691 22.2268 23.0693C22.0668 23.0698 21.9068 23.07 21.7468 23.0701C21.6324 23.0704 21.518 23.0707 21.4036 23.0711C21.0597 23.072 20.7159 23.0725 20.372 23.0729C20.21 23.0731 20.0481 23.0733 19.8861 23.0736C19.3476 23.0744 18.8092 23.0751 18.2707 23.0754C18.131 23.0755 17.9912 23.0756 17.8515 23.0757C17.8168 23.0757 17.782 23.0757 17.7463 23.0757C17.1838 23.0761 16.6213 23.0773 16.0588 23.0788C15.4813 23.0804 14.9037 23.0812 14.3261 23.0814C14.0018 23.0815 13.6776 23.0819 13.3533 23.0831C13.0483 23.0842 12.7432 23.0844 12.4381 23.0839C12.3262 23.0839 12.2143 23.0842 12.1023 23.0848C11.9494 23.0857 11.7966 23.0853 11.6437 23.0847C11.5994 23.0852 11.5552 23.0857 11.5096 23.0863C11.1596 23.0829 10.9177 22.9921 10.6525 22.763C10.2164 22.2542 10.2852 21.7013 10.3289 21.0662C10.3508 20.7816 10.377 20.4974 10.4033 20.2131C10.4127 20.1088 10.422 20.0045 10.4313 19.9002C10.4508 19.6835 10.4704 19.467 10.4903 19.2504C10.5158 18.973 10.5408 18.6955 10.5657 18.4181C10.5895 18.1521 10.6136 17.8862 10.6377 17.6203C10.6422 17.5699 10.6468 17.5194 10.6514 17.4674C10.6643 17.325 10.6774 17.1826 10.6905 17.0402C10.6943 16.9981 10.698 16.9561 10.7019 16.9128C10.7055 16.8739 10.7091 16.8351 10.7129 16.795C10.7159 16.7615 10.719 16.7279 10.7222 16.6934C10.7361 16.5804 10.7579 16.4701 10.7814 16.3587C10.7292 16.3588 10.677 16.359 10.6232 16.3591C9.35373 16.3622 8.08427 16.3645 6.8148 16.366C6.2009 16.3667 5.587 16.3677 4.9731 16.3693C4.43812 16.3707 3.90313 16.3716 3.36815 16.3719C3.08479 16.3721 2.80145 16.3726 2.5181 16.3736C2.25151 16.3745 1.98493 16.3748 1.71834 16.3746C1.6204 16.3747 1.52246 16.3749 1.42452 16.3755C1.29096 16.3762 1.15743 16.376 1.02387 16.3756C0.984979 16.376 0.946083 16.3764 0.906009 16.3769C0.690689 16.3752 0.550202 16.3576 0.375151 16.2181C0.10535 15.6785 0.485387 14.6992 0.658266 14.1693C1.40599 12.0184 2.95607 10.3739 4.99092 9.38267C5.37726 9.20285 5.77738 9.06632 6.18765 8.95247C6.15248 8.92691 6.11732 8.90135 6.08108 8.87501C5.06062 8.12316 4.3409 7.23088 4.09964 5.95857C3.93154 4.80415 4.15196 3.67667 4.82535 2.72102C4.8877 2.64103 4.95116 2.56189 5.01578 2.48372C5.04744 2.44444 5.0791 2.40517 5.11172 2.3647C6.61937 0.587431 9.30424 0.480922 11.089 1.88606ZM6.00015 2.62434C5.96807 2.65208 5.93598 2.67981 5.90292 2.70839C5.29871 3.26512 4.89523 4.10767 4.8594 4.92891C4.84332 5.89628 5.05698 6.76223 5.7189 7.49934C5.75304 7.53783 5.78718 7.57632 5.82236 7.61598C6.40033 8.2313 7.2186 8.64973 8.07034 8.68696C9.03771 8.70305 9.90367 8.48939 10.6408 7.82747C10.6793 7.79333 10.7178 7.75919 10.7574 7.72401C11.3727 7.14604 11.7912 6.32777 11.8284 5.47603C11.8451 4.47211 11.608 3.61926 10.922 2.85872C10.8943 2.82663 10.8666 2.79455 10.838 2.76149C10.2812 2.15728 9.4387 1.7538 8.61746 1.71797C7.61355 1.70128 6.7607 1.93839 6.00015 2.62434ZM15.2814 7.96809C14.803 8.61502 14.8595 9.14413 14.8595 9.98372C16.2672 9.98372 17.6748 9.98372 19.1252 9.98372C19.151 8.84106 19.151 8.84106 18.6564 7.92122C18.6305 7.88895 18.6047 7.85668 18.578 7.82344C18.2053 7.40766 17.6533 7.16902 17.1037 7.11445C16.3828 7.08099 15.7338 7.42308 15.2814 7.96809ZM3.25217 11.5622C3.19765 11.6147 3.14196 11.666 3.08603 11.717C2.05685 12.6804 1.34547 14.1743 1.17203 15.5618C4.37406 15.5618 7.57609 15.5618 10.8752 15.5618C11.0144 13.9995 11.1536 12.4372 11.297 10.8275C11.4377 10.4056 11.4377 10.4056 11.5314 10.2181C8.73321 8.91127 5.48487 9.3981 3.25217 11.5622ZM12.047 10.9212C12.0269 11.0591 12.0118 11.194 12.0002 11.3326C11.9963 11.3752 11.9923 11.4178 11.9883 11.4616C11.9753 11.6049 11.9628 11.7481 11.9503 11.8914C11.9411 11.9939 11.9319 12.0963 11.9226 12.1988C11.8974 12.4777 11.8728 12.7567 11.8482 13.0357C11.8224 13.3277 11.7963 13.6197 11.7701 13.9117C11.7263 14.4026 11.6827 14.8935 11.6394 15.3844C11.5949 15.8886 11.5501 16.3928 11.5049 16.8969C11.4504 17.5049 11.3962 18.1129 11.3423 18.721C11.3217 18.9528 11.301 19.1847 11.2803 19.4165C11.2558 19.6902 11.2316 19.9639 11.2076 20.2376C11.1987 20.3378 11.1898 20.4379 11.1808 20.538C11.1543 20.8323 11.1299 21.1265 11.1095 21.4212C11.1071 21.4539 11.1047 21.4866 11.1023 21.5203C11.0966 21.6053 11.093 21.6905 11.0896 21.7757C11.0876 21.8202 11.0857 21.8648 11.0837 21.9106C11.1232 22.0938 11.1921 22.1566 11.3439 22.265C11.4959 22.2986 11.6442 22.2966 11.7994 22.2947C11.8455 22.2951 11.8917 22.2955 11.9393 22.2958C12.0941 22.2968 12.2489 22.296 12.4038 22.2953C12.5148 22.2956 12.6257 22.296 12.7367 22.2965C13.0382 22.2976 13.3396 22.2972 13.6411 22.2964C13.8294 22.296 14.0176 22.2961 14.2059 22.2963C14.2371 22.2964 14.2684 22.2964 14.3006 22.2964C14.3641 22.2965 14.4276 22.2966 14.4911 22.2967C15.0864 22.2973 15.6817 22.2966 16.277 22.2953C16.7878 22.2943 17.2986 22.2944 17.8094 22.2955C18.4026 22.2968 18.9958 22.2973 19.589 22.2966C19.6523 22.2965 19.7155 22.2964 19.7788 22.2963C19.8255 22.2963 19.8255 22.2963 19.8731 22.2962C20.0924 22.296 20.3117 22.2964 20.531 22.2969C20.8262 22.2976 21.1214 22.2971 21.4165 22.2958C21.525 22.2955 21.6334 22.2955 21.7419 22.2961C21.8897 22.2967 22.0375 22.2959 22.1853 22.2947C22.25 22.2955 22.25 22.2955 22.3159 22.2963C22.5206 22.2932 22.6145 22.2838 22.7852 22.1619C22.8868 22.0137 22.9029 21.9529 22.8951 21.7757C22.8929 21.7217 22.8908 21.6676 22.8885 21.612C22.8843 21.5484 22.8798 21.4848 22.8752 21.4212C22.8727 21.3857 22.8702 21.3501 22.8677 21.3135C22.8458 21.0055 22.8183 20.698 22.7906 20.3904C22.7815 20.2871 22.7724 20.1838 22.7633 20.0805C22.7388 19.8016 22.7139 19.5227 22.6889 19.2438C22.6681 19.0108 22.6474 18.7778 22.6267 18.5448C22.5752 17.9641 22.5234 17.3835 22.4713 16.8029C22.4262 16.2987 22.3815 15.7944 22.3369 15.2901C22.2912 14.7716 22.2451 14.253 22.1987 13.7345C22.1727 13.4437 22.1468 13.1529 22.1212 12.862C22.0971 12.589 22.0727 12.3161 22.048 12.0432C22.039 11.9429 22.0301 11.8426 22.0214 11.7422C22.0095 11.6057 21.997 11.4692 21.9845 11.3326C21.9811 11.2926 21.9778 11.2526 21.9743 11.2113C21.9575 11.0343 21.9443 10.9312 21.8439 10.7806C21.7572 10.7602 21.7572 10.7602 21.6568 10.7646C21.5991 10.7646 21.5991 10.7646 21.5403 10.7647C21.4987 10.7654 21.4571 10.7661 21.4143 10.7669C21.3505 10.7672 21.3505 10.7672 21.2855 10.7675C21.1493 10.7683 21.0132 10.77 20.8771 10.7718C20.7849 10.7725 20.6928 10.7732 20.6006 10.7737C20.3744 10.7753 20.1482 10.7777 19.922 10.7806C19.9125 10.9319 19.9067 11.0832 19.9015 11.2347C19.8988 11.2774 19.896 11.3202 19.8932 11.3642C19.8813 11.5993 19.8813 11.5993 19.9926 11.7947C20.0784 11.8561 20.0784 11.8561 20.1682 11.9019C20.3373 12.0063 20.4049 12.1933 20.4728 12.3743C20.5143 12.7062 20.4725 12.9781 20.297 13.265C20.0905 13.4699 19.8542 13.5878 19.5624 13.6006C19.2668 13.5803 19.0213 13.5185 18.8205 13.2913C18.5939 12.9969 18.5714 12.7412 18.6095 12.3743C18.6851 12.121 18.8088 11.9583 19.0314 11.8118C19.0778 11.7886 19.0778 11.7886 19.1252 11.765C19.1252 11.4401 19.1252 11.1153 19.1252 10.7806C17.7175 10.7806 16.3098 10.7806 14.8595 10.7806C14.8595 11.1054 14.8595 11.4303 14.8595 11.765C14.9523 11.8268 15.0451 11.8887 15.1408 11.9525C15.3385 12.1506 15.3929 12.3562 15.4044 12.6322C15.3901 12.9857 15.274 13.1786 15.0294 13.4232C14.7676 13.5853 14.5263 13.6139 14.2265 13.5742C13.9995 13.5199 13.815 13.4161 13.6714 13.23C13.5071 12.9563 13.4471 12.6877 13.5234 12.3718C13.6098 12.1132 13.7409 11.9433 13.9753 11.7957C14.0717 11.7256 14.0717 11.7256 14.0839 11.6161C14.083 11.5775 14.082 11.539 14.081 11.4993C14.0804 11.4574 14.0798 11.4156 14.0791 11.3725C14.0776 11.3289 14.076 11.2854 14.0744 11.2406C14.0735 11.1965 14.0727 11.1524 14.0718 11.107C14.0696 10.9981 14.0665 10.8894 14.0627 10.7806C13.7907 10.7771 13.5187 10.7746 13.2467 10.7729C13.1541 10.7722 13.0615 10.7712 12.969 10.77C12.8361 10.7683 12.7032 10.7675 12.5703 10.7669C12.5288 10.7661 12.4872 10.7654 12.4444 10.7647C12.4059 10.7646 12.3675 10.7646 12.3278 10.7646C12.2769 10.7642 12.2769 10.7642 12.225 10.7637C12.1211 10.7742 12.1211 10.7742 12.047 10.9212ZM14.3439 12.4681C14.313 12.53 14.282 12.5918 14.2502 12.6556C14.312 12.7175 14.3739 12.7793 14.4377 12.8431C14.4995 12.8122 14.5614 12.7812 14.6252 12.7493C14.6272 12.6712 14.6271 12.5931 14.6252 12.515C14.5752 12.4542 14.5752 12.4542 14.4582 12.4652C14.4205 12.4661 14.3827 12.4671 14.3439 12.4681ZM19.3595 12.515C19.3576 12.5931 19.3575 12.6712 19.3595 12.7493C19.4523 12.7957 19.4523 12.7957 19.547 12.8431C19.6089 12.7967 19.6708 12.7503 19.7345 12.7025C19.7112 12.5733 19.7112 12.5733 19.6408 12.4681C19.4866 12.449 19.4866 12.449 19.3595 12.515Z" fill="#222222"/>
<path d="M17.1559 12.8436C17.2725 12.9152 17.3643 12.9811 17.4664 13.0692C17.4945 13.0924 17.5226 13.1155 17.5516 13.1394C17.6392 13.2119 17.7257 13.2854 17.8121 13.3592C17.8659 13.4046 17.9198 13.4499 17.9736 13.4951C18.076 13.5814 18.178 13.668 18.2798 13.7549C18.4424 13.8926 18.6082 14.0257 18.7751 14.1581C18.9872 14.3271 19.1962 14.4998 19.4059 14.6718C19.4918 14.7421 19.5777 14.8124 19.6637 14.8827C20.1793 15.3046 20.1793 15.3046 20.3077 15.4097C20.3953 15.4813 20.4831 15.5529 20.571 15.6243C21.3647 16.2702 21.3647 16.2702 21.3893 16.4911C21.3708 16.679 21.3253 16.7476 21.1871 16.8749C20.9488 16.9337 20.7102 16.9272 20.4664 16.9247C20.4274 16.9245 20.3885 16.9243 20.3483 16.924C20.2529 16.9235 20.1575 16.9226 20.0621 16.9218C20.0626 17.0029 20.0626 17.0029 20.0631 17.0857C20.0659 17.5954 20.068 18.1051 20.0694 18.6148C20.0701 18.8768 20.0711 19.1389 20.0727 19.4009C20.0743 19.6538 20.0751 19.9067 20.0755 20.1595C20.0757 20.256 20.0762 20.3525 20.077 20.449C20.078 20.5841 20.0782 20.7192 20.0781 20.8543C20.0786 20.8943 20.0791 20.9342 20.0796 20.9753C20.0785 21.1939 20.0647 21.3388 19.9215 21.5155C19.7699 21.6166 19.7287 21.6211 19.5538 21.6218C19.507 21.6222 19.4602 21.6226 19.412 21.623C19.3607 21.623 19.3094 21.6229 19.2566 21.6229C19.1755 21.6233 19.1755 21.6233 19.0928 21.6238C18.9136 21.6247 18.7344 21.6249 18.5552 21.625C18.4623 21.6252 18.3694 21.6254 18.2765 21.6257C17.9843 21.6265 17.6921 21.6267 17.3999 21.6266C17.0986 21.6266 16.7973 21.6276 16.4961 21.629C16.2373 21.6303 15.9785 21.6308 15.7198 21.6307C15.5653 21.6307 15.4108 21.631 15.2563 21.6319C15.0839 21.6329 14.9116 21.6326 14.7392 21.632C14.6881 21.6326 14.637 21.6331 14.5843 21.6336C14.2395 21.6307 14.2395 21.6307 14.055 21.5229C13.886 21.3256 13.9151 21.111 13.9162 20.865C13.9162 20.8224 13.9162 20.7799 13.9162 20.7361C13.9162 20.5953 13.9166 20.4545 13.9169 20.3138C13.917 20.2162 13.9171 20.1187 13.9171 20.0212C13.9173 19.7643 13.9178 19.5075 13.9183 19.2506C13.9188 18.9886 13.919 18.7265 13.9192 18.4645C13.9197 17.9503 13.9205 17.436 13.9215 16.9218C13.8644 16.9228 13.8073 16.9239 13.7485 16.925C13.6723 16.9259 13.5962 16.9268 13.5201 16.9276C13.4826 16.9284 13.4451 16.9292 13.4065 16.93C13.1413 16.9322 12.8656 16.9327 12.6588 16.746C12.5893 16.5987 12.5804 16.521 12.609 16.3593C12.7865 16.0634 13.0914 15.8638 13.359 15.6561C13.4442 15.5871 13.5291 15.5177 13.6139 15.4481C13.6568 15.4129 13.6998 15.3777 13.7441 15.3414C13.7871 15.306 13.8302 15.2707 13.8746 15.2343C13.9605 15.1639 14.0465 15.0936 14.1324 15.0233C14.175 14.9885 14.2175 14.9537 14.2613 14.9178C15.6793 13.7577 15.6793 13.7577 15.8077 13.6528C15.8956 13.5808 15.9833 13.5086 16.071 13.4363C16.1579 13.3648 16.245 13.2935 16.3324 13.2227C16.408 13.1613 16.4829 13.0991 16.5569 13.0359C16.604 12.9973 16.604 12.9973 16.652 12.9579C16.6783 12.9356 16.7047 12.9133 16.7318 12.8903C16.8826 12.8169 16.9903 12.8232 17.1559 12.8436ZM16.8483 13.8983C16.8105 13.937 16.7728 13.9757 16.734 14.0155C16.9042 14.0155 17.0743 14.0155 17.2496 14.0155C17.1725 13.9364 17.0943 13.8583 17.0152 13.7811C16.946 13.7757 16.946 13.7757 16.8483 13.8983ZM16.6402 14.0155C16.5635 14.1074 16.5635 14.1074 16.4996 14.203C16.646 14.1416 16.646 14.1416 16.734 14.0155C16.7031 14.0155 16.6721 14.0155 16.6402 14.0155ZM17.2496 14.0155C17.296 14.0851 17.296 14.0851 17.3434 14.1561C17.3743 14.1407 17.4052 14.1252 17.4371 14.1092C17.3752 14.0783 17.3134 14.0474 17.2496 14.0155ZM17.484 14.203C17.5304 14.2649 17.5768 14.3268 17.6246 14.3905C17.6556 14.375 17.6865 14.3596 17.7184 14.3436C17.6539 14.2714 17.6539 14.2714 17.5777 14.203C17.5468 14.203 17.5159 14.203 17.484 14.203ZM16.359 14.2499C16.3126 14.3195 16.3126 14.3195 16.2652 14.3905C16.3271 14.3596 16.389 14.3286 16.4527 14.2967C16.4218 14.2813 16.3909 14.2658 16.359 14.2499ZM16.1246 14.4374C16.0479 14.5293 16.0479 14.5293 15.984 14.6249C16.1303 14.5635 16.1303 14.5635 16.2184 14.4374C16.1874 14.4374 16.1565 14.4374 16.1246 14.4374ZM17.7652 14.4374C17.8117 14.507 17.8117 14.507 17.859 14.578C17.8899 14.5625 17.9209 14.5471 17.9527 14.5311C17.8909 14.5002 17.829 14.4693 17.7652 14.4374ZM17.9996 14.6249C18.046 14.6868 18.0924 14.7486 18.1402 14.8124C18.1712 14.7969 18.2021 14.7814 18.234 14.7655C18.1695 14.6932 18.1695 14.6932 18.0934 14.6249C18.0624 14.6249 18.0315 14.6249 17.9996 14.6249ZM15.8434 14.6718C15.797 14.7414 15.797 14.7414 15.7496 14.8124C15.8115 14.7814 15.8734 14.7505 15.9371 14.7186C15.9062 14.7032 15.8752 14.6877 15.8434 14.6718ZM15.609 14.8593C15.5323 14.9511 15.5323 14.9511 15.4684 15.0468C15.6147 14.9854 15.6147 14.9854 15.7027 14.8593C15.6718 14.8593 15.6409 14.8593 15.609 14.8593ZM18.2809 14.8593C18.3273 14.9289 18.3273 14.9289 18.3746 14.9999C18.4056 14.9844 18.4365 14.9689 18.4684 14.953C18.4065 14.9221 18.3446 14.8911 18.2809 14.8593ZM16.7428 15.0614C16.5635 15.2264 16.3788 15.3785 16.1861 15.5272C15.9268 15.7282 15.6754 15.9366 15.4283 16.1525C15.4036 16.174 15.3789 16.1955 15.3534 16.2177C15.3294 16.2396 15.3054 16.2614 15.2807 16.2839C15.1871 16.3593 15.1871 16.3593 15.07 16.4225C14.8989 16.5254 14.7505 16.6239 14.6921 16.8243C14.6509 17.1022 14.6647 17.383 14.6726 17.663C14.6735 17.7539 14.6741 17.8448 14.6746 17.9357C14.6764 18.174 14.681 18.4122 14.6862 18.6505C14.691 18.894 14.6931 19.1375 14.6955 19.381C14.7005 19.8582 14.7087 20.3353 14.7184 20.8124C15.0432 20.8124 15.3681 20.8124 15.7027 20.8124C15.7045 20.6899 15.7045 20.6899 15.7063 20.565C15.7102 20.2954 15.7144 20.0258 15.7187 19.7562C15.7212 19.5928 15.7237 19.4293 15.7261 19.2658C15.7287 19.0779 15.7317 18.89 15.7348 18.7021C15.7356 18.6433 15.7364 18.5846 15.7372 18.5241C15.7381 18.4697 15.739 18.4152 15.74 18.3592C15.7407 18.3112 15.7415 18.2632 15.7422 18.2137C15.7496 18.0936 15.7496 18.0936 15.7965 17.953C15.9259 17.9039 16.05 17.9002 16.1873 17.9001C16.2469 17.8998 16.2469 17.8998 16.3077 17.8996C16.3715 17.8998 16.3715 17.8998 16.4366 17.8999C16.4807 17.8999 16.5247 17.8998 16.5701 17.8998C16.663 17.8997 16.756 17.8998 16.849 17.9C16.9913 17.9003 17.1335 17.9 17.2758 17.8997C17.3662 17.8997 17.4566 17.8998 17.547 17.8999C17.5895 17.8998 17.6321 17.8997 17.6759 17.8996C17.7156 17.8998 17.7553 17.8999 17.7963 17.9001C17.8311 17.9001 17.8659 17.9001 17.9018 17.9002C18.0049 17.9064 18.0903 17.9163 18.1871 17.953C18.2359 18.0994 18.2413 18.2054 18.2436 18.3592C18.245 18.4408 18.245 18.4408 18.2465 18.5241C18.2472 18.5828 18.248 18.6416 18.2488 18.7021C18.2498 18.7622 18.2508 18.8224 18.2518 18.8843C18.2544 19.0441 18.2567 19.2038 18.2589 19.3636C18.2613 19.5267 18.2639 19.6897 18.2665 19.8528C18.2715 20.1727 18.2763 20.4925 18.2809 20.8124C18.6057 20.8124 18.9306 20.8124 19.2652 20.8124C19.2801 20.2904 19.2921 19.7685 19.2992 19.2464C19.3027 19.0038 19.3073 18.7615 19.3148 18.519C19.3219 18.2847 19.3258 18.0505 19.3275 17.816C19.3287 17.727 19.3311 17.638 19.3346 17.549C19.3646 17.0152 19.3646 17.0152 19.1263 16.5596C18.9921 16.4354 18.8486 16.3302 18.6959 16.23C18.5511 16.133 18.417 16.0227 18.2809 15.9139C18.2268 15.8718 18.1726 15.8298 18.1185 15.7878C17.8859 15.605 17.6632 15.4108 17.4399 15.2169C17.3921 15.1758 17.3443 15.1347 17.2965 15.0936C17.2545 15.0573 17.2125 15.021 17.1692 14.9836C16.9769 14.8445 16.8964 14.9149 16.7428 15.0614ZM18.5152 15.0468C18.5617 15.1086 18.6081 15.1705 18.6559 15.2343C18.6868 15.2188 18.7177 15.2033 18.7496 15.1874C18.6852 15.1151 18.6852 15.1151 18.609 15.0468C18.5781 15.0468 18.5471 15.0468 18.5152 15.0468ZM15.3277 15.0936C15.2813 15.1632 15.2813 15.1632 15.234 15.2343C15.2959 15.2033 15.3577 15.1724 15.4215 15.1405C15.3906 15.125 15.3596 15.1096 15.3277 15.0936ZM15.0934 15.2811C15.0166 15.373 15.0166 15.373 14.9527 15.4686C15.0991 15.4073 15.0991 15.4073 15.1871 15.2811C15.1562 15.2811 15.1252 15.2811 15.0934 15.2811ZM18.7965 15.2811C18.8429 15.3507 18.8429 15.3507 18.8902 15.4218C18.9212 15.4063 18.9521 15.3908 18.984 15.3749C18.9221 15.3439 18.8602 15.313 18.7965 15.2811ZM19.0309 15.4686C19.0773 15.5305 19.1237 15.5924 19.1715 15.6561C19.2024 15.6407 19.2334 15.6252 19.2652 15.6093C19.2008 15.537 19.2008 15.537 19.1246 15.4686C19.0937 15.4686 19.0627 15.4686 19.0309 15.4686ZM14.8121 15.5155C14.7657 15.5851 14.7657 15.5851 14.7184 15.6561C14.7802 15.6252 14.8421 15.5942 14.9059 15.5624C14.8749 15.5469 14.844 15.5314 14.8121 15.5155ZM14.5777 15.703C14.501 15.7949 14.501 15.7949 14.4371 15.8905C14.5835 15.8291 14.5835 15.8291 14.6715 15.703C14.6406 15.703 14.6096 15.703 14.5777 15.703ZM19.3121 15.703C19.3585 15.7726 19.3585 15.7726 19.4059 15.8436C19.4368 15.8282 19.4677 15.8127 19.4996 15.7968C19.4377 15.7658 19.3759 15.7349 19.3121 15.703ZM19.5465 15.8905C19.5929 15.9524 19.6393 16.0143 19.6871 16.078C19.7181 16.0625 19.749 16.0471 19.7809 16.0311C19.7164 15.9589 19.7164 15.9589 19.6402 15.8905C19.6093 15.8905 19.5784 15.8905 19.5465 15.8905ZM14.2965 15.9374C14.2501 16.007 14.2501 16.007 14.2027 16.078C14.2646 16.0471 14.3265 16.0161 14.3902 15.9843C14.3593 15.9688 14.3284 15.9533 14.2965 15.9374ZM16.4996 18.6561C16.4996 19.3677 16.4996 20.0792 16.4996 20.8124C16.8245 20.8124 17.1493 20.8124 17.484 20.8124C17.484 20.1008 17.484 19.3893 17.484 18.6561C17.1592 18.6561 16.8343 18.6561 16.4996 18.6561Z" fill="#222222"/>
</g>
<defs>
<clipPath id="clip0_164_10791">
<rect width="24" height="24" fill="white"/>
</clipPath>
</defs>
</svg>
