<svg width="25" height="25" viewBox="0 0 25 25" fill="none" xmlns="http://www.w3.org/2000/svg">
<path d="M17.1172 14.25C17.3824 14.25 17.6368 14.1446 17.8243 13.9571C18.0118 13.7696 18.1172 13.5152 18.1172 13.25C18.1172 12.9848 18.0118 12.7304 17.8243 12.5429C17.6368 12.3554 17.3824 12.25 17.1172 12.25C16.852 12.25 16.5976 12.3554 16.4101 12.5429C16.2225 12.7304 16.1172 12.9848 16.1172 13.25C16.1172 13.5152 16.2225 13.7696 16.4101 13.9571C16.5976 14.1446 16.852 14.25 17.1172 14.25ZM17.1172 18.25C17.3824 18.25 17.6368 18.1446 17.8243 17.9571C18.0118 17.7696 18.1172 17.5152 18.1172 17.25C18.1172 16.9848 18.0118 16.7304 17.8243 16.5429C17.6368 16.3554 17.3824 16.25 17.1172 16.25C16.852 16.25 16.5976 16.3554 16.4101 16.5429C16.2225 16.7304 16.1172 16.9848 16.1172 17.25C16.1172 17.5152 16.2225 17.7696 16.4101 17.9571C16.5976 18.1446 16.852 18.25 17.1172 18.25ZM13.1172 13.25C13.1172 13.5152 13.0118 13.7696 12.8243 13.9571C12.6368 14.1446 12.3824 14.25 12.1172 14.25C11.852 14.25 11.5976 14.1446 11.4101 13.9571C11.2225 13.7696 11.1172 13.5152 11.1172 13.25C11.1172 12.9848 11.2225 12.7304 11.4101 12.5429C11.5976 12.3554 11.852 12.25 12.1172 12.25C12.3824 12.25 12.6368 12.3554 12.8243 12.5429C13.0118 12.7304 13.1172 12.9848 13.1172 13.25ZM13.1172 17.25C13.1172 17.5152 13.0118 17.7696 12.8243 17.9571C12.6368 18.1446 12.3824 18.25 12.1172 18.25C11.852 18.25 11.5976 18.1446 11.4101 17.9571C11.2225 17.7696 11.1172 17.5152 11.1172 17.25C11.1172 16.9848 11.2225 16.7304 11.4101 16.5429C11.5976 16.3554 11.852 16.25 12.1172 16.25C12.3824 16.25 12.6368 16.3554 12.8243 16.5429C13.0118 16.7304 13.1172 16.9848 13.1172 17.25ZM7.11719 14.25C7.3824 14.25 7.63676 14.1446 7.82429 13.9571C8.01183 13.7696 8.11719 13.5152 8.11719 13.25C8.11719 12.9848 8.01183 12.7304 7.82429 12.5429C7.63676 12.3554 7.3824 12.25 7.11719 12.25C6.85197 12.25 6.59762 12.3554 6.41008 12.5429C6.22254 12.7304 6.11719 12.9848 6.11719 13.25C6.11719 13.5152 6.22254 13.7696 6.41008 13.9571C6.59762 14.1446 6.85197 14.25 7.11719 14.25ZM7.11719 18.25C7.3824 18.25 7.63676 18.1446 7.82429 17.9571C8.01183 17.7696 8.11719 17.5152 8.11719 17.25C8.11719 16.9848 8.01183 16.7304 7.82429 16.5429C7.63676 16.3554 7.3824 16.25 7.11719 16.25C6.85197 16.25 6.59762 16.3554 6.41008 16.5429C6.22254 16.7304 6.11719 16.9848 6.11719 17.25C6.11719 17.5152 6.22254 17.7696 6.41008 17.9571C6.59762 18.1446 6.85197 18.25 7.11719 18.25Z" fill="#061F61"/>
<path fill-rule="evenodd" clip-rule="evenodd" d="M7.11619 2C7.3151 2 7.50587 2.07902 7.64652 2.21967C7.78717 2.36032 7.86619 2.55109 7.86619 2.75V3.513C8.52819 3.5 9.25719 3.5 10.0592 3.5H14.1722C14.9752 3.5 15.7042 3.5 16.3662 3.513V2.75C16.3662 2.55109 16.4452 2.36032 16.5859 2.21967C16.7265 2.07902 16.9173 2 17.1162 2C17.3151 2 17.5059 2.07902 17.6465 2.21967C17.7872 2.36032 17.8662 2.55109 17.8662 2.75V3.577C18.1262 3.597 18.3725 3.62233 18.6052 3.653C19.7772 3.811 20.7262 4.143 21.4752 4.891C22.2232 5.64 22.5552 6.589 22.7132 7.761C22.8662 8.901 22.8662 10.356 22.8662 12.194V14.306C22.8662 16.144 22.8662 17.6 22.7132 18.739C22.5552 19.911 22.2232 20.86 21.4752 21.609C20.7262 22.357 19.7772 22.689 18.6052 22.847C17.4652 23 16.0102 23 14.1722 23H10.0612C8.22319 23 6.76719 23 5.62819 22.847C4.45619 22.689 3.50719 22.357 2.75819 21.609C2.01019 20.86 1.67819 19.911 1.52019 18.739C1.36719 17.599 1.36719 16.144 1.36719 14.306V12.194C1.36719 10.356 1.36719 8.9 1.52019 7.761C1.67819 6.589 2.01019 5.64 2.75819 4.891C3.50719 4.143 4.45619 3.811 5.62819 3.653C5.86152 3.62233 6.10785 3.597 6.36719 3.577V2.75C6.36719 2.55126 6.44607 2.36065 6.5865 2.22002C6.72694 2.0794 6.91745 2.00026 7.11619 2ZM5.82619 5.14C4.82119 5.275 4.24119 5.529 3.81819 5.952C3.39519 6.375 3.14119 6.955 3.00619 7.96C2.98352 8.13 2.96419 8.30967 2.94819 8.499H21.2842C21.2682 8.30967 21.2489 8.12967 21.2262 7.959C21.0912 6.954 20.8372 6.374 20.4142 5.951C19.9912 5.528 19.4112 5.274 18.4052 5.139C17.3782 5.001 16.0232 4.999 14.1162 4.999H10.1162C8.20919 4.999 6.85519 5.002 5.82619 5.14ZM2.86619 12.25C2.86619 11.396 2.86619 10.653 2.87919 10H21.3532C21.3662 10.653 21.3662 11.396 21.3662 12.25V14.25C21.3662 16.157 21.3642 17.512 21.2262 18.54C21.0912 19.545 20.8372 20.125 20.4142 20.548C19.9912 20.971 19.4112 21.225 18.4052 21.36C17.3782 21.498 16.0232 21.5 14.1162 21.5H10.1162C8.20919 21.5 6.85519 21.498 5.82619 21.36C4.82119 21.225 4.24119 20.971 3.81819 20.548C3.39519 20.125 3.14119 19.545 3.00619 18.539C2.86819 17.512 2.86619 16.157 2.86619 14.25V12.25Z" fill="#061F61"/>
</svg>
