<svg width="20" height="20" viewBox="0 0 20 20" fill="none" xmlns="http://www.w3.org/2000/svg">
<path d="M16.875 13.8381V11.25C16.875 10.9185 16.7433 10.6005 16.5089 10.3661C16.2745 10.1317 15.9565 10 15.625 10H10.625V7.5H11.875C12.2065 7.5 12.5245 7.3683 12.7589 7.13388C12.9933 6.89946 13.125 6.58152 13.125 6.25V2.5C13.125 2.16848 12.9933 1.85054 12.7589 1.61612C12.5245 1.3817 12.2065 1.25 11.875 1.25H8.12501C7.79349 1.25 7.47554 1.3817 7.24112 1.61612C7.0067 1.85054 6.87501 2.16848 6.87501 2.5V6.25C6.87501 6.58152 7.0067 6.89946 7.24112 7.13388C7.47554 7.3683 7.79349 7.5 8.12501 7.5H9.37501V10H4.37501C4.04349 10 3.72554 10.1317 3.49112 10.3661C3.2567 10.6005 3.12501 10.9185 3.12501 11.25V13.8387C2.53584 13.9909 2.02239 14.3526 1.68088 14.8563C1.33937 15.3599 1.19326 15.9707 1.26993 16.5744C1.3466 17.178 1.64079 17.733 2.09736 18.1352C2.55393 18.5374 3.14152 18.7594 3.75001 18.7594C4.35849 18.7594 4.94609 18.5374 5.40265 18.1352C5.85922 17.733 6.15341 17.178 6.23008 16.5744C6.30675 15.9707 6.16064 15.3599 5.81913 14.8563C5.47762 14.3526 4.96417 13.9909 4.37501 13.8387V11.25H9.37501V13.8387C8.78584 13.9909 8.27239 14.3526 7.93088 14.8563C7.58937 15.3599 7.44326 15.9707 7.51993 16.5744C7.5966 17.178 7.89079 17.733 8.34736 18.1352C8.80393 18.5374 9.39152 18.7594 10 18.7594C10.6085 18.7594 11.1961 18.5374 11.6527 18.1352C12.1092 17.733 12.4034 17.178 12.4801 16.5744C12.5568 15.9707 12.4106 15.3599 12.0691 14.8563C11.7276 14.3526 11.2142 13.9909 10.625 13.8387V11.25H15.625V13.8381C15.0358 13.9902 14.5224 14.352 14.1809 14.8556C13.8394 15.3592 13.6933 15.9701 13.7699 16.5737C13.8466 17.1774 14.1408 17.7323 14.5974 18.1346C15.0539 18.5368 15.6415 18.7587 16.25 18.7587C16.8585 18.7587 17.4461 18.5368 17.9027 18.1346C18.3592 17.7323 18.6534 17.1774 18.7301 16.5737C18.8068 15.9701 18.6606 15.3592 18.3191 14.8556C17.9776 14.352 17.4642 13.9902 16.875 13.8381ZM8.12501 2.5H11.875L11.8756 6.25H8.12501V2.5ZM5.00001 16.25C5.00001 16.4972 4.92669 16.7389 4.78934 16.9445C4.65199 17.15 4.45677 17.3102 4.22836 17.4049C3.99995 17.4995 3.74862 17.5242 3.50614 17.476C3.26367 17.4277 3.04094 17.3087 2.86612 17.1339C2.69131 16.9591 2.57226 16.7363 2.52402 16.4939C2.47579 16.2514 2.50055 16.0001 2.59516 15.7716C2.68977 15.5432 2.84998 15.348 3.05554 15.2107C3.2611 15.0733 3.50278 15 3.75001 15C4.08153 15 4.39947 15.1317 4.63389 15.3661C4.86831 15.6005 5.00001 15.9185 5.00001 16.25ZM11.25 16.25C11.25 16.4972 11.1767 16.7389 11.0393 16.9445C10.902 17.15 10.7068 17.3102 10.4784 17.4049C10.25 17.4995 9.99862 17.5242 9.75614 17.476C9.51367 17.4277 9.29094 17.3087 9.11612 17.1339C8.94131 16.9591 8.82226 16.7363 8.77402 16.4939C8.72579 16.2514 8.75055 16.0001 8.84516 15.7716C8.93977 15.5432 9.09998 15.348 9.30554 15.2107C9.5111 15.0733 9.75278 15 10 15C10.3314 15.0005 10.649 15.1324 10.8833 15.3667C11.1177 15.601 11.2495 15.9186 11.25 16.25ZM16.25 17.5C16.0028 17.5 15.7611 17.4267 15.5555 17.2893C15.35 17.152 15.1898 16.9568 15.0952 16.7284C15.0005 16.4999 14.9758 16.2486 15.024 16.0061C15.0723 15.7637 15.1913 15.5409 15.3661 15.3661C15.5409 15.1913 15.7637 15.0722 16.0061 15.024C16.2486 14.9758 16.5 15.0005 16.7284 15.0951C16.9568 15.1898 17.152 15.35 17.2893 15.5555C17.4267 15.7611 17.5 16.0028 17.5 16.25C17.5 16.5815 17.3683 16.8995 17.1339 17.1339C16.8995 17.3683 16.5815 17.5 16.25 17.5Z" fill="#222"/>
</svg>
