<svg width="24" height="24" viewBox="0 0 24 24" fill="none" xmlns="http://www.w3.org/2000/svg">
<path d="M10.2741 1.48782C10.4097 1.4868 10.5454 1.48577 10.6851 1.48471C10.9718 1.48333 11.2585 1.48321 11.5451 1.48425C11.9827 1.48501 12.4198 1.47938 12.8573 1.47329C13.1362 1.47275 13.4151 1.47258 13.6941 1.47282C13.8243 1.47061 13.9546 1.4684 14.0888 1.46613C14.8364 1.47522 15.2706 1.56212 15.8147 2.09042C16.0863 2.44477 16.0959 2.78018 16.0993 3.20922C16.1005 3.32459 16.1016 3.43996 16.1028 3.55883C16.1033 3.68333 16.1038 3.80783 16.1044 3.9361C16.105 4.0644 16.1057 4.1927 16.1064 4.32488C16.1076 4.59653 16.1084 4.86818 16.1088 5.13983C16.11 5.55463 16.1137 5.96936 16.1175 6.38415C16.1183 6.64814 16.1189 6.91212 16.1194 7.1761C16.1208 7.29988 16.1223 7.42365 16.1239 7.55117C16.1218 8.20497 16.0932 8.67747 15.72 9.24001C15.1747 9.75301 14.464 9.64002 13.7625 9.62251C13.6393 9.62089 13.5161 9.61926 13.3891 9.61759C13.0861 9.61336 12.783 9.6069 12.48 9.60001C12.48 10.1148 12.48 10.6296 12.48 11.16C12.6362 11.1581 12.7923 11.1562 12.9533 11.1543C13.5343 11.1478 14.1153 11.1436 14.6963 11.1402C14.9475 11.1384 15.1986 11.136 15.4498 11.1329C15.8114 11.1285 16.173 11.1264 16.5347 11.1249C16.6465 11.123 16.7582 11.1211 16.8734 11.1192C17.5015 11.1191 17.9366 11.1681 18.48 11.52C19.0182 12.0953 18.9761 12.7176 18.9675 13.47C18.9669 13.5594 18.9664 13.6488 18.9658 13.7409C18.9644 13.9606 18.9623 14.1803 18.96 14.4C19.0752 14.3962 19.0752 14.3962 19.1928 14.3924C19.5427 14.3824 19.8925 14.3762 20.2425 14.37C20.3634 14.366 20.4843 14.362 20.6088 14.3578C21.5057 14.346 21.5057 14.346 21.9698 14.6119C22.3501 15.0549 22.4698 15.3817 22.4749 15.9649C22.4764 16.085 22.4779 16.2052 22.4795 16.329C22.4798 16.4581 22.48 16.5873 22.4803 16.7203C22.4815 16.9205 22.4815 16.9205 22.4827 17.1247C22.4839 17.407 22.4845 17.6892 22.4845 17.9714C22.485 18.4026 22.4893 18.8336 22.4939 19.2647C22.4946 19.5391 22.4951 19.8134 22.4953 20.0878C22.497 20.2165 22.4988 20.3451 22.5005 20.4777C22.4961 21.206 22.4639 21.6556 21.96 22.2C21.5897 22.4301 21.3059 22.4707 20.8732 22.473C20.7527 22.4741 20.6321 22.4753 20.5079 22.4764C20.3784 22.4763 20.2489 22.4762 20.1155 22.4761C19.9817 22.4766 19.848 22.4771 19.7102 22.4777C19.4275 22.4784 19.1447 22.4784 18.862 22.4779C18.4295 22.4775 17.9972 22.4803 17.5648 22.4834C17.29 22.4836 17.0152 22.4837 16.7405 22.4836C16.6112 22.4847 16.4819 22.4858 16.3487 22.487C15.2331 22.4801 15.2331 22.4801 14.76 22.08C14.3419 21.6171 14.2661 21.1935 14.2607 20.5831C14.2595 20.4778 14.2583 20.3724 14.2572 20.2639C14.2566 20.1509 14.2561 20.0378 14.2556 19.9214C14.2549 19.8042 14.2542 19.687 14.2535 19.5663C14.2524 19.3185 14.2516 19.0706 14.2512 18.8228C14.25 18.4452 14.2463 18.0676 14.2425 17.6899C14.2417 17.4488 14.2411 17.2076 14.2406 16.9664C14.2391 16.8541 14.2377 16.7419 14.2361 16.6262C14.2389 15.8156 14.3508 15.2336 14.8776 14.5894C15.4385 14.2963 15.9755 14.3493 16.5975 14.37C16.7823 14.3733 16.7823 14.3733 16.9708 14.3766C17.274 14.3822 17.5769 14.3901 17.88 14.4C17.8632 14.0825 17.8456 13.765 17.8275 13.4475C17.8228 13.3569 17.8181 13.2664 17.8132 13.1731C17.8271 12.7297 17.8271 12.7297 17.64 12.36C17.29 12.3479 16.9428 12.3437 16.5928 12.3445C16.483 12.3443 16.3731 12.3441 16.2599 12.3438C15.895 12.3433 15.53 12.3437 15.165 12.3441C14.9125 12.344 14.6601 12.3439 14.4077 12.3437C13.8778 12.3435 13.348 12.3438 12.8182 12.3444C12.1374 12.345 11.4566 12.3447 10.7758 12.3439C10.2543 12.3435 9.73282 12.3436 9.21131 12.344C8.96022 12.344 8.70912 12.3439 8.45802 12.3437C8.10773 12.3434 7.75746 12.3438 7.40718 12.3445C7.30232 12.3442 7.19746 12.344 7.08943 12.3437C6.6275 12.2999 6.6275 12.2999 6.23999 12.48C6.21157 12.8031 6.18935 13.1238 6.17249 13.4475C6.16472 13.5841 6.16472 13.5841 6.15679 13.7234C6.14402 13.9489 6.13194 14.1744 6.11999 14.4C6.19619 14.3969 6.27239 14.3937 6.35091 14.3905C6.6989 14.378 7.04685 14.3702 7.39499 14.3625C7.51487 14.3575 7.63475 14.3525 7.75827 14.3473C8.76024 14.3307 8.76024 14.3307 9.1903 14.6574C9.77213 15.3456 9.75569 16.0563 9.75186 16.9158C9.75209 17.03 9.75232 17.1442 9.75256 17.2618C9.75272 17.5026 9.75228 17.7433 9.75128 17.984C9.74999 18.3509 9.75127 18.7176 9.7528 19.0845C9.75264 19.3191 9.75234 19.5537 9.75186 19.7883C9.75235 19.8972 9.75284 20.0061 9.75334 20.1183C9.74796 20.8521 9.72946 21.5342 9.24749 22.125C8.85716 22.4325 8.52916 22.4559 8.04875 22.4613C7.86848 22.4636 7.86848 22.4636 7.68458 22.4659C7.55483 22.4668 7.42508 22.4677 7.2914 22.4686C7.09096 22.4701 7.09096 22.4701 6.88648 22.4715C6.60353 22.4732 6.32058 22.4745 6.03764 22.4754C5.60543 22.4775 5.17334 22.4828 4.74116 22.4881C4.46624 22.4893 4.19132 22.4903 3.9164 22.4911C3.78737 22.4932 3.65835 22.4953 3.52542 22.4975C2.79547 22.4954 2.34532 22.4657 1.79999 21.96C1.57082 21.5907 1.52887 21.3066 1.52513 20.8751C1.52359 20.755 1.52206 20.6348 1.52049 20.511C1.52022 20.3819 1.51995 20.2527 1.51968 20.1197C1.51888 19.9862 1.51808 19.8528 1.51726 19.7153C1.51604 19.4331 1.51548 19.1508 1.51552 18.8686C1.51499 18.4375 1.51063 18.0064 1.50608 17.5753C1.50538 17.3009 1.5049 17.0266 1.50468 16.7522C1.50295 16.6236 1.50123 16.4949 1.49945 16.3624C1.50392 15.6311 1.5434 15.1921 2.03999 14.64C2.44213 14.3719 2.57012 14.3714 3.0389 14.3766C3.16226 14.3773 3.28562 14.3781 3.41272 14.3789C3.54135 14.3809 3.66997 14.3829 3.80249 14.385C3.9325 14.3861 4.06252 14.3872 4.19647 14.3883C4.51767 14.3911 4.83882 14.3951 5.15999 14.4C5.15442 14.2438 5.14885 14.0875 5.14311 13.9266C5.13861 13.7194 5.13424 13.5122 5.12999 13.305C5.12597 13.2023 5.12195 13.0996 5.1178 12.9938C5.10751 12.3246 5.16794 11.9154 5.63999 11.4C6.21176 11.0747 6.81567 11.1295 7.45358 11.1366C7.6281 11.1371 7.6281 11.1371 7.80615 11.1376C8.17661 11.1389 8.54704 11.142 8.91749 11.145C9.16913 11.1462 9.42077 11.1473 9.67241 11.1483C10.2883 11.1509 10.9041 11.1551 11.52 11.16C11.52 10.6452 11.52 10.1304 11.52 9.60001C11.3378 9.60558 11.1555 9.61115 10.9678 9.61689C10.7269 9.62139 10.4859 9.62576 10.245 9.63001C10.1251 9.63403 10.0052 9.63805 9.88171 9.6422C9.17222 9.6516 8.70032 9.63411 8.15999 9.12001C7.96009 8.70885 7.88951 8.37666 7.88703 7.92165C7.88531 7.74804 7.88531 7.74804 7.88356 7.57092C7.88367 7.44729 7.88378 7.32365 7.8839 7.19626C7.88338 7.06802 7.88287 6.93978 7.88234 6.80765C7.88165 6.53694 7.88159 6.26622 7.88211 5.9955C7.88249 5.5815 7.87967 5.1676 7.87663 4.7536C7.87636 4.49032 7.87627 4.22704 7.8764 3.96376C7.87529 3.84012 7.87418 3.71648 7.87305 3.5891C7.88008 2.50042 7.88008 2.50042 8.27999 2.04001C8.35766 1.94992 8.43533 1.85984 8.51536 1.76702C9.08213 1.44525 9.63285 1.48675 10.2741 1.48782ZM8.99999 2.76001C8.98696 2.9355 8.98211 3.1116 8.98065 3.28756C8.9795 3.39969 8.97835 3.51183 8.97716 3.62736C8.97665 3.74935 8.97614 3.87135 8.97561 3.99704C8.97493 4.12149 8.97425 4.24594 8.97354 4.37415C8.97241 4.63795 8.97162 4.90175 8.97116 5.16555C8.97 5.57037 8.96627 5.97512 8.96249 6.37993C8.96171 6.63564 8.96108 6.89134 8.96061 7.14704C8.95913 7.2688 8.95765 7.39055 8.95612 7.51599C8.95648 7.6285 8.95684 7.74101 8.95722 7.85693C8.95678 7.95623 8.95634 8.05553 8.95589 8.15784C8.97044 8.23776 8.985 8.31767 8.99999 8.40001C9.37352 8.64903 9.45601 8.67019 9.87983 8.67107C9.98435 8.67182 10.0889 8.67258 10.1966 8.67336C10.3091 8.67287 10.4216 8.67239 10.5375 8.67189C10.6533 8.67212 10.7692 8.67235 10.8885 8.67258C11.1334 8.67274 11.3783 8.6723 11.6232 8.6713C11.9985 8.67002 12.3738 8.67129 12.7491 8.67282C12.9869 8.67266 13.2247 8.67236 13.4625 8.67189C13.575 8.67237 13.6875 8.67286 13.8034 8.67336C13.9079 8.6726 14.0125 8.67184 14.1201 8.67107C14.258 8.67078 14.258 8.67078 14.3987 8.67049C14.6778 8.65346 14.6778 8.65346 15 8.40001C15.0533 8.14953 15.0533 8.14953 15.0428 7.85693C15.0431 7.74442 15.0435 7.63191 15.0439 7.51599C15.0424 7.39424 15.0409 7.27248 15.0394 7.14704C15.0391 7.02248 15.0389 6.89792 15.0387 6.76958C15.0379 6.50599 15.0362 6.24241 15.0337 5.97883C15.03 5.57377 15.0288 5.16876 15.0281 4.76368C15.027 4.50814 15.0258 4.25259 15.0244 3.99704C15.0239 3.87505 15.0233 3.75305 15.0228 3.62736C15.0217 3.51522 15.0205 3.40309 15.0193 3.28756C15.0185 3.18836 15.0177 3.08915 15.0168 2.98694C15.0247 2.75862 15.0247 2.75862 14.88 2.64001C14.7001 2.62821 14.5198 2.62465 14.3395 2.62448C14.2246 2.62411 14.1097 2.62373 13.9913 2.62334C13.8663 2.62358 13.7413 2.62382 13.6125 2.62407C13.4851 2.62396 13.3577 2.62384 13.2264 2.62373C12.9565 2.62364 12.6865 2.62387 12.4166 2.62437C12.0018 2.62501 11.587 2.62437 11.1722 2.6236C10.9106 2.62368 10.6491 2.62384 10.3875 2.62407C10.2625 2.62383 10.1375 2.62359 10.0087 2.62334C9.83632 2.6239 9.83632 2.6239 9.66046 2.62448C9.55876 2.62458 9.45706 2.62467 9.35228 2.62477C9.1192 2.61443 9.1192 2.61443 8.99999 2.76001ZM2.63999 15.6C2.58672 15.8505 2.58672 15.8505 2.59722 16.1431C2.59686 16.2556 2.5965 16.3681 2.59612 16.484C2.59761 16.6058 2.59909 16.7275 2.60061 16.853C2.60084 16.9775 2.60106 17.1021 2.6013 17.2304C2.6021 17.494 2.60377 17.7576 2.60624 18.0212C2.60998 18.4263 2.61116 18.8313 2.61186 19.2363C2.61296 19.4919 2.61421 19.7474 2.61561 20.003C2.61612 20.125 2.61663 20.247 2.61716 20.3727C2.61831 20.4848 2.61947 20.5969 2.62065 20.7125C2.62147 20.8117 2.62229 20.9109 2.62314 21.0131C2.61527 21.2414 2.61527 21.2414 2.75999 21.36C2.9355 21.3724 3.11159 21.3766 3.28754 21.3774C3.39967 21.3782 3.5118 21.379 3.62734 21.3798C3.81033 21.38 3.81033 21.38 3.99702 21.3802C4.12147 21.3806 4.24591 21.381 4.37413 21.3814C4.63793 21.382 4.90173 21.3823 5.16553 21.3822C5.57034 21.3825 5.97511 21.3847 6.37991 21.387C6.63561 21.3873 6.89132 21.3876 7.14702 21.3877C7.26877 21.3885 7.39053 21.3894 7.51597 21.3903C7.62848 21.3899 7.74099 21.3895 7.85691 21.3892C8.00586 21.3894 8.00586 21.3894 8.15782 21.3897C8.42738 21.3819 8.42738 21.3819 8.63999 21.12C8.67742 20.8803 8.67742 20.8803 8.67295 20.6028C8.67409 20.4958 8.67524 20.3889 8.67641 20.2787C8.6763 20.163 8.6762 20.0472 8.67608 19.928C8.67685 19.75 8.67685 19.75 8.67764 19.5684C8.67833 19.3171 8.67839 19.0658 8.67787 18.8146C8.67749 18.4295 8.6803 18.0445 8.68335 17.6595C8.68362 17.4156 8.68371 17.1718 8.68358 16.928C8.68469 16.8125 8.68579 16.697 8.68693 16.578C8.68618 16.4706 8.68544 16.3633 8.68467 16.2528C8.68474 16.1584 8.68482 16.064 8.6849 15.9667C8.62728 15.6502 8.54068 15.5459 8.27999 15.36C8.03394 15.3066 8.03394 15.3066 7.76015 15.3153C7.65562 15.3146 7.5511 15.3138 7.44342 15.3131C7.27466 15.3147 7.27466 15.3147 7.10249 15.3164C6.98666 15.3164 6.87083 15.3163 6.75148 15.3162C6.50657 15.3165 6.26165 15.3177 6.01675 15.3197C5.64144 15.3225 5.26624 15.3221 4.89093 15.3213C4.65311 15.322 4.4153 15.3229 4.17749 15.3239C4.06498 15.3238 3.95248 15.3237 3.83656 15.3236C3.73204 15.3247 3.62752 15.3259 3.51983 15.3271C3.42792 15.3276 3.33601 15.3282 3.24131 15.3287C2.96222 15.3468 2.96222 15.3468 2.63999 15.6ZM15.36 15.72C15.3065 15.9718 15.3065 15.9718 15.3153 16.2528C15.3146 16.3601 15.3138 16.4674 15.313 16.578C15.3142 16.6935 15.3153 16.809 15.3164 16.928C15.3163 17.0468 15.3163 17.1655 15.3162 17.2879C15.3165 17.539 15.3177 17.7901 15.3196 18.0411C15.3225 18.4264 15.3221 18.8116 15.3213 19.197C15.322 19.4406 15.3228 19.6843 15.3239 19.928C15.3238 20.0437 15.3237 20.1595 15.3236 20.2787C15.3247 20.3857 15.3259 20.4926 15.327 20.6028C15.3276 20.6971 15.3281 20.7914 15.3287 20.8886C15.34 21.1485 15.34 21.1485 15.6 21.36C15.8513 21.3958 15.8513 21.3958 16.1431 21.3892C16.2556 21.3895 16.3681 21.3899 16.484 21.3903C16.6058 21.3894 16.7275 21.3886 16.853 21.3877C16.9775 21.3876 17.1021 21.3876 17.2304 21.3875C17.494 21.3871 17.7576 21.3862 18.0212 21.3847C18.4262 21.3825 18.8313 21.3822 19.2363 21.3823C19.4919 21.3817 19.7474 21.381 20.003 21.3802C20.125 21.38 20.2469 21.3799 20.3726 21.3798C20.4848 21.379 20.5969 21.3782 20.7124 21.3774C20.8612 21.3768 20.8612 21.3768 21.0131 21.3761C21.2414 21.3848 21.2414 21.3848 21.36 21.24C21.373 21.0645 21.3779 20.8884 21.3793 20.7125C21.3805 20.6003 21.3816 20.4882 21.3828 20.3727C21.3833 20.2507 21.3838 20.1287 21.3844 20.003C21.3854 19.8163 21.3854 19.8163 21.3864 19.6259C21.3876 19.3621 21.3884 19.0983 21.3888 18.8345C21.39 18.4296 21.3937 18.0249 21.3975 17.6201C21.3983 17.3644 21.3989 17.1087 21.3994 16.853C21.4008 16.7312 21.4023 16.6095 21.4039 16.484C21.4035 16.3715 21.4031 16.259 21.4028 16.1431C21.4032 16.0438 21.4036 15.9445 21.4041 15.8422C21.3895 15.7623 21.375 15.6823 21.36 15.6C20.9871 15.3514 20.9033 15.3296 20.4801 15.3271C20.3756 15.3259 20.2711 15.3248 20.1634 15.3236C19.9947 15.3237 19.9947 15.3237 19.8225 15.3239C19.7067 15.3234 19.5908 15.3229 19.4715 15.3224C19.2266 15.3217 18.9817 15.3216 18.7367 15.3221C18.3614 15.3225 17.9862 15.3197 17.6109 15.3167C17.3731 15.3164 17.1353 15.3163 16.8975 15.3164C16.785 15.3153 16.6725 15.3142 16.5566 15.3131C16.452 15.3138 16.3475 15.3146 16.2398 15.3153C16.1479 15.3153 16.056 15.3152 15.9613 15.3151C15.6482 15.3734 15.5442 15.462 15.36 15.72Z" fill="#222222"/>
</svg>
