<svg width="24" height="25" viewBox="0 0 24 25" fill="none" xmlns="http://www.w3.org/2000/svg">
<g clip-path="url(#clip0_1_2409)">
<mask id="mask0_1_2409" style="mask-type:luminance" maskUnits="userSpaceOnUse" x="-1" y="0" width="25" height="25">
<path d="M-0.0195312 0.1875H23.9805V24.1875H-0.0195312V0.1875Z" fill="white"/>
</mask>
<g mask="url(#mask0_1_2409)">
<path d="M20.9805 4.6875C21.3947 4.6875 21.7482 4.83395 22.0411 5.12684C22.3341 5.41973 22.4805 5.77328 22.4805 6.1875V18.1875C22.4805 18.6017 22.3341 18.9553 22.0411 19.2482C21.7482 19.5411 21.3947 19.6875 20.9805 19.6875H2.98047C2.56625 19.6875 2.2127 19.5411 1.91981 19.2482C1.62692 18.9553 1.48047 18.6017 1.48047 18.1875V6.1875C1.48047 5.77328 1.62692 5.41973 1.91981 5.12684C2.2127 4.83395 2.56625 4.6875 2.98047 4.6875H20.9805ZM2.98047 3.1875C2.15204 3.1875 1.44494 3.48039 0.859148 4.06618C0.273362 4.65197 -0.0195312 5.35907 -0.0195312 6.1875V18.1875C-0.0195312 19.016 0.273362 19.723 0.859148 20.3089C1.44494 20.8946 2.15204 21.1875 2.98047 21.1875H20.9805C21.809 21.1875 22.516 20.8946 23.1018 20.3089C23.6875 19.723 23.9805 19.016 23.9805 18.1875V6.1875C23.9805 5.35907 23.6875 4.65197 23.1018 4.06618C22.516 3.48039 21.809 3.1875 20.9805 3.1875H2.98047Z" fill="#4B5563"/>
<path d="M2.98047 8.4375C2.98047 8.23039 3.05369 8.05362 3.20014 7.90717C3.34659 7.76072 3.52336 7.6875 3.73047 7.6875H6.73047C6.93758 7.6875 7.11435 7.76072 7.2608 7.90717C7.40725 8.05362 7.48047 8.23039 7.48047 8.4375V9.9375C7.48047 10.1446 7.40725 10.3214 7.2608 10.4678C7.11435 10.6143 6.93758 10.6875 6.73047 10.6875H3.73047C3.52336 10.6875 3.34659 10.6143 3.20014 10.4678C3.05369 10.3214 2.98047 10.1446 2.98047 9.9375V8.4375ZM2.98047 12.9375C2.98047 12.7304 3.05369 12.5536 3.20014 12.4072C3.34659 12.2607 3.52336 12.1875 3.73047 12.1875H11.2305C11.4376 12.1875 11.6143 12.2607 11.7608 12.4072C11.9072 12.5536 11.9805 12.7304 11.9805 12.9375C11.9805 13.1446 11.9072 13.3214 11.7608 13.4678C11.6143 13.6143 11.4376 13.6875 11.2305 13.6875H3.73047C3.52336 13.6875 3.34659 13.6143 3.20014 13.4678C3.05369 13.3214 2.98047 13.1446 2.98047 12.9375ZM2.98047 15.9375C2.98047 15.7304 3.05369 15.5536 3.20014 15.4072C3.34659 15.2607 3.52336 15.1875 3.73047 15.1875H5.23047C5.43758 15.1875 5.61435 15.2607 5.7608 15.4072C5.90724 15.5536 5.98047 15.7304 5.98047 15.9375C5.98047 16.1446 5.90724 16.3214 5.7608 16.4678C5.61435 16.6143 5.43758 16.6875 5.23047 16.6875H3.73047C3.52336 16.6875 3.34659 16.6143 3.20014 16.4678C3.05369 16.3214 2.98047 16.1446 2.98047 15.9375ZM7.48047 15.9375C7.48047 15.7304 7.55369 15.5536 7.70014 15.4072C7.84659 15.2607 8.02336 15.1875 8.23047 15.1875H9.73047C9.93758 15.1875 10.1143 15.2607 10.2608 15.4072C10.4072 15.5536 10.4805 15.7304 10.4805 15.9375C10.4805 16.1446 10.4072 16.3214 10.2608 16.4678C10.1143 16.6143 9.93758 16.6875 9.73047 16.6875H8.23047C8.02336 16.6875 7.84659 16.6143 7.70014 16.4678C7.55369 16.3214 7.48047 16.1446 7.48047 15.9375ZM11.9805 15.9375C11.9805 15.7304 12.0537 15.5536 12.2001 15.4072C12.3466 15.2607 12.5234 15.1875 12.7305 15.1875H14.2305C14.4376 15.1875 14.6143 15.2607 14.7608 15.4072C14.9072 15.5536 14.9805 15.7304 14.9805 15.9375C14.9805 16.1446 14.9072 16.3214 14.7608 16.4678C14.6143 16.6143 14.4376 16.6875 14.2305 16.6875H12.7305C12.5234 16.6875 12.3466 16.6143 12.2001 16.4678C12.0537 16.3214 11.9805 16.1446 11.9805 15.9375ZM16.4805 15.9375C16.4805 15.7304 16.5537 15.5536 16.7002 15.4072C16.8466 15.2607 17.0233 15.1875 17.2305 15.1875H18.7305C18.9376 15.1875 19.1143 15.2607 19.2607 15.4072C19.4073 15.5536 19.4805 15.7304 19.4805 15.9375C19.4805 16.1446 19.4073 16.3214 19.2607 16.4678C19.1143 16.6143 18.9376 16.6875 18.7305 16.6875H17.2305C17.0233 16.6875 16.8466 16.6143 16.7002 16.4678C16.5537 16.3214 16.4805 16.1446 16.4805 15.9375Z" fill="#4B5563"/>
</g>
</g>
<defs>
<clipPath id="clip0_1_2409">
<rect width="24" height="24" fill="white" transform="translate(0 0.137695)"/>
</clipPath>
</defs>
</svg>
