<svg width="24" height="26" viewBox="0 0 24 26" fill="none" xmlns="http://www.w3.org/2000/svg">
<path d="M3.32762 8.68585H7.71436C7.7013 8.77978 7.68924 8.8747 7.68271 8.97114C7.66915 9.15396 7.73244 9.33628 7.8565 9.47038C7.98056 9.60449 8.15735 9.68133 8.34068 9.68133H15.6591C15.8429 9.68133 16.0197 9.60449 16.1438 9.47038C16.2678 9.33628 16.3311 9.15396 16.3176 8.97114C16.31 8.8747 16.2985 8.77978 16.2849 8.68585H20.6727C20.8465 8.68585 21.0142 8.61303 21.1322 8.48545C21.2503 8.35838 21.3105 8.1856 21.2975 8.01182C21.185 6.50755 20.2026 5.24838 18.8696 4.71599C19.3849 4.30112 19.7149 3.66526 19.7149 2.95406C19.7159 1.70695 18.7018 0.692383 17.4562 0.692383C16.2116 0.692383 15.1975 1.70695 15.1975 2.95406C15.1975 3.66526 15.5275 4.30112 16.0428 4.71599C15.4667 4.94502 14.9484 5.31217 14.5371 5.79183C14.2206 5.5618 13.8721 5.37244 13.5014 5.23382C14.1172 4.77375 14.517 4.03894 14.517 3.21222C14.517 1.82297 13.3879 0.692383 12.0001 0.692383C10.6124 0.692383 9.48332 1.82297 9.48332 3.21222C9.48332 4.03894 9.88261 4.77375 10.4989 5.23382C10.1277 5.37244 9.77965 5.5618 9.46272 5.79183C9.05137 5.31217 8.53304 4.94502 7.95695 4.71599C8.47227 4.30112 8.80276 3.66526 8.80276 2.95406C8.80276 1.70695 7.78869 0.692383 6.54359 0.692383C5.29798 0.692383 4.28442 1.70695 4.28442 2.95406C4.28442 3.66526 4.61541 4.30112 5.12973 4.71599C3.79773 5.24838 2.81531 6.50755 2.7023 8.01132C2.68874 8.1851 2.74901 8.35838 2.86704 8.48545C2.98507 8.61303 3.15283 8.68585 3.32762 8.68585ZM15.9675 2.95406C15.9675 2.13236 16.6355 1.46385 17.4562 1.46385C18.2774 1.46385 18.9454 2.13236 18.9454 2.95406C18.9454 3.77526 18.2774 4.44427 17.4572 4.44427C17.4572 4.44427 17.4572 4.44427 17.4562 4.44427C16.6355 4.44427 15.9675 3.77526 15.9675 2.95406ZM17.4562 5.21524H17.4572C19.0087 5.21574 20.3221 6.38902 20.5145 7.91488H16.1021C15.8957 7.30313 15.5546 6.75366 15.1177 6.29811C15.7023 5.61503 16.5541 5.21524 17.4562 5.21524ZM10.2533 3.21222C10.2533 2.24838 11.0363 1.46385 12.0001 1.46385C12.9635 1.46385 13.7465 2.24838 13.7465 3.21222C13.7465 4.17656 12.9635 4.96159 12.0001 4.96159C11.0363 4.96159 10.2533 4.17656 10.2533 3.21222ZM15.5391 8.91036H8.46122C8.65609 7.1188 10.188 5.73256 12.0001 5.73256C13.8118 5.73256 15.3442 7.1188 15.5391 8.91036ZM5.05439 2.95406C5.05439 2.13236 5.72239 1.46385 6.54359 1.46385C7.36428 1.46385 8.03229 2.13236 8.03229 2.95406C8.03229 3.77526 7.36428 4.44427 6.54359 4.44427C6.54309 4.44427 6.54309 4.44427 6.54309 4.44427C5.72239 4.44427 5.05439 3.77526 5.05439 2.95406ZM6.54309 5.21524H6.54359C7.44565 5.21524 8.29798 5.61503 8.88211 6.29811C8.44515 6.75366 8.10512 7.30313 7.89768 7.91488H3.48633C3.67819 6.38902 4.99211 5.21574 6.54309 5.21524ZM23.9549 19.0399L22.297 10.7085C22.2553 10.497 22.1322 10.3132 21.9529 10.1931C21.7721 10.0731 21.5572 10.0294 21.3447 10.0716L19.2116 10.497C18.9996 10.5397 18.8168 10.6617 18.6968 10.8426C18.5762 11.0224 18.5335 11.2383 18.5752 11.4508L18.5943 11.5452C17.3201 11.9666 15.7716 12.0841 13.846 10.494C12.9615 9.7632 11.8083 9.73909 10.977 10.4342L10.1167 11.1535H5.42757C5.37131 10.8335 5.12521 10.5648 4.78819 10.497L2.65509 10.0716C2.44364 10.0294 2.22767 10.0731 2.04735 10.1931C1.86755 10.3132 1.74499 10.497 1.7028 10.7085L0.0448435 19.0399C0.00315586 19.2514 0.045848 19.4674 0.16639 19.6477C0.286431 19.828 0.469253 19.951 0.680705 19.9932L2.81431 20.4187C2.86704 20.4292 2.92079 20.4342 2.97302 20.4342C3.13173 20.4342 3.28693 20.3875 3.42154 20.2976C3.60185 20.1771 3.7249 19.9937 3.76659 19.7818L3.77262 19.7491L8.82084 24.8019C9.13274 25.1153 9.54409 25.272 9.95494 25.272C10.3658 25.272 10.7761 25.1153 11.089 24.8019C11.2995 24.5909 11.4451 24.3308 11.5124 24.046L12.2041 24.7381C12.8289 25.3639 13.8465 25.3639 14.4723 24.7381C14.6882 24.5216 14.8299 24.2584 14.8957 23.9812C15.195 24.266 15.5858 24.4222 16.0022 24.4222C16.4316 24.4222 16.8344 24.2554 17.1368 23.9531C17.4808 23.6085 17.636 23.1439 17.6008 22.6914C17.642 22.6949 17.6842 22.6964 17.7264 22.6964C18.1548 22.6964 18.5582 22.5302 18.8605 22.2273C19.2819 21.8049 19.4271 21.1756 19.2553 20.6145L20.2091 19.6597L20.2332 19.7818C20.2754 19.9937 20.3979 20.1771 20.5782 20.2976C20.7134 20.3875 20.868 20.4342 21.0268 20.4342C21.0795 20.4342 21.1327 20.4292 21.1855 20.4187L23.3196 19.9932C23.5305 19.951 23.7134 19.828 23.8339 19.6477C23.9544 19.4674 23.9971 19.2514 23.9549 19.0399ZM2.99412 19.6557C2.98759 19.6602 2.97704 19.6648 2.96498 19.6628L0.830881 19.2363C0.818827 19.2343 0.81079 19.2258 0.806772 19.2198C0.802252 19.2132 0.797732 19.2032 0.800243 19.1906L2.4582 10.8591C2.46122 10.8461 2.46875 10.8385 2.47528 10.834C2.48081 10.831 2.48834 10.8275 2.49688 10.8275C2.49939 10.8275 2.5024 10.8275 2.50441 10.828L4.63801 11.2534C4.65861 11.2574 4.67317 11.279 4.66915 11.2996L3.01069 19.6311C3.00868 19.6437 3.00014 19.6512 2.99412 19.6557ZM18.3151 21.6823C18.1589 21.839 17.9494 21.9254 17.7254 21.9254C17.5019 21.9254 17.293 21.839 17.1368 21.6823L13.5064 18.049C13.3562 17.8983 13.1126 17.8983 12.962 18.049C12.8118 18.1987 12.8118 18.4433 12.962 18.5939L16.5913 22.2273C16.9168 22.5528 16.9168 23.0821 16.5918 23.4081C16.4346 23.5648 16.2257 23.6507 16.0022 23.6507C15.7781 23.6507 15.5692 23.5648 15.4125 23.4081L11.5772 19.5683C11.4271 19.4176 11.183 19.4176 11.0328 19.5683C10.8821 19.719 10.8821 19.9631 11.0328 20.1138L13.9268 23.0118L13.9283 23.0133C14.2528 23.3388 14.2518 23.8677 13.9278 24.1921C13.6024 24.5171 13.0735 24.5181 12.7485 24.1921L9.64806 21.0887C9.49738 20.938 9.25379 20.938 9.10361 21.0887C8.95293 21.2388 8.95293 21.4834 9.10361 21.6341L10.5446 23.0761C10.5446 23.0766 10.5446 23.0766 10.5446 23.0766C10.7008 23.2333 10.7867 23.4428 10.7867 23.6663C10.7867 23.8908 10.7008 24.1002 10.5446 24.2569C10.2186 24.5819 9.69025 24.5819 9.36529 24.2569L3.95393 18.84L5.32963 11.9244H9.19351L8.11667 12.825C7.63801 13.2248 7.43309 13.7707 7.55263 14.3222L8.42054 18.3026C8.44213 18.4041 8.50491 18.493 8.59281 18.5482C8.68121 18.603 8.78819 18.6196 8.88914 18.5949C9.93384 18.3373 10.6325 17.8325 11.0253 17.0525C11.3643 16.3795 11.4321 15.6135 11.5029 14.8039C11.5119 14.7009 11.521 14.598 11.5305 14.494C11.5315 14.4885 11.532 14.4849 11.533 14.4819C11.6707 14.4342 12.3055 14.5723 13.2598 15.4402L18.4838 20.7461C18.625 21.06 18.5592 21.4382 18.3151 21.6823ZM18.8058 19.9742L13.8007 14.8913C13.7962 14.8863 13.7907 14.8817 13.7862 14.8772C12.7832 13.9621 11.8374 13.5452 11.2563 13.7627C10.9811 13.8652 10.8018 14.1002 10.7656 14.4071C10.7651 14.4101 10.7651 14.4131 10.7651 14.4161C10.7545 14.5231 10.7455 14.6301 10.7355 14.7366C10.6099 16.167 10.517 17.2313 9.08452 17.7341L8.30552 14.158C8.22717 13.8004 8.46272 13.5407 8.60989 13.4171L11.4703 11.0264C12.0082 10.5769 12.7656 10.6015 13.3552 11.0887C15.5275 12.8822 17.3472 12.7496 18.746 12.3061L20.0278 18.7501L18.8058 19.9742ZM23.193 19.2198C23.1895 19.2258 23.181 19.2343 23.1689 19.2363L21.0348 19.6628C21.0222 19.6648 21.0127 19.6602 21.0057 19.6557C20.9996 19.6512 20.9916 19.6437 20.9891 19.6311L19.3306 11.2996C19.3286 11.2876 19.3326 11.277 19.3372 11.27C19.3417 11.264 19.3492 11.2559 19.3623 11.2534L21.4954 10.828C21.4974 10.8275 21.5004 10.8275 21.5029 10.8275C21.5119 10.8275 21.5195 10.831 21.5245 10.834C21.5315 10.8385 21.5391 10.8461 21.5421 10.8591L23.1995 19.1906C23.2021 19.2032 23.1975 19.2132 23.193 19.2198Z" fill="#222222"/>
</svg>
