<svg width="24" height="24" viewBox="0 0 24 24" fill="none" xmlns="http://www.w3.org/2000/svg">
<path d="M16.2004 15.6008C16.0413 15.6008 15.8886 15.664 15.7761 15.7765C15.6636 15.889 15.6004 16.0417 15.6004 16.2008C15.6004 16.3599 15.6636 16.5125 15.7761 16.625C15.8886 16.7376 16.0413 16.8008 16.2004 16.8008H18.6004C18.7595 16.8008 18.9121 16.7376 19.0247 16.625C19.1372 16.5125 19.2004 16.3599 19.2004 16.2008C19.2004 16.0417 19.1372 15.889 19.0247 15.7765C18.9121 15.664 18.7595 15.6008 18.6004 15.6008H16.2004ZM2.40039 8.10078C2.40039 7.22557 2.74807 6.3862 3.36694 5.76733C3.98581 5.14846 4.82518 4.80078 5.70039 4.80078H18.3004C19.1756 4.80078 20.015 5.14846 20.6338 5.76733C21.2527 6.3862 21.6004 7.22557 21.6004 8.10078V15.9008C21.6004 16.776 21.2527 17.6154 20.6338 18.2342C20.015 18.8531 19.1756 19.2008 18.3004 19.2008H5.70039C4.82518 19.2008 3.98581 18.8531 3.36694 18.2342C2.74807 17.6154 2.40039 16.776 2.40039 15.9008V8.10078ZM5.70039 6.00078C5.14344 6.00078 4.60929 6.22203 4.21547 6.61586C3.82164 7.00968 3.60039 7.54383 3.60039 8.10078V9.60078H20.4004V8.10078C20.4004 7.54383 20.1791 7.00968 19.7853 6.61586C19.3915 6.22203 18.8573 6.00078 18.3004 6.00078H5.70039ZM20.4004 10.8008H3.60039V15.9008C3.60039 17.06 4.54119 18.0008 5.70039 18.0008H18.3004C18.8573 18.0008 19.3915 17.7795 19.7853 17.3857C20.1791 16.9919 20.4004 16.4577 20.4004 15.9008V10.8008Z" fill="#222222"/>
</svg>
