<svg width="25" height="25" viewBox="0 0 25 25" fill="none" xmlns="http://www.w3.org/2000/svg">
<path d="M5.5 5.94824H18.5C19.2956 5.94824 20.0587 6.26431 20.6213 6.82692C21.1839 7.38953 21.5 8.15259 21.5 8.94824V17.9482C21.5 18.7439 21.1839 19.507 20.6213 20.0696C20.0587 20.6322 19.2956 20.9482 18.5 20.9482H5.5C4.70435 20.9482 3.94129 20.6322 3.37868 20.0696C2.81607 19.507 2.5 18.7439 2.5 17.9482V8.94824C2.5 8.15259 2.81607 7.38953 3.37868 6.82692C3.94129 6.26431 4.70435 5.94824 5.5 5.94824ZM5.5 6.94824C5 6.94824 4.56 7.11824 4.22 7.41824L12 12.4482L19.78 7.41824C19.44 7.11824 19 6.94824 18.5 6.94824H5.5ZM12 13.6582L3.63 8.22824C3.55 8.44824 3.5 8.69824 3.5 8.94824V17.9482C3.5 18.4787 3.71071 18.9874 4.08579 19.3625C4.46086 19.7375 4.96957 19.9482 5.5 19.9482H18.5C19.0304 19.9482 19.5391 19.7375 19.9142 19.3625C20.2893 18.9874 20.5 18.4787 20.5 17.9482V8.94824C20.5 8.69824 20.45 8.44824 20.37 8.22824L12 13.6582Z" fill="#F7F7F7" fill-opacity="0.66"/>
</svg>
