<svg width="24" height="25" viewBox="0 0 24 25" fill="none" xmlns="http://www.w3.org/2000/svg">
<mask id="mask0_1_2350" style="mask-type:luminance" maskUnits="userSpaceOnUse" x="0" y="0" width="24" height="25">
<path d="M0 0.0917969H24V24.0918H0V0.0917969Z" fill="white"/>
</mask>
<g mask="url(#mask0_1_2350)">
<path d="M21 4.5918C21.4142 4.5918 21.7677 4.73824 22.0606 5.03113C22.3536 5.32404 22.5 5.67759 22.5 6.0918V18.0918C22.5 18.5059 22.3536 18.8595 22.0606 19.1524C21.7677 19.4454 21.4142 19.5918 21 19.5918H3C2.58579 19.5918 2.23224 19.4454 1.93933 19.1524C1.64644 18.8595 1.5 18.5059 1.5 18.0918V6.0918C1.5 5.67759 1.64644 5.32404 1.93933 5.03113C2.23224 4.73824 2.58579 4.5918 3 4.5918H21ZM3 3.0918C2.17158 3.0918 1.46447 3.38469 0.878679 3.97048C0.292893 4.55626 0 5.26338 0 6.0918V18.0918C0 18.9202 0.292893 19.6273 0.878679 20.2131C1.46447 20.7988 2.17158 21.0918 3 21.0918H21C21.8284 21.0918 22.5355 20.7988 23.1213 20.2131C23.7071 19.6273 24 18.9202 24 18.0918V6.0918C24 5.26338 23.7071 4.55626 23.1213 3.97048C22.5355 3.38469 21.8284 3.0918 21 3.0918H3Z" fill="#061F61"/>
<path d="M3 8.3418C3 8.13469 3.07322 7.95791 3.21967 7.81147C3.36612 7.66502 3.54289 7.5918 3.75 7.5918H6.75C6.9571 7.5918 7.13388 7.66502 7.28032 7.81147C7.42677 7.95791 7.5 8.13469 7.5 8.3418V9.8418C7.5 10.0489 7.42677 10.2257 7.28032 10.3721C7.13388 10.5186 6.9571 10.5918 6.75 10.5918H3.75C3.54289 10.5918 3.36612 10.5186 3.21967 10.3721C3.07322 10.2257 3 10.0489 3 9.8418V8.3418ZM3 12.8418C3 12.6347 3.07322 12.4579 3.21967 12.3115C3.36612 12.165 3.54289 12.0918 3.75 12.0918H11.25C11.4571 12.0918 11.6339 12.165 11.7803 12.3115C11.9268 12.4579 12 12.6347 12 12.8418C12 13.0489 11.9268 13.2257 11.7803 13.3721C11.6339 13.5186 11.4571 13.5918 11.25 13.5918H3.75C3.54289 13.5918 3.36612 13.5186 3.21967 13.3721C3.07322 13.2257 3 13.0489 3 12.8418ZM3 15.8418C3 15.6347 3.07322 15.4579 3.21967 15.3115C3.36612 15.165 3.54289 15.0918 3.75 15.0918H5.25C5.4571 15.0918 5.63388 15.165 5.78032 15.3115C5.92677 15.4579 6 15.6347 6 15.8418C6 16.0489 5.92677 16.2257 5.78032 16.3721C5.63388 16.5186 5.4571 16.5918 5.25 16.5918H3.75C3.54289 16.5918 3.36612 16.5186 3.21967 16.3721C3.07322 16.2257 3 16.0489 3 15.8418ZM7.5 15.8418C7.5 15.6347 7.57323 15.4579 7.71968 15.3115C7.86612 15.165 8.04289 15.0918 8.25 15.0918H9.75C9.95711 15.0918 10.1339 15.165 10.2803 15.3115C10.4268 15.4579 10.5 15.6347 10.5 15.8418C10.5 16.0489 10.4268 16.2257 10.2803 16.3721C10.1339 16.5186 9.95711 16.5918 9.75 16.5918H8.25C8.04289 16.5918 7.86612 16.5186 7.71968 16.3721C7.57323 16.2257 7.5 16.0489 7.5 15.8418ZM12 15.8418C12 15.6347 12.0732 15.4579 12.2197 15.3115C12.3661 15.165 12.5429 15.0918 12.75 15.0918H14.25C14.4571 15.0918 14.6339 15.165 14.7803 15.3115C14.9268 15.4579 15 15.6347 15 15.8418C15 16.0489 14.9268 16.2257 14.7803 16.3721C14.6339 16.5186 14.4571 16.5918 14.25 16.5918H12.75C12.5429 16.5918 12.3661 16.5186 12.2197 16.3721C12.0732 16.2257 12 16.0489 12 15.8418ZM16.5 15.8418C16.5 15.6347 16.5732 15.4579 16.7197 15.3115C16.8661 15.165 17.0429 15.0918 17.25 15.0918H18.75C18.9572 15.0918 19.1339 15.165 19.2804 15.3115C19.4268 15.4579 19.5 15.6347 19.5 15.8418C19.5 16.0489 19.4268 16.2257 19.2804 16.3721C19.1339 16.5186 18.9572 16.5918 18.75 16.5918H17.25C17.0429 16.5918 16.8661 16.5186 16.7197 16.3721C16.5732 16.2257 16.5 16.0489 16.5 15.8418Z" fill="#061F61"/>
</g>
</svg>
