<svg width="25" height="25" viewBox="0 0 25 25" fill="none" xmlns="http://www.w3.org/2000/svg">
<path fill-rule="evenodd" clip-rule="evenodd" d="M17.1699 13.1309C18.5399 14.0609 19.4999 15.3209 19.4999 17.0009V20.0009H22.4999C23.0499 20.0009 23.4999 19.5509 23.4999 19.0009V17.0009C23.4999 14.8209 19.9299 13.5309 17.1699 13.1309Z" fill="#666666"/>
<path d="M9.5 12C11.7091 12 13.5 10.2091 13.5 8C13.5 5.79086 11.7091 4 9.5 4C7.29086 4 5.5 5.79086 5.5 8C5.5 10.2091 7.29086 12 9.5 12Z" fill="#666666"/>
<path fill-rule="evenodd" clip-rule="evenodd" d="M15.5 12C17.71 12 19.5 10.21 19.5 8C19.5 5.79 17.71 4 15.5 4C15.03 4 14.59 4.1 14.17 4.24C15.0305 5.30422 15.5 6.6314 15.5 8C15.5 9.3686 15.0305 10.6958 14.17 11.76C14.59 11.9 15.03 12 15.5 12ZM9.5 13C6.83 13 1.5 14.34 1.5 17V19C1.5 19.55 1.95 20 2.5 20H16.5C17.05 20 17.5 19.55 17.5 19V17C17.5 14.34 12.17 13 9.5 13Z" fill="#666666"/>
</svg>
