<svg width="24" height="24" viewBox="0 0 24 24" fill="none" xmlns="http://www.w3.org/2000/svg">
<g clip-path="url(#clip0_2_15985)">
<path d="M21.6797 8.0625C22.0313 8.25781 22.3516 8.4961 22.6406 8.77734C22.9297 9.0586 23.1719 9.37109 23.3672 9.71484C23.5625 10.0586 23.7187 10.4219 23.836 10.8047C23.9531 11.1875 24.0078 11.5859 24 12H22.5C22.5 11.5938 22.4219 11.207 22.2656 10.8398C22.1094 10.4727 21.8945 10.1562 21.6211 9.89063C21.3476 9.625 21.0274 9.41016 20.6602 9.2461C20.293 9.08203 19.9062 9 19.5 9C19.0859 9 18.6992 9.07812 18.3398 9.23437C17.9804 9.39062 17.6641 9.60547 17.3906 9.8789C17.1172 10.1523 16.9024 10.4727 16.7461 10.8398C16.5899 11.207 16.5078 11.5938 16.5 12C16.5 12.7109 16.3398 13.3867 16.0195 14.0274C15.6992 14.668 15.25 15.1992 14.6719 15.6211C15.1796 15.8789 15.6367 16.1953 16.0429 16.5703C16.4492 16.9453 16.8008 17.3672 17.0976 17.836C17.3945 18.3047 17.6172 18.8047 17.7656 19.336C17.9141 19.8672 17.9922 20.4218 18 21H16.5C16.5 20.3828 16.3828 19.8008 16.1484 19.2539C15.914 18.707 15.5898 18.2305 15.1758 17.8242C14.7617 17.418 14.2852 17.0976 13.7461 16.8632C13.2071 16.6289 12.625 16.5078 12 16.5C11.3828 16.5 10.8008 16.6172 10.2539 16.8516C9.70703 17.086 9.23047 17.4102 8.82422 17.8242C8.41796 18.2383 8.09766 18.7148 7.86328 19.2539C7.6289 19.7929 7.50781 20.375 7.5 21H6C6 20.4296 6.07812 19.879 6.23437 19.3476C6.39062 18.8164 6.61328 18.3164 6.90234 17.8476C7.19141 17.3789 7.53906 16.9571 7.94531 16.5821C8.35157 16.2071 8.8125 15.8867 9.32813 15.6211C8.75782 15.1992 8.3125 14.668 7.99219 14.0274C7.67188 13.3867 7.50781 12.7109 7.5 12C7.5 11.5938 7.42188 11.207 7.26563 10.8398C7.10938 10.4727 6.89453 10.1562 6.6211 9.89063C6.34765 9.625 6.02735 9.41016 5.66016 9.2461C5.29297 9.08203 4.90625 9 4.5 9C4.08594 9 3.69922 9.07812 3.33984 9.23437C2.98046 9.39062 2.66406 9.60547 2.39063 9.8789C2.11718 10.1523 1.90235 10.4727 1.7461 10.8398C1.58984 11.207 1.50781 11.5938 1.5 12H0C0 11.5938 0.0546875 11.1992 0.164063 10.8164C0.273438 10.4336 0.425782 10.0703 0.621094 9.72656C0.816407 9.38281 1.0625 9.07031 1.35937 8.78906C1.65625 8.50781 1.97657 8.26562 2.32031 8.0625C2.0625 7.78907 1.86328 7.47265 1.72266 7.11328C1.58203 6.75391 1.50781 6.38281 1.5 6C1.5 5.59375 1.57812 5.20703 1.73437 4.83984C1.89062 4.47265 2.10547 4.15625 2.3789 3.89063C2.65235 3.625 2.96875 3.41016 3.32813 3.2461C3.6875 3.08203 4.07813 3 4.5 3C4.90625 3 5.29297 3.07812 5.66016 3.23437C6.02735 3.39062 6.34375 3.60547 6.60937 3.8789C6.875 4.15235 7.08984 4.47265 7.2539 4.83984C7.41797 5.20703 7.5 5.59375 7.5 6C7.5 6.38281 7.42969 6.75391 7.28906 7.11328C7.14844 7.47265 6.94531 7.78907 6.67969 8.0625C7.32031 8.41406 7.84375 8.89843 8.25 9.51563C8.67187 8.89062 9.21094 8.39844 9.86719 8.03906C10.5234 7.67969 11.2344 7.5 12 7.5C12.7578 7.5 13.4648 7.67969 14.1211 8.03906C14.7774 8.39844 15.3203 8.89062 15.75 9.51563C16.1562 8.89843 16.6796 8.41406 17.3203 8.0625C17.0626 7.78907 16.8632 7.47265 16.7226 7.11328C16.5821 6.75391 16.5078 6.38281 16.5 6C16.5 5.59375 16.5781 5.20703 16.7344 4.83984C16.8906 4.47265 17.1055 4.15625 17.3789 3.89063C17.6524 3.625 17.9688 3.41016 18.3281 3.2461C18.6875 3.08203 19.0781 3 19.5 3C19.9062 3 20.293 3.07812 20.6602 3.23437C21.0274 3.39062 21.3438 3.60547 21.6094 3.8789C21.875 4.15235 22.0898 4.47265 22.2539 4.83984C22.4179 5.20703 22.5 5.59375 22.5 6C22.5 6.38281 22.4297 6.75391 22.289 7.11328C22.1484 7.47265 21.9454 7.78907 21.6797 8.0625ZM3 6C3 6.21094 3.03906 6.40625 3.11719 6.58594C3.19531 6.76562 3.30078 6.92188 3.4336 7.05469C3.56641 7.1875 3.72656 7.29688 3.91406 7.38281C4.10156 7.46875 4.29688 7.50781 4.5 7.5C4.71094 7.5 4.90625 7.46094 5.08594 7.38281C5.26562 7.30469 5.42188 7.19922 5.55469 7.0664C5.6875 6.93359 5.79688 6.77344 5.88281 6.58594C5.96875 6.39844 6.00781 6.20312 6 6C6 5.78906 5.96094 5.59375 5.88281 5.41406C5.80469 5.23438 5.69922 5.07812 5.5664 4.94531C5.43359 4.8125 5.27344 4.70312 5.08594 4.61719C4.89844 4.53125 4.70312 4.49219 4.5 4.5C4.28906 4.5 4.09375 4.53906 3.91406 4.61719C3.73438 4.69531 3.57812 4.80078 3.44531 4.9336C3.3125 5.06641 3.20312 5.22656 3.11719 5.41406C3.03125 5.60156 2.99219 5.79688 3 6ZM12 15C12.4062 15 12.793 14.9219 13.1602 14.7656C13.5274 14.6094 13.8438 14.3945 14.1094 14.1211C14.375 13.8476 14.5898 13.5312 14.7539 13.1719C14.9179 12.8125 15 12.4219 15 12C15 11.5938 14.9219 11.207 14.7656 10.8398C14.6094 10.4727 14.3945 10.1562 14.1211 9.89063C13.8476 9.625 13.5274 9.41016 13.1602 9.2461C12.793 9.08203 12.4062 9 12 9C11.5859 9 11.1992 9.07812 10.8398 9.23437C10.4805 9.39062 10.1641 9.60547 9.89063 9.8789C9.61718 10.1523 9.40235 10.4727 9.2461 10.8398C9.08984 11.207 9.00781 11.5938 9 12C9 12.4141 9.07812 12.8008 9.23437 13.1602C9.39062 13.5196 9.60547 13.8359 9.8789 14.1094C10.1523 14.3828 10.4688 14.5976 10.8281 14.7539C11.1875 14.9101 11.5781 14.9922 12 15ZM18 6C18 6.21094 18.0391 6.40625 18.1172 6.58594C18.1954 6.76562 18.3008 6.92188 18.4336 7.05469C18.5664 7.1875 18.7266 7.29688 18.914 7.38281C19.1016 7.46875 19.2968 7.50781 19.5 7.5C19.711 7.5 19.9062 7.46094 20.086 7.38281C20.2656 7.30469 20.4218 7.19922 20.5547 7.0664C20.6875 6.93359 20.7968 6.77344 20.8828 6.58594C20.9688 6.39844 21.0078 6.20312 21 6C21 5.78906 20.9609 5.59375 20.8828 5.41406C20.8046 5.23438 20.6992 5.07812 20.5664 4.94531C20.4336 4.8125 20.2734 4.70312 20.086 4.61719C19.8984 4.53125 19.7032 4.49219 19.5 4.5C19.289 4.5 19.0938 4.53906 18.914 4.61719C18.7344 4.69531 18.5782 4.80078 18.4453 4.9336C18.3125 5.06641 18.2032 5.22656 18.1172 5.41406C18.0312 5.60156 17.9922 5.79688 18 6Z" fill="#222222"/>
</g>
<defs>
<clipPath id="clip0_2_15985">
<rect width="24" height="24" fill="white"/>
</clipPath>
</defs>
</svg>
