<svg width="25" height="25" viewBox="0 0 25 25" fill="none" xmlns="http://www.w3.org/2000/svg">
<g clip-path="url(#clip0_2_45845)">
<path d="M17.1172 12.75H1.11719M11.6172 7.75C11.6172 8.327 12.2822 9.312 12.8452 10.044C13.3335 10.6884 13.9227 11.2497 14.5902 11.706C15.3172 12.195 16.3172 12.75 17.1072 12.75C16.3172 12.75 15.3172 13.306 14.5902 13.794C13.9227 14.2503 13.3335 14.8116 12.8452 15.456C12.2822 16.188 11.6172 17.173 11.6172 17.75M8.61719 7.75V3.25H8.94619C13.3707 3.25009 17.772 2.61185 22.0142 1.355L22.3672 1.25H22.6172V24.25H22.3672L22.0142 24.145C17.772 22.8882 13.3707 22.2499 8.94619 22.25H8.61719V17.75" stroke="#061F61" stroke-width="1.5"/>
</g>
<defs>
<clipPath id="clip0_2_45845">
<rect width="24" height="24" fill="white" transform="translate(0.117188 0.75)"/>
</clipPath>
</defs>
</svg>
