<svg width="24" height="24" viewBox="0 0 24 24" fill="none" xmlns="http://www.w3.org/2000/svg">
<g clip-path="url(#clip0_3430_14990)">
<path d="M5.39207 15.3381C5.54977 15.3366 5.70747 15.3352 5.86996 15.3337C6.09538 15.3333 6.09538 15.3333 6.32535 15.333C6.46409 15.3325 6.60284 15.332 6.74579 15.3315C7.07957 15.3606 7.07957 15.3606 7.31957 15.6006C7.27997 15.7986 7.24037 15.9966 7.19957 16.2006C6.16997 16.2006 5.14037 16.2006 4.07957 16.2006C4.00037 16.359 3.92117 16.5174 3.83957 16.6806C3.72785 16.8545 3.61308 17.0264 3.49597 17.1967C3.42907 17.2942 3.36217 17.3918 3.29324 17.4923C3.18871 17.6437 3.18871 17.6437 3.08207 17.7981C3.01377 17.8977 2.94548 17.9972 2.87511 18.0998C2.48229 18.6712 2.08273 19.2362 1.67957 19.8006C8.49077 19.8006 15.302 19.8006 22.3196 19.8006C21.8048 19.0878 21.29 18.375 20.7596 17.6406C20.6309 17.3807 20.5022 17.1209 20.3696 16.8531C20.0716 16.5046 19.9006 16.3451 19.4533 16.2367C19.3281 16.2294 19.2029 16.2221 19.0739 16.2147C18.9382 16.2064 18.8024 16.1981 18.6625 16.1896C18.0406 16.1727 17.4212 16.1769 16.7996 16.2006C16.7246 15.9156 16.7246 15.9156 16.6796 15.6006C17.1407 15.1395 17.9325 15.2844 18.5546 15.2706C18.7057 15.2616 18.8568 15.2527 19.0125 15.2434C20.1082 15.2227 20.1082 15.2227 20.5785 15.6012C20.8277 15.9091 21.0356 16.2213 21.2396 16.5606C21.3535 16.7221 21.4682 16.8829 21.5841 17.043C21.6872 17.1944 21.7899 17.3461 21.8921 17.4981C22.0041 17.663 22.1161 17.8278 22.2282 17.9926C22.2832 18.0738 22.3382 18.155 22.3949 18.2387C22.7383 18.7432 23.0889 19.2428 23.438 19.7434C23.8848 20.4022 23.7862 21.0549 23.7896 21.8331C23.7933 22.0502 23.7933 22.0502 23.7971 22.2716C23.798 22.4794 23.798 22.4794 23.7989 22.6914C23.8001 22.8187 23.8012 22.946 23.8023 23.0771C23.7596 23.4006 23.7596 23.4006 23.6335 23.598C23.2766 23.8461 22.9124 23.8102 22.4931 23.8063C22.4 23.8069 22.3068 23.8075 22.2108 23.808C21.8977 23.8095 21.5846 23.8083 21.2714 23.8072C21.0473 23.8077 20.8232 23.8083 20.5991 23.8091C19.9897 23.8108 19.3803 23.8101 18.7709 23.809C18.134 23.8081 17.4971 23.8089 16.8602 23.8095C15.7904 23.8101 14.7207 23.8093 13.651 23.8076C12.4132 23.8056 11.1754 23.8062 9.93758 23.8082C8.87597 23.8098 7.81436 23.8101 6.75275 23.8091C6.11819 23.8086 5.48365 23.8085 4.84909 23.8097C4.2526 23.8107 3.65614 23.81 3.05965 23.8079C2.84037 23.8074 2.62108 23.8076 2.40179 23.8084C2.10317 23.8094 1.80463 23.8081 1.50601 23.8063C1.41859 23.8071 1.33117 23.8079 1.2411 23.8088C0.892339 23.8047 0.656654 23.8007 0.366301 23.5969C-0.129424 22.8291 0.120916 21.1539 0.239567 20.2806C0.448618 19.7394 0.695782 19.3921 1.07957 18.9606C1.2731 18.6993 1.46055 18.4342 1.64819 18.1686C1.84919 17.8847 2.05319 17.6032 2.25847 17.3223C2.48946 17.0063 2.72005 16.6899 2.94941 16.3726C3.75073 15.2652 4.01025 15.3388 5.39207 15.3381ZM1.07957 20.7606C1.07957 21.4734 1.07957 22.1862 1.07957 22.9206C8.28677 22.9206 15.494 22.9206 22.9196 22.9206C22.9196 22.2078 22.9196 21.495 22.9196 20.7606C15.7124 20.7606 8.50517 20.7606 1.07957 20.7606Z" fill="#858D96"/>
<path d="M5.31725 0.569389C5.9799 1.12417 6.31984 1.63373 6.40475 2.49689C6.38972 3.15694 6.10286 3.73627 5.63975 4.19939C5.71075 4.22847 5.78175 4.25755 5.8549 4.28751C6.66611 4.63158 7.31681 4.94937 7.7135 5.78751C7.91181 6.55061 7.8524 7.37826 7.79975 8.15939C7.60561 8.35353 7.38498 8.30612 7.11678 8.31736C7.00347 8.32238 6.89016 8.32741 6.77342 8.33259C6.65423 8.33731 6.53504 8.34203 6.41225 8.34689C6.29259 8.35207 6.17294 8.35725 6.04967 8.36259C5.75304 8.37537 5.45641 8.38761 5.15975 8.39939C5.24699 8.48349 5.33423 8.56759 5.42412 8.65424C5.74767 8.96692 6.06922 9.28159 6.39021 9.5969C6.52937 9.73303 6.66905 9.86863 6.80928 10.0037C7.01087 10.198 7.21045 10.3941 7.40975 10.5908C7.47274 10.6507 7.53574 10.7106 7.60064 10.7723C7.8847 11.0561 8.03253 11.2165 8.07912 11.6224C8.06613 11.7072 8.05313 11.792 8.03975 11.8794C7.78498 11.9876 7.78498 11.9876 7.43975 11.9994C7.16686 11.7491 6.94853 11.5122 6.716 11.2278C6.57235 11.0632 6.42805 10.899 6.28316 10.7355C6.20761 10.6499 6.13206 10.5644 6.05422 10.4762C4.6024 8.80674 4.6024 8.80674 2.58362 8.11219C1.83724 8.08391 1.09436 8.15025 0.359745 8.27939C0.0667988 7.6935 0.192947 6.82777 0.329745 6.20189C0.574547 5.47972 0.921274 4.9802 1.55975 4.55939C1.87627 4.42205 2.19236 4.31037 2.51975 4.19939C2.4455 4.11771 2.37125 4.03604 2.29475 3.95189C1.83006 3.30953 1.74276 2.70404 1.85506 1.93626C2.01961 1.28281 2.44848 0.83835 2.99975 0.479389C3.81234 0.151228 4.54508 0.161451 5.31725 0.569389ZM3.40475 1.29689C3.3339 1.33726 3.26305 1.37764 3.19006 1.41923C2.96353 1.56937 2.96353 1.56937 2.75975 1.91939C2.67584 2.49502 2.67397 2.97234 2.96975 3.47939C3.29311 3.76683 3.54456 3.94435 3.98178 3.98189C4.52988 3.94078 4.52988 3.94078 4.99896 3.67861C5.30006 3.31958 5.50445 3.01397 5.55725 2.54939C5.50917 2.04943 5.36246 1.82155 5.03975 1.43939C4.46469 1.07998 4.01179 0.939883 3.40475 1.29689ZM1.38443 5.86673C1.33014 5.98066 1.33014 5.98066 1.27475 6.09689C1.23669 6.17191 1.19864 6.24694 1.15943 6.32423C1.0408 6.68612 1.0408 6.68612 1.07975 7.43939C3.02015 7.43939 4.96055 7.43939 6.95975 7.43939C6.98451 6.35131 6.98451 6.35131 6.47975 5.51939C5.81724 5.02088 5.13413 5.10084 4.33595 5.10586C4.08831 5.10688 3.84102 5.10343 3.59342 5.09962C3.43602 5.0997 3.27863 5.09978 3.11646 5.09986C2.90162 5.09952 2.90162 5.09952 2.68243 5.09918C2.12632 5.18233 1.72908 5.4198 1.38443 5.86673Z" fill="#858D96"/>
<path d="M21.2828 0.662889C21.7154 1.02249 22.0951 1.35041 22.2011 1.92008C22.2661 2.64899 22.2559 3.21016 21.8411 3.84008C21.7231 3.96207 21.6035 4.0825 21.4811 4.20008C21.5594 4.22498 21.6376 4.24989 21.7183 4.27555C22.5853 4.58118 23.0948 4.95573 23.5352 5.76711C23.8503 6.46026 23.8026 7.29349 23.7611 8.04008C23.7215 8.11928 23.6819 8.19848 23.6411 8.28008C23.5432 8.27491 23.4453 8.26975 23.3445 8.26443C21.3944 8.09616 21.3944 8.09616 19.6558 8.72726C19.3417 9.06735 19.0992 9.44761 18.8662 9.8464C18.6222 10.2393 18.314 10.5743 18.0086 10.9201C17.9046 11.0423 17.801 11.1648 17.6978 11.2876C17.5999 11.4039 17.502 11.5202 17.4011 11.6401C17.2008 11.8798 17.0009 12.1199 16.8011 12.3601C16.6031 12.3205 16.4051 12.2809 16.2011 12.2401C16.1441 11.9246 16.1522 11.7148 16.3299 11.4431C16.5183 11.2174 16.7137 11.0006 16.9136 10.7851C17.0567 10.6258 17.1997 10.4665 17.3425 10.307C17.4134 10.2284 17.4843 10.1499 17.5574 10.0691C17.9357 9.64382 18.2902 9.19987 18.648 8.75726C18.8411 8.52008 18.8411 8.52008 18.9611 8.40008C18.8817 8.39707 18.8024 8.39406 18.7206 8.39096C18.3633 8.37709 18.0059 8.36235 17.6486 8.34758C17.5237 8.34286 17.3988 8.33814 17.2701 8.33328C17.1513 8.32825 17.0326 8.32323 16.9103 8.31804C16.8003 8.31365 16.6904 8.30925 16.5771 8.30472C16.3211 8.28008 16.3211 8.28008 16.2011 8.16008C16.1072 7.04594 16.0558 5.95199 16.8011 5.04008C17.2628 4.64814 17.7896 4.39652 18.3611 4.20008C18.3178 4.14609 18.2745 4.0921 18.2298 4.03648C17.7288 3.34194 17.6457 2.76391 17.7611 1.92008C17.9722 1.26188 18.3983 0.859163 18.9611 0.480076C19.7489 0.123312 20.5569 0.191833 21.2828 0.662889ZM18.8411 1.56008C18.5845 1.99301 18.4785 2.27198 18.4886 2.77508C18.6569 3.29135 18.8901 3.60653 19.3586 3.88508C19.974 4.02821 20.3876 3.91918 20.9261 3.60008C21.285 3.18991 21.3648 2.95913 21.3887 2.42586C21.3432 1.98835 21.1763 1.75802 20.8811 1.44008C20.1263 0.968305 19.5351 0.989848 18.8411 1.56008ZM17.2258 5.86742C17.1715 5.98135 17.1715 5.98135 17.1161 6.09758C17.078 6.1726 17.04 6.24762 17.0008 6.32492C16.8821 6.68681 16.8821 6.68681 16.9211 7.44008C18.8615 7.44008 20.8019 7.44008 22.8011 7.44008C22.8601 6.34698 22.8601 6.34698 22.3792 5.56508C21.7623 4.99366 20.9775 5.11542 20.1863 5.1156C19.9377 5.11508 19.6892 5.11072 19.4406 5.10617C19.2827 5.10571 19.1247 5.10524 18.962 5.10476C18.818 5.10378 18.674 5.10279 18.5257 5.10178C17.9675 5.18221 17.5713 5.41929 17.2258 5.86742Z" fill="#858D96"/>
<path d="M13.3204 0.599864C13.8378 1.03494 14.2145 1.48736 14.3188 2.17205C14.3546 2.86558 14.1802 3.38182 13.8004 3.95986C13.7212 4.03906 13.642 4.11826 13.5604 4.19986C13.6314 4.22894 13.7024 4.25803 13.7756 4.28799C14.5868 4.63206 15.2375 4.94984 15.6341 5.78799C15.8325 6.55108 15.773 7.37873 15.7204 8.15986C15.6004 8.27986 15.6004 8.27986 15.3004 8.29349C15.1703 8.29286 15.0402 8.29223 14.9062 8.29158C14.6956 8.291 14.6956 8.291 14.4808 8.29041C14.333 8.2894 14.1852 8.2884 14.0329 8.28736C13.8105 8.28655 13.8105 8.28655 13.5836 8.28572C13.2159 8.2843 12.8481 8.28232 12.4804 8.27986C12.4818 8.39835 12.4832 8.51684 12.4846 8.63893C12.4857 8.79269 12.4868 8.94644 12.4879 9.10486C12.4893 9.258 12.4907 9.41114 12.4921 9.56893C12.4804 9.95986 12.4804 9.95986 12.3604 10.1999C12.1605 10.205 11.9603 10.2047 11.7604 10.1999C11.6404 10.0799 11.6404 10.0799 11.6287 9.67439C11.6295 9.50705 11.6309 9.3397 11.6329 9.17236C11.6334 9.08705 11.634 9.00174 11.6345 8.91385C11.636 8.70252 11.6381 8.49119 11.6404 8.27986C11.5429 8.28049 11.4454 8.28112 11.3449 8.28177C10.9059 8.28425 10.4669 8.28582 10.0279 8.28736C9.87437 8.28837 9.72084 8.28937 9.56266 8.29041C9.41687 8.2908 9.27107 8.29118 9.12086 8.29158C8.98575 8.29221 8.85064 8.29284 8.71144 8.29349C8.4004 8.27986 8.40039 8.27986 8.28039 8.15986C8.12906 5.91472 8.12906 5.91472 8.76039 5.15986C9.27135 4.63729 9.7603 4.42265 10.4404 4.19986C10.3971 4.14727 10.3538 4.09468 10.3091 4.04049C9.78272 3.32104 9.71037 2.6751 9.84039 1.79986C10.0761 1.0991 10.5606 0.674343 11.1979 0.329864C11.9918 0.108296 12.6029 0.207293 13.3204 0.599864ZM10.9204 1.55986C10.6245 2.03504 10.5437 2.27891 10.6204 2.83486C10.825 3.29512 10.9983 3.53608 11.4004 3.83986C11.8861 3.98116 12.1451 3.99349 12.6229 3.82486C12.9959 3.57616 13.2119 3.3866 13.4404 2.99986C13.4983 2.53632 13.484 2.25573 13.2904 1.82986C12.9579 1.40233 12.7293 1.23633 12.2029 1.08736C11.6496 1.07799 11.3315 1.19104 10.9204 1.55986ZM9.26289 5.89486C9.04985 6.36373 9.04985 6.36373 9.00039 7.43986C10.9408 7.43986 12.8812 7.43986 14.8804 7.43986C14.9441 6.30327 14.9441 6.30327 14.4004 5.51986C13.7309 5.02669 13.0593 5.10128 12.2566 5.10634C12.009 5.10736 11.7617 5.10391 11.5141 5.1001C11.3567 5.10018 11.1993 5.10025 11.0371 5.10033C10.8223 5.1 10.8223 5.1 10.6031 5.09966C10.0206 5.18674 9.64191 5.4505 9.26289 5.89486Z" fill="#858D96"/>
<path d="M14.4519 11.0923C15.3373 11.7135 16.0965 12.6886 16.294 13.7741C16.4371 15.2491 16.2769 16.4927 15.3144 17.6666C14.3968 18.6726 13.3797 19.1408 12.0097 19.2111C10.7686 19.1733 9.78127 18.7419 8.88358 17.8977C7.90861 16.8607 7.63257 15.7527 7.64702 14.3605C7.73066 13.2372 8.21276 12.3162 8.99983 11.5198C10.5949 10.1872 12.657 10.0322 14.4519 11.0923ZM9.47983 12.2398C8.68432 13.2826 8.38832 14.1614 8.51983 15.4798C8.75508 16.4603 9.28143 17.2568 10.1145 17.8283C11.0313 18.3376 11.9608 18.4936 12.9823 18.2323C14.1867 17.8067 14.8556 16.9858 15.4048 15.8623C15.6505 14.6093 15.4611 13.5916 14.7973 12.5098C13.9941 11.7284 13.1532 11.2806 12.0298 11.2348C11.0741 11.2515 10.1584 11.5425 9.47983 12.2398Z" fill="#858D96"/>
<path d="M11.7609 11.7598C11.9589 11.7598 12.1569 11.7598 12.3609 11.7598C12.3609 11.8786 12.3609 11.9974 12.3609 12.1198C12.5094 12.1544 12.6579 12.1891 12.8109 12.2248C13.1679 12.3134 13.481 12.4131 13.8009 12.5998C13.7274 12.9552 13.6505 13.1254 13.4409 13.4398C13.0633 13.3558 12.7178 13.2285 12.3609 13.0798C12.3609 13.4758 12.3609 13.8718 12.3609 14.2798C12.5169 14.2909 12.5169 14.2909 12.6759 14.3023C13.2017 14.4288 13.4118 14.6287 13.8009 14.9998C14.0104 15.4188 13.9893 15.8626 13.9209 16.3198C13.7098 16.7359 13.4204 16.9877 13.0059 17.2048C12.7209 17.2798 12.7209 17.2798 12.3609 17.2798C12.3609 17.4382 12.3609 17.5966 12.3609 17.7598C12.1629 17.7598 11.9649 17.7598 11.7609 17.7598C11.7609 17.6014 11.7609 17.443 11.7609 17.2798C11.6913 17.268 11.6217 17.2563 11.55 17.2441C10.9094 17.1215 10.4783 16.9577 9.96094 16.5598C10.1281 16.1557 10.3184 15.9615 10.6809 15.7198C10.7923 15.7965 10.9037 15.8732 11.0184 15.9523C11.382 16.2101 11.382 16.2101 11.7609 16.3198C11.7609 15.9238 11.7609 15.5278 11.7609 15.1198C11.5926 15.0727 11.4243 15.0257 11.2509 14.9773C10.7398 14.8034 10.4557 14.6582 10.2009 14.1598C10.1173 13.6801 10.154 13.3109 10.3434 12.8623C10.7379 12.3862 11.1564 12.2061 11.7609 12.1198C11.7609 12.001 11.7609 11.8822 11.7609 11.7598ZM11.5209 13.0798C11.4417 13.159 11.3625 13.2382 11.2809 13.3198C11.3194 13.6321 11.3194 13.6321 11.4009 13.9198C11.5197 13.9594 11.6385 13.999 11.7609 14.0398C11.7609 13.723 11.7609 13.4062 11.7609 13.0798C11.6817 13.0798 11.6025 13.0798 11.5209 13.0798ZM12.3609 15.2398C12.3609 15.6358 12.3609 16.0318 12.3609 16.4398C12.5589 16.321 12.7569 16.2022 12.9609 16.0798C12.9383 15.7864 12.9383 15.7864 12.8409 15.4798C12.6825 15.4006 12.5241 15.3214 12.3609 15.2398Z" fill="#858D96"/>
</g>
<defs>
<clipPath id="clip0_3430_14990">
<rect width="24" height="24" fill="white"/>
</clipPath>
</defs>
</svg>
