<svg width="25" height="24" viewBox="0 0 25 24" fill="none" xmlns="http://www.w3.org/2000/svg">
<path d="M4.0604 6.73325C4.09654 6.733 4.13267 6.73274 4.1699 6.73248C4.29023 6.73182 4.41055 6.73215 4.53088 6.73248C4.61745 6.73221 4.70401 6.73189 4.79058 6.73151C5.02514 6.73067 5.25969 6.73072 5.49424 6.73099C5.69008 6.73113 5.88591 6.73085 6.08175 6.73056C6.54357 6.72991 7.00539 6.72998 7.46721 6.73051C7.94386 6.73105 8.4205 6.73039 8.89715 6.72913C9.30644 6.7281 9.71571 6.72778 10.125 6.72806C10.3694 6.72822 10.6139 6.7281 10.8583 6.7273C11.088 6.72658 11.3176 6.72676 11.5473 6.72764C11.6316 6.72781 11.716 6.72767 11.8003 6.72718C11.9153 6.72656 12.0303 6.7271 12.1453 6.72793C12.1788 6.72748 12.2123 6.72703 12.2468 6.72656C12.4065 6.72894 12.487 6.74115 12.6145 6.84078C12.6939 6.94727 12.7131 6.99534 12.7111 7.12642C12.7118 7.17283 12.7118 7.17283 12.7125 7.22017C12.6754 7.35999 12.6134 7.41222 12.5001 7.50142C12.3462 7.52483 12.3462 7.52483 12.1595 7.5248C12.1251 7.52505 12.0907 7.52531 12.0553 7.52557C11.94 7.52619 11.8248 7.52548 11.7095 7.52478C11.6269 7.52496 11.5443 7.52522 11.4617 7.52556C11.2837 7.52612 11.1057 7.5261 10.9278 7.52563C10.6463 7.5249 10.3648 7.52554 10.0833 7.52638C9.53644 7.52783 8.98956 7.52789 8.44268 7.5278C7.74707 7.52774 7.05147 7.52822 6.35586 7.53008C6.07613 7.53078 5.79641 7.53077 5.51668 7.5302C5.34248 7.52998 5.16829 7.53033 4.99409 7.53083C4.91343 7.53095 4.83276 7.53082 4.75209 7.53043C4.64177 7.52993 4.53148 7.5303 4.42116 7.53087C4.35949 7.53084 4.29781 7.53081 4.23427 7.53078C4.00522 7.55416 3.81127 7.60962 3.64663 7.77974C3.56154 7.93575 3.54118 8.07977 3.54086 8.25591C3.54068 8.29397 3.5405 8.33202 3.54032 8.37123C3.54036 8.41277 3.5404 8.45431 3.54044 8.49712C3.5403 8.54145 3.54016 8.58579 3.54002 8.63147C3.53961 8.78041 3.53954 8.92935 3.53947 9.07829C3.53925 9.18493 3.53902 9.29156 3.53876 9.3982C3.53815 9.68817 3.53785 9.97814 3.53764 10.2681C3.5375 10.4492 3.53731 10.6303 3.5371 10.8114C3.53653 11.313 3.53605 11.8145 3.53589 12.3161C3.53588 12.3482 3.53587 12.3803 3.53586 12.4133C3.53584 12.4455 3.53583 12.4777 3.53582 12.5108C3.5358 12.576 3.53578 12.6412 3.53576 12.7063C3.53575 12.7387 3.53574 12.771 3.53573 12.8043C3.53554 13.3282 3.53473 13.852 3.53364 14.3759C3.53252 14.9139 3.53195 15.4519 3.53188 15.9899C3.53184 16.2919 3.53156 16.5939 3.53072 16.896C3.52995 17.18 3.52985 17.4641 3.53026 17.7481C3.5303 17.8524 3.53009 17.9566 3.52963 18.0609C3.52903 18.2032 3.52931 18.3455 3.5298 18.4879C3.52942 18.5291 3.52904 18.5703 3.52865 18.6128C3.53069 18.8661 3.56854 19.0423 3.68765 19.267C3.87711 19.4504 4.07013 19.4604 4.32492 19.4607C4.40551 19.461 4.40551 19.461 4.48773 19.4613C4.57631 19.4612 4.57631 19.4612 4.66668 19.4611C4.73003 19.4613 4.79338 19.4614 4.85672 19.4616C5.03096 19.4619 5.20521 19.462 5.37945 19.462C5.5673 19.4621 5.75516 19.4625 5.94302 19.4628C6.35385 19.4634 6.76468 19.4637 7.17551 19.4639C7.43199 19.4641 7.68848 19.4643 7.94496 19.4645C8.65497 19.465 9.36499 19.4655 10.075 19.4657C10.1204 19.4657 10.1659 19.4657 10.2127 19.4657C10.281 19.4657 10.281 19.4657 10.3507 19.4657C10.4431 19.4658 10.5354 19.4658 10.6277 19.4658C10.6964 19.4658 10.6964 19.4658 10.7664 19.4658C11.5085 19.466 12.2506 19.4668 12.9927 19.4679C13.7545 19.469 14.5163 19.4696 15.278 19.4697C15.7058 19.4697 16.1335 19.47 16.5613 19.4708C16.9255 19.4716 17.2897 19.4718 17.6539 19.4714C17.8398 19.4712 18.0256 19.4713 18.2114 19.4719C18.3816 19.4725 18.5517 19.4725 18.7219 19.4719C18.8125 19.4718 18.9031 19.4723 18.9938 19.4729C19.2867 19.4712 19.5092 19.461 19.7658 19.3139C19.9326 19.1415 19.959 18.9659 19.9594 18.7326C19.9596 18.6916 19.9598 18.6505 19.96 18.6083C19.96 18.5637 19.9599 18.5191 19.9599 18.4731C19.9601 18.4258 19.9602 18.3786 19.9604 18.3298C19.9608 18.2272 19.961 18.1246 19.9612 18.022C19.9615 17.8597 19.9622 17.6974 19.9631 17.5351C19.9656 17.0736 19.9678 16.6121 19.9685 16.1506C19.969 15.8683 19.9704 15.5861 19.9724 15.3038C19.9729 15.1961 19.9732 15.0885 19.9731 14.9808C19.973 14.8305 19.974 14.6801 19.9753 14.5297C19.975 14.4851 19.9747 14.4405 19.9744 14.3945C19.9787 14.0931 19.9787 14.0931 20.0896 13.9426C20.1955 13.8711 20.2485 13.851 20.3751 13.853C20.4216 13.8523 20.4216 13.8523 20.4689 13.8515C20.6154 13.8904 20.6602 13.94 20.7501 14.0639C20.7792 14.2288 20.7762 14.3926 20.7752 14.5597C20.7756 14.6102 20.776 14.6607 20.7764 14.7127C20.7774 14.8799 20.7771 15.047 20.7767 15.2142C20.7769 15.3305 20.7772 15.4468 20.7776 15.5631C20.7781 15.8385 20.7777 16.1138 20.7769 16.3892C20.7762 16.67 20.7776 16.9508 20.7791 17.2316C20.7801 17.472 20.7801 17.7124 20.7797 17.9528C20.7796 18.0678 20.78 18.1828 20.7807 18.2978C20.7815 18.4591 20.7808 18.6204 20.7797 18.7817C20.7803 18.8289 20.7808 18.876 20.7814 18.9245C20.7764 19.2961 20.6785 19.6065 20.4225 19.8836C20.0337 20.2516 19.6819 20.272 19.1642 20.2699C19.0977 20.2701 19.0313 20.2704 18.9648 20.2708C18.7826 20.2715 18.6004 20.2714 18.4182 20.2712C18.2215 20.2711 18.0248 20.2717 17.8282 20.2723C17.443 20.2733 17.0578 20.2735 16.6727 20.2734C16.3596 20.2734 16.0464 20.2735 15.7333 20.2739C15.6431 20.274 15.5529 20.2741 15.4627 20.2742C15.3953 20.2743 15.3953 20.2743 15.3266 20.2743C14.4774 20.2752 13.6283 20.2752 12.7791 20.2748C12.0025 20.2746 11.226 20.2756 10.4494 20.2771C9.65181 20.2787 8.85419 20.2794 8.05656 20.2792C7.60886 20.2791 7.16116 20.2793 6.71346 20.2805C6.33229 20.2815 5.95113 20.2817 5.56996 20.2808C5.37556 20.2803 5.18118 20.2803 4.98679 20.2813C4.80863 20.2821 4.63051 20.2819 4.45236 20.2809C4.35779 20.2806 4.26323 20.2814 4.16867 20.2823C3.75638 20.2783 3.42762 20.211 3.1185 19.9238C2.80112 19.5906 2.72912 19.2831 2.73166 18.8363C2.73137 18.7889 2.73109 18.7414 2.73079 18.6926C2.73002 18.534 2.73024 18.3755 2.73046 18.217C2.73012 18.1032 2.72972 17.9893 2.72926 17.8755C2.72833 17.5986 2.72806 17.3218 2.72814 17.0449C2.72821 16.8197 2.72803 16.5946 2.72768 16.3694C2.72758 16.3045 2.72748 16.2395 2.72738 16.1746C2.72734 16.1423 2.72729 16.11 2.72724 16.0766C2.72635 15.4657 2.7264 14.8547 2.72672 14.2438C2.72698 13.6854 2.726 13.1271 2.72445 12.5688C2.72287 11.995 2.72216 11.4211 2.72238 10.8472C2.72248 10.5252 2.72224 10.2033 2.72107 9.88136C2.71998 9.57852 2.72011 9.27569 2.72107 8.97285C2.72123 8.86186 2.72099 8.75086 2.72032 8.63987C2.71946 8.48803 2.72006 8.33625 2.72102 8.18441C2.72043 8.14077 2.71984 8.09713 2.71924 8.05216C2.72406 7.69258 2.83108 7.38643 3.07779 7.11911C3.37154 6.84152 3.65839 6.72984 4.0604 6.73325Z" fill="#FF8000"/>
<path d="M18.3126 2.62431C18.4348 2.68453 18.5335 2.76592 18.6378 2.85283C18.6993 2.90066 18.761 2.9482 18.823 2.99546C18.8705 3.03175 18.8705 3.03175 18.919 3.06878C19.8496 3.75296 21.0375 4.20995 22.1814 4.35343C22.3948 4.38345 22.5197 4.43993 22.672 4.59306C23.2205 6.23864 22.9186 9.10871 22.1564 10.6399C21.8691 11.1833 21.4954 11.6446 21.0783 12.0931C21.0439 12.1302 21.0096 12.1673 20.9743 12.2055C20.3898 12.8115 19.6672 13.3163 18.9396 13.7361C18.8448 13.7908 18.7507 13.8469 18.6583 13.9056C18.6235 13.9272 18.5887 13.9488 18.5529 13.971C18.525 13.9889 18.497 14.0069 18.4683 14.0254C18.2249 14.1069 17.9814 14.0949 17.7485 13.9877C17.685 13.9538 17.6221 13.9189 17.5597 13.8831C17.5258 13.8643 17.4918 13.8456 17.4569 13.8263C16.7267 13.4139 16.064 12.9002 15.4533 12.3274C15.4281 12.3041 15.4029 12.2808 15.377 12.2568C14.0934 11.0587 13.5964 9.59721 13.4845 7.87431C13.4786 7.68591 13.4779 7.49773 13.4783 7.30925C13.4782 7.2575 13.4782 7.20575 13.4782 7.15243C13.4781 7.04379 13.4782 6.93515 13.4784 6.82651C13.4787 6.66216 13.4784 6.49782 13.4781 6.33348C13.4774 4.81461 13.4774 4.81461 13.672 4.49931C13.7937 4.41595 13.9125 4.38887 14.0565 4.36363C14.0944 4.3567 14.1322 4.34977 14.1712 4.34263C14.2114 4.33536 14.2516 4.32809 14.2931 4.3206C15.5378 4.0808 16.6823 3.58131 17.685 2.80467C17.8958 2.64168 18.0462 2.57747 18.3126 2.62431ZM17.8322 3.69951C16.7938 4.45245 15.5723 4.88786 14.3283 5.15556C14.2852 5.3026 14.275 5.43523 14.2738 5.5882C14.2734 5.63726 14.2729 5.68632 14.2725 5.73687C14.2723 5.78994 14.2721 5.84301 14.2719 5.89769C14.2716 5.95313 14.2713 6.00857 14.2711 6.06569C14.2706 6.18363 14.2703 6.30157 14.2701 6.4195C14.2697 6.59613 14.2682 6.77273 14.2667 6.94935C14.2586 8.7908 14.5663 10.3137 15.8898 11.6565C16.3711 12.1317 16.9148 12.5215 17.483 12.8856C17.5568 12.9331 17.6299 12.9816 17.7029 13.0302C17.7436 13.0564 17.7844 13.0826 17.8263 13.1097C17.8608 13.1321 17.8952 13.1545 17.9307 13.1776C18.0657 13.2319 18.1278 13.2163 18.2658 13.1712C19.6498 12.4942 21.0914 11.2703 21.6279 9.7965C21.9587 8.8205 21.9907 7.79642 21.9821 6.77551C21.9806 6.597 21.9802 6.41851 21.9799 6.24C21.9795 6.1259 21.979 6.01179 21.9784 5.89769C21.9781 5.81808 21.9781 5.81808 21.9778 5.73687C21.9774 5.68781 21.9769 5.63875 21.9764 5.5882C21.9761 5.54524 21.9758 5.50227 21.9755 5.45801C21.9693 5.35081 21.9521 5.25832 21.922 5.15556C21.8786 5.14573 21.8786 5.14573 21.8344 5.13569C20.5779 4.8468 19.3734 4.42267 18.3359 3.63597C18.1271 3.5036 18.0108 3.56177 17.8322 3.69951Z" fill="#FF8000"/>
<path d="M10.5457 10.0679C11.0472 10.6032 11.2157 11.2244 11.2061 11.9435C11.1844 12.5908 10.9253 13.1197 10.4842 13.5923C10.5323 13.6145 10.5805 13.6367 10.6301 13.6595C11.4339 14.0389 12.0094 14.5368 12.3592 15.3735C12.4873 15.7423 12.5242 16.0893 12.5232 16.478C12.5245 16.5277 12.5259 16.5773 12.5272 16.6285C12.5282 17.0201 12.443 17.338 12.1721 17.6305C11.8156 17.9689 11.4922 18.0195 11.0161 18.0182C10.962 18.0186 10.9078 18.019 10.852 18.0194C10.6734 18.0205 10.4948 18.0206 10.3162 18.0205C10.2232 18.0208 10.1302 18.021 10.0372 18.0213C9.74478 18.0222 9.4524 18.0224 9.16002 18.022C8.85942 18.0217 8.55885 18.0228 8.25826 18.0245C7.99929 18.026 7.74033 18.0265 7.48135 18.0263C7.32707 18.0262 7.17282 18.0266 7.01854 18.0276C6.84622 18.0287 6.67397 18.0282 6.50165 18.0274C6.45125 18.028 6.40085 18.0286 6.34893 18.0293C5.96702 18.025 5.65298 17.9349 5.36774 17.6709C5.02356 17.3079 4.97476 16.9783 4.97927 16.4927C4.9796 16.4404 4.97992 16.388 4.98025 16.3341C4.98772 15.9502 5.02831 15.6328 5.18728 15.2798C5.20372 15.2395 5.22015 15.1992 5.23709 15.1577C5.59353 14.3594 6.24252 13.9221 7.01541 13.5923C6.99498 13.5718 6.97456 13.5512 6.95352 13.53C6.418 12.9598 6.28222 12.3317 6.29782 11.5763C6.32708 10.932 6.62895 10.3683 7.09542 9.92891C8.13994 9.08725 9.56706 9.14869 10.5457 10.0679ZM7.43728 10.7798C7.1025 11.2118 7.06923 11.6581 7.10916 12.186C7.19408 12.6112 7.48277 12.9408 7.81942 13.2017C8.18376 13.4402 8.57095 13.5337 9.00174 13.4693C9.45775 13.3734 9.82125 13.1652 10.1092 12.7954C10.3916 12.3218 10.4703 11.8406 10.3633 11.2989C10.2149 10.8759 9.8819 10.534 9.5007 10.3081C8.7369 9.95355 7.98917 10.1848 7.43728 10.7798ZM6.27713 15.0366C5.88031 15.5117 5.74476 16.0759 5.74978 16.686C5.78547 16.877 5.86465 16.9891 6.00467 17.1255C6.17554 17.2339 6.31769 17.2543 6.5177 17.2551C6.5585 17.2554 6.5993 17.2557 6.64134 17.2559C6.68574 17.256 6.73013 17.256 6.77587 17.2561C6.84644 17.2565 6.84644 17.2565 6.91844 17.2568C7.07412 17.2575 7.22979 17.2578 7.38546 17.2581C7.49371 17.2583 7.60195 17.2586 7.7102 17.2589C7.93721 17.2594 8.16422 17.2596 8.39123 17.2598C8.68188 17.2601 8.97253 17.2612 9.26318 17.2625C9.48681 17.2634 9.71044 17.2636 9.93406 17.2637C10.0412 17.2639 10.1483 17.2642 10.2555 17.2648C10.4055 17.2657 10.5555 17.2656 10.7055 17.2653C10.7717 17.2659 10.7717 17.2659 10.8392 17.2666C11.1524 17.2646 11.3882 17.2251 11.6267 17.0054C11.8343 16.6461 11.7364 16.2296 11.656 15.8423C11.5054 15.3007 11.1317 14.8407 10.649 14.5545C10.0741 14.2558 9.50066 14.2398 8.86738 14.2399C8.76238 14.2398 8.6574 14.2389 8.5524 14.238C7.65342 14.2345 6.91428 14.3554 6.27713 15.0366Z" fill="#FF8000"/>
<path d="M20.4688 6.74994C20.5801 6.79681 20.5801 6.79681 20.6562 6.89056C20.7053 7.04301 20.7273 7.1133 20.7031 7.26556C20.6502 7.34694 20.6502 7.34694 20.5736 7.42944C20.5435 7.46207 20.5134 7.49471 20.4823 7.52833C20.4292 7.58388 20.4292 7.58388 20.375 7.64056C20.3142 7.7045 20.3142 7.7045 20.2522 7.76973C19.9706 8.0639 19.6844 8.35356 19.3981 8.64313C19.2534 8.78953 19.1092 8.93631 18.9659 9.0841C18.8263 9.22801 18.6857 9.37086 18.5444 9.51302C18.491 9.56709 18.4379 9.62151 18.3853 9.6763C17.9241 10.1553 17.9241 10.1553 17.672 10.1835C17.3886 10.1418 17.2072 9.91614 17.019 9.71808C16.9781 9.67668 16.9372 9.63529 16.8951 9.59264C16.787 9.4829 16.68 9.3723 16.5733 9.26122C16.4643 9.14821 16.354 9.03654 16.2438 8.92468C16.0834 8.76123 15.9234 8.59755 15.7645 8.4327C15.7166 8.38305 15.7166 8.38305 15.6677 8.33239C15.5598 8.21207 15.5474 8.16371 15.5352 7.99798C15.5469 7.82806 15.5469 7.82806 15.5938 7.71673C15.7092 7.62292 15.8138 7.58806 15.9622 7.57799C16.0864 7.59742 16.131 7.63403 16.2231 7.71893C16.2555 7.74883 16.288 7.77873 16.3214 7.80953C16.5741 8.05388 16.8226 8.30224 17.0703 8.5517C17.1273 8.60893 17.1843 8.66615 17.2413 8.72336C17.3798 8.8623 17.518 9.00139 17.6562 9.14056C17.9426 8.90391 18.2029 8.64603 18.4643 8.38232C18.5098 8.33658 18.5554 8.29085 18.6009 8.24514C18.7442 8.10136 18.8872 7.9574 19.0303 7.81341C19.1969 7.64564 19.3637 7.47794 19.5306 7.31043C19.5973 7.24351 19.6637 7.17644 19.7302 7.10937C19.7905 7.0488 19.7905 7.0488 19.8521 6.987C19.8876 6.95131 19.923 6.91563 19.9595 6.87886C20.122 6.7263 20.25 6.73485 20.4688 6.74994Z" fill="#FF8000"/>
<path d="M14.5845 17.228C14.6244 17.2277 14.6644 17.2273 14.7056 17.227C14.8376 17.2262 14.9695 17.2267 15.1016 17.2274C15.1933 17.2272 15.2851 17.2271 15.3769 17.2268C15.5692 17.2265 15.7614 17.2269 15.9537 17.2278C16.2003 17.2289 16.4468 17.2283 16.6933 17.2272C16.8828 17.2265 17.0723 17.2267 17.2618 17.2272C17.3527 17.2273 17.4436 17.2271 17.5345 17.2267C17.6615 17.2262 17.7885 17.227 17.9155 17.228C17.9531 17.2276 17.9907 17.2272 18.0295 17.2269C18.1982 17.2294 18.2934 17.2377 18.4295 17.3417C18.5059 17.448 18.5255 17.4979 18.5234 17.6273C18.5242 17.6737 18.5242 17.6737 18.5249 17.721C18.4872 17.8631 18.4294 17.9129 18.3125 18.0023C18.1743 18.0208 18.0537 18.0279 17.9155 18.0265C17.8556 18.027 17.8556 18.027 17.7944 18.0275C17.6624 18.0283 17.5305 18.0278 17.3984 18.0272C17.3067 18.0273 17.2149 18.0275 17.1231 18.0277C16.9308 18.028 16.7386 18.0276 16.5463 18.0267C16.2997 18.0256 16.0532 18.0263 15.8067 18.0274C15.6172 18.0281 15.4277 18.0278 15.2382 18.0274C15.1473 18.0272 15.0564 18.0274 14.9655 18.0278C14.8385 18.0283 14.7115 18.0276 14.5845 18.0265C14.5469 18.0269 14.5093 18.0273 14.4705 18.0277C14.3018 18.0251 14.2066 18.0168 14.0705 17.9129C13.9941 17.8066 13.9745 17.7567 13.9766 17.6273C13.9758 17.5809 13.9758 17.5809 13.9751 17.5335C14.0572 17.2245 14.3117 17.2253 14.5845 17.228Z" fill="#FF8000"/>
<path d="M14.4468 14.9784C14.4987 14.9778 14.5506 14.9772 14.6042 14.9766C14.66 14.9769 14.7159 14.9773 14.7734 14.9777C14.831 14.9775 14.8885 14.9774 14.9478 14.9772C15.0695 14.977 15.1912 14.9774 15.3129 14.9782C15.4993 14.9792 15.6856 14.9782 15.8721 14.977C15.9902 14.9771 16.1084 14.9773 16.2266 14.9777C16.2824 14.9773 16.3383 14.977 16.3958 14.9766C16.4737 14.9774 16.4737 14.9774 16.5532 14.9784C16.5989 14.9785 16.6445 14.9787 16.6916 14.9788C16.8463 15.0093 16.9023 15.069 17 15.1901C17.0249 15.2839 17.0249 15.2839 17.0234 15.3776C17.0242 15.424 17.0242 15.424 17.0249 15.4714C16.9886 15.6082 16.9208 15.6633 16.8125 15.7526C16.6916 15.7764 16.6916 15.7764 16.5532 15.7769C16.5013 15.7775 16.4494 15.7781 16.3958 15.7787C16.34 15.7783 16.2841 15.7779 16.2266 15.7775C16.1402 15.7778 16.1402 15.7778 16.0522 15.7781C15.9305 15.7782 15.8088 15.7778 15.6871 15.7771C15.5007 15.7761 15.3144 15.777 15.1279 15.7782C15.0098 15.7781 14.8916 15.7779 14.7734 15.7775C14.7176 15.7779 14.6617 15.7783 14.6042 15.7787C14.5263 15.7778 14.5263 15.7778 14.4468 15.7769C14.4011 15.7767 14.3555 15.7766 14.3084 15.7764C14.1537 15.746 14.0977 15.6863 14 15.5651C13.9751 15.4714 13.9751 15.4714 13.9766 15.3776C13.9758 15.3312 13.9758 15.3312 13.9751 15.2839C14.0401 15.0393 14.2144 14.9791 14.4468 14.9784Z" fill="#FF8000"/>
</svg>
