<svg width="24" height="25" viewBox="0 0 24 25" fill="none" xmlns="http://www.w3.org/2000/svg">
<path d="M4 12.25H6M18 12.25H20M0.5 16.75V20.25H1C1.99535 20.0915 2.99597 19.9681 4 19.88M0.5 16.75H1C1.79565 16.75 2.55871 17.0661 3.12132 17.6287C3.68393 18.1913 4 18.9544 4 19.75V19.88M0.5 16.75V7.75M4 19.88C6.66014 19.6409 9.32918 19.5142 12 19.5C14.134 19.5 17.281 19.627 20 19.88M0.5 7.75V4.25H1C1.99535 4.40845 2.99597 4.53186 4 4.62M0.5 7.75H1C1.79565 7.75 2.55871 7.43393 3.12132 6.87132C3.68393 6.30871 4 5.54565 4 4.75V4.62M20 19.88C21.004 19.9681 22.0046 20.0915 23 20.25H23.5V16.75M20 19.88V19.75C20 18.9544 20.3161 18.1913 20.8787 17.6287C21.4413 17.0661 22.2044 16.75 23 16.75H23.5M23.5 16.75V7.75M23.5 7.75V4.25H23C22.0046 4.40845 21.004 4.53186 20 4.62M23.5 7.75H23C22.2044 7.75 21.4413 7.43393 20.8787 6.87132C20.3161 6.30871 20 5.54565 20 4.75V4.62M20 4.62C17.3399 4.85907 14.6708 4.98585 12 5C9.32918 4.98585 6.66014 4.85907 4 4.62M12 14.75C11.337 14.75 10.7011 14.4866 10.2322 14.0178C9.76339 13.5489 9.5 12.913 9.5 12.25C9.5 11.587 9.76339 10.9511 10.2322 10.4822C10.7011 10.0134 11.337 9.75 12 9.75C12.663 9.75 13.2989 10.0134 13.7678 10.4822C14.2366 10.9511 14.5 11.587 14.5 12.25C14.5 12.913 14.2366 13.5489 13.7678 14.0178C13.2989 14.4866 12.663 14.75 12 14.75Z" stroke="#222"/>
</svg>
