<svg width="30" height="25" viewBox="0 0 30 25" fill="none" xmlns="http://www.w3.org/2000/svg">
<path d="M26.667 8.75C27.8574 8.75018 28.833 9.72658 28.833 10.917V17.583C28.833 18.7734 27.8574 19.7498 26.667 19.75H22.46L19.167 23.043V19.75H16C14.8095 19.75 13.833 18.7735 13.833 17.583V15.3936C16.8107 15.1381 19.167 12.6242 19.167 9.58301V8.75H26.667ZM2.66699 0.75H13.333C14.5235 0.75 15.5 1.72647 15.5 2.91699V9.58301C15.5 10.7735 14.5235 11.75 13.333 11.75H10.167V15.043L6.87402 11.75H2.66699C1.47647 11.75 0.5 10.7735 0.5 9.58301V2.91699C0.5 1.72647 1.47647 0.75 2.66699 0.75Z" stroke="#222"/>
</svg>
