<svg width="24" height="25" viewBox="0 0 24 25" fill="none" xmlns="http://www.w3.org/2000/svg">
<mask id="mask0_1_4031" style="mask-type:luminance" maskUnits="userSpaceOnUse" x="-1" y="0" width="25" height="25">
<path d="M-0.0195312 0.1875H23.9805V24.1875H-0.0195312V0.1875Z" fill="white"/>
</mask>
<g mask="url(#mask0_1_4031)">
<path d="M11.9805 3.18759C11.1622 3.18759 10.38 3.33783 9.63378 3.63831C8.91498 3.92776 8.27872 4.33592 7.725 4.86279C7.17396 5.38711 6.74775 5.98806 6.44638 6.66562C6.13577 7.36397 5.98047 8.09525 5.98047 8.85946C5.98047 10.4921 6.76802 12.7306 8.34312 15.5748C9.3554 17.4028 10.5696 19.2732 11.9856 21.1863C11.9856 21.1863 11.9841 21.1866 11.9805 21.1866C11.9768 21.1866 11.9739 21.1881 11.9717 21.1911C13.3902 19.2755 14.6056 17.404 15.6178 15.5764C17.1929 12.7325 17.9805 10.4935 17.9805 8.85946C17.9805 8.09525 17.8251 7.36397 17.5145 6.66562C17.2132 5.98806 16.787 5.38711 16.2359 4.86279C15.6822 4.33592 15.046 3.92776 14.3272 3.63832C13.5809 3.33784 12.7987 3.18759 11.9805 3.18759ZM11.9805 1.68759C12.9925 1.68759 13.9615 1.87402 14.8874 2.24689C15.7836 2.60774 16.5777 3.11748 17.2699 3.77611C17.9647 4.4372 18.5031 5.19718 18.8851 6.05604C19.282 6.94841 19.4805 7.88289 19.4805 8.85946C19.4805 10.7519 18.6303 13.2332 16.93 16.3031C15.8859 18.1884 14.6373 20.112 13.1845 22.0738C12.8871 22.4824 12.4858 22.6866 11.9805 22.6866C11.4752 22.6866 11.075 22.484 10.78 22.0787C9.32477 20.1128 8.07507 18.1871 7.0309 16.3016C5.33061 13.2312 4.48047 10.7505 4.48047 8.85946C4.48047 7.88289 4.67892 6.94841 5.07584 6.05604C5.45784 5.19718 5.99623 4.4372 6.69101 3.77611C7.38321 3.11748 8.17737 2.60774 9.07349 2.24689C9.99946 1.87402 10.9685 1.68759 11.9805 1.68759Z" fill="#4B5563"/>
<path d="M11.9805 11.4377C13.2231 11.4377 14.2305 10.4303 14.2305 9.18768C14.2305 7.94504 13.2231 6.93768 11.9805 6.93768C10.7378 6.93768 9.73047 7.94504 9.73047 9.18768C9.73047 10.4303 10.7378 11.4377 11.9805 11.4377Z" stroke="#4B5563" stroke-width="1.5"/>
</g>
</svg>
