<svg width="77" height="77" viewBox="0 0 77 77" fill="none" xmlns="http://www.w3.org/2000/svg">
<path d="M30.2498 24.9006C29.146 25.7195 28.0474 26.5459 26.9375 27.355C25.1388 28.6672 23.3401 29.9801 21.5242 31.2682C20.7722 31.8013 19.9391 32.1367 18.9856 31.8953C18.0396 31.6562 17.5253 30.9967 17.523 30.0237C17.5178 28.0837 17.5426 26.1429 17.5103 24.2028C17.4952 23.3042 17.8261 22.6493 18.5495 22.1304C20.2774 20.8912 21.9866 19.6272 23.7041 18.3729C25.4411 17.1044 27.1781 15.8351 28.9151 14.5658C28.9956 14.5071 29.0663 14.4327 29.1753 14.4297C29.1685 14.6154 29.4385 14.8606 29.0603 14.9666C28.9881 14.9869 28.8617 14.9154 28.8625 15.0606C28.8632 15.1433 28.873 15.2629 28.9618 15.2907C29.2317 15.3741 29.1783 15.5847 29.1791 15.7779C29.1798 16.0404 29.1806 16.3036 29.1791 16.566C29.1783 16.6645 29.2099 16.8096 29.1174 16.8457C28.5783 17.057 28.3692 17.4533 28.3918 18.012C28.3948 18.0789 28.2745 18.1421 28.2429 18.2203C28.1872 18.3601 28.191 18.4571 28.3376 18.5963C28.6422 18.8843 28.9956 19.1647 29.1024 19.6024C29.2174 20.0738 29.1979 20.5589 29.143 21.0363C29.1024 21.386 29.1054 21.7251 29.1475 22.0755C29.2031 22.541 29.2806 23.032 28.9911 23.4524C28.7527 23.7983 28.7407 24.0005 29.04 24.2893C29.1099 24.357 29.2377 24.4036 29.2137 24.5104C29.1843 24.6412 29.0475 24.5788 28.9565 24.5893C28.8557 24.6006 28.7459 24.5893 28.7377 24.7322C28.7294 24.8675 28.7993 24.9465 28.9302 24.9623C29.052 24.9773 29.143 25.0157 29.1753 25.1503C29.1956 25.2337 29.1257 25.3879 29.2851 25.3774C29.3964 25.3699 29.5099 25.2548 29.5182 25.1571C29.5385 24.9066 29.7107 24.9119 29.8769 24.8991C29.9994 24.8909 30.125 24.8999 30.2498 24.9006ZM28.9497 16.4088C28.9535 16.2148 28.9008 16.0953 28.7241 16.1035C28.5001 16.1133 28.4534 16.2938 28.4346 16.4667C28.4181 16.6149 28.5121 16.7013 28.6602 16.6901C28.849 16.6758 28.9377 16.554 28.9497 16.4088ZM28.7625 25.3172C28.8211 25.4435 28.8775 25.5669 28.9399 25.7007C29.07 25.6007 29.1362 25.4969 29.0618 25.3691C28.9963 25.2571 28.8873 25.2443 28.7625 25.3172Z" fill="#1A1737"/>
<path d="M48.4658 26.5135C46.5077 25.0856 44.5481 23.6599 42.5931 22.2274C41.529 21.4476 40.4718 20.6581 39.4131 19.8708C39.1469 19.673 38.8874 19.467 38.625 19.2647C38.7085 19.2609 38.7919 19.2572 38.8746 19.2534C38.9566 19.3106 39.004 19.4437 39.1491 19.3256C39.3326 19.1767 39.4882 19.3008 39.5973 19.4392C39.8973 19.8189 40.2379 19.97 40.7515 19.8971C41.0109 19.8602 41.2598 19.7309 41.5133 19.758C41.7208 19.7798 41.7794 19.6828 41.8479 19.5437C41.899 19.4399 41.8802 19.2624 42.0592 19.2827C42.2269 19.3015 42.272 19.4331 42.2592 19.5888C42.2442 19.7783 42.375 19.8557 42.5231 19.9046C42.6923 19.9603 42.7863 19.8452 42.842 19.7159C42.8871 19.6106 42.9322 19.5324 43.0563 19.5677C43.1841 19.6046 43.2202 19.7189 43.2277 19.8324C43.2397 20.0099 43.1269 20.0994 42.972 20.1573C42.8525 20.2024 42.6555 20.2204 42.7442 20.4159C42.8262 20.5964 42.9886 20.5257 43.136 20.4693C43.3961 20.3708 43.5691 20.1332 43.8421 20.0497C43.9518 20.0167 43.9451 19.8362 43.8932 19.7866C43.6714 19.5753 43.6706 19.1684 43.2841 19.103C43.139 19.0782 43.0096 18.985 43.0262 18.8286C43.0487 18.6188 43.236 18.6616 43.3819 18.6511C43.5292 18.6406 43.7232 18.7188 43.8157 18.6C44.1624 18.1541 44.3917 18.3864 44.6233 18.706C44.691 18.7992 44.788 18.8165 44.8918 18.785C45.0061 18.7504 45.0369 18.6571 45.0369 18.5496C45.0377 18.3887 45.0136 18.2353 45.2362 18.1676C45.443 18.1044 45.5836 18.1849 45.7054 18.3112C45.8919 18.506 46.1047 18.6097 46.3746 18.5767C46.7574 18.5293 47.1243 18.4376 47.4567 18.2255C47.7417 18.0435 48.0688 18.0856 48.3575 18.1759C48.5485 18.2353 48.2703 18.4203 48.347 18.5661C48.4493 18.5706 48.5598 18.5481 48.6448 18.5842C48.9899 18.7323 49.2117 18.5872 49.4065 18.3135C49.4764 18.215 49.5795 18.1217 49.6885 18.0751C49.8126 18.0225 49.9915 18.0067 50.0389 18.1751C50.0803 18.3225 49.9314 18.3428 49.8148 18.3511C49.7246 18.3578 49.6246 18.3646 49.6441 18.4909C49.6622 18.6105 49.7486 18.6549 49.8652 18.6331C49.9381 18.6188 50.0088 18.5879 50.0825 18.5797C50.7262 18.5075 51.1804 18.8805 51.1668 19.5174C51.1616 19.7753 51.2571 19.8001 51.4684 19.87C51.8022 19.9806 52.1346 19.652 52.488 19.9723C52.7369 20.1986 52.7452 20.2189 52.4564 20.3295C52.3 20.3896 52.2451 20.5302 52.2572 20.6979C52.2677 20.8536 52.288 21.0055 52.4639 21.0596C52.8971 21.192 53.3573 21.1882 53.7844 21.131C54.1085 21.0874 54.225 21.1476 54.2867 21.4281C54.3115 21.5424 54.3574 21.704 54.4844 21.6123C54.7018 21.4544 54.9544 21.4559 55.1845 21.3702C55.2575 21.3431 55.359 21.31 55.3289 21.2296C55.2214 20.9423 55.4778 20.713 55.4349 20.4408C56.4967 21.1431 57.5284 21.8898 58.5254 22.6793C58.9804 23.0395 59.2834 23.535 59.2699 24.1599C59.2714 24.2464 59.2736 24.3321 59.2751 24.4186C59.2849 24.4479 59.2947 24.4772 59.3052 24.5058C59.0601 24.578 58.9518 24.7058 58.9849 24.9938C59.0172 25.2698 58.9646 25.5593 58.8744 25.8323C58.8277 25.9751 58.736 26.1067 58.5886 26.0842C58.2277 26.0285 57.8818 26.0443 57.5359 26.1639C57.4501 26.1939 57.3772 26.1082 57.2983 26.0744C57.1095 25.9947 56.8922 25.9443 56.7418 26.112C56.5734 26.3 56.4177 26.2534 56.2418 26.1669C55.9169 26.0075 55.6793 26.121 55.6304 26.4714C55.6184 26.5609 55.5853 26.6316 55.4996 26.6113C55.0326 26.5022 54.7905 26.797 54.5596 27.1189C54.504 27.1963 54.3859 27.2662 54.3453 27.185C54.1972 26.8903 53.7159 26.8557 53.7588 26.421C53.7648 26.3601 53.7535 26.294 53.6806 26.2684C53.6129 26.2451 53.5174 26.2774 53.5219 26.3218C53.5565 26.6782 53.1535 26.7143 53.0617 26.9692C52.9835 27.1858 52.8302 27.2647 52.6234 27.2151C52.4301 27.1685 52.1857 27.176 52.179 26.8647C52.1729 26.6188 52.006 26.5602 51.8173 26.6722C51.6248 26.7865 51.5052 26.809 51.4232 26.5624C51.3563 26.3616 51.2277 26.3729 51.0736 26.485C50.9525 26.5729 50.8307 26.6511 50.7405 26.779C50.6081 26.967 50.4194 26.9151 50.2795 26.806C50.1382 26.6955 50.0991 26.5391 50.284 26.4015C50.4337 26.2902 50.3833 26.1368 50.2434 26.1263C49.8238 26.0954 49.3855 26.1541 49.1975 25.6232C49.0553 25.7969 49.1704 25.8939 49.1764 25.9999C49.1854 26.1503 49.1546 26.2925 49.0125 26.3473C48.8358 26.4158 48.7741 26.2639 48.7297 26.1345C48.6906 26.0202 48.629 25.9255 48.5169 25.8909C48.3981 25.8541 48.2718 25.836 48.1876 25.9774C48.0868 26.1473 48.2335 26.1511 48.3237 26.2045C48.4357 26.2722 48.5154 26.3654 48.4658 26.5135ZM48.7756 25.1946C48.6914 25.2021 48.5779 25.1908 48.5959 25.3179C48.6147 25.4503 48.7425 25.4713 48.8516 25.4864C48.9298 25.4976 49.0117 25.4721 49.0087 25.3766C49.0042 25.236 48.8989 25.1984 48.7756 25.1946ZM51.2217 25.8939C51.2578 25.7488 51.3398 25.5961 51.1849 25.4255C51.1112 25.6112 51.1067 25.7541 51.2217 25.8939ZM54.0288 26.0699C54.0446 25.9954 54.0122 25.9661 53.9776 25.9766C53.937 25.9894 53.8897 26.021 53.8731 26.0571C53.8498 26.1082 53.8859 26.1548 53.943 26.1398C53.9821 26.1285 54.0122 26.0834 54.0288 26.0699Z" fill="#282345"/>
<path d="M50.5284 44.731C50.2682 44.8408 49.9938 44.837 49.7193 44.837C46.24 44.837 42.7615 44.8348 39.2822 44.8438C39.028 44.8446 38.9446 44.7927 38.9453 44.5212C38.9566 41.6676 38.9543 38.8146 38.9536 35.961C38.9536 35.7685 38.9228 35.6076 39.2266 35.6098C41.3914 35.6249 43.5563 35.6203 45.7212 35.6234C45.7452 35.6234 45.7693 35.6346 45.7934 35.6406C45.7941 35.7414 45.7881 35.8858 45.8949 35.8993C46.337 35.9572 46.7754 36.0068 47.2145 36.1099C47.4853 36.173 47.8289 36.1129 48.1395 36.0956C48.2575 36.0888 48.3891 36.1106 48.4056 36.246C48.447 36.5964 48.7147 36.6039 48.9583 36.6129C49.1666 36.6212 49.2854 36.7047 49.4238 36.8588C49.6366 37.0957 49.884 37.304 50.2705 37.1761C50.7653 37.013 51.2879 36.9791 51.7857 37.1393C52.2526 37.2897 52.7234 37.0671 53.182 37.213C53.2302 37.228 53.3106 37.1934 53.355 37.1573C53.8543 36.7445 54.4987 36.6934 55.0649 36.4513C55.38 36.3167 55.7643 36.1941 55.8402 35.7316C55.8755 35.5151 56.0357 35.2985 56.329 35.5218C56.4358 35.6031 56.5711 35.5587 56.6944 35.567C56.6952 36.5189 56.6967 37.4717 56.6937 38.4236C56.6937 38.5469 56.6854 38.6748 56.6531 38.7928C56.6305 38.8756 56.638 39.0214 56.4906 39.0011C56.3711 38.9846 56.3966 38.8695 56.3951 38.7868C56.3929 38.6312 56.3485 38.5093 56.1696 38.5033C56.0583 38.4996 55.944 38.5312 55.8342 38.5184C55.5221 38.4815 55.2191 38.8906 54.8927 38.5244C54.8311 38.456 54.7439 38.5665 54.7416 38.6688C54.7393 38.7816 54.7476 38.8951 54.7363 39.0071C54.7025 39.3478 54.5987 39.3997 54.2972 39.2583C54.0355 39.135 53.7633 39.1019 53.5197 39.2944C53.076 39.6433 52.5248 39.326 52.0601 39.5388C52.0331 39.5508 51.9624 39.5079 51.9346 39.4726C51.6721 39.135 51.318 39.1628 50.9578 39.2245C50.8202 39.2485 50.6705 39.2921 50.5562 39.2124C50.2667 39.0086 49.9441 39.0214 49.6185 39.0259C49.0937 39.0327 48.5763 39.038 48.0898 38.7658C47.8605 38.6372 47.6462 38.7928 47.6191 39.0327C47.5905 39.2899 47.4822 39.3478 47.2589 39.3297C47.1822 39.3237 47.0784 39.2914 47.0311 39.423C47.0657 39.45 47.101 39.5004 47.1409 39.5042C47.5018 39.538 47.5334 39.7305 47.4582 40.0418C47.4086 40.2449 47.3123 40.4742 47.4815 40.6878C47.5454 40.7682 47.4883 40.8735 47.4183 40.9186C47.292 41.0006 47.2792 40.8562 47.2454 40.7945C47.0845 40.5058 46.9386 40.2456 46.5273 40.4817C46.3814 40.5659 46.2092 40.4441 46.1769 40.2509C46.146 40.0629 46.2099 39.9275 46.4318 39.9283C46.4821 39.9283 46.5318 39.929 46.5822 39.926C46.6822 39.9193 46.8107 39.9185 46.801 39.7854C46.792 39.6644 46.6649 39.7102 46.5852 39.7035C46.3242 39.6824 46.0595 39.7388 45.8009 39.6659C45.5903 39.6064 45.4888 39.6463 45.5452 39.9012C45.6016 40.1569 45.4948 40.3336 45.2256 40.4035C45.0249 40.4562 44.7752 40.4381 44.7805 40.778C44.7827 40.9186 44.5895 40.9051 44.4654 40.9036C44.2278 40.9006 43.9902 40.893 43.7631 40.9885C43.5841 41.063 43.4676 41.6051 43.6014 41.742C43.6495 41.7909 43.7089 41.8089 43.7721 41.7894C43.8503 41.7653 43.9037 41.7074 43.9007 41.6247C43.8984 41.5645 43.8653 41.5059 43.8548 41.445C43.8278 41.2931 43.918 41.1893 44.0421 41.1622C44.1684 41.1352 44.2556 41.2517 44.2737 41.3638C44.3767 41.9992 44.2752 42.6007 43.8466 43.0948C43.5931 43.3865 43.4751 43.9264 43.6661 44.2415C43.73 44.3468 43.8503 44.4099 43.8984 44.3092C44.0045 44.0851 44.1526 43.8911 44.2684 43.6775C44.3428 43.5407 44.2759 43.373 44.1857 43.2196C44.0766 43.0339 44.2203 42.8842 44.3549 42.7722C44.4684 42.6782 44.6113 42.6669 44.7278 42.7835C44.8602 42.915 44.8587 43.758 44.7286 43.8918C44.6579 43.964 44.5722 44.0294 44.6083 44.146C44.6511 44.2813 44.7677 44.2828 44.8835 44.2889C45.0143 44.2956 45.2377 44.252 45.2241 44.4197C45.1956 44.7746 45.4317 44.6596 45.5836 44.6603C47.0995 44.6663 48.6154 44.6626 50.1321 44.6663C50.266 44.6678 50.4111 44.6205 50.5284 44.731ZM54.407 38.6063C54.3995 38.5898 54.3934 38.5515 54.3709 38.5297C54.2686 38.4296 53.7633 38.5206 53.6904 38.6522C53.6483 38.7274 53.5904 38.8101 53.6791 38.8883C53.837 39.0267 53.9851 38.8665 54.1393 38.8583C54.2641 38.8515 54.3686 38.7635 54.407 38.6063ZM44.9557 44.5265C44.9046 44.5265 44.8482 44.528 44.8564 44.5972C44.8594 44.6205 44.903 44.6506 44.9331 44.6573C44.9782 44.6678 45.0437 44.6731 45.0549 44.616C45.0662 44.5573 45.0046 44.54 44.9557 44.5265ZM43.0953 42.1699C43.1202 42.1262 43.148 42.0992 43.1487 42.0714C43.1502 42.0202 43.1187 41.9796 43.063 42.0007C43.0427 42.0082 43.0262 42.0593 43.0292 42.0879C43.0322 42.1127 43.0653 42.1345 43.0953 42.1699Z" fill="#222350"/>
<path d="M37.7386 50.8272C37.7168 52.292 36.4994 53.6245 34.9842 53.6749C33.0501 53.7388 31.1131 53.6877 29.1768 53.6861C29.0934 53.2996 28.6821 53.4034 28.4219 53.2154C28.5189 53.1763 28.5745 53.1425 28.6332 53.1335C28.873 53.0951 28.9475 53.0274 28.8445 52.75C28.7384 52.4657 28.7678 52.1371 28.8573 51.8281C28.9167 51.622 29.0234 51.4987 29.2513 51.5055C29.4979 51.513 29.6626 51.404 29.6994 51.1506C29.7325 50.9227 29.8619 50.8242 30.0829 50.8302C30.3724 50.8377 30.4725 50.6377 30.5228 50.4061C30.5747 50.167 30.4574 50.0219 30.2499 49.8903C30.0213 49.7459 29.7483 49.8339 29.4393 49.6888C29.8258 49.585 30.1341 49.6406 30.4364 49.6286C30.8033 49.6136 30.8823 49.5075 30.7477 49.1647C30.6845 49.0045 30.6071 48.8135 30.8161 48.7511C31.1259 48.6586 31.2432 48.4924 31.2161 48.1788C31.2086 48.0916 31.2628 47.9721 31.3289 47.9104C31.7162 47.5457 32.0681 47.166 32.338 46.693C32.4508 46.4952 32.7704 46.414 32.7652 46.0989C32.7644 46.0771 32.8178 46.041 32.8509 46.035C33.0329 45.9997 33.0923 45.8839 33.0908 45.7102C33.09 45.5771 33.1712 45.5056 33.302 45.4929C33.4276 45.4808 33.5156 45.4289 33.5314 45.2913C33.5457 45.1658 33.46 45.1154 33.3682 45.068C33.1471 44.9537 33.0757 44.8477 33.3389 44.677C33.5344 44.5507 33.5359 44.3123 33.5261 44.1048C33.5164 43.8935 33.3239 43.9356 33.1832 43.9002C33.0389 43.8641 32.8471 43.8153 33.0908 43.6265C33.1321 43.5942 33.1396 43.5175 33.1622 43.4611C33.3381 43.4054 33.5991 43.604 33.6863 43.2844C33.8382 43.2475 33.9901 43.2483 34.1427 43.2829C34.1585 43.3558 34.0999 43.4844 34.2149 43.4844C34.33 43.4844 34.2721 43.3558 34.2871 43.2829C35.2639 43.2799 36.2407 43.2776 37.2175 43.2746C37.2445 43.3099 37.2716 43.3453 37.2987 43.3814C37.3227 43.4363 37.3468 43.4363 37.3716 43.3814C37.4822 43.316 37.6062 43.319 37.728 43.3107C37.7318 43.5874 37.7356 43.8641 37.7386 44.1409C37.6438 44.2326 37.6769 44.3522 37.6769 44.4604C37.6754 46.4757 37.6762 48.4909 37.6777 50.5061C37.6769 50.6159 37.6438 50.7347 37.7386 50.8272Z" fill="#1B1738"/>
<path d="M47.3665 14.5929C47.3943 14.6147 47.4214 14.6358 47.4492 14.6576C47.6259 15.1479 48.0515 15.296 48.4952 15.4201L48.4967 15.4208C48.4824 15.5953 48.5674 15.6614 48.7343 15.6396C48.9321 15.7712 49.1291 15.9036 49.3268 16.0352C49.3569 16.0532 49.3862 16.0705 49.4163 16.0886C49.4396 16.1059 49.4637 16.1224 49.487 16.1397C49.4832 16.175 49.4787 16.2096 49.475 16.245C49.4697 16.2555 49.4637 16.266 49.4584 16.2765C49.4644 16.266 49.4705 16.2562 49.4765 16.2457C49.5291 16.2442 49.5817 16.2435 49.6351 16.242C49.6614 16.2577 49.687 16.2735 49.7133 16.2886C49.6848 16.3743 49.6554 16.46 49.6269 16.5457C49.602 16.5457 49.5765 16.5457 49.5517 16.5457C49.5268 16.5457 49.5013 16.5457 49.4765 16.5457C49.4517 16.5457 49.4268 16.5457 49.4013 16.5457C49.3885 16.5134 49.3757 16.4803 49.3637 16.448C49.3509 16.4803 49.3389 16.5134 49.3261 16.5457C49.3155 16.6525 49.2607 16.7179 49.1531 16.6728C49.0238 16.6194 49.0065 16.5096 49.0651 16.3916C49.1441 16.2329 49.0118 16.166 48.9336 16.0788C48.8749 16.0134 48.7982 16.0141 48.7328 16.0683C48.6298 16.154 48.6373 16.2675 48.6817 16.3766C48.7313 16.4976 48.7245 16.6209 48.7223 16.7458C48.7193 16.9044 48.6117 16.9262 48.4907 16.918C48.3485 16.9082 48.1673 16.9804 48.0876 16.8059C48.032 16.6841 48.1703 16.6488 48.2463 16.5901C48.3245 16.5307 48.4305 16.4705 48.3869 16.3532C48.3463 16.2427 48.232 16.2465 48.1297 16.2427C48.0327 16.2389 47.9139 16.2773 47.8477 16.1841C47.5748 15.7998 47.2048 15.9081 46.8687 16.0186C46.5792 16.1141 46.4814 15.9953 46.4754 15.7592C46.4649 15.3464 45.9333 15.3531 45.8791 14.9847C45.8784 14.9794 45.8295 14.9719 45.8084 14.9794C45.5468 15.0734 45.2813 15.0847 45.0061 15.0524C44.8723 15.0366 44.8332 15.1659 44.8016 15.2802C44.7241 15.5614 44.5316 15.7186 44.2474 15.7697C43.9474 15.8239 43.6548 15.775 43.3578 15.7231C42.7209 15.6133 42.3224 16.0164 41.9186 16.4352C41.9727 16.448 42.0186 16.4653 42.0645 16.4683C42.3081 16.4841 42.3495 16.6623 42.3239 16.842C42.2878 17.0954 42.1141 16.9638 41.9765 16.939C41.8231 16.9119 41.6892 16.8909 41.6441 16.6999C41.6028 16.5247 41.4682 16.545 41.3516 16.6277C41.2719 16.6841 41.2155 16.7721 41.1381 16.8315C41.0711 16.8826 40.9914 16.942 40.9027 16.8638C40.8132 16.7856 40.8448 16.6818 40.9102 16.6345C41.1666 16.4495 41.0696 16.3074 40.9651 16.0547C40.8621 15.8051 40.7591 15.7073 40.5237 15.669C40.4583 15.6584 40.3951 15.5953 40.3432 15.5449C40.2808 15.4847 40.3087 15.3186 40.1545 15.3697C40.047 15.4058 40.1026 15.5231 40.0725 15.5983C39.9785 15.8314 40.0921 15.9186 40.3034 15.9427C40.3944 15.9532 40.4884 15.9743 40.4989 16.0795C40.5109 16.1968 40.4132 16.2878 40.3244 16.2916C40.0898 16.3021 39.9161 16.466 39.8545 16.6164C39.6725 17.0608 39.3627 17.045 38.9995 16.9473C38.7423 16.8781 38.5897 16.9428 38.6702 17.2345C38.7243 17.4308 38.6333 17.4541 38.4867 17.4443C38.3882 17.4376 38.2874 17.4278 38.1927 17.4022C38.1009 17.3774 38.019 17.3684 37.9528 17.4458C37.8859 17.524 37.9159 17.5992 37.9528 17.6865C38.0957 18.0241 37.9483 18.2414 37.5685 18.2722C37.0595 18.3136 36.8993 18.555 36.9128 19.064C36.9204 19.3558 37.1444 19.54 37.158 19.8077C36.0691 20.6446 34.9856 21.4876 33.8388 22.2448C33.9629 21.9139 33.6178 21.8929 33.4899 21.7335C33.3689 21.5823 33.2779 21.7508 33.1824 21.8154C33.0516 21.9049 32.9155 21.9192 32.8245 21.7733C32.7433 21.644 32.7914 21.5207 32.9365 21.4733C33.3005 21.3545 33.2012 21.0529 33.1185 20.8567C32.9463 20.4491 33.0395 20.0408 33.0177 19.6333C33.0102 19.4942 33.0741 19.3806 33.2268 19.3129C33.4215 19.2265 33.5734 19.1039 33.2801 18.9264C33.1786 18.8648 33.0876 18.7399 33.2463 18.6685C33.4922 18.558 33.5727 18.2128 33.905 18.2286C33.978 18.2324 34.0923 18.1512 34.0088 18.0459C33.902 17.9113 33.9073 17.7143 33.6606 17.6489C33.3869 17.5767 33.399 17.218 33.2486 17.0074C33.4125 16.9022 33.2614 16.5149 33.6704 16.5976C33.9313 16.6503 33.978 16.4089 33.8411 16.2224C33.6817 16.0051 33.6742 15.8269 33.8411 15.6193C33.8907 15.5577 33.902 15.4569 33.911 15.3719C33.9238 15.2494 33.9539 15.1486 34.0923 15.1246C34.2494 15.0967 34.2645 15.2058 34.3036 15.3208C34.3757 15.5351 34.5682 15.5569 34.763 15.5659C34.9277 15.5735 35.042 15.493 35.0683 15.3449C35.1202 15.0463 35.1066 14.72 35.515 14.6531C35.5345 14.6501 35.5631 14.5854 35.5571 14.5561C35.4992 14.2824 35.6879 14.144 35.8706 14.0312C36.1955 13.8304 36.3015 13.3958 36.6933 13.2763C36.9121 13.2093 36.9798 13.0296 37.1053 12.8679C37.2602 12.6687 37.3572 12.4123 37.5851 12.2468C37.8257 12.0731 38.1385 12.1792 38.3498 11.9821C38.7694 11.5904 39.2695 11.4558 39.8297 11.5054C39.953 11.5159 40.1605 11.4896 40.1861 11.546C40.332 11.8656 40.7064 11.9325 40.8726 12.2145C40.8952 12.2521 40.9027 12.3198 40.8846 12.3574C40.741 12.6574 40.9681 12.7063 41.1621 12.7529C41.4832 12.8296 41.781 12.7348 42.0524 12.5679C42.2547 12.4438 42.4427 12.3032 42.1758 12.0491C42.075 11.9528 42.0705 11.8077 42.1833 11.7152C42.3119 11.6092 42.3848 11.7505 42.4585 11.822C42.5946 11.9528 42.7315 12.007 42.9232 11.8927C42.8119 11.7746 42.6352 11.7754 42.636 11.5904C42.6367 11.3738 42.8638 11.4783 42.9315 11.3633C42.9593 11.3821 42.9864 11.4009 43.0142 11.4197C43.0127 11.5791 43.1217 11.5836 43.2375 11.5798L43.2368 11.5791C43.1931 11.7754 43.3526 11.8505 43.4608 11.9558C43.4721 12.0716 43.4285 12.1731 43.3796 12.2746C43.3496 12.3371 43.2886 12.4115 43.3887 12.4619C43.4541 12.495 43.5082 12.4514 43.539 12.392C43.6849 12.1107 43.8729 12.2243 44.0617 12.3325C44.0617 12.3574 44.0617 12.3822 44.0617 12.407C44.0865 12.4581 44.1113 12.4589 44.1368 12.4077C44.2128 12.407 44.2887 12.407 44.3639 12.4062L44.3624 12.407C44.3933 12.4303 44.4233 12.4536 44.4542 12.4769C44.5512 12.5469 44.6482 12.616 44.7459 12.686C44.7429 12.7484 44.7301 12.8115 44.7384 12.8717C44.7504 12.9649 44.591 13.0995 44.782 13.1477C44.9384 13.1868 45.0851 13.1567 45.1136 12.9522C45.74 13.4214 46.3671 13.8898 46.9935 14.3591C47.0266 14.4222 47.083 14.438 47.1492 14.4343L47.1469 14.4328C47.1477 14.5907 47.2552 14.5944 47.3665 14.5929ZM39.4379 11.8107C39.2807 11.8513 39.0033 11.6979 38.9581 12.0288C38.9378 12.1784 38.9153 12.313 38.8348 12.4468C38.7596 12.5717 38.8333 12.7033 38.9476 12.7612C39.0574 12.8176 39.2266 12.8251 39.2777 12.692C39.383 12.4168 39.6597 12.3288 39.8289 12.1273C39.8808 12.0656 39.9973 12.0453 39.968 11.9355C39.9364 11.8152 39.8267 11.813 39.7259 11.8107C39.6387 11.8099 39.5514 11.8107 39.4379 11.8107ZM37.1783 13.8929C37.2963 13.8101 37.5069 13.8229 37.5144 13.6049C37.5182 13.4951 37.4648 13.3883 37.3407 13.4199C37.1835 13.459 37.0271 13.5379 37.0076 13.7289C36.9978 13.8237 37.0617 13.8906 37.1783 13.8929ZM43.8015 12.6431C43.7233 12.6559 43.6338 12.6867 43.6421 12.7965C43.6496 12.9025 43.7391 12.9319 43.8338 12.9311C43.9203 12.9304 43.9752 12.8905 43.9789 12.798C43.9827 12.6845 43.9195 12.6416 43.8015 12.6431ZM34.3276 18.0617C34.2472 18.0677 34.181 18.0993 34.1705 18.1865C34.1637 18.2482 34.2186 18.2677 34.269 18.27C34.3472 18.273 34.4209 18.2579 34.4216 18.1564C34.4231 18.0978 34.3795 18.073 34.3276 18.0617Z" fill="#252041"/>
<path d="M27.6589 43.2825C28.8417 43.2584 30.0245 43.2411 31.2074 43.2885C31.3382 43.5164 31.6187 43.2742 31.7909 43.484C31.6337 43.5344 31.4946 43.5728 31.3608 43.6231C31.2284 43.6735 31.2051 43.7472 31.2863 43.8826C31.5442 44.3142 31.4638 44.4638 30.96 44.5134C30.7434 44.5345 30.6005 44.6089 30.6321 44.8616C30.6765 45.218 30.481 45.4361 30.1185 45.4429C29.8621 45.4474 29.4267 45.7722 29.426 46.0076C29.4245 46.2835 29.538 46.5745 29.2034 46.7475C29.1869 46.7558 29.1809 46.8295 29.1974 46.852C29.52 47.2874 29.1049 47.6754 29.1199 48.0912C29.1282 48.3228 28.9778 48.4123 28.7575 48.4266C28.45 48.4469 28.1537 48.5815 28.077 48.8725C27.968 49.2846 27.8063 49.3259 27.4243 49.1981C27.0017 49.0567 26.6325 49.356 26.7972 49.6756C26.9649 50.0004 26.7874 50.2584 26.6626 50.3682C26.4077 50.5937 26.4874 50.8291 26.4686 51.0757C26.4543 51.2735 26.4174 51.4698 26.3934 51.6675C26.3716 51.8465 26.252 51.8833 26.0994 51.8826C25.7858 51.8803 25.5211 51.7563 25.2812 51.566C25.1948 51.4968 25.0947 51.4871 25.0007 51.542C24.9639 51.563 24.9233 51.6202 24.9256 51.6577C24.9353 51.7893 25.0429 51.8029 25.1459 51.8066C25.2602 51.8112 25.3369 51.845 25.3421 51.9781C25.3482 52.1225 25.2835 52.1871 25.1429 52.1834C24.9504 52.1773 24.8789 52.3172 24.8383 52.4631C24.7864 52.6518 24.9428 52.6804 25.0722 52.7353C25.176 52.7797 25.2797 52.8631 25.2466 52.9925C25.2136 53.121 25.0835 53.0872 24.9902 53.0827C24.5383 53.0609 24.0916 53.0782 23.669 53.2579C23.5051 53.3278 23.3577 53.5384 23.166 53.388C22.8825 53.1662 22.578 53.2015 22.2621 53.2323C22.202 53.2384 22.1245 53.2376 22.0802 53.2053C21.7343 52.9534 21.6516 53.1895 21.5854 53.4632C20.9928 53.306 20.5785 52.891 20.1619 52.4804C19.5987 51.663 19.3949 50.7584 19.5055 49.7779C19.5551 49.7764 19.6085 49.7854 19.6551 49.7711C20.1679 49.6177 20.6763 49.4703 21.2244 49.6072C21.3666 49.6425 21.5019 49.5237 21.4779 49.3598C21.4553 49.2071 21.3839 49.0026 21.5711 48.9861C21.8373 48.9628 22.123 48.7921 22.3824 48.9861C22.4742 49.0545 22.5231 49.2462 22.6629 49.1244C22.7742 49.0274 22.7268 48.8695 22.6276 48.7537C22.5554 48.6687 22.4546 48.5913 22.5186 48.4619C22.5787 48.3386 22.7058 48.3687 22.8126 48.3439C22.9983 48.3003 23.2307 48.5048 23.3337 48.3544C23.4126 48.2386 23.2878 48.0033 23.372 47.819C23.3931 47.7732 23.3442 47.7002 23.3449 47.6401C23.3472 47.4611 23.4141 47.3047 23.6134 47.3024C23.9134 47.2994 24.1999 47.1979 24.5045 47.2145C24.8662 47.2333 25.0737 47.055 25.0316 46.7039C24.9789 46.2677 24.9022 45.867 25.4249 45.6624C25.4594 45.6489 25.4805 45.5805 25.4918 45.5338C25.5241 45.406 25.6031 45.3519 25.7324 45.3398C26.0445 45.3105 25.9678 45.2007 25.7895 45.0609C25.6662 44.9646 25.585 44.8496 25.7926 44.7526C26.1768 44.5751 26.2039 44.1698 25.8339 43.9156C25.7196 43.8374 25.6971 43.766 25.7783 43.6795C25.946 43.5013 26.1046 43.3449 26.1324 43.0637C26.161 42.7802 26.5468 43.1133 26.5949 42.8922C26.628 42.7381 26.3535 42.5426 26.6212 42.3817C26.8009 42.2734 26.7927 42.1658 26.6573 42.026C26.4859 41.8485 26.525 41.7214 26.7618 41.6463C26.9054 41.6004 26.9649 41.4898 27.0047 41.3432C27.1325 40.874 27.0461 40.398 27.0731 39.9258C27.2228 39.9506 27.3732 39.9762 27.5228 40.001C27.5236 40.9928 27.5205 41.9854 27.5296 42.9772C27.5288 43.0847 27.4198 43.269 27.6589 43.2825Z" fill="#211C3D"/>
<path d="M50.5267 44.7306C50.4102 44.6201 50.2643 44.6674 50.1319 44.6667C48.616 44.6637 47.1001 44.6667 45.5834 44.6607C45.4315 44.6599 45.1954 44.775 45.2239 44.42C45.2375 44.2524 45.0142 44.296 44.8833 44.2892C44.7675 44.2832 44.651 44.2817 44.6081 44.1463C44.5713 44.029 44.6577 43.9644 44.7284 43.8922C44.8585 43.7583 44.86 42.9161 44.7277 42.7838C44.6111 42.668 44.4675 42.6793 44.3547 42.7725C44.2201 42.8838 44.0765 43.0334 44.1855 43.2199C44.2757 43.3733 44.3427 43.541 44.2682 43.6779C44.1524 43.8907 44.0043 44.0854 43.8983 44.3095C43.8501 44.4103 43.7298 44.3471 43.6659 44.2418C43.4742 43.9275 43.593 43.3876 43.8464 43.0951C44.275 42.6011 44.3765 41.9995 44.2735 41.3641C44.2554 41.2528 44.169 41.1355 44.0419 41.1626C43.9171 41.1897 43.8276 41.2934 43.8546 41.4453C43.8652 41.5062 43.8983 41.5649 43.9005 41.625C43.9035 41.7078 43.8501 41.7657 43.7719 41.7897C43.708 41.8093 43.6486 41.7912 43.6012 41.7423C43.4666 41.6055 43.5839 41.0633 43.7629 40.9889C43.9892 40.8941 44.2269 40.9017 44.4652 40.9039C44.5893 40.9054 44.7826 40.919 44.7803 40.7783C44.775 40.4385 45.0247 40.4565 45.2255 40.4039C45.4947 40.3339 45.6014 40.1572 45.545 39.9016C45.4886 39.6467 45.5901 39.6068 45.8007 39.6662C46.0594 39.7391 46.3241 39.6827 46.585 39.7038C46.6647 39.7098 46.7918 39.6647 46.8008 39.7858C46.8106 39.9189 46.682 39.9204 46.582 39.9264C46.5323 39.9294 46.482 39.9286 46.4316 39.9286C46.2098 39.9279 46.1458 40.064 46.1767 40.2512C46.2083 40.4445 46.3805 40.5663 46.5271 40.4821C46.9384 40.246 47.0843 40.5061 47.2452 40.7949C47.2798 40.8565 47.2926 41.0009 47.4181 40.919C47.4881 40.8738 47.5452 40.7686 47.4813 40.6881C47.3121 40.4745 47.4091 40.2452 47.458 40.0422C47.5339 39.7309 47.5024 39.5376 47.1407 39.5045C47.1008 39.5008 47.0655 39.4504 47.0309 39.4233C47.0783 39.2917 47.182 39.3241 47.2587 39.3301C47.4821 39.3481 47.5903 39.2902 47.6189 39.0331C47.646 38.7932 47.8603 38.6375 48.0896 38.7661C48.5762 39.0383 49.0935 39.0331 49.6184 39.0263C49.944 39.0218 50.2658 39.009 50.556 39.2128C50.6703 39.2932 50.82 39.2489 50.9576 39.2248C51.317 39.1631 51.6719 39.1353 51.9344 39.4729C51.9614 39.5083 52.0329 39.5519 52.06 39.5391C52.5247 39.3263 53.0758 39.6436 53.5195 39.2947C53.7639 39.103 54.0353 39.1353 54.297 39.2586C54.5985 39.4008 54.7023 39.3489 54.7362 39.0075C54.7474 38.8954 54.7392 38.7819 54.7414 38.6691C54.7437 38.5668 54.8309 38.4563 54.8926 38.5247C55.2189 38.8902 55.5219 38.4811 55.834 38.5187C55.9438 38.5315 56.0581 38.4999 56.1694 38.5037C56.3483 38.5097 56.392 38.6315 56.395 38.7872C56.3965 38.8699 56.3709 38.9849 56.4905 39.0015C56.6378 39.0218 56.6303 38.8759 56.6529 38.7932C56.6852 38.6751 56.6927 38.5473 56.6935 38.424C56.6957 37.472 56.6942 36.5193 56.6942 35.5673C56.6942 34.8905 56.6935 34.2145 56.6935 33.5378C56.7296 33.1889 56.6221 32.8294 56.7634 32.4873C56.7702 34.0386 56.7777 35.5899 56.7845 37.1411C56.7867 37.6292 56.7672 38.1179 56.7905 38.6052C56.8341 39.5173 56.4649 40.2369 55.7829 40.8032C54.4557 41.9063 53.1202 43.0004 51.7787 44.0862C51.4088 44.384 51.014 44.6532 50.5267 44.7306Z" fill="#222754"/>
<path d="M42.9329 11.3673C42.866 11.4816 42.6389 11.3778 42.6374 11.5943C42.6367 11.7793 42.8126 11.7793 42.9247 11.8966C42.7329 12.0109 42.596 11.9568 42.4599 11.8259C42.3855 11.7545 42.3126 11.6139 42.1847 11.7192C42.0719 11.8124 42.0757 11.9568 42.1772 12.053C42.4442 12.3072 42.2562 12.4478 42.0539 12.5719C41.7824 12.7388 41.4839 12.8336 41.1636 12.7569C40.9703 12.7102 40.7425 12.6614 40.8861 12.3613C40.9041 12.323 40.8966 12.2561 40.8741 12.2185C40.7079 11.9365 40.3334 11.8688 40.1875 11.55C40.162 11.4936 39.9544 11.5207 39.8311 11.5094C39.2709 11.4597 38.7709 11.5943 38.3513 11.9861C38.14 12.1831 37.8272 12.0771 37.5865 12.2508C37.3579 12.4162 37.2617 12.6726 37.1068 12.8719C36.9812 13.0328 36.9135 13.2133 36.6947 13.2802C36.3029 13.3998 36.1969 13.8337 35.8721 14.0352C35.6894 14.148 35.5006 14.2871 35.5585 14.56C35.5645 14.5894 35.536 14.654 35.5164 14.6571C35.1081 14.724 35.1216 15.0503 35.0697 15.3488C35.0442 15.4962 34.9291 15.5774 34.7645 15.5699C34.5697 15.5609 34.3772 15.5391 34.305 15.3248C34.2667 15.2097 34.2509 15.1007 34.0937 15.1285C33.9554 15.1526 33.926 15.2533 33.9125 15.3759C33.9035 15.4609 33.8922 15.5617 33.8426 15.6233C33.6756 15.8309 33.6831 16.0098 33.8426 16.2264C33.9794 16.4129 33.9335 16.6542 33.6719 16.6016C33.2621 16.5189 33.4139 16.9061 33.25 17.0114C33.4004 17.222 33.3884 17.5806 33.6621 17.6528C33.9087 17.7175 33.9035 17.9153 34.0102 18.0499C34.0937 18.1551 33.9794 18.2363 33.9065 18.2326C33.5734 18.2168 33.4937 18.5612 33.2478 18.6725C33.0883 18.7439 33.1801 18.8687 33.2816 18.9304C33.5741 19.1079 33.4222 19.2304 33.2282 19.3169C33.0748 19.3846 33.0116 19.4981 33.0192 19.6372C33.041 20.044 32.9477 20.4531 33.1199 20.8607C33.2026 21.0569 33.3027 21.3585 32.938 21.4773C32.7921 21.5246 32.7447 21.648 32.8259 21.7773C32.9177 21.9232 33.053 21.9089 33.1838 21.8194C33.2793 21.754 33.3696 21.5863 33.4914 21.7374C33.6192 21.8969 33.9644 21.9179 33.8403 22.2488C33.8208 22.26 33.7997 22.2653 33.7771 22.2653C33.4117 22.3262 33.1605 22.5285 33.0199 22.8706L33.0222 22.8684C32.85 22.8684 32.6785 22.8691 32.6439 23.0962L32.647 23.0932C32.4733 23.0676 32.3966 23.1436 32.4146 23.3173C32.3687 23.3511 32.3221 23.3842 32.2762 23.4181C32.2236 23.3135 32.1176 23.2744 32.0409 23.3368C31.9732 23.3917 31.9627 23.5075 32.086 23.5617C31.9364 23.7038 31.7784 23.8346 31.5882 23.9196C31.4694 23.8399 31.2664 23.8489 31.2867 23.6241C31.2957 23.5233 31.2792 23.4188 31.4183 23.3925C31.513 23.3744 31.6596 23.3639 31.6093 23.2308C31.5626 23.1075 31.4137 23.1707 31.307 23.1782C31.204 23.1857 31.1175 23.4256 31.0077 23.2256C30.928 23.0804 31.0069 22.9346 31.1333 22.8278C31.2453 22.7323 31.3213 22.612 31.2784 22.4646C31.1521 22.033 31.2355 21.5931 31.2107 21.1584C31.204 21.0351 31.237 20.9005 31.134 20.802C30.8738 20.5539 30.9378 20.2704 31.0205 19.9846C31.1641 19.9312 31.1934 20.2358 31.3273 20.0824C31.4077 19.9899 31.3949 19.8094 31.2664 19.7538C30.9663 19.623 30.9904 19.3703 30.9859 19.1244C30.9806 18.8116 30.9957 18.4973 30.9799 18.1852C30.9716 18.0205 30.9761 17.8235 30.7641 17.7551C30.446 17.6528 30.4227 17.4393 30.5182 17.1633C30.5746 17.0009 30.6234 16.8452 30.5663 16.655C30.5061 16.4557 30.4287 16.1986 30.7859 16.1414C30.8994 16.1234 30.9084 15.9963 30.9099 15.8933C30.9122 15.7842 30.9475 15.6714 31.0611 15.6647C31.5062 15.6376 31.3416 15.4271 31.2265 15.1985C31.137 15.0202 31.0866 14.818 31.4077 14.8195C31.5814 14.8202 31.6341 14.7119 31.6822 14.5676C31.7521 14.3555 31.7551 14.154 31.6829 13.9442C31.6514 13.8532 31.6732 13.7487 31.7792 13.7359C31.9198 13.7186 31.8822 13.8487 31.8845 13.9239C31.8905 14.1743 31.8852 14.4247 31.8882 14.6758C31.889 14.7608 31.8807 14.8751 32.0048 14.8691C32.1251 14.8638 32.1228 14.7465 32.1093 14.6653C32.0386 14.2435 32.2642 13.8276 32.1319 13.405C32.1048 13.3178 32.1529 13.2659 32.2371 13.2389C32.3402 13.2058 32.4394 13.1396 32.3868 13.0246C32.3229 12.8839 32.1973 12.9336 32.1018 12.9997C31.9905 13.0772 31.886 13.1095 31.8356 12.9561C31.7942 12.8291 31.7627 12.6884 31.9702 12.6366C32.2462 12.5681 32.3492 12.3425 32.4041 12.0884C32.4582 12.0463 32.5116 12.0042 32.5657 11.9621C32.7838 12.0974 32.7763 11.9327 32.7891 11.7944C32.8304 11.6959 32.9365 11.6996 33.0101 11.653C33.1207 11.8011 33.2342 11.7109 33.3282 11.6417C33.4162 11.5771 33.3936 11.4928 33.3042 11.4312C33.3222 11.3462 33.3711 11.2898 33.4561 11.2665C33.4899 11.3259 33.541 11.353 33.6079 11.3597C33.6967 11.3688 33.8072 11.3846 33.8035 11.4913C33.7989 11.6244 33.6899 11.5169 33.635 11.5379C33.4839 11.5958 33.5824 11.6996 33.632 11.7357C33.8012 11.8583 33.9914 11.8733 34.12 11.6861C34.2494 11.4973 34.417 11.4289 34.6299 11.4364C34.8953 11.4455 35.163 11.4725 35.278 11.1424C35.3059 11.062 35.3976 11.0687 35.4728 11.0597C36.1187 10.9785 36.7143 10.7837 37.1752 10.2912C37.2444 10.2175 37.3369 10.2356 37.4219 10.2341C37.5843 10.2311 37.7474 10.2341 37.9099 10.2318C37.9978 10.2303 38.0911 10.2311 38.1144 10.1153C38.1332 10.0205 38.0933 9.94682 38.0302 9.87839C37.9437 9.78515 37.8339 9.78364 37.7196 9.78064C37.5993 9.77763 37.4376 9.81372 37.4106 9.64829C37.3843 9.48512 37.558 9.46256 37.6625 9.41594C37.9896 9.27156 38.3528 9.31217 38.6972 9.24825C38.9634 9.19862 39.195 9.41894 39.1453 9.6716C39.098 9.91674 38.8791 9.68664 38.7445 9.66709C38.5987 9.64603 38.5626 9.71897 38.5347 9.81522C38.5024 9.92651 38.5829 9.97915 38.6739 9.99645C38.8626 10.0318 39.0423 9.97088 39.2273 9.9423C39.4378 9.90997 39.5574 9.86861 39.3897 9.64979C39.2807 9.50768 39.3626 9.37608 39.4251 9.2663C39.5145 9.10989 39.6191 9.21742 39.7364 9.27156C39.8883 9.34225 39.8326 9.18584 39.8552 9.11816C40.4763 9.52271 41.0726 9.95734 41.6388 10.4393C42.0403 10.7822 42.499 11.0605 42.9329 11.3673ZM30.8017 16.9949C31.0024 17.0881 31.122 17.1039 31.2769 16.9964C31.1212 16.8979 31.0017 16.9107 30.8017 16.9949Z" fill="#211C3D"/>
<path d="M37.1579 19.8119C37.1444 19.5442 36.9203 19.36 36.9128 19.0683C36.9 18.5592 37.0594 18.3178 37.5685 18.2764C37.949 18.2456 38.0956 18.0283 37.9528 17.6907C37.9159 17.6027 37.8858 17.5283 37.9528 17.45C38.0189 17.3726 38.1009 17.3816 38.1926 17.4064C38.2874 17.432 38.3881 17.4418 38.4866 17.4485C38.634 17.4583 38.725 17.435 38.6701 17.2388C38.5889 16.947 38.7423 16.8823 38.9995 16.9515C39.3627 17.0493 39.6725 17.065 39.8545 16.6206C39.9161 16.4703 40.0891 16.3063 40.3244 16.2958C40.4132 16.292 40.5109 16.2011 40.4989 16.0838C40.4883 15.9777 40.3944 15.9574 40.3034 15.9469C40.0921 15.9228 39.9785 15.8364 40.0725 15.6025C40.1026 15.5273 40.0477 15.41 40.1545 15.3739C40.3086 15.322 40.2808 15.4882 40.3432 15.5491C40.3959 15.6002 40.4583 15.6627 40.5237 15.6732C40.759 15.7115 40.8621 15.8093 40.9651 16.0589C41.0696 16.3116 41.1659 16.4537 40.9102 16.6387C40.844 16.6861 40.8124 16.7898 40.9027 16.868C40.9914 16.9455 41.0711 16.8861 41.138 16.8357C41.2155 16.7763 41.2726 16.6883 41.3516 16.6319C41.4681 16.5492 41.6027 16.5289 41.6441 16.7041C41.6892 16.8959 41.8238 16.9169 41.9765 16.9432C42.1141 16.9673 42.2878 17.0996 42.3239 16.8462C42.3494 16.6665 42.3081 16.4891 42.0644 16.4725C42.0178 16.4695 41.9727 16.4522 41.9186 16.4394C42.3224 16.0206 42.7209 15.6175 43.3578 15.7273C43.6548 15.7785 43.9466 15.8281 44.2474 15.7739C44.5316 15.7228 44.7233 15.5664 44.8016 15.2844C44.8331 15.1701 44.8722 15.0408 45.0061 15.0566C45.2821 15.0889 45.5467 15.0776 45.8084 14.9836C45.8295 14.9761 45.8783 14.9836 45.8791 14.9889C45.9325 15.3574 46.4641 15.3506 46.4754 15.7634C46.4814 15.9995 46.5792 16.1183 46.8687 16.0228C47.2048 15.9123 47.5748 15.804 47.8477 16.1883C47.9139 16.2815 48.0327 16.2432 48.1297 16.2469C48.232 16.2507 48.3463 16.2469 48.3869 16.3575C48.4297 16.4748 48.3237 16.5349 48.2462 16.5943C48.1703 16.6522 48.0319 16.6883 48.0876 16.8101C48.1673 16.9846 48.3478 16.9132 48.4906 16.9222C48.6117 16.9304 48.72 16.9079 48.7222 16.75C48.7245 16.6252 48.7313 16.5011 48.6816 16.3808C48.6373 16.271 48.6297 16.1574 48.7328 16.0725C48.7982 16.0183 48.8749 16.0176 48.9335 16.083C49.0125 16.1702 49.1441 16.2371 49.0651 16.3958C49.0065 16.5139 49.0238 16.6237 49.1531 16.677C49.2606 16.7214 49.3155 16.6567 49.3261 16.55C49.3509 16.55 49.3764 16.55 49.4012 16.55C49.4261 16.55 49.4509 16.55 49.4764 16.55C49.4764 16.6003 49.4764 16.65 49.4764 16.7004C49.5013 16.7515 49.5268 16.7515 49.5516 16.7004C49.5516 16.65 49.5516 16.6003 49.5516 16.55C49.5765 16.55 49.602 16.55 49.6268 16.55C49.6516 16.5748 49.6772 16.6003 49.702 16.6252C49.7524 16.7019 49.802 16.7019 49.8524 16.6252C49.9111 16.5966 49.9705 16.5673 50.0291 16.5387C50.0863 16.5439 50.1314 16.5665 50.1532 16.6237C50.1946 16.7853 49.9983 16.9395 50.1509 17.1335C50.251 17.0244 50.2442 16.7959 50.4608 16.8455L50.4577 16.8432C50.4427 17.0342 50.4517 17.2403 50.636 17.329C50.7721 17.3952 50.7796 17.2072 50.839 17.1267C50.8856 17.1605 50.933 17.1944 50.9796 17.2282C51.0112 17.25 51.0435 17.2726 51.0751 17.2944C51.1172 17.3252 51.1601 17.3553 51.2022 17.3861C51.1856 17.5192 51.1097 17.6877 51.1638 17.7779C51.3729 18.1261 51.1082 18.0433 50.9397 18.0531C50.8533 18.0584 50.7653 18.0539 50.6788 18.0539C50.669 17.9997 50.6713 17.9358 50.5886 17.9403C50.5803 17.9411 50.566 17.9554 50.5653 17.9636C50.56 18.0463 50.6247 18.0441 50.6788 18.0539C50.8127 18.502 51.221 18.4208 51.5135 18.405C51.7684 18.3915 51.8819 18.4381 51.9586 18.7133C51.9421 18.7231 52.0053 18.6374 51.8834 18.6554C51.6436 18.6908 51.597 18.8961 51.5218 19.0675C51.4977 19.1224 51.5699 19.1893 51.6383 19.166C51.8255 19.1021 51.9451 18.9743 51.9586 18.7133C52.2331 18.6321 52.5294 18.7314 52.776 18.5246C52.8317 18.5622 52.8873 18.5998 52.9429 18.6374C52.9159 18.7863 52.7316 18.7742 52.6512 18.9051C52.879 19.0284 53.067 18.8577 53.2625 18.8712C53.3483 18.8976 53.4167 18.9472 53.4656 19.0239C53.3851 19.1555 53.3813 19.3006 53.3866 19.4487C53.3904 19.5525 53.4107 19.6495 53.5197 19.6864C53.6325 19.7247 53.7197 19.6683 53.7475 19.563C53.7844 19.4232 53.8799 19.4036 53.9957 19.4036L53.9927 19.4006C53.9912 19.4382 53.9957 19.4766 53.9874 19.5127C53.8784 19.9841 53.9844 20.0631 54.3724 20.3451C54.7431 20.6143 55.0853 20.3939 55.4342 20.4451H55.4357C55.4785 20.7173 55.2221 20.9466 55.3296 21.2339C55.3597 21.3143 55.2582 21.3474 55.1853 21.3745C54.9544 21.4595 54.7018 21.4587 54.4852 21.6166C54.3589 21.7084 54.313 21.5467 54.2874 21.4324C54.2265 21.1527 54.1092 21.0918 53.7851 21.1354C53.358 21.1925 52.8978 21.1963 52.4647 21.0639C52.2888 21.0105 52.2692 20.8579 52.2579 20.7022C52.2459 20.5346 52.3008 20.3939 52.4572 20.3338C52.7459 20.2233 52.7377 20.203 52.4888 19.9766C52.1354 19.6563 51.8037 19.9849 51.4691 19.8743C51.2586 19.8044 51.1623 19.7804 51.1676 19.5217C51.1811 18.8848 50.7269 18.5118 50.0833 18.584C50.0096 18.5923 49.9396 18.6238 49.866 18.6374C49.7494 18.6592 49.6637 18.6148 49.6449 18.4953C49.6253 18.3682 49.7253 18.3614 49.8156 18.3554C49.9321 18.3471 50.081 18.3268 50.0397 18.1794C49.993 18.0103 49.8133 18.0268 49.6892 18.0794C49.5802 18.1261 49.4772 18.2193 49.4073 18.3178C49.2125 18.5915 48.9914 18.7366 48.6455 18.5885C48.5606 18.5517 48.45 18.575 48.3478 18.5705C48.2711 18.4238 48.5493 18.2396 48.3583 18.1802C48.0695 18.09 47.7432 18.0479 47.4574 18.2298C47.1251 18.4419 46.7581 18.5336 46.3754 18.581C46.1054 18.6141 45.8934 18.5103 45.7062 18.3155C45.5851 18.1892 45.4445 18.1088 45.2369 18.1719C45.0144 18.2396 45.0384 18.393 45.0377 18.5539C45.0369 18.6614 45.0068 18.7547 44.8925 18.7893C44.7888 18.8209 44.6918 18.8036 44.6241 18.7103C44.3925 18.3907 44.1631 18.1584 43.8165 18.6043C43.724 18.7231 43.53 18.6449 43.3826 18.6554C43.2367 18.666 43.0487 18.6231 43.0269 18.8329C43.0104 18.9893 43.1397 19.0825 43.2849 19.1074C43.6714 19.1728 43.6721 19.5796 43.8939 19.7909C43.9458 19.8405 43.9526 20.0202 43.8428 20.0541C43.5699 20.1375 43.3969 20.3744 43.1367 20.4737C42.9893 20.53 42.8269 20.6007 42.745 20.4203C42.6562 20.2248 42.8532 20.2067 42.9728 20.1616C43.1277 20.1037 43.2397 20.0142 43.2285 19.8367C43.2209 19.724 43.1849 19.6089 43.057 19.5721C42.9329 19.5367 42.8878 19.6149 42.8427 19.7202C42.7871 19.8495 42.6931 19.9646 42.5239 19.9089C42.3758 19.8601 42.2449 19.7826 42.2599 19.5931C42.2727 19.4375 42.2276 19.3059 42.0599 19.2871C41.881 19.2668 41.8998 19.4442 41.8486 19.548C41.7802 19.6879 41.7208 19.7849 41.514 19.7623C41.2606 19.7352 41.0117 19.8646 40.7523 19.9014C40.2379 19.9744 39.8981 19.8232 39.598 19.4435C39.489 19.3051 39.3333 19.181 39.1499 19.3299C39.0055 19.448 38.9574 19.3149 38.8754 19.2577C38.8844 18.6953 38.5934 19.0803 38.4137 19.1111C38.3453 19.0855 38.2761 19.0607 38.2077 19.0352C37.9911 18.9509 37.8565 18.981 37.8979 19.257C37.8497 19.3375 37.7791 19.3886 37.6888 19.4134C37.658 19.4367 37.6272 19.4608 37.5963 19.4841C37.5445 19.5262 37.4926 19.5691 37.4407 19.6112C37.3136 19.5247 37.3098 19.6247 37.2956 19.7074C37.2504 19.7397 37.2046 19.7758 37.1579 19.8119ZM39.3702 17.5944C39.1807 17.6117 39.0025 17.6042 38.9581 17.8132C38.9213 17.9869 39.01 18.0937 39.1694 18.1591C39.2792 18.2043 39.3875 18.1832 39.498 18.1885C39.8529 18.205 40.0094 17.8892 40.2703 17.7546C40.4026 17.6869 40.4688 17.614 40.444 17.4696C40.4274 17.3711 40.362 17.3177 40.2658 17.3064C40.1394 17.2921 40.0439 17.338 40.0101 17.4681C39.9484 17.7057 39.7762 17.6899 39.5958 17.6523C39.5108 17.6358 39.4281 17.6102 39.3702 17.5944ZM41.9847 18.8547C42.0464 18.8254 42.1043 18.7818 42.0795 18.696C42.0622 18.6351 42.0111 18.5915 41.9441 18.605C41.8659 18.6216 41.817 18.6765 41.8404 18.7607C41.8569 18.8216 41.9065 18.857 41.9847 18.8547ZM52.5587 19.1705C52.4196 19.0976 52.3233 19.0743 52.1842 19.1871C52.3233 19.2592 52.4188 19.2826 52.5587 19.1705ZM42.6938 19.1547C42.7013 19.075 42.6532 19.0419 42.5855 19.0359C42.5246 19.0307 42.4419 19.0322 42.4555 19.1149C42.4622 19.1562 42.5389 19.1953 42.5908 19.2194C42.6419 19.2427 42.6841 19.2156 42.6938 19.1547ZM44.4068 16.8056C44.2752 16.8101 44.2579 16.9004 44.2436 16.9838C44.2368 17.0237 44.2722 17.0568 44.315 17.0417C44.4113 17.0079 44.4481 16.938 44.4068 16.8056ZM38.3889 18.284C38.3536 18.3321 38.3122 18.3652 38.3039 18.4058C38.2896 18.4742 38.3475 18.49 38.3927 18.4644C38.4272 18.4449 38.4506 18.396 38.4656 18.3554C38.4694 18.3449 38.4242 18.3155 38.3889 18.284ZM37.2143 19.2337C37.1572 19.2773 37.1316 19.2961 37.1061 19.3149C37.1249 19.339 37.1391 19.3781 37.1625 19.3848C37.2083 19.3984 37.261 19.3886 37.258 19.3239C37.2565 19.2946 37.2309 19.266 37.2143 19.2337ZM37.352 18.8344C37.3429 18.8554 37.3339 18.8758 37.3249 18.8968C37.3459 18.9058 37.3708 18.9261 37.3858 18.9201C37.4008 18.9141 37.4053 18.8818 37.4144 18.8615C37.3933 18.8524 37.373 18.8434 37.352 18.8344Z" fill="#262142"/>
<path d="M17.8693 63.165C17.8693 61.7122 17.8754 60.2594 17.8641 58.8067C17.8618 58.5435 17.9039 58.4412 18.204 58.4465C19.4432 58.4675 20.6839 58.4457 21.9239 58.4608C23.521 58.4796 24.8911 59.5158 25.1828 60.9024C25.6295 63.0244 24.2166 64.8937 22.0352 65.0411C21.4366 65.0817 20.8328 65.0795 20.2327 65.0554C19.8861 65.0419 19.7537 65.1125 19.774 65.496C19.8101 66.1954 19.774 66.8984 19.7883 67.5993C19.7936 67.8361 19.7402 67.9301 19.4838 67.9181C19.0461 67.8963 18.6063 67.8925 18.1694 67.9181C17.9032 67.9339 17.8618 67.8316 17.8633 67.5993C17.8716 66.1217 17.8678 64.6433 17.8678 63.1657C17.8671 63.165 17.8678 63.165 17.8693 63.165ZM19.7846 61.7581C19.7838 61.7581 19.7831 61.7581 19.7823 61.7581C19.7823 62.1709 19.7853 62.583 19.7808 62.9958C19.7793 63.1372 19.7928 63.2304 19.9771 63.2281C20.6643 63.2184 21.3539 63.2515 22.0397 63.2139C22.8503 63.1695 23.412 62.492 23.3894 61.6581C23.3684 60.8843 22.763 60.3128 21.9367 60.3008C21.3246 60.2918 20.711 60.3121 20.0989 60.2895C19.8191 60.279 19.7665 60.3858 19.7793 60.6339C19.7988 61.0069 19.7846 61.3829 19.7846 61.7581Z" fill="#1A1737"/>
<path d="M48.4672 26.5136C48.5169 26.3654 48.4372 26.2722 48.3229 26.2045C48.2319 26.1511 48.0852 26.1474 48.1868 25.9774C48.271 25.8361 48.3973 25.8541 48.5161 25.891C48.6282 25.9255 48.6898 26.0203 48.7289 26.1346C48.7733 26.2639 48.8357 26.4158 49.0116 26.3474C49.1545 26.2925 49.1846 26.1504 49.1756 26C49.1696 25.894 49.0545 25.7962 49.1966 25.6233C49.3846 26.1541 49.8238 26.0955 50.2426 26.1263C50.3825 26.1368 50.4328 26.2902 50.2832 26.4015C50.0982 26.5391 50.1373 26.6955 50.2787 26.8061C50.4186 26.9151 50.6073 26.9662 50.7396 26.779C50.8299 26.6504 50.9517 26.573 51.0728 26.485C51.2261 26.3737 51.3555 26.3617 51.4224 26.5624C51.5044 26.8091 51.6239 26.7873 51.8164 26.6722C52.0052 26.5602 52.1721 26.6188 52.1781 26.8647C52.1856 27.1768 52.4293 27.1693 52.6225 27.2151C52.8293 27.2648 52.9835 27.1851 53.0609 26.9693C53.1527 26.7143 53.5557 26.679 53.5211 26.3218C53.5166 26.2775 53.6121 26.2444 53.6798 26.2684C53.7527 26.294 53.764 26.3602 53.758 26.4211C53.7144 26.8557 54.1964 26.8911 54.3445 27.1851C54.3851 27.2663 54.5039 27.1963 54.5588 27.1189C54.7897 26.7971 55.0318 26.503 55.4987 26.6113C55.5845 26.6316 55.6176 26.5609 55.6296 26.4715C55.6777 26.1211 55.9153 26.0075 56.2409 26.1669C56.4169 26.2534 56.5733 26.3 56.741 26.112C56.8914 25.9443 57.1087 25.994 57.2974 26.0744C57.3764 26.1075 57.4493 26.1932 57.535 26.1639C57.8809 26.0444 58.2268 26.0286 58.5878 26.0842C58.7352 26.1068 58.8269 25.9752 58.8735 25.8323C58.963 25.5593 59.0156 25.2706 58.9841 24.9939C58.9502 24.7059 59.0585 24.5773 59.3044 24.5059C59.3089 26.2782 59.354 28.0521 59.3059 29.8229C59.269 31.2043 57.8148 32.1871 56.3221 31.9269C56.1642 31.8991 56.0086 31.8366 55.8439 31.878C55.6409 31.8863 55.5371 31.6667 55.3408 31.6592C54.6799 31.1185 53.9708 30.6425 53.282 30.1395C51.8879 29.1221 50.5005 28.0957 49.1102 27.073C49.0974 27.0272 49.0838 26.9805 49.0711 26.9347C49.1508 26.9136 49.2545 26.9474 49.3004 26.8467C49.3312 26.7783 49.2966 26.7061 49.2342 26.6978C48.9725 26.6617 48.7695 26.3842 48.4695 26.5128L48.4672 26.5136Z" fill="#27264A"/>
<path d="M21.584 53.464C21.6509 53.1903 21.7329 52.9542 22.0788 53.2061C22.1231 53.2385 22.2006 53.2392 22.2607 53.2332C22.5766 53.2024 22.8819 53.167 23.1646 53.3888C23.3556 53.5385 23.503 53.3287 23.6676 53.2588C24.0902 53.0783 24.5377 53.0617 24.9888 53.0835C25.0821 53.0881 25.2129 53.1219 25.2452 52.9933C25.2783 52.864 25.1753 52.7805 25.0708 52.7361C24.9415 52.6805 24.785 52.6519 24.8369 52.4639C24.8775 52.3181 24.949 52.1782 25.1415 52.1842C25.2821 52.188 25.346 52.1233 25.3407 51.9789C25.3355 51.8458 25.2595 51.812 25.1445 51.8075C25.0415 51.8037 24.9339 51.7902 24.9242 51.6586C24.9212 51.621 24.9625 51.5646 24.9994 51.5428C25.0933 51.4879 25.1926 51.4977 25.2798 51.5669C25.5205 51.7571 25.7844 51.8812 26.098 51.8834C26.2514 51.8842 26.3709 51.8473 26.392 51.6684C26.416 51.4706 26.4521 51.2744 26.4672 51.0766C26.4852 50.8299 26.4063 50.5946 26.6612 50.369C26.786 50.2592 26.9627 50.0013 26.7958 49.6764C26.6311 49.3569 27.0003 49.0583 27.4229 49.199C27.8049 49.3268 27.9666 49.2854 28.0756 48.8734C28.1523 48.5831 28.4486 48.4485 28.7561 48.4275C28.9764 48.4124 29.1268 48.3229 29.1186 48.0921C29.1043 47.6763 29.5186 47.2882 29.196 46.8529C29.1795 46.8303 29.1855 46.7566 29.202 46.7483C29.5359 46.5754 29.4223 46.2844 29.4246 46.0084C29.4261 45.7731 29.8607 45.4482 30.1171 45.4437C30.4796 45.4369 30.6751 45.2189 30.6307 44.8624C30.5992 44.6098 30.742 44.5361 30.9586 44.5143C31.4624 44.4647 31.5428 44.315 31.2849 43.8834C31.2037 43.7481 31.227 43.6744 31.3594 43.624C31.4932 43.5736 31.6323 43.5352 31.7895 43.4849C31.6173 43.2751 31.3368 43.5172 31.206 43.2894C31.9354 43.2457 32.6648 43.2473 33.3942 43.2864C33.3844 43.4352 33.1693 43.3134 33.1603 43.4631C33.137 43.5195 33.1302 43.5962 33.0889 43.6285C32.846 43.8172 33.037 43.8654 33.1814 43.9022C33.322 43.9375 33.5145 43.8954 33.5242 44.1067C33.534 44.3143 33.5325 44.5526 33.337 44.679C33.0738 44.8497 33.1453 44.9557 33.3663 45.07C33.4581 45.1174 33.5438 45.1677 33.5295 45.2933C33.5137 45.4309 33.4257 45.4828 33.3002 45.4948C33.1693 45.5076 33.0881 45.5791 33.0889 45.7122C33.0904 45.8859 33.031 46.0009 32.849 46.037C32.8159 46.0438 32.7633 46.0791 32.7633 46.1009C32.7693 46.416 32.4497 46.4972 32.3362 46.695C32.0662 47.1672 31.7143 47.5477 31.327 47.9124C31.2609 47.9748 31.2067 48.0936 31.2142 48.1808C31.2413 48.4944 31.124 48.6606 30.8142 48.753C30.6052 48.8155 30.6826 49.0065 30.7458 49.1666C30.8804 49.5088 30.8014 49.6155 30.4345 49.6306C30.1322 49.6426 29.8239 49.587 29.4374 49.6907C29.7457 49.8359 30.0186 49.7479 30.248 49.8923C30.4563 50.0239 30.5728 50.1682 30.5209 50.4081C30.4706 50.6397 30.3713 50.8397 30.0811 50.8322C29.8592 50.8269 29.7299 50.9254 29.6976 51.1525C29.6607 51.4067 29.4953 51.515 29.2494 51.5075C29.0208 51.5007 28.9148 51.624 28.8554 51.83C28.7659 52.1391 28.7366 52.4677 28.8426 52.7519C28.9456 53.0294 28.8712 53.0971 28.6313 53.1354C28.5726 53.1452 28.5177 53.179 28.42 53.2174C28.6802 53.4061 29.0915 53.3016 29.1749 53.6881C27.3808 53.6941 25.5866 53.7009 23.7917 53.7047C23.4308 53.7054 23.0698 53.6934 22.7089 53.6874C22.6954 53.5904 22.6788 53.4798 22.551 53.4979C22.4638 53.5107 22.4908 53.6107 22.4826 53.6776C22.1667 53.6844 21.8682 53.6047 21.584 53.464ZM27.6801 53.0993C27.5868 53.1181 27.5071 53.1836 27.4816 53.2843C27.462 53.3625 27.5349 53.3836 27.6026 53.3813C27.7162 53.3783 27.7989 53.3302 27.8094 53.2099C27.8162 53.1384 27.7718 53.0956 27.6801 53.0993ZM26.2732 53.267C26.4957 53.3016 26.6266 53.3685 26.7499 53.2106C26.601 53.149 26.4815 53.1354 26.2732 53.267ZM27.2657 50.5705C27.2575 50.6645 27.3131 50.6675 27.3597 50.6735C27.4086 50.6796 27.465 50.6728 27.4778 50.6179C27.4943 50.548 27.4304 50.5389 27.3853 50.5389C27.3432 50.5389 27.3011 50.5607 27.2657 50.5705Z" fill="#1E1A3B"/>
<path d="M30.7924 67.3106C30.5706 67.449 30.3909 67.5791 30.1961 67.6798C29.169 68.2062 28.1252 68.2536 27.1139 67.6701C26.3649 67.2384 26.095 66.5278 26.1845 65.6856C26.2717 64.8668 26.7725 64.3945 27.5312 64.1532C28.0907 63.975 28.6651 63.9795 29.2419 63.9825C29.6923 63.9847 30.1435 63.9742 30.5939 63.993C30.8052 64.002 30.8436 63.9246 30.8285 63.7366C30.7834 63.1628 30.2728 62.7072 29.5878 62.6395C28.8306 62.565 28.138 62.741 27.553 63.2268C27.3034 63.4343 27.1876 63.3584 27.0469 63.135C26.9477 62.9764 26.8251 62.8327 26.7123 62.6823C26.4123 62.2838 26.4123 62.2838 26.8078 61.953C28.1583 60.8243 30.0886 60.6333 31.4955 61.501C32.2768 61.983 32.7016 62.6831 32.7061 63.6125C32.7122 64.9517 32.7054 66.2917 32.7189 67.631C32.7212 67.8693 32.6497 67.9265 32.4219 67.9159C32.0098 67.8964 31.5948 67.8934 31.1834 67.9152C30.9045 67.9302 30.7563 67.8686 30.8112 67.5573C30.824 67.4903 30.8022 67.4166 30.7924 67.3106ZM29.1103 66.6241C29.7908 66.6331 30.3901 66.2158 30.6383 65.5736C30.718 65.3668 30.724 65.2533 30.4428 65.2638C29.945 65.2826 29.4457 65.2713 28.9471 65.2766C28.7464 65.2788 28.5501 65.3097 28.3689 65.4029C27.9508 65.618 27.9004 66.0842 28.2674 66.3759C28.5133 66.5707 28.8043 66.6263 29.1103 66.6241Z" fill="#1B1738"/>
<path d="M52.6707 65.2587C51.9571 65.2587 51.2435 65.2557 50.5299 65.2625C50.4283 65.2633 50.2825 65.1926 50.2298 65.3204C50.1862 65.4272 50.2892 65.5287 50.3471 65.6227C50.7712 66.3055 51.6976 66.6108 52.6128 66.3686C52.9549 66.2784 53.2715 66.1295 53.5595 65.9265C53.6753 65.8453 53.7572 65.8069 53.873 65.9355C54.149 66.2423 54.4325 66.5438 54.7273 66.8326C54.8844 66.986 54.7491 67.0439 54.6641 67.1198C54.0648 67.6567 53.3452 67.9402 52.5624 68.0297C51.1931 68.1861 49.9682 67.8763 49.0538 66.7634C47.8597 65.3091 48.1845 62.7938 49.696 61.6855C51.363 60.4635 53.6512 60.8162 54.731 62.4637C55.2679 63.2826 55.2078 64.203 55.1732 65.1174C55.1657 65.3174 54.9995 65.258 54.8867 65.2587C54.1483 65.2625 53.4091 65.261 52.6707 65.261C52.6707 65.2595 52.6707 65.2587 52.6707 65.2587ZM50.2456 63.836C51.2344 63.836 52.2203 63.8315 53.2053 63.8398C53.4083 63.8413 53.3903 63.7421 53.3617 63.606C53.2527 63.0833 52.785 62.6953 52.1436 62.5976C51.2202 62.457 50.3757 62.9984 50.2456 63.836Z" fill="#1B1738"/>
<path d="M19.5122 36.3949C19.4783 35.6181 19.4746 34.8421 19.5054 34.0654C19.6806 34.0541 19.8039 34.0699 19.719 34.3075C19.6656 34.4571 19.7054 34.6436 19.8693 34.6857C20.0882 34.7421 19.9633 34.5188 20.0197 34.4361C20.0476 34.3955 20.0716 34.3428 20.1115 34.3225C20.3634 34.1909 20.4461 34.0037 20.3348 33.7337C20.2972 33.6428 20.3092 33.5525 20.4401 33.554C20.6055 33.5563 20.9018 34.1315 20.7837 34.2511C20.3889 34.6519 20.7521 34.588 20.9852 34.5887C21.2898 34.5895 21.5462 34.609 21.6214 34.9993C21.6643 35.2234 21.959 35.2219 22.1207 35.3595C22.2598 35.4783 22.2809 35.2053 22.3914 35.1873C22.6644 35.1429 22.9223 34.8542 23.1366 34.9226C23.4855 35.0346 23.7795 34.9226 24.0953 34.891C24.372 34.8632 24.7728 34.9301 24.8984 34.776C25.142 34.4774 25.418 34.5459 25.6376 34.612C25.9489 34.7053 26.1211 34.4646 26.3715 34.4346C26.8016 34.3827 26.5467 34.018 26.6324 33.8067C26.6444 33.7774 26.6715 33.7548 26.7144 33.7007C26.8091 33.9315 26.7414 34.2255 27.0325 34.3263C27.1039 34.1676 27.0648 34.0165 27.0708 33.8691C27.0783 33.6871 26.758 33.5187 27.0009 33.3457C27.2122 33.1954 27.3167 33.551 27.5235 33.5382C27.5235 33.9894 27.5227 34.4406 27.5227 34.8918C27.3565 34.9068 27.3776 35.0346 27.3708 35.1444C27.3362 35.7317 26.6512 35.7761 26.4595 36.2332C26.455 36.2445 26.4121 36.2423 26.3873 36.243C26.2722 36.2468 26.1444 36.2505 26.1173 36.3904C26.0827 36.5731 26.2504 36.5257 26.3422 36.5633C26.4497 36.607 26.5459 36.6551 26.5459 36.7987C26.5467 36.922 26.5068 37.0732 26.4053 37.0784C26.07 37.098 25.897 37.3228 25.694 37.5349C25.5864 37.6469 25.4962 37.7131 25.5218 37.9041C25.5684 38.2545 25.2586 38.5711 24.9195 38.6703C24.7157 38.7297 24.4916 38.6613 24.3066 38.7929C23.8773 39.0982 23.3734 38.9876 22.9208 38.95C22.6034 38.9237 22.2763 38.8478 21.9643 38.9027C21.7364 38.9433 21.6274 38.8959 21.4988 38.7215C21.2793 38.4229 21.0838 38.4327 20.8657 38.7365C20.7153 38.9463 20.4935 38.9493 20.4243 38.753C20.3243 38.4703 20.1303 38.4124 19.9017 38.3537C19.7754 38.3214 19.7099 38.2477 19.7062 38.1154C19.7032 38.0048 19.7287 37.9327 19.8551 37.8958C20.0852 37.8289 20.0385 37.6755 19.9047 37.5649C19.7949 37.4747 19.6829 37.3521 19.5122 37.3732C19.4791 37.098 19.4806 36.822 19.5114 36.5468C19.5708 36.5415 19.6603 36.5558 19.6693 36.4889C19.6836 36.3754 19.5768 36.4084 19.5122 36.3949Z" fill="#282345"/>
<path d="M43.9311 68.0729C42.6151 67.9857 41.4714 67.4172 40.8638 66.0937C40.26 64.7786 40.351 63.4627 41.2684 62.3077C42.2294 61.097 43.537 60.7707 45.0124 61.0827C45.8207 61.2542 46.4734 61.7136 47.0261 62.3212C47.1254 62.4302 47.1727 62.4994 47.0254 62.616C46.6426 62.919 46.2659 63.2303 45.9027 63.5551C45.7395 63.701 45.6779 63.595 45.5824 63.4905C45.1507 63.0205 44.6462 62.6942 43.9754 62.7445C43.213 62.8017 42.6009 63.3138 42.4054 64.0432C42.2016 64.8019 42.4655 65.5629 43.0874 66.005C43.6844 66.4299 44.5063 66.4306 45.1304 65.993C45.3034 65.8719 45.4733 65.7328 45.6042 65.5696C45.7342 65.4072 45.817 65.3824 45.9854 65.52C46.3245 65.7967 46.681 66.0524 47.0359 66.3088C47.16 66.399 47.1945 66.4562 47.0742 66.5953C46.2696 67.5255 45.2733 68.0458 43.9311 68.0729Z" fill="#1B1738"/>
<path d="M32.4009 12.0859C32.346 12.3401 32.243 12.5657 31.967 12.6341C31.7595 12.6852 31.7911 12.8259 31.8324 12.9537C31.8828 13.1071 31.9874 13.074 32.0986 12.9973C32.1941 12.9311 32.3197 12.8823 32.3836 13.0221C32.4363 13.1372 32.337 13.2033 32.234 13.2364C32.1498 13.2635 32.1016 13.3161 32.1287 13.4026C32.2611 13.8252 32.0355 14.241 32.1062 14.6629C32.1197 14.7441 32.1227 14.8614 32.0016 14.8667C31.8776 14.8727 31.8866 14.7584 31.8851 14.6734C31.8821 14.423 31.8873 14.1719 31.8813 13.9215C31.8791 13.8455 31.9167 13.7162 31.7761 13.7335C31.67 13.7463 31.649 13.8508 31.6798 13.9418C31.7527 14.1516 31.749 14.3531 31.6791 14.5651C31.6317 14.7095 31.5783 14.8178 31.4046 14.817C31.0835 14.8155 31.1339 15.0178 31.2234 15.196C31.3384 15.4246 31.5023 15.6359 31.0579 15.6622C30.9444 15.669 30.909 15.7818 30.9068 15.8908C30.9045 15.9938 30.8963 16.1209 30.7827 16.139C30.4255 16.1961 30.503 16.4525 30.5632 16.6526C30.6203 16.8428 30.5714 16.9984 30.515 17.1609C30.4195 17.4368 30.4421 17.6504 30.7609 17.7527C30.973 17.8211 30.9685 18.0173 30.9767 18.1828C30.9925 18.4948 30.9782 18.8092 30.9827 19.122C30.9865 19.3686 30.9624 19.6205 31.2632 19.7513C31.3918 19.8077 31.4053 19.9875 31.3241 20.08C31.1903 20.2334 31.161 19.9288 31.0173 19.9822C30.9339 20.2679 30.8707 20.5514 31.1309 20.7996C31.2339 20.8973 31.2001 21.0327 31.2076 21.156C31.2324 21.5914 31.1489 22.0313 31.2753 22.4621C31.3181 22.6088 31.2422 22.7298 31.1301 22.8253C31.0045 22.9329 30.9248 23.0787 31.0045 23.2231C31.1151 23.4231 31.2008 23.1833 31.3038 23.1757C31.4106 23.1682 31.5595 23.1051 31.6061 23.2284C31.6565 23.3615 31.5091 23.372 31.4151 23.39C31.276 23.4164 31.2925 23.5216 31.2835 23.6217C31.264 23.8465 31.4662 23.8375 31.5851 23.9172C31.1617 24.2736 30.7173 24.6014 30.2488 24.8977C30.124 24.897 29.9984 24.8887 29.8744 24.8977C29.7074 24.9105 29.536 24.9052 29.5157 25.1556C29.5074 25.2534 29.3939 25.3684 29.2826 25.376C29.1232 25.3865 29.1931 25.2323 29.1728 25.1489C29.1405 25.0143 29.0495 24.9759 28.9277 24.9609C28.7968 24.9451 28.7269 24.8661 28.7352 24.7308C28.7442 24.5879 28.854 24.5992 28.954 24.5879C29.045 24.5774 29.1826 24.6405 29.2111 24.509C29.2352 24.4014 29.1081 24.3556 29.0374 24.2879C28.7389 23.9991 28.7509 23.7969 28.9886 23.451C29.2781 23.0306 29.2006 22.5396 29.145 22.0741C29.1029 21.7237 29.0999 21.3846 29.1405 21.0349C29.1961 20.5574 29.2149 20.0732 29.0998 19.601C28.9931 19.1626 28.6397 18.8828 28.3351 18.5948C28.1877 18.4557 28.1847 18.3587 28.2404 18.2189C28.2712 18.1407 28.3915 18.0775 28.3893 18.0106C28.3667 17.4519 28.575 17.0548 29.1149 16.8443C29.2074 16.8082 29.1758 16.6638 29.1766 16.5646C29.1781 16.3021 29.1781 16.039 29.1766 15.7765C29.1758 15.5833 29.2292 15.3727 28.9592 15.2893C28.8705 15.2614 28.86 15.1426 28.86 15.0592C28.8592 14.914 28.9856 14.9855 29.0577 14.9652C29.4367 14.8591 29.1668 14.614 29.1728 14.4283C30.0661 13.6184 31.1181 13.0214 32.0543 12.2679C32.155 12.1897 32.2851 12.1461 32.4009 12.0859Z" fill="#1E1A3B"/>
<path d="M27.5212 33.5384C27.3145 33.5512 27.2099 33.1955 26.9986 33.3459C26.7558 33.5189 27.0761 33.6873 27.0686 33.8693C27.0625 34.0159 27.1009 34.167 27.0302 34.3264C26.7392 34.2249 26.8069 33.9309 26.7121 33.7008C26.6693 33.755 26.6422 33.7775 26.6302 33.8068C26.5445 34.0181 26.7994 34.3821 26.3692 34.4347C26.1196 34.4648 25.9474 34.7054 25.6353 34.6122C25.4158 34.5468 25.1398 34.4776 24.8962 34.7761C24.7706 34.9303 24.3698 34.8633 24.0931 34.8912C23.7765 34.9227 23.4833 35.0348 23.1343 34.9227C22.92 34.8543 22.6629 35.1423 22.3892 35.1874C22.2786 35.2055 22.2576 35.4784 22.1185 35.3596C21.9575 35.222 21.6628 35.2235 21.6192 34.9994C21.544 34.6092 21.2875 34.5896 20.983 34.5889C20.7499 34.5881 20.3867 34.652 20.7815 34.2513C20.8995 34.1317 20.6025 33.5564 20.4378 33.5542C20.307 33.5527 20.295 33.6429 20.3326 33.7339C20.4439 34.0039 20.3611 34.1911 20.1092 34.3227C20.0694 34.3437 20.0453 34.3964 20.0175 34.4362C19.9611 34.5189 20.0859 34.7423 19.8671 34.6859C19.7039 34.6438 19.6633 34.4573 19.7167 34.3076C19.8017 34.07 19.6784 34.0542 19.5032 34.0655C19.44 33.882 19.5919 33.8234 19.6964 33.7467C20.6521 33.0474 21.5808 32.3127 22.5501 31.6299C23.0652 31.2675 23.5472 30.8479 24.063 30.478C24.0675 30.8652 24.0675 30.8652 24.4194 30.672C24.451 30.6547 24.4931 30.6238 24.5194 30.6329C24.8285 30.7366 25.1383 30.872 25.3601 30.4787C25.3699 30.4614 25.4737 30.5043 25.5346 30.508C26.0985 30.5464 26.6618 30.7133 27.225 30.5945C27.5288 30.5306 27.525 30.6599 27.5235 30.8742C27.5182 31.7615 27.5212 32.6496 27.5212 33.5384Z" fill="#2E2648"/>
<path d="M19.5127 37.3721C19.6841 37.351 19.7961 37.4736 19.9052 37.5638C20.039 37.6744 20.0856 37.8278 19.8555 37.8947C19.7292 37.9315 19.7037 38.0037 19.7067 38.1142C19.7097 38.2466 19.7758 38.3203 19.9022 38.3526C20.1308 38.4113 20.3255 38.4699 20.4248 38.7519C20.494 38.9482 20.7158 38.9444 20.8662 38.7354C21.0842 38.4323 21.2797 38.4218 21.4993 38.7203C21.6271 38.8948 21.7362 38.9422 21.9648 38.9015C22.2761 38.8467 22.6032 38.9226 22.9213 38.9489C23.3739 38.9865 23.8777 39.0971 24.3071 38.7918C24.4921 38.6602 24.7162 38.7286 24.92 38.6692C25.2591 38.5699 25.5689 38.2534 25.5223 37.9029C25.4967 37.712 25.5869 37.6458 25.6945 37.5337C25.8975 37.3217 26.0704 37.0961 26.4058 37.0773C26.5073 37.0713 26.5472 36.9209 26.5464 36.7976C26.5457 36.654 26.4494 36.6058 26.3426 36.5622C26.2509 36.5246 26.0825 36.572 26.1178 36.3893C26.1441 36.2494 26.272 36.2464 26.3878 36.2419C26.4126 36.2411 26.4547 36.2434 26.46 36.2321C26.6517 35.7749 27.336 35.7306 27.3713 35.1433C27.3781 35.0335 27.357 34.9057 27.5232 34.8906C27.5232 35.2914 27.524 35.6922 27.524 36.0937C27.4638 36.1035 27.3991 36.1118 27.3894 36.1885C27.3766 36.2885 27.4473 36.3081 27.524 36.3186C27.524 36.469 27.524 36.6194 27.524 36.7705C27.2487 36.8607 27.3939 37.0893 27.3841 37.251C27.3691 37.4819 27.363 37.6683 27.1337 37.8255C26.9186 37.9729 26.8269 38.2353 26.9953 38.485C27.1044 38.6474 27.0713 38.7542 26.9577 38.8805C26.8427 39.0083 26.7246 39.0579 26.5637 38.9594C26.3998 38.8587 26.2757 38.876 26.2487 39.0971C26.2389 39.1745 26.2223 39.2535 26.1509 39.2896C25.9246 39.4023 25.9298 39.5279 26.111 39.6821C26.1644 39.7272 26.2419 39.7806 26.2058 39.8663C26.1689 39.9528 26.078 39.9234 26.0073 39.9272C25.6734 39.9468 25.3538 39.9716 25.3095 40.419C25.2989 40.525 25.1756 40.6055 25.0508 40.6002C24.735 40.5874 24.4658 40.8258 24.1387 40.7604C24.0484 40.7423 23.9702 40.8055 23.9153 40.8777C23.598 41.2973 23.5033 41.8898 22.9273 42.1116C22.822 42.1522 22.8912 42.3229 22.8588 42.4267C22.7934 42.6372 22.7566 42.9185 22.4197 42.6876C22.2994 42.6049 22.1986 42.6936 22.1174 42.7613C21.664 43.1395 21.6317 43.1644 21.3361 42.7049C21.0842 42.3132 20.7361 42.3748 20.4135 42.4342C20.0969 42.4921 20.2842 42.8109 20.2345 43.0102C20.2315 43.0222 20.233 43.035 20.2338 43.0478C20.2345 43.2381 20.136 43.3238 19.9503 43.308C19.7322 43.2892 19.7638 43.1215 19.8052 42.9997C19.8766 42.7891 19.9044 42.5613 19.8443 42.3718C19.7593 42.1034 19.8683 41.7402 19.5149 41.5823C19.5021 41.0311 19.4901 40.4791 19.4773 39.928C19.4773 39.8783 19.4773 39.8287 19.4773 39.7791C19.5081 39.6535 19.5081 39.5279 19.4766 39.4016C19.4886 39.3016 19.4999 39.2023 19.5119 39.1023C19.5578 39.0948 19.6059 39.082 19.6059 39.0264C19.6059 38.9707 19.5585 38.9572 19.5127 38.9497C19.4826 38.4241 19.4788 37.8977 19.5127 37.3721Z" fill="#262142"/>
<path d="M49.108 27.0742C50.4984 28.0969 51.8857 29.1233 53.2798 30.1407C53.9694 30.6437 54.6777 31.1197 55.3387 31.6604C55.3605 31.8153 55.2717 31.9153 55.1717 32.0168C54.9514 32.2424 54.6657 32.3251 54.3769 32.4108C53.8761 32.559 53.2919 32.4274 52.8941 32.938C52.7271 33.1523 52.4745 32.8312 52.2955 32.8462C52.1173 32.8613 51.9579 33.2463 51.7428 33.1304C51.4593 32.9778 51.2826 33.1523 51.0533 33.1838C50.6502 33.2387 50.2495 33.441 49.8201 33.2064C49.5719 33.071 49.4155 33.25 49.4035 33.5087C49.3832 33.9433 49.1982 34.3449 49.1621 34.7757C49.1539 34.872 49.0704 34.8802 48.9922 34.8817C49.0794 34.7231 49.0884 34.5531 49.0884 34.3749C49.0854 32.0649 49.0869 29.7557 49.0884 27.4457C49.0884 27.3224 49.1012 27.1983 49.108 27.0742Z" fill="#1A1737"/>
<path d="M58.3983 63.0847C58.3983 64.5879 58.39 66.0903 58.4058 67.5934C58.4088 67.8656 58.3298 67.9326 58.0727 67.9205C57.635 67.901 57.1959 67.9062 56.7582 67.9198C56.5552 67.9258 56.4778 67.8807 56.4785 67.6558C56.4868 64.5999 56.4875 61.5447 56.48 58.4888C56.4793 58.2519 56.5485 58.1887 56.777 58.197C57.2275 58.2136 57.6794 58.2181 58.1291 58.1963C58.381 58.1842 58.4088 58.2858 58.4073 58.5016C58.3983 60.0295 58.4028 61.5575 58.4028 63.0847C58.4005 63.0847 58.3998 63.0847 58.3983 63.0847Z" fill="#211C3D"/>
<path d="M36.698 61.91C37.4229 61.2174 38.2117 60.9159 39.1403 60.9776C39.3546 60.9918 39.4133 61.0625 39.408 61.2678C39.3945 61.7431 39.3967 62.219 39.4065 62.695C39.411 62.895 39.3689 62.9484 39.1531 62.8988C38.5365 62.7582 37.9365 62.7875 37.389 63.1612C36.9439 63.465 36.6972 63.8756 36.6935 64.4185C36.6875 65.4577 36.6724 66.4969 36.6927 67.5353C36.6987 67.8617 36.592 67.9354 36.2919 67.9166C35.8926 67.8918 35.4904 67.8985 35.0911 67.9143C34.8745 67.9234 34.7895 67.885 34.791 67.6354C34.8038 65.5577 34.8038 63.4793 34.7978 61.4009C34.7971 61.1896 34.8542 61.1167 35.07 61.1249C35.4949 61.1407 35.922 61.1483 36.3461 61.1242C36.619 61.1092 36.7446 61.1753 36.701 61.4671C36.6829 61.5866 36.698 61.7115 36.698 61.91Z" fill="#1A1737"/>
<path d="M56.6913 33.5381C56.6913 34.2148 56.6921 34.8908 56.6921 35.5676C56.5688 35.5593 56.4334 35.6037 56.3266 35.5225C56.0334 35.2992 55.874 35.5157 55.8379 35.7323C55.7619 36.1947 55.3777 36.3173 55.0626 36.4519C54.4964 36.6933 53.852 36.7452 53.3527 37.158C53.3083 37.1948 53.2271 37.2294 53.1797 37.2136C52.721 37.0678 52.2503 37.2903 51.7833 37.1399C51.2855 36.9798 50.7629 37.0136 50.2681 37.1768C49.8809 37.3039 49.6343 37.0956 49.4214 36.8595C49.2831 36.7061 49.1643 36.6218 48.956 36.6136C48.7131 36.6038 48.4447 36.5963 48.4033 36.2466C48.3875 36.1105 48.2552 36.0895 48.1371 36.0962C47.8266 36.1135 47.4829 36.1737 47.2122 36.1105C46.7723 36.0075 46.3347 35.9579 45.8925 35.9C45.7858 35.8857 45.7925 35.7421 45.791 35.6413C46.3226 35.6345 46.8565 35.5977 47.3867 35.63C47.8251 35.6571 48.204 35.5496 48.565 35.3262C48.6379 35.4405 48.7312 35.4285 48.8184 35.3548C48.9252 35.2646 49.0485 35.2518 49.1726 35.2728C49.7756 35.3744 50.3772 35.4195 50.9787 35.2676C51.4525 35.148 51.9623 35.3315 52.424 35.0548C52.8331 34.8096 53.3925 34.9525 53.7625 34.563C53.8482 34.4728 54.0264 34.4743 54.1212 34.5329C54.4422 34.7322 54.5798 34.5277 54.734 34.3051C54.8859 34.0848 55.0716 33.9862 55.3348 34.1592C55.498 34.2667 55.6371 34.2351 55.7175 34.0284C55.8243 33.7569 56.0349 33.6276 56.3266 33.611C56.4492 33.6035 56.5695 33.5629 56.6913 33.5381Z" fill="#1F2049"/>
<path d="M56.6928 33.5376C56.5709 33.5624 56.4506 33.603 56.3281 33.6097C56.0363 33.6255 55.8258 33.7556 55.719 34.0271C55.6378 34.2331 55.4987 34.2647 55.3362 34.1579C55.0731 33.985 54.8881 34.0842 54.7354 34.3038C54.5813 34.5264 54.4437 34.7309 54.1226 34.5316C54.0278 34.473 53.8496 34.4715 53.7639 34.5617C53.3939 34.9512 52.8345 34.8084 52.4254 35.0535C51.9645 35.3302 51.4539 35.1467 50.9802 35.2663C50.3786 35.4182 49.7771 35.3731 49.174 35.2716C49.0499 35.2505 48.9266 35.2633 48.8198 35.3535C48.7326 35.4272 48.6386 35.4392 48.5664 35.325C48.7093 35.1768 48.8514 35.0287 48.9943 34.8805C49.0725 34.879 49.1559 34.8708 49.1642 34.7745C49.2003 34.3437 49.3853 33.9421 49.4056 33.5075C49.4176 33.2488 49.574 33.0698 49.8222 33.2052C50.2515 33.4398 50.6516 33.2375 51.0554 33.1826C51.2847 33.1511 51.4614 32.9766 51.7449 33.1292C51.96 33.245 52.1194 32.86 52.2976 32.845C52.4773 32.83 52.7292 33.1518 52.8962 32.9367C53.2939 32.4262 53.8782 32.5578 54.379 32.4096C54.6678 32.3247 54.9535 32.2412 55.1738 32.0156C55.2731 31.9133 55.3626 31.8141 55.3408 31.6592C55.537 31.6667 55.6408 31.8863 55.8438 31.878C56.0754 32.0096 56.31 32.1359 56.5371 32.275C56.6243 32.3284 56.7702 32.3299 56.7619 32.4871C56.6213 32.83 56.7289 33.1887 56.6928 33.5376Z" fill="#211C3D"/>
<path d="M27.5227 36.0943C27.5227 35.6935 27.5219 35.2927 27.5219 34.8912C27.5219 34.44 27.5227 33.9889 27.5227 33.5377C27.5227 32.6496 27.5197 31.7608 27.5249 30.8728C27.5264 30.6577 27.5302 30.5284 27.2264 30.593C26.6632 30.7118 26.1 30.5449 25.536 30.5066C25.4751 30.5028 25.3713 30.4599 25.3616 30.4772C25.1397 30.8705 24.8299 30.7352 24.5209 30.6314C24.4946 30.6224 24.4525 30.6532 24.4209 30.6705C24.0682 30.8637 24.0682 30.8637 24.0645 30.4765C25.2202 29.6012 26.3752 28.7267 27.5362 27.8477C27.652 27.9823 27.6031 28.1101 27.6031 28.2244C27.6092 33.1091 27.6114 37.993 27.6152 42.8777C27.6152 43.013 27.5813 43.1544 27.6595 43.2815C27.4204 43.268 27.5295 43.083 27.5287 42.9792C27.5197 41.9874 27.5227 40.9948 27.5219 40.003C27.5219 38.9254 27.5219 37.8479 27.5212 36.7703C27.5212 36.6199 27.5212 36.4696 27.5219 36.3184C27.5227 36.244 27.5227 36.1695 27.5227 36.0943Z" fill="#3E2E54"/>
<path d="M39.8542 9.1186C39.8316 9.18627 39.8873 9.34268 39.7354 9.27199C39.6188 9.2171 39.5136 9.10957 39.4241 9.26673C39.3609 9.37652 39.2797 9.50886 39.3887 9.65023C39.5564 9.86904 39.4361 9.9104 39.2263 9.94274C39.0413 9.97131 38.8616 10.0322 38.6729 9.99688C38.5819 9.97958 38.5014 9.92694 38.5338 9.81566C38.5616 9.71865 38.5977 9.64647 38.7436 9.66752C38.8782 9.68707 39.097 9.91642 39.1444 9.67203C39.1932 9.41938 38.9616 9.19905 38.6962 9.24868C38.3518 9.3126 37.9886 9.27199 37.6615 9.41637C37.557 9.46224 37.3833 9.48555 37.4096 9.64872C37.4367 9.81415 37.5983 9.77806 37.7187 9.78107C37.8329 9.78407 37.9427 9.78558 38.0292 9.87882C38.0924 9.94725 38.1322 10.0209 38.1134 10.1157C38.0909 10.2315 37.9976 10.2315 37.9089 10.2322C37.7465 10.2345 37.5833 10.2315 37.4209 10.2345C37.3352 10.236 37.2427 10.218 37.1742 10.2916C36.714 10.7849 36.1177 10.9789 35.4718 11.0601C35.3966 11.0699 35.3049 11.0624 35.2771 11.1429C35.1628 11.473 34.8943 11.4466 34.6289 11.4369C34.4161 11.4293 34.2484 11.4978 34.1191 11.6865C33.9905 11.8738 33.8002 11.8595 33.631 11.7361C33.5814 11.7001 33.4829 11.5963 33.634 11.5384C33.6889 11.5173 33.798 11.6249 33.8025 11.4918C33.8062 11.385 33.6957 11.3692 33.607 11.3602C33.54 11.3534 33.4882 11.3256 33.4551 11.2669C33.6085 11.1489 33.7626 11.0308 33.916 10.9128C34.0408 11.0173 34.0536 10.9278 34.0612 10.8293L34.0589 10.8315C34.0867 10.8105 34.1145 10.7887 34.1424 10.7676L34.1484 10.7639C34.2589 10.7639 34.3627 10.7548 34.3649 10.606C34.383 10.5894 34.4018 10.5736 34.4198 10.5571C34.4657 10.6548 34.5093 10.7902 34.6477 10.7082C34.789 10.624 34.7417 10.4774 34.6988 10.348L34.7086 10.342C34.8304 10.3939 34.8808 10.3405 34.886 10.2217C35.1417 10.0856 35.3477 9.88408 35.5613 9.69534C35.6267 9.63744 35.6771 9.58105 35.7711 9.60586C35.7891 9.72617 35.8275 9.84799 35.7004 9.94123C35.6094 10.0082 35.5019 10.1059 35.6357 10.2022C35.7508 10.2849 35.8681 10.2157 35.9395 10.0909C36.0659 9.86829 36.0531 9.69158 35.7801 9.59834C36.587 8.95166 37.2983 8.11023 38.5007 8.27866C38.5247 8.39296 38.433 8.56516 38.5759 8.60952C38.6932 8.64637 38.8481 8.59223 38.897 8.4283C38.9248 8.42304 38.9458 8.43357 38.9586 8.45913C38.9616 8.51553 38.9895 8.55388 39.0413 8.57418C39.1323 8.55538 39.2038 8.58245 39.2534 8.66366C39.2805 8.68472 39.3083 8.70652 39.3354 8.72758C39.4903 8.88098 39.6564 9.02084 39.8542 9.1186Z" fill="#1E1A3B"/>
<path d="M51.958 18.6521C51.8828 18.4355 51.77 18.3882 51.5144 18.4017C51.2218 18.4175 50.8135 18.4987 50.6797 18.0505C50.7669 18.0505 50.8541 18.0551 50.9406 18.0498C51.1091 18.04 51.3737 18.1227 51.1647 17.7746C51.1106 17.6843 51.1865 17.5152 51.203 17.3828C51.743 17.7407 52.2798 18.1039 52.7761 18.522C52.5295 18.7281 52.234 18.628 51.958 18.6521Z" fill="#282345"/>
<path d="M37.7379 50.8272C37.6432 50.7347 37.6763 50.6159 37.6763 50.5069C37.674 48.4916 37.674 46.4764 37.6755 44.4612C37.6755 44.3521 37.6424 44.2333 37.7372 44.1416C37.7447 45.6696 37.7545 47.1968 37.7575 48.7248C37.759 49.4256 37.7447 50.1264 37.7379 50.8272Z" fill="#3E2E54"/>
<path d="M55.4326 20.4409C55.0837 20.3898 54.7416 20.6101 54.3708 20.3409C53.9821 20.059 53.8768 19.98 53.9858 19.5085C53.9941 19.4724 53.9896 19.4341 53.9911 19.3965C54.4949 19.7123 54.9784 20.0567 55.4326 20.4409Z" fill="#282345"/>
<path d="M53.9935 19.3993C53.8769 19.4 53.7814 19.4188 53.7453 19.5587C53.7175 19.6647 53.6303 19.7204 53.5175 19.682C53.4084 19.6452 53.3881 19.5489 53.3844 19.4444C53.3791 19.2962 53.3829 19.1511 53.4633 19.0195C53.6596 19.1203 53.8438 19.2353 53.9935 19.3993Z" fill="#282345"/>
<path d="M48.4971 15.4207C48.0535 15.2966 47.6271 15.1485 47.4512 14.6582C47.8249 14.8778 48.1753 15.1289 48.4971 15.4207Z" fill="#2E2648"/>
<path d="M44.0638 12.3361C43.875 12.2278 43.6863 12.1143 43.5412 12.3955C43.5104 12.4549 43.4562 12.4978 43.3908 12.4654C43.2908 12.4151 43.3524 12.3399 43.3818 12.2782C43.4306 12.1767 43.4735 12.0752 43.463 11.9594C43.5525 11.9541 43.6419 11.9488 43.7314 11.9443C43.7886 12.0977 43.9984 12.0496 44.0623 12.1932C44.0623 12.2406 44.063 12.2887 44.0638 12.3361Z" fill="#211C3D"/>
<path d="M48.4688 26.5133C48.7688 26.3847 48.9718 26.6622 49.2335 26.6982C49.2959 26.7065 49.3305 26.7787 49.2997 26.8471C49.2538 26.9479 49.15 26.9133 49.0703 26.9351C48.8432 26.8328 48.6552 26.6742 48.4688 26.5133Z" fill="#282345"/>
<path d="M33.0176 22.8709C33.1582 22.5288 33.4101 22.3265 33.7748 22.2656C33.5868 22.5476 33.2935 22.6987 33.0176 22.8709Z" fill="#2E2648"/>
<path d="M45.1137 12.9566C45.0851 13.1604 44.9385 13.1912 44.7821 13.1521C44.5911 13.104 44.7505 12.9702 44.7385 12.8762C44.7302 12.8153 44.743 12.7521 44.746 12.6904C44.8919 12.7476 45.0069 12.8461 45.1137 12.9566Z" fill="#211C3D"/>
<path d="M50.8393 17.1233C50.7799 17.2038 50.7731 17.3918 50.6363 17.3256C50.452 17.2361 50.443 17.0301 50.4581 16.8398C50.6077 16.9045 50.731 17.0045 50.8393 17.1233Z" fill="#282345"/>
<path d="M38.8959 8.42553C38.847 8.58945 38.6929 8.64284 38.5748 8.60675C38.4319 8.56238 38.5229 8.39018 38.4996 8.27589C38.6568 8.25934 38.7816 8.32852 38.8959 8.42553Z" fill="#282345"/>
<path d="M38.4141 19.1076C38.593 19.076 38.8848 18.6917 38.8758 19.2542C38.7923 19.2579 38.7088 19.2617 38.6261 19.2655C38.5411 19.2309 38.4614 19.191 38.4141 19.1076Z" fill="#252041"/>
<path d="M53.2637 18.8676C53.0682 18.8541 52.8809 19.0248 52.6523 18.9015C52.7336 18.7714 52.9178 18.7827 52.9441 18.6338C53.0712 18.6842 53.178 18.7609 53.2637 18.8676Z" fill="#282345"/>
<path d="M34.6989 10.3457C34.7418 10.475 34.7899 10.6217 34.6478 10.7059C34.5094 10.7886 34.4658 10.6525 34.4199 10.5547C34.5124 10.4856 34.6057 10.4156 34.6989 10.3457Z" fill="#282345"/>
<path d="M50.4607 16.8419C50.2441 16.7923 50.2501 17.0209 50.1509 17.1299C49.9982 16.9359 50.1945 16.7818 50.1531 16.6201C50.2787 16.6622 50.3802 16.7382 50.4607 16.8419Z" fill="#282345"/>
<path d="M43.7311 11.9437C43.6416 11.949 43.5522 11.9542 43.4627 11.9588C43.3536 11.8535 43.1942 11.7783 43.2378 11.582C43.4236 11.6753 43.5905 11.7918 43.7311 11.9437Z" fill="#2E2648"/>
<path d="M33.3018 11.4294C33.3913 11.4903 33.4139 11.5745 33.3259 11.6399C33.2319 11.7091 33.1183 11.8001 33.0078 11.6512C33.0086 11.6272 33.0138 11.6046 33.0236 11.5835C33.0447 11.561 33.0657 11.5392 33.086 11.5166C33.1469 11.4595 33.2116 11.4121 33.3018 11.4294Z" fill="#1E1A3B"/>
<path d="M50.0293 16.5359C49.9706 16.5645 49.9112 16.5938 49.8525 16.6224C49.8022 16.6224 49.7525 16.6224 49.7021 16.6224C49.6773 16.5976 49.6518 16.572 49.627 16.5472C49.6555 16.4615 49.6849 16.3758 49.7134 16.29C49.8398 16.3442 49.948 16.4231 50.0293 16.5359Z" fill="#282345"/>
<path d="M33.1621 43.4624C33.1711 43.3128 33.3854 43.4346 33.396 43.2857C33.493 43.2511 33.5892 43.2511 33.6862 43.2857C33.599 43.6053 33.3373 43.4075 33.1621 43.4624Z" fill="#211C3D"/>
<path d="M32.6406 23.096C32.6752 22.8689 32.8474 22.8682 33.0189 22.8682C32.9158 22.9825 32.8158 23.1013 32.6406 23.096Z" fill="#2E2648"/>
<path d="M32.0831 23.5612C31.9597 23.5071 31.9703 23.3913 32.0379 23.3364C32.1146 23.274 32.2207 23.3138 32.2733 23.4176C32.2094 23.4657 32.1462 23.5131 32.0831 23.5612Z" fill="#1E1A3B"/>
<path d="M37.7274 43.3118C37.6056 43.32 37.4815 43.3178 37.3709 43.3824C37.3469 43.3817 37.3228 43.3817 37.298 43.3824C37.2709 43.3471 37.2439 43.3118 37.2168 43.2757C37.389 43.2606 37.5642 43.1937 37.7274 43.3118Z" fill="#3E2E54"/>
<path d="M37.8981 19.2535C37.8567 18.9775 37.9913 18.9475 38.2079 19.0317C38.1259 19.1355 38.0161 19.2001 37.8981 19.2535Z" fill="#252041"/>
<path d="M22.4863 53.6769C22.4938 53.61 22.4668 53.51 22.5548 53.4972C22.6826 53.4784 22.6991 53.5897 22.7127 53.6867C22.6367 53.6829 22.5615 53.6799 22.4863 53.6769Z" fill="#211C3D"/>
<path d="M44.0648 12.337C44.064 12.2889 44.0633 12.2415 44.0625 12.1934C44.1836 12.2385 44.2881 12.3069 44.367 12.4107C44.2911 12.4114 44.2151 12.4114 44.1399 12.4122C44.1151 12.4122 44.0896 12.4122 44.0648 12.4114C44.0648 12.3874 44.0648 12.3625 44.0648 12.337Z" fill="#282345"/>
<path d="M32.4127 23.3168C32.3947 23.1431 32.4714 23.0672 32.6451 23.0927C32.6225 23.2251 32.524 23.2777 32.4127 23.3168Z" fill="#2E2648"/>
<path d="M48.7352 15.6407C48.5691 15.6625 48.4833 15.5963 48.4976 15.4219C48.6067 15.4617 48.7029 15.5159 48.7352 15.6407Z" fill="#2E2648"/>
<path d="M32.7858 11.7928C32.7738 11.9311 32.7806 12.0958 32.5625 11.9605C32.6181 11.8793 32.6618 11.7823 32.7858 11.7928Z" fill="#1E1A3B"/>
<path d="M34.2866 43.2842C34.2708 43.3571 34.3295 43.4857 34.2144 43.4857C34.0994 43.4857 34.1573 43.3571 34.1422 43.2842C34.1904 43.2842 34.2385 43.2842 34.2866 43.2842Z" fill="#211C3D"/>
<path d="M19.5117 36.3945C19.5764 36.4081 19.6839 36.3742 19.6696 36.487C19.6614 36.5539 19.5711 36.5397 19.5117 36.5449C19.5117 36.4953 19.5117 36.4449 19.5117 36.3945Z" fill="#262142"/>
<path d="M47.368 14.5929C47.2567 14.5944 47.1492 14.5907 47.1484 14.4365C47.2432 14.4598 47.3191 14.5072 47.368 14.5929Z" fill="#2E2648"/>
<path d="M34.365 10.6035C34.3627 10.7524 34.259 10.7614 34.1484 10.7614C34.1988 10.6787 34.274 10.6298 34.365 10.6035Z" fill="#282345"/>
<path d="M43.239 11.584C43.1232 11.5878 43.0141 11.584 43.0156 11.4238C43.1119 11.4464 43.1908 11.493 43.239 11.584Z" fill="#2E2648"/>
<path d="M19.5086 38.9502C19.5544 38.9577 19.6018 38.9713 19.6018 39.0269C19.6018 39.0825 19.5544 39.0953 19.5078 39.1028C19.5086 39.0517 19.5086 39.0006 19.5086 38.9502Z" fill="#2E2648"/>
<path d="M34.8845 10.2188C34.8792 10.3376 34.8288 10.3909 34.707 10.3391C34.7664 10.2992 34.8258 10.2586 34.8845 10.2188Z" fill="#282345"/>
<path d="M34.0592 10.8271C34.0517 10.9257 34.0389 11.0159 33.9141 10.9106C33.9629 10.8828 34.0111 10.855 34.0592 10.8271Z" fill="#282345"/>
<path d="M37.2969 19.7037C37.3119 19.621 37.3149 19.521 37.442 19.6075C37.3939 19.6398 37.345 19.6714 37.2969 19.7037Z" fill="#252041"/>
<path d="M49.4766 16.2459C49.4803 16.2113 49.4848 16.176 49.4886 16.1406C49.5375 16.1745 49.5864 16.2083 49.636 16.2429C49.5833 16.2444 49.5307 16.2451 49.4773 16.2467L49.4766 16.2459Z" fill="#282345"/>
<path d="M59.2728 24.4198C59.2713 24.3333 59.2691 24.2476 59.2676 24.1611C59.3398 24.2454 59.3488 24.3318 59.2728 24.4198Z" fill="#27264A"/>
<path d="M47.1517 14.4396C47.0863 14.4426 47.0299 14.4275 46.9961 14.3644C47.0743 14.3351 47.1194 14.3742 47.1517 14.4396Z" fill="#2E2648"/>
<path d="M51.076 17.2908C51.0444 17.269 51.0121 17.2464 50.9805 17.2246C51.0121 17.2464 51.0436 17.2682 51.076 17.2908Z" fill="#282345"/>
<path d="M49.4176 16.0891C49.3875 16.0711 49.3582 16.0538 49.3281 16.0357C49.3762 16.0229 49.4026 16.0462 49.4176 16.0891Z" fill="#282345"/>
<path d="M39.0417 8.5711C38.9898 8.55005 38.962 8.51245 38.959 8.45605C39.0176 8.47185 39.0312 8.52072 39.0417 8.5711Z" fill="#282345"/>
<path d="M37.5977 19.4799C37.6285 19.4566 37.6593 19.4325 37.6901 19.4092C37.6593 19.4325 37.6285 19.4558 37.5977 19.4799Z" fill="#252041"/>
<path d="M34.1421 10.7656C34.1142 10.7867 34.0864 10.8085 34.0586 10.8295C34.0864 10.8077 34.1142 10.7867 34.1421 10.7656Z" fill="#282345"/>
<path d="M33.0847 11.5174C33.0638 11.5398 33.043 11.5614 33.0228 11.5838C33.0102 11.5309 33.0348 11.5122 33.0847 11.5174Z" fill="#211C3D"/>
<path d="M44.455 12.4811C44.4242 12.4578 44.3941 12.4344 44.3633 12.4111C44.3941 12.4344 44.4249 12.4578 44.455 12.4811Z" fill="#211C3D"/>
<path d="M28.9486 16.4082C28.9358 16.5525 28.8479 16.6751 28.6591 16.6894C28.5102 16.7007 28.417 16.6142 28.4335 16.4661C28.4531 16.2931 28.4997 16.1134 28.723 16.1029C28.8997 16.0954 28.9524 16.2149 28.9486 16.4082Z" fill="#1E1A3B"/>
<path d="M28.7617 25.317C28.8858 25.2441 28.9948 25.2569 29.0602 25.3689C29.1347 25.4968 29.0685 25.5998 28.9384 25.7005C28.8775 25.5667 28.8204 25.4426 28.7617 25.317Z" fill="#1E1A3B"/>
<path d="M48.7775 25.1943C48.9 25.1981 49.0053 25.2349 49.0106 25.3763C49.0143 25.4718 48.9316 25.4974 48.8534 25.4861C48.7444 25.4703 48.6166 25.45 48.5978 25.3177C48.579 25.1906 48.6925 25.2019 48.7775 25.1943Z" fill="#27264A"/>
<path d="M51.2225 25.8933C51.1075 25.7534 51.112 25.6105 51.1857 25.4248C51.3406 25.5955 51.2586 25.7481 51.2225 25.8933Z" fill="#27264A"/>
<path d="M54.03 26.0692C54.0135 26.0835 53.9834 26.1286 53.9443 26.1391C53.8872 26.1549 53.8511 26.1076 53.8744 26.0564C53.8909 26.0203 53.9383 25.988 53.9789 25.976C54.0135 25.9647 54.0458 25.994 54.03 26.0692Z" fill="#27264A"/>
<path d="M54.4071 38.6065C54.3687 38.7637 54.2642 38.8516 54.1394 38.8584C53.986 38.8667 53.8371 39.0268 53.6792 38.8885C53.5904 38.8103 53.6491 38.7276 53.6904 38.6524C53.7634 38.5208 54.2679 38.4298 54.371 38.5298C54.3943 38.5516 54.4003 38.59 54.4071 38.6065Z" fill="#222754"/>
<path d="M44.9562 44.5265C45.005 44.54 45.0659 44.5573 45.0547 44.6159C45.0434 44.6731 44.978 44.6686 44.9328 44.6573C44.9028 44.6498 44.8584 44.6205 44.8561 44.5971C44.8486 44.528 44.905 44.5257 44.9562 44.5265Z" fill="#222754"/>
<path d="M43.0931 42.169C43.0631 42.1337 43.03 42.1119 43.0277 42.087C43.0247 42.0585 43.0405 42.0073 43.0616 41.9998C43.1164 41.9788 43.1488 42.0194 43.1473 42.0705C43.1458 42.0983 43.1179 42.1254 43.0931 42.169Z" fill="#222754"/>
<path d="M37.2988 43.3824C37.3227 43.3816 37.3465 43.3816 37.3711 43.3824C37.3465 43.4368 37.3227 43.4368 37.2988 43.3824Z" fill="#211C3D"/>
<path d="M39.439 11.8106C39.5526 11.8106 39.639 11.8091 39.7263 11.8106C39.827 11.8121 39.9368 11.8151 39.9684 11.9354C39.9977 12.0452 39.8812 12.0655 39.8293 12.1271C39.6601 12.3287 39.3834 12.4166 39.2781 12.6919C39.2277 12.825 39.0578 12.8167 38.948 12.761C38.8337 12.7024 38.76 12.5715 38.8352 12.4467C38.9157 12.3129 38.9382 12.1783 38.9585 12.0286C39.0051 11.6978 39.2819 11.8519 39.439 11.8106Z" fill="#211C3D"/>
<path d="M37.1783 13.8925C37.0617 13.8902 36.9971 13.8233 37.0068 13.7285C37.0264 13.5383 37.1828 13.4593 37.3399 13.4195C37.4648 13.3886 37.5174 13.4947 37.5136 13.6045C37.5069 13.8225 37.2963 13.8097 37.1783 13.8925Z" fill="#211C3D"/>
<path d="M43.8032 12.6436C43.9212 12.6421 43.9844 12.685 43.9799 12.7985C43.9761 12.891 43.9212 12.9316 43.8348 12.9316C43.74 12.9323 43.6513 12.903 43.643 12.797C43.6355 12.6872 43.725 12.6564 43.8032 12.6436Z" fill="#211C3D"/>
<path d="M34.3296 18.0615C34.3815 18.0736 34.4243 18.0976 34.4236 18.1563C34.4228 18.257 34.3491 18.2728 34.2709 18.2698C34.2213 18.2676 34.1657 18.248 34.1724 18.1863C34.1822 18.0991 34.2484 18.0668 34.3296 18.0615Z" fill="#211C3D"/>
<path d="M49.4766 16.6973C49.4766 16.6469 49.4766 16.5973 49.4766 16.5469C49.5014 16.5469 49.5269 16.5469 49.5518 16.5469C49.5518 16.5973 49.5518 16.6469 49.5518 16.6973C49.5269 16.6973 49.5021 16.6973 49.4766 16.6973Z" fill="#282345"/>
<path d="M49.4014 16.547C49.3766 16.547 49.351 16.547 49.3262 16.547C49.339 16.5146 49.351 16.4816 49.3638 16.4492C49.3758 16.4823 49.3886 16.5146 49.4014 16.547Z" fill="#282345"/>
<path d="M49.4769 16.2468C49.4709 16.2573 49.4649 16.267 49.459 16.2774C49.4642 16.267 49.4702 16.2565 49.4754 16.2461C49.4761 16.2461 49.4769 16.2468 49.4769 16.2468Z" fill="#282345"/>
<path d="M44.0625 12.4121C44.0871 12.4121 44.1124 12.4121 44.137 12.4129C44.1117 12.4635 44.0871 12.4628 44.0625 12.4121Z" fill="#211C3D"/>
<path d="M19.4727 45.1892C19.4787 44.1221 19.4839 43.0559 19.4915 41.9888C19.4922 41.8527 19.5042 41.7174 19.511 41.5813C19.8644 41.7384 19.7554 42.1024 19.8404 42.3708C19.9005 42.5603 19.8727 42.7882 19.8013 42.9987C19.7599 43.1205 19.7276 43.2882 19.9464 43.307C20.1314 43.3228 20.2306 43.2371 20.2299 43.0468C20.2299 43.0341 20.2284 43.0213 20.2306 43.0092C20.2803 42.81 20.0938 42.4919 20.4096 42.4332C20.7322 42.3738 21.0803 42.3122 21.3322 42.7039C21.627 43.1634 21.6601 43.1386 22.1135 42.7603C22.1947 42.6927 22.2955 42.6039 22.4158 42.6866C22.7534 42.9175 22.7903 42.637 22.8549 42.4257C22.8873 42.322 22.8181 42.1513 22.9234 42.1107C23.4994 41.8888 23.5949 41.2963 23.9114 40.8767C23.9663 40.8045 24.0445 40.7413 24.1348 40.7594C24.4619 40.8256 24.7311 40.5872 25.0469 40.5992C25.1717 40.6045 25.2943 40.524 25.3056 40.418C25.3507 39.9706 25.6695 39.9458 26.0034 39.9262C26.0741 39.9217 26.1658 39.9518 26.2019 39.8653C26.238 39.7796 26.1605 39.7262 26.1071 39.6811C25.9259 39.5269 25.9214 39.4014 26.147 39.2886C26.2184 39.2525 26.235 39.1735 26.2447 39.0961C26.2726 38.8758 26.3966 38.8577 26.5598 38.9585C26.72 39.057 26.8388 39.0073 26.9538 38.8795C27.0674 38.7532 27.1005 38.6464 26.9914 38.484C26.823 38.2343 26.9147 37.9719 27.1298 37.8245C27.3591 37.6681 27.3652 37.4809 27.3802 37.25C27.3907 37.0884 27.2448 36.8598 27.5201 36.7695C27.5201 37.8471 27.5201 38.9246 27.5208 40.0022C27.3712 39.9774 27.2208 39.9518 27.0125 39.9022C26.9809 39.8924 27.008 39.9172 27.0373 39.921C27.1163 39.93 27.0433 39.8781 27.0584 39.8601C27.0328 39.8443 27.0072 39.8285 26.9809 39.8127C26.9726 39.8322 26.9651 39.851 27.0125 39.9022C27.0441 40.3985 27.1298 40.8744 27.002 41.3437C26.9621 41.4903 26.9027 41.6008 26.7591 41.6467C26.5222 41.7219 26.4831 41.849 26.6546 42.0264C26.7899 42.1663 26.7982 42.2738 26.6185 42.3821C26.35 42.543 26.6252 42.7385 26.5922 42.8927C26.544 43.1145 26.1583 42.7806 26.1297 43.0641C26.1019 43.3454 25.9432 43.501 25.7755 43.68C25.6943 43.7665 25.7169 43.8379 25.8312 43.9161C26.2019 44.1703 26.1741 44.5748 25.7898 44.753C25.5815 44.8493 25.6635 44.9643 25.7868 45.0613C25.965 45.2012 26.0417 45.311 25.7297 45.3403C25.6003 45.3523 25.5214 45.4065 25.489 45.5343C25.477 45.5809 25.4559 45.6493 25.4221 45.6629C24.8995 45.8674 24.9762 46.2682 25.0288 46.7043C25.0709 47.0555 24.8634 47.2337 24.5017 47.2149C24.1972 47.1991 23.9107 47.2999 23.6107 47.3029C23.4106 47.3051 23.3445 47.4608 23.3422 47.6405C23.3415 47.7007 23.3903 47.7744 23.3693 47.8195C23.2851 48.003 23.4099 48.2391 23.3309 48.3549C23.2279 48.506 22.9963 48.3015 22.8098 48.3443C22.7023 48.3692 22.576 48.3398 22.5158 48.4624C22.4519 48.5917 22.5527 48.6699 22.6248 48.7542C22.7241 48.87 22.7715 49.0279 22.6602 49.1249C22.5203 49.2467 22.4714 49.0549 22.3797 48.9865C22.1203 48.7918 21.8345 48.9632 21.5683 48.9865C21.3804 49.0031 21.4525 49.2076 21.4751 49.3602C21.4992 49.5234 21.3646 49.643 21.2217 49.6076C20.6735 49.4708 20.1652 49.6174 19.6524 49.7716C19.6058 49.7851 19.5531 49.7761 19.5027 49.7783C19.4696 49.4272 19.4696 49.076 19.5057 48.7248C19.7065 48.7481 19.7404 48.5812 19.7479 48.4609C19.7727 48.0646 19.7742 47.6668 19.7712 47.2691C19.7697 47.1119 19.6479 47.0683 19.508 47.0713C19.4772 46.7705 19.4794 46.4697 19.5088 46.1689C19.6103 46.1674 19.699 46.1532 19.6997 46.0193C19.6997 45.8855 19.6118 45.8704 19.5103 45.8689C19.4982 45.6418 19.4854 45.4155 19.4727 45.1892ZM24.2212 46.9232C24.3837 46.9089 24.5363 46.8961 24.5754 46.7367C24.6145 46.5795 24.6115 46.4276 24.4386 46.3126C24.1874 46.1456 23.7054 46.2847 23.4204 46.6239C23.3219 46.7412 23.2648 46.8645 23.3693 46.9901C23.47 47.1111 23.6415 47.1157 23.7415 47.0262C23.9002 46.8818 24.0528 46.8442 24.2212 46.9232ZM21.2886 47.4247C21.2638 47.3142 21.2728 47.0976 21.1232 47.1202C20.9066 47.1525 20.9074 47.3871 20.9089 47.5743C20.9096 47.6947 20.8923 47.8796 21.057 47.8586C21.2646 47.8315 21.2676 47.618 21.2886 47.4247ZM20.0517 44.8184C20.1276 44.7891 20.2938 44.8605 20.284 44.6883C20.2742 44.5079 20.1005 44.4755 19.9577 44.4477C19.8178 44.4199 19.7381 44.5274 19.7358 44.638C19.7321 44.8387 19.9035 44.8042 20.0517 44.8184ZM20.8367 49.2286C20.951 49.1933 21.0337 49.1196 21.0442 48.9993C21.0548 48.882 20.9796 48.8106 20.8653 48.8121C20.7495 48.8143 20.6916 48.8955 20.6871 49.0083C20.6833 49.1151 20.7119 49.2038 20.8367 49.2286ZM24.7063 44.8921C24.6333 44.8974 24.5468 44.8929 24.5378 44.9921C24.5288 45.0914 24.6055 45.1109 24.6837 45.1117C24.7694 45.1132 24.8724 45.1192 24.8709 44.9959C24.8702 44.8989 24.7814 44.8959 24.7063 44.8921ZM19.9735 45.3892C20.0261 45.3471 20.1306 45.3471 20.1389 45.238C20.1442 45.1636 20.0953 45.1297 20.0291 45.1237C19.9313 45.1155 19.8652 45.1538 19.8629 45.2628C19.8614 45.3298 19.8817 45.3801 19.9735 45.3892ZM22.3902 47.5164C22.479 47.5157 22.5436 47.4939 22.5256 47.4149C22.5075 47.336 22.4354 47.3029 22.3556 47.3021C22.2947 47.3014 22.2165 47.3029 22.2225 47.3864C22.2308 47.4931 22.3203 47.5134 22.3902 47.5164ZM26.4711 39.8954C26.4049 39.9037 26.4027 39.9548 26.4027 40.0029C26.4027 40.0511 26.4042 40.1097 26.4696 40.1097C26.535 40.1105 26.5388 40.0526 26.5388 40.0044C26.5388 39.9563 26.5365 39.9052 26.4711 39.8954ZM25.2484 44.8981C25.292 44.9553 25.3108 44.9809 25.3296 45.0064C25.3537 44.9876 25.3928 44.9733 25.3996 44.95C25.4131 44.9042 25.4033 44.8515 25.3386 44.8545C25.3093 44.8553 25.2807 44.8816 25.2484 44.8981Z" fill="#252041"/>
<path d="M30.8027 16.9943C31.0028 16.9109 31.1216 16.8973 31.278 16.9958C31.1231 17.1034 31.0035 17.0876 30.8027 16.9943Z" fill="#1E1A3B"/>
<path d="M39.3703 17.5944C39.4282 17.6095 39.5109 17.635 39.5952 17.6523C39.7756 17.6899 39.9478 17.7057 40.0095 17.4681C40.0433 17.338 40.1388 17.2914 40.2652 17.3064C40.3614 17.3177 40.4261 17.3718 40.4434 17.4696C40.4682 17.614 40.402 17.6869 40.2697 17.7546C40.008 17.8892 39.8516 18.2043 39.4974 18.1885C39.3869 18.1832 39.2786 18.2043 39.1688 18.1591C39.0094 18.0937 38.9207 17.9869 38.9575 17.8132C39.0026 17.6042 39.1808 17.6125 39.3703 17.5944Z" fill="#252041"/>
<path d="M51.9587 18.7677C51.9445 18.9707 51.8241 19.0985 51.6369 19.1624C51.5685 19.1858 51.4963 19.1196 51.5204 19.0639C51.5955 18.8925 51.6414 18.6872 51.882 18.6519C52.0039 18.6338 51.9414 18.7195 51.9587 18.7677Z" fill="#282345"/>
<path d="M41.985 18.8539C41.9068 18.8562 41.8571 18.8216 41.8398 18.7599C41.8165 18.6757 41.8654 18.6208 41.9436 18.6043C42.0105 18.59 42.0617 18.6343 42.0789 18.6952C42.1038 18.781 42.0466 18.8246 41.985 18.8539Z" fill="#282345"/>
<path d="M52.5581 19.1698C52.419 19.2826 52.3227 19.2593 52.1836 19.1863C52.3227 19.0735 52.4182 19.0969 52.5581 19.1698Z" fill="#282345"/>
<path d="M42.6928 19.1534C42.683 19.2151 42.6409 19.2414 42.5898 19.2181C42.5372 19.194 42.4605 19.1557 42.4544 19.1136C42.4417 19.0316 42.5244 19.0301 42.5845 19.0346C42.6522 19.0406 42.7003 19.0745 42.6928 19.1534Z" fill="#282345"/>
<path d="M44.4062 16.8057C44.4476 16.938 44.4107 17.0079 44.3145 17.0418C44.2716 17.0568 44.2363 17.0237 44.243 16.9839C44.2581 16.9004 44.2746 16.8102 44.4062 16.8057Z" fill="#252041"/>
<path d="M38.3899 18.2842C38.4253 18.3158 38.4704 18.3451 38.4666 18.3556C38.4516 18.3962 38.4283 18.4443 38.3937 18.4646C38.3486 18.4902 38.2907 18.4744 38.3049 18.406C38.3132 18.3654 38.3546 18.3316 38.3899 18.2842Z" fill="#252041"/>
<path d="M37.2138 19.2334C37.2303 19.2657 37.2566 19.2943 37.2574 19.3244C37.2604 19.3891 37.2077 19.3988 37.1619 19.3853C37.1378 19.3778 37.1243 19.3394 37.1055 19.3154C37.131 19.2958 37.1566 19.277 37.2138 19.2334Z" fill="#252041"/>
<path d="M50.6802 18.0503C50.626 18.0405 50.5621 18.0428 50.5666 17.9601C50.5674 17.9518 50.5817 17.9375 50.5899 17.9367C50.6727 17.9322 50.6704 17.9962 50.6802 18.0503Z" fill="#282345"/>
<path d="M37.3532 18.834C37.3743 18.843 37.3946 18.852 37.4157 18.8611C37.4066 18.8821 37.4021 18.9144 37.3871 18.9197C37.372 18.9257 37.3465 18.9054 37.3262 18.8964C37.3352 18.8753 37.3442 18.855 37.3532 18.834Z" fill="#252041"/>
<path d="M49.7031 16.6221C49.7535 16.6221 49.8031 16.6221 49.8535 16.6221C49.8039 16.6988 49.7535 16.6988 49.7031 16.6221Z" fill="#252041"/>
<path d="M49.4766 16.6973C49.5012 16.6973 49.5265 16.6973 49.5511 16.6973C49.5265 16.748 49.5019 16.748 49.4766 16.6973Z" fill="#252041"/>
<path d="M27.6815 53.0988C27.7732 53.0958 27.8176 53.1379 27.8115 53.2093C27.801 53.3296 27.7183 53.3778 27.6048 53.3808C27.5371 53.3823 27.4641 53.362 27.4837 53.2838C27.5085 53.183 27.5882 53.1176 27.6815 53.0988Z" fill="#1B1738"/>
<path d="M26.2734 53.2666C26.4825 53.135 26.6013 53.1486 26.7502 53.2102C26.6269 53.3681 26.496 53.3012 26.2734 53.2666Z" fill="#1B1738"/>
<path d="M27.2663 50.5706C27.3009 50.5609 27.343 50.5391 27.3851 50.5391C27.4302 50.5391 27.4942 50.5481 27.4776 50.618C27.4648 50.6729 27.4084 50.6797 27.3596 50.6737C27.3137 50.6669 27.2588 50.6646 27.2663 50.5706Z" fill="#211C3D"/>
<path d="M27.5228 36.0947C27.5228 36.1699 27.5228 36.2451 27.5228 36.3196C27.4461 36.309 27.3754 36.2887 27.3882 36.1895C27.398 36.112 27.4619 36.1045 27.5228 36.0947Z" fill="#252041"/>
<path d="M19.5099 47.0705C19.6498 47.0674 19.7716 47.1111 19.7731 47.2682C19.7769 47.6653 19.7746 48.0638 19.7498 48.4601C19.7423 48.5804 19.7084 48.7473 19.5077 48.724C19.4723 48.1728 19.4806 47.6216 19.5099 47.0705Z" fill="#211C3D"/>
<path d="M19.5113 45.8682C19.6128 45.8697 19.7015 45.8855 19.7008 46.0186C19.7008 46.1524 19.6113 46.1667 19.5098 46.1682C19.5105 46.0689 19.5113 45.9689 19.5113 45.8682Z" fill="#211C3D"/>
<path d="M35.7798 9.59473C36.0527 9.68797 36.0655 9.86393 35.9392 10.0873C35.8677 10.2128 35.7504 10.2813 35.6354 10.1985C35.5015 10.1023 35.6083 10.0045 35.7001 9.93762C35.8271 9.84438 35.7888 9.72256 35.7707 9.60225C35.77 9.60225 35.7798 9.59473 35.7798 9.59473Z" fill="#211C3D"/>
<path d="M24.2202 46.9233C24.0525 46.8443 23.8999 46.8826 23.7404 47.0263C23.6404 47.1165 23.469 47.112 23.3682 46.9902C23.2637 46.8646 23.3209 46.7413 23.4194 46.624C23.7043 46.2856 24.1864 46.1457 24.4375 46.3127C24.6105 46.4277 24.6135 46.5796 24.5744 46.7368C24.5345 46.8962 24.3826 46.909 24.2202 46.9233Z" fill="#211C3D"/>
<path d="M21.2889 47.4252C21.2679 47.6177 21.2641 47.832 21.0566 47.8591C20.8926 47.8801 20.9092 47.6952 20.9084 47.5749C20.9069 47.3876 20.9069 47.1523 21.1227 47.1207C21.2731 47.0989 21.2649 47.3147 21.2889 47.4252Z" fill="#211C3D"/>
<path d="M20.0515 44.8185C19.9041 44.8042 19.7319 44.8388 19.7364 44.6381C19.7387 44.5275 19.8191 44.42 19.9582 44.4478C20.1004 44.4756 20.2741 44.508 20.2846 44.6884C20.2936 44.8606 20.1274 44.7892 20.0515 44.8185Z" fill="#262142"/>
<path d="M20.8355 49.2291C20.7107 49.2043 20.6821 49.1156 20.6859 49.0088C20.6904 48.896 20.7483 48.8148 20.8641 48.8126C20.9784 48.8103 21.0536 48.8817 21.043 48.9998C21.0325 49.1201 20.9498 49.193 20.8355 49.2291Z" fill="#211C3D"/>
<path d="M24.7063 44.8926C24.7815 44.8963 24.8694 44.8986 24.8709 44.9963C24.8725 45.1197 24.7694 45.1129 24.6837 45.1121C24.6055 45.1106 24.5288 45.0911 24.5378 44.9926C24.5469 44.8933 24.6333 44.8978 24.7063 44.8926Z" fill="#211C3D"/>
<path d="M19.9739 45.3896C19.8829 45.3805 19.8619 45.3302 19.8634 45.2632C19.8656 45.1542 19.9318 45.1159 20.0295 45.1241C20.095 45.1294 20.1446 45.1632 20.1393 45.2384C20.1311 45.3482 20.0265 45.3482 19.9739 45.3896Z" fill="#262142"/>
<path d="M22.3899 47.5171C22.32 47.5141 22.2305 47.4931 22.223 47.387C22.217 47.3043 22.2952 47.3021 22.3561 47.3028C22.4358 47.3036 22.508 47.3367 22.526 47.4156C22.5426 47.4946 22.4786 47.5164 22.3899 47.5171Z" fill="#211C3D"/>
<path d="M26.4709 39.8955C26.5363 39.9045 26.5386 39.9564 26.5386 40.0045C26.5386 40.0527 26.5348 40.1106 26.4694 40.1098C26.4032 40.1091 26.4017 40.0512 26.4024 40.003C26.4017 39.9549 26.4047 39.9038 26.4709 39.8955Z" fill="#262142"/>
<path d="M25.248 44.8982C25.2804 44.8817 25.309 44.8554 25.339 44.8546C25.4037 44.8516 25.4135 44.9042 25.3999 44.9501C25.3924 44.9742 25.3541 44.9877 25.33 45.0065C25.3105 44.9809 25.2917 44.9554 25.248 44.8982Z" fill="#211C3D"/>
<path d="M26.9551 39.8789C26.9664 39.8518 26.9739 39.833 26.9821 39.8135C27.0077 39.8293 27.0333 39.8451 27.0596 39.8608C27.0446 39.8789 27.1175 39.9308 27.0385 39.9218C27.0092 39.9188 26.9821 39.8939 26.9551 39.8789Z" fill="#262142"/>
</svg>
