<svg width="24" height="24" viewBox="0 0 24 24" fill="none" xmlns="http://www.w3.org/2000/svg">
<path d="M22.3809 4.09406C22.3129 3.98848 22.2195 3.90165 22.1093 3.84154C21.9991 3.78143 21.8755 3.74995 21.7499 3.75H14.2499C14.106 3.75006 13.9651 3.79154 13.844 3.86951C13.723 3.94748 13.627 4.05863 13.5674 4.18969L12.7443 6H2.62493C2.47965 6.00001 2.33751 6.04222 2.21576 6.12149C2.09402 6.20076 1.99792 6.31368 1.93914 6.44654C1.88035 6.57939 1.86142 6.72646 1.88464 6.86987C1.90786 7.01328 1.97223 7.14686 2.06993 7.25437L5.36149 10.875L2.06993 14.4956C1.97223 14.6031 1.90786 14.7367 1.88464 14.8801C1.86142 15.0235 1.88035 15.1706 1.93914 15.3035C1.99792 15.4363 2.09402 15.5492 2.21576 15.6285C2.33751 15.7078 2.47965 15.75 2.62493 15.75H9.47712C9.62108 15.7499 9.76198 15.7085 9.883 15.6305C10.004 15.5525 10.1001 15.4414 10.1596 15.3103L10.9827 13.5H16.8356L13.5674 20.6897C13.5236 20.7797 13.4982 20.8777 13.4927 20.9777C13.4873 21.0777 13.502 21.1778 13.5359 21.2721C13.5698 21.3663 13.6223 21.4529 13.6902 21.5265C13.7581 21.6002 13.84 21.6595 13.9312 21.7009C14.0224 21.7424 14.121 21.7652 14.2211 21.7679C14.3213 21.7707 14.4209 21.7533 14.5143 21.7169C14.6076 21.6805 14.6927 21.6258 14.7645 21.5559C14.8363 21.4861 14.8934 21.4026 14.9324 21.3103L22.4324 4.81031C22.4844 4.69614 22.507 4.57075 22.4979 4.44562C22.4889 4.32048 22.4487 4.19961 22.3809 4.09406ZM8.9943 14.25H4.31993L6.92993 11.3794C7.05536 11.2413 7.12486 11.0615 7.12486 10.875C7.12486 10.6885 7.05536 10.5087 6.92993 10.3706L4.31993 7.5H12.0627L8.9943 14.25ZM17.5171 12H11.6643L14.7327 5.25H20.5856L17.5171 12Z" fill="#222222"/>
</svg>
