<svg width="20" height="21" viewBox="0 0 20 21" fill="none" xmlns="http://www.w3.org/2000/svg">
<path d="M13.7507 4.41667V2.75M6.25065 4.41667V2.75M2.70898 6.91667H17.2923M10.0032 14.8333L10.0007 10.4333M12.084 12.0442L10.0007 9.83333L7.91732 12.0442" stroke="#222" stroke-width="1.25" stroke-linecap="round" stroke-linejoin="round"/>
<path d="M2.5 8.61967C2.5 6.85717 2.5 5.97551 2.86333 5.30217C3.19187 4.7016 3.70166 4.22009 4.32 3.92634C5.03333 3.58301 5.96667 3.58301 7.83333 3.58301H12.1667C14.0333 3.58301 14.9667 3.58301 15.68 3.92634C16.3075 4.22801 16.8167 4.70967 17.1367 5.30134C17.5 5.97634 17.5 6.85801 17.5 8.62051V12.7138C17.5 14.4763 17.5 15.358 17.1367 16.0313C16.8081 16.6319 16.2983 17.1134 15.68 17.4072C14.9667 17.7497 14.0333 17.7497 12.1667 17.7497H7.83333C5.96667 17.7497 5.03333 17.7497 4.32 17.4063C3.70179 17.1128 3.19201 16.6316 2.86333 16.0313C2.5 15.3563 2.5 14.4747 2.5 12.7122V8.61967Z" stroke="#222" stroke-width="1.25" stroke-linecap="round" stroke-linejoin="round"/>
</svg>
