<svg width="20" height="17" viewBox="0 0 20 17" fill="none" xmlns="http://www.w3.org/2000/svg">
<mask id="mask0_1_2438" style="mask-type:luminance" maskUnits="userSpaceOnUse" x="0" y="0" width="20" height="17">
<path d="M0 0.137695H20V16.1377H0V0.137695Z" fill="white"/>
</mask>
<g mask="url(#mask0_1_2438)">
<path d="M19.5 10.5373H19V7.8348C19 7.5173 18.8406 7.2123 18.5594 6.9873L15.4375 4.4898C15.1563 4.2648 14.775 4.1373 14.3781 4.1373H13V2.9373C13 2.2748 12.3281 1.7373 11.5 1.7373H1.5C0.671875 1.7373 0 2.2748 0 2.9373V10.9373C0 11.5998 0.671875 12.1373 1.5 12.1373H2C2 13.4623 3.34375 14.5373 5 14.5373C6.65625 14.5373 8 13.4623 8 12.1373H12C12 13.4623 13.3438 14.5373 15 14.5373C16.6562 14.5373 18 13.4623 18 12.1373H19.5C19.775 12.1373 20 11.9573 20 11.7373V10.9373C20 10.7173 19.775 10.5373 19.5 10.5373ZM5 13.3373C4.17188 13.3373 3.5 12.7998 3.5 12.1373C3.5 11.4748 4.17188 10.9373 5 10.9373C5.82812 10.9373 6.5 11.4748 6.5 12.1373C6.5 12.7998 5.82812 13.3373 5 13.3373ZM15 13.3373C14.1719 13.3373 13.5 12.7998 13.5 12.1373C13.5 11.4748 14.1719 10.9373 15 10.9373C15.8281 10.9373 16.5 11.4748 16.5 12.1373C16.5 12.7998 15.8281 13.3373 15 13.3373ZM17.5 8.1373H13V5.3373H14.3781L17.5 7.8348V8.1373Z" fill="#9CA3AF"/>
</g>
</svg>
