<svg width="18" height="18" viewBox="0 0 18 18" fill="none" xmlns="http://www.w3.org/2000/svg">
<path d="M2.82031 0.441827C2.61719 0.516046 2.50391 0.594171 2.35938 0.766046C2.28906 0.848077 1.91016 1.60198 1.51562 2.43792L0.796875 3.96136L3.1875 3.97308C4.5 3.97698 5.58203 3.97308 5.58984 3.96526C5.60938 3.94573 5.99219 0.621514 5.99219 0.473077V0.387139H4.48047C3.32031 0.391046 2.92969 0.402764 2.82031 0.441827Z" fill="#9CA3AF"/>
<path d="M6.75714 2.11328C6.65558 3.06641 6.56183 3.875 6.55011 3.91016C6.53449 3.97656 6.63605 3.98047 8.31183 3.98047C9.34699 3.98047 10.0931 3.96484 10.0931 3.94531C10.0931 3.92578 10.0071 3.14062 9.89777 2.19531C9.7923 1.25391 9.70245 0.460938 9.70245 0.433594C9.70245 0.398438 9.40167 0.386719 8.32355 0.386719H6.94855L6.75714 2.11328Z" fill="#9CA3AF"/>
<path d="M10.6406 0.40625C10.6406 0.414062 10.7305 1.19922 10.8359 2.14453C10.9453 3.08984 11.0312 3.89062 11.0312 3.92188C11.0312 3.97266 11.3398 3.98047 13.4336 3.98047C14.7539 3.98047 15.8359 3.96875 15.8359 3.95703C15.8359 3.91016 14.457 0.992188 14.3672 0.847656C14.3164 0.769531 14.2148 0.660156 14.1406 0.601562C13.875 0.398438 13.7617 0.386719 12.1367 0.386719C11.3164 0.386719 10.6406 0.394531 10.6406 0.40625Z" fill="#9CA3AF"/>
<path d="M0.375 4.98429C0.359375 5.02335 0.347656 7.48038 0.347656 10.4452V15.8358L0.457031 16.0585C0.519531 16.1835 0.632812 16.3358 0.710938 16.4023C1.01172 16.6483 0.75 16.6366 5.76562 16.6366C8.27344 16.6366 10.3281 16.6288 10.3281 16.6171C10.3281 16.6054 10.2734 16.4843 10.207 16.3515C9.69141 15.3358 9.60547 14.0819 9.97266 12.996C10.457 11.5624 11.6094 10.4921 13.082 10.1093C13.9922 9.87101 15.0352 9.95304 15.8906 10.3319C16.0664 10.4062 16.2305 10.4804 16.2578 10.4921C16.293 10.5077 16.3047 9.96866 16.3047 7.86319C16.3047 6.40226 16.293 5.14444 16.2812 5.06241L16.2539 4.91788H13.7031H11.1523L11.1406 7.0546L11.1289 9.19522L11.0195 9.41788C10.8203 9.82413 10.4805 10.0429 10.0078 10.0663C9.64844 10.0858 9.53125 10.039 8.80859 9.58976L8.32812 9.29288L7.77734 9.62882C7.12891 10.0273 7.00781 10.0741 6.66016 10.0741C6.20312 10.0702 5.83984 9.84366 5.63281 9.41788L5.50391 9.15616L5.49219 7.03897L5.48047 4.91788H2.94141C0.5625 4.91788 0.402344 4.92179 0.375 4.98429ZM4.78125 11.6991C5.02344 11.9062 5.07812 12.1601 4.93359 12.4179C4.78125 12.6874 4.73438 12.6991 3.60156 12.6835L2.60156 12.6718L2.49609 12.5741C2.21484 12.3124 2.21094 11.9765 2.48438 11.7304C2.53125 11.6835 2.60156 11.6366 2.63281 11.6249C2.66406 11.6132 3.13281 11.6015 3.67578 11.6015L4.65625 11.5976L4.78125 11.6991ZM5.83594 13.621C6.05078 13.7265 6.16016 13.9218 6.14062 14.1679C6.12891 14.3124 6.09766 14.3983 6.02734 14.4726C5.83203 14.6835 5.83984 14.6835 4.22656 14.6835C2.87891 14.6835 2.71875 14.6757 2.59766 14.6132C2.41406 14.5233 2.31641 14.3749 2.29297 14.1718C2.26953 13.9374 2.375 13.7499 2.59375 13.6366C2.76562 13.5507 2.78906 13.5507 4.23438 13.5507C5.55078 13.5507 5.71484 13.5585 5.83594 13.621Z" fill="#9CA3AF"/>
<path d="M6.46097 6.96464C6.46097 9.20292 6.45316 9.13651 6.68363 9.13651C6.74613 9.13651 7.07816 8.95682 7.51566 8.68729C7.918 8.4412 8.28128 8.23807 8.32425 8.23807C8.36722 8.23807 8.7305 8.4412 9.12894 8.68729C9.90628 9.16385 10.0352 9.21073 10.1485 9.05057C10.2032 8.97245 10.211 8.70682 10.211 6.9412V4.91776H8.33597H6.46097V6.96464Z" fill="#9CA3AF"/>
<path d="M13.7462 10.9331C12.6602 11.0776 11.6876 11.7183 11.1563 12.6401C10.8517 13.1753 10.7227 13.6167 10.6915 14.2534C10.6134 15.894 11.6876 17.3393 13.3048 17.7768C13.7618 17.9018 14.5782 17.8979 15.0352 17.7768C16.5938 17.3511 17.6368 16.0112 17.6407 14.4292C17.6446 13.6831 17.4806 13.1128 17.086 12.4956C16.8321 12.105 16.297 11.5933 15.9102 11.3745C15.5392 11.1636 15.0079 10.9878 14.586 10.937C14.2188 10.8901 14.0899 10.8901 13.7462 10.9331ZM15.5977 13.3081C15.7735 13.394 15.8751 13.5386 15.9024 13.7339C15.9415 14.0229 15.8634 14.1128 14.9181 14.8784C13.879 15.7143 13.8165 15.7534 13.6056 15.7261C13.3751 15.6948 13.2931 15.6245 12.8907 15.1206C12.4337 14.5425 12.4259 14.5268 12.4454 14.2651C12.4688 14.0151 12.6056 13.8433 12.8438 13.7808C13.0899 13.7143 13.297 13.8159 13.5392 14.1206C13.6446 14.2612 13.754 14.3589 13.7774 14.3433C13.797 14.3315 14.086 14.1011 14.4181 13.8354C14.7462 13.5659 15.0665 13.3237 15.1251 13.2925C15.2657 13.2183 15.4376 13.2222 15.5977 13.3081Z" fill="#9CA3AF"/>
</svg>
