<svg width="20" height="21" viewBox="0 0 20 21" fill="none" xmlns="http://www.w3.org/2000/svg">
<mask id="mask0_1_4073" style="mask-type:luminance" maskUnits="userSpaceOnUse" x="0" y="0" width="20" height="21">
<path d="M0 0.636719H20V20.6367H0V0.636719Z" fill="white"/>
</mask>
<g mask="url(#mask0_1_4073)">
<path d="M19.9024 7.84766L17.9258 1.91797C17.6719 1.15234 16.957 0.636719 16.1484 0.636719H10.625V8.13672H19.9492C19.9336 8.03907 19.9336 7.94141 19.9024 7.84766ZM9.375 0.636719H3.85156C3.04296 0.636719 2.32812 1.15234 2.07421 1.91797L0.0976562 7.84766C0.0664062 7.94141 0.0664062 8.03907 0.0507812 8.13672H9.375V0.636719ZM0 9.38672V18.7617C0 19.7968 0.839844 20.6367 1.875 20.6367H18.125C19.1601 20.6367 20 19.7968 20 18.7617V9.38672H0Z" fill="white"/>
</g>
</svg>
