<svg width="25" height="24" viewBox="0 0 25 24" fill="none" xmlns="http://www.w3.org/2000/svg">
<g clip-path="url(#clip0_1017_18739)">
<path d="M11.8211 0.729665C11.8747 0.729419 11.9282 0.729174 11.9834 0.728921C12.0958 0.728622 12.2082 0.728679 12.3205 0.729081C12.4903 0.72948 12.6599 0.72813 12.8296 0.726644C13.6356 0.724165 14.3783 0.775892 15.078 1.21874C15.1655 1.39364 15.1525 1.60193 15.0934 1.78508C15.0597 1.86314 15.0223 1.93957 14.9843 2.01561C15.0394 2.03882 15.0945 2.06202 15.1513 2.08593C15.4737 2.24856 15.7111 2.53662 15.8436 2.87163C15.9531 3.32067 15.9266 3.76524 15.6951 4.16894C15.5029 4.44091 15.2817 4.68624 15.0583 4.93269C14.9526 5.05113 14.8527 5.17345 14.7529 5.29686C14.5987 5.48718 14.4416 5.67427 14.2812 5.85936C14.3517 6.03588 14.4515 6.11919 14.6005 6.23436C14.9149 6.48491 15.2085 6.75448 15.4999 7.03124C15.5581 7.08644 15.5581 7.08644 15.6175 7.14275C15.8422 7.36158 16.0435 7.59327 16.2391 7.83837C16.305 7.92054 16.3721 8.00175 16.4409 8.08153C17.7499 9.61074 17.7499 9.61074 17.7499 10.125C17.7816 10.1248 17.8134 10.1246 17.846 10.1245C18.6175 10.1203 19.389 10.1172 20.1605 10.1153C20.5335 10.1143 20.9066 10.113 21.2797 10.1108C21.6048 10.109 21.93 10.1078 22.2551 10.1073C22.4273 10.1071 22.5995 10.1065 22.7717 10.1052C22.9639 10.1037 23.156 10.1036 23.3481 10.1037C23.4339 10.1027 23.4339 10.1027 23.5214 10.1017C23.5737 10.1019 23.6261 10.1022 23.68 10.1024C23.7254 10.1023 23.7709 10.1021 23.8177 10.1019C23.9746 10.1322 24.0296 10.186 24.1249 10.3125C24.1489 10.4106 24.1489 10.4106 24.1497 10.5176C24.1504 10.5583 24.1511 10.5991 24.1519 10.641C24.1517 10.6853 24.1516 10.7297 24.1514 10.7753C24.152 10.8223 24.1525 10.8693 24.1531 10.9177C24.1546 11.0731 24.1548 11.2286 24.1548 11.384C24.1553 11.4922 24.1558 11.6003 24.1563 11.7084C24.1572 11.9352 24.1574 12.162 24.1571 12.3889C24.1568 12.6791 24.1589 12.9693 24.1616 13.2595C24.1633 13.483 24.1635 13.7064 24.1634 13.9298C24.1635 14.0368 24.1641 14.1438 24.1653 14.2507C24.1668 14.4007 24.1663 14.5505 24.1651 14.7004C24.166 14.7443 24.1669 14.7883 24.1678 14.8335C24.1627 15.1275 24.0888 15.2736 23.8821 15.482C23.854 15.5086 23.8258 15.5351 23.7968 15.5625C23.7587 15.6025 23.7207 15.6425 23.6814 15.6838C23.6467 15.7186 23.6119 15.7535 23.576 15.7893C23.536 15.8295 23.496 15.8697 23.4547 15.9111C23.3916 15.9741 23.3916 15.9741 23.3271 16.0384C23.2826 16.0829 23.2381 16.1275 23.1936 16.172C23.1012 16.2645 23.0086 16.357 22.916 16.4494C22.7973 16.5678 22.6788 16.6865 22.5603 16.8053C22.4688 16.8969 22.3772 16.9885 22.2856 17.08C22.2206 17.1449 22.1556 17.21 22.0907 17.2751C22.0514 17.3142 22.0121 17.3534 21.9716 17.3937C21.9197 17.4456 21.9197 17.4456 21.8668 17.4985C21.7303 17.6255 21.6436 17.6314 21.4616 17.6346C21.4147 17.6355 21.3678 17.6365 21.3195 17.6374C21.2433 17.6386 21.2433 17.6386 21.1656 17.6398C21.1137 17.6408 21.0618 17.6418 21.0083 17.6428C20.8421 17.6458 20.6759 17.6486 20.5097 17.6514C20.3972 17.6534 20.2847 17.6554 20.1722 17.6575C19.896 17.6625 19.6199 17.6673 19.3437 17.6719C19.36 17.6973 19.3764 17.7227 19.3933 17.749C19.4146 17.7825 19.436 17.816 19.4579 17.8506C19.4791 17.8837 19.5003 17.9169 19.5222 17.9511C19.6862 18.2323 19.6484 18.5762 19.6249 18.8906C19.5448 19.1893 19.3845 19.452 19.1293 19.6318C18.7925 19.822 18.451 19.9915 18.0986 20.1504C17.9827 20.2034 17.8669 20.2564 17.7512 20.3097C17.721 20.3236 17.6908 20.3375 17.6598 20.3518C17.2887 20.5232 16.9218 20.7032 16.5546 20.8828C16.0129 21.1475 15.4692 21.4064 14.9212 21.6579C14.5426 21.8325 14.1679 22.014 13.7937 22.1978C12.6178 22.7756 11.5742 23.2613 10.2411 23.2705C10.1552 23.2712 10.1552 23.2712 10.0675 23.272C9.34224 23.265 8.68384 23.0864 7.99788 22.8717C6.87402 22.5213 5.80009 22.2801 4.62492 22.1719C4.62639 22.2109 4.62639 22.2109 4.6279 22.2506C4.6318 22.3689 4.63424 22.4872 4.63664 22.6055C4.63821 22.6464 4.63978 22.6873 4.6414 22.7294C4.64231 22.7888 4.64231 22.7888 4.64323 22.8494C4.64421 22.8857 4.6452 22.922 4.64621 22.9594C4.61556 23.1078 4.55588 23.1568 4.43742 23.25C4.28801 23.2738 4.28801 23.2738 4.1093 23.2743C4.07665 23.2746 4.04401 23.2749 4.01037 23.2752C3.9027 23.2761 3.79509 23.2755 3.68742 23.2749C3.61247 23.275 3.53752 23.2752 3.46257 23.2754C3.30558 23.2757 3.14861 23.2753 2.99162 23.2744C2.79048 23.2734 2.58938 23.274 2.38824 23.2751C2.2335 23.2758 2.07877 23.2756 1.92402 23.2751C1.84987 23.275 1.77571 23.2751 1.70155 23.2755C1.59786 23.276 1.49424 23.2753 1.39055 23.2743C1.33157 23.2741 1.2726 23.274 1.21184 23.2738C1.02891 23.2446 0.985405 23.2092 0.874922 23.0625C0.856492 22.9397 0.849552 22.8365 0.851113 22.7138C0.85082 22.6785 0.850528 22.6433 0.850226 22.607C0.849478 22.4888 0.850071 22.3706 0.85066 22.2524C0.850406 22.1677 0.850073 22.083 0.849665 21.9983C0.848809 21.7682 0.849142 21.5381 0.849736 21.308C0.85021 21.0674 0.849771 20.8267 0.849476 20.5861C0.849135 20.1819 0.849585 19.7778 0.850477 19.3736C0.851498 18.9062 0.851167 18.4387 0.850135 17.9713C0.849284 17.5702 0.849164 17.169 0.849655 16.7679C0.849947 16.5282 0.849985 16.2886 0.849367 16.0489C0.848826 15.8236 0.8492 15.5983 0.850284 15.373C0.850532 15.2902 0.85046 15.2074 0.850047 15.1247C0.849536 15.0118 0.850176 14.8991 0.851113 14.7862C0.850694 14.7533 0.850276 14.7204 0.849845 14.6866C0.852361 14.5307 0.865932 14.4494 0.960821 14.3234C1.10578 14.2186 1.21281 14.2262 1.39055 14.2257C1.42319 14.2254 1.45584 14.2251 1.48947 14.2247C1.59714 14.2239 1.70475 14.2245 1.81242 14.2251C1.88737 14.225 1.96232 14.2248 2.03728 14.2245C2.19427 14.2243 2.35124 14.2247 2.50822 14.2255C2.70937 14.2266 2.91046 14.226 3.1116 14.2249C3.26634 14.2242 3.42108 14.2244 3.57582 14.2249C3.64998 14.225 3.72414 14.2249 3.79829 14.2244C3.90199 14.224 4.00561 14.2247 4.1093 14.2257C4.19776 14.226 4.19776 14.226 4.28801 14.2262C4.46358 14.2542 4.5192 14.2972 4.62492 14.4375C4.64621 14.5448 4.64621 14.5448 4.64323 14.6609C4.64263 14.7026 4.64202 14.7443 4.6414 14.7872C4.63983 14.8304 4.63826 14.8735 4.63664 14.918C4.63579 14.9618 4.63495 15.0057 4.63408 15.0509C4.63187 15.159 4.62879 15.267 4.62492 15.375C4.67662 15.3746 4.67662 15.3746 4.72936 15.3742C4.88791 15.3733 5.04645 15.3727 5.205 15.3721C5.2592 15.3717 5.3134 15.3713 5.36925 15.3709C5.68683 15.37 5.99725 15.3819 6.31242 15.4219C6.29912 15.3825 6.28583 15.3432 6.27213 15.3026C6.14096 14.8861 6.09649 14.5138 6.10441 14.0742C6.1051 14.0126 6.10579 13.9509 6.1065 13.8875C6.11558 13.4175 6.15324 12.9719 6.26555 12.5156C6.27461 12.4776 6.28367 12.4395 6.29301 12.4003C6.58995 11.1844 7.17379 9.96718 7.90617 8.95312C7.94257 8.90056 7.97889 8.84795 8.01512 8.79528C8.64388 7.8884 9.40881 7.01955 10.2704 6.3305C10.4231 6.2083 10.5709 6.08118 10.7187 5.95311C10.639 5.75885 10.5011 5.61358 10.3642 5.458C10.3131 5.39907 10.262 5.34011 10.2109 5.28112C10.1857 5.25201 10.1605 5.2229 10.1345 5.19291C9.09514 3.98747 9.09514 3.98747 9.10441 3.38085C9.1048 3.34792 9.10519 3.31499 9.10559 3.28106C9.11917 2.86269 9.26976 2.58789 9.54918 2.28423C9.69191 2.15751 9.84017 2.08946 10.0155 2.01561C9.99234 1.96921 9.96914 1.9228 9.94523 1.87499C9.86086 1.67597 9.85021 1.52781 9.87492 1.31249C10.0022 1.15578 10.1322 1.08098 10.3173 1.00487C10.3608 0.986443 10.4042 0.968013 10.449 0.949025C10.9052 0.797569 11.3413 0.728341 11.8211 0.729665ZM10.8124 1.68749C10.8828 1.92022 10.9801 2.1289 11.0896 2.34484C11.1072 2.37982 11.1248 2.41479 11.1428 2.45083C11.1985 2.56171 11.2545 2.67245 11.3105 2.78319C11.3484 2.85868 11.3864 2.93419 11.4244 3.00969C11.517 3.19408 11.61 3.37828 11.703 3.56249C11.355 3.74811 11.355 3.74812 10.9999 3.93749C10.969 3.84468 10.938 3.75186 10.9062 3.65624C10.8708 3.58125 10.8336 3.50709 10.7945 3.43395C10.7736 3.39467 10.7528 3.3554 10.7313 3.31493C10.7097 3.27481 10.6882 3.23469 10.6659 3.19335C10.644 3.15214 10.6221 3.11093 10.5995 3.06847C10.5456 2.96741 10.4916 2.86647 10.4374 2.76561C10.2105 2.80556 10.1194 2.85895 9.97746 3.03972C9.87249 3.22999 9.86958 3.40083 9.9218 3.60936C10.0097 3.76992 10.127 3.89643 10.2499 4.03124C10.3124 4.10434 10.3742 4.17799 10.436 4.25168C10.5023 4.33052 10.5689 4.40897 10.6357 4.48736C11.1586 5.10283 11.1586 5.10283 11.2508 5.27374C11.3568 5.44644 11.4536 5.59119 11.6552 5.6538C11.8904 5.6958 12.1251 5.69781 12.3635 5.69383C12.4907 5.69238 12.6168 5.69666 12.7439 5.70144C13.2097 5.71129 13.2097 5.71129 13.604 5.49363C13.7391 5.34564 13.845 5.18404 13.953 5.01561C14.0223 4.92881 14.0924 4.8427 14.164 4.7578C14.1975 4.71653 14.2311 4.67526 14.2656 4.63274C14.346 4.53513 14.427 4.43844 14.5091 4.34234C14.5321 4.31545 14.5551 4.28856 14.5787 4.26085C14.6231 4.20904 14.6676 4.15734 14.7122 4.10576C14.9496 3.82844 15.1176 3.6288 15.1024 3.2567C15.0618 3.06297 14.9573 2.92637 14.7968 2.81249C14.719 2.79523 14.6409 2.77942 14.5624 2.76561C14.4859 2.908 14.4099 3.05065 14.3339 3.19335C14.3123 3.23347 14.2908 3.27359 14.2685 3.31493C14.2477 3.35421 14.2268 3.39348 14.2054 3.43395C14.1862 3.46979 14.1671 3.50563 14.1473 3.54255C14.0874 3.66962 14.0444 3.80418 13.9999 3.93749C13.7679 3.81374 13.5359 3.68999 13.2968 3.56249C13.3238 3.50902 13.3508 3.45555 13.3786 3.40046C13.4783 3.20261 13.5779 3.00463 13.6773 2.80661C13.7204 2.72082 13.7636 2.63506 13.8069 2.54934C13.869 2.42633 13.9308 2.3032 13.9926 2.18004C14.0121 2.14156 14.0316 2.10309 14.0516 2.06344C14.0695 2.02779 14.0873 1.99213 14.1057 1.9554C14.1215 1.92396 14.1373 1.89252 14.1536 1.86014C14.1936 1.78118 14.1936 1.78118 14.1874 1.68749C14.1124 1.66442 14.0372 1.64213 13.9618 1.62011C13.92 1.6076 13.8781 1.59509 13.8349 1.5822C13.4012 1.48825 12.9565 1.4909 12.5146 1.4912C12.457 1.49124 12.3994 1.49128 12.34 1.49132C11.8191 1.49482 11.3073 1.50957 10.8124 1.68749ZM10.9262 6.82385C10.8582 6.89166 10.7878 6.95507 10.7155 7.01814C10.5719 7.1435 10.434 7.27399 10.2968 7.40624C10.2482 7.45296 10.2482 7.45296 10.1985 7.50063C9.74001 7.94346 9.31268 8.39068 8.93742 8.90624C8.89727 8.96014 8.85711 9.01404 8.81694 9.06792C8.53382 9.45182 8.28137 9.85044 8.0468 10.2656C8.01814 10.3161 8.01814 10.3161 7.98891 10.3676C7.55074 11.1473 7.20872 11.9684 7.01555 12.8437C6.99978 12.9109 6.99978 12.9109 6.98369 12.9794C6.81922 13.8209 6.79353 14.7881 7.27775 15.5224C7.44342 15.7367 7.62252 15.7976 7.87687 15.8701C7.96123 15.8971 8.04552 15.9242 8.12974 15.9516C8.17135 15.9649 8.21296 15.9781 8.25583 15.9918C8.62782 16.115 8.99574 16.268 9.32086 16.4881C9.89668 16.8724 10.3357 16.9433 11.0175 16.9101C11.1094 16.9076 11.2013 16.9054 11.2931 16.9034C11.4796 16.8988 11.666 16.8928 11.8524 16.8853C12.1114 16.8751 12.3704 16.869 12.6296 16.8642C12.921 16.8584 13.2124 16.852 13.5037 16.8429C13.5602 16.8412 13.6168 16.8395 13.675 16.8377C13.909 16.8255 14.1417 16.8039 14.3749 16.7812C14.3747 16.7032 14.3747 16.7032 14.3745 16.6236C14.3734 16.1326 14.374 15.6415 14.3763 15.1505C14.3774 14.8981 14.3779 14.6457 14.377 14.3932C14.3762 14.1495 14.377 13.9057 14.3788 13.662C14.3793 13.5691 14.3791 13.4763 14.3784 13.3834C14.3727 12.5643 14.3727 12.5643 14.5599 12.3439C14.6219 12.2902 14.6854 12.2381 14.7499 12.1875C14.8225 12.1145 14.8944 12.0407 14.9657 11.9664C15.0462 11.8859 15.1269 11.8055 15.2077 11.7251C15.272 11.6609 15.272 11.6609 15.3377 11.5953C15.4507 11.4826 15.5638 11.3699 15.6769 11.2573C15.7922 11.1425 15.9073 11.0275 16.0225 10.9126C16.2246 10.7109 16.4269 10.5094 16.6292 10.3079C16.706 10.2314 16.7827 10.1548 16.8593 10.0781C16.3342 9.27164 15.7935 8.52086 15.1249 7.82811C15.0946 7.79647 15.0642 7.76483 15.0329 7.73224C14.6049 7.28832 14.1686 6.88122 13.6718 6.51561C13.6469 6.49104 13.622 6.46646 13.5963 6.44114C13.4241 6.33943 13.2553 6.34751 13.0584 6.34313C12.9956 6.34159 12.9956 6.34159 12.9315 6.34003C12.8427 6.33829 12.7539 6.33698 12.6651 6.33606C12.5312 6.334 12.3977 6.32844 12.2639 6.3228C11.6818 6.3096 11.3398 6.40762 10.9262 6.82385ZM15.7343 12.3281C15.7343 12.3436 15.7343 12.3591 15.7343 12.375C16.2241 12.4774 16.8411 12.5842 17.2933 12.311C17.8077 11.9314 18.2441 11.4203 18.6405 10.9219C18.6405 10.9064 18.6405 10.8909 18.6405 10.875C17.2379 10.5818 16.5755 11.2705 15.7343 12.3281ZM19.4625 11.1912C19.4307 11.2234 19.3989 11.2555 19.3662 11.2886C19.2651 11.3912 19.1653 11.4949 19.0654 11.5986C18.9969 11.6683 18.9284 11.7379 18.8598 11.8075C18.7353 11.9344 18.6109 12.0614 18.4875 12.1894C18.4627 12.2151 18.4378 12.2408 18.4123 12.2673C18.3542 12.3206 18.3542 12.3206 18.3593 12.375C18.5159 12.3968 18.6368 12.4081 18.7732 12.3189C18.8655 12.2357 18.9517 12.1488 19.0373 12.0588C19.0691 12.0266 19.1009 11.9945 19.1337 11.9614C19.2347 11.8588 19.3346 11.7551 19.4345 11.6514C19.5029 11.5817 19.5714 11.5121 19.64 11.4425C19.7646 11.3156 19.889 11.1886 20.0124 11.0606C20.0372 11.0349 20.062 11.0092 20.0876 10.9827C20.1457 10.9294 20.1457 10.9294 20.1405 10.875C19.8016 10.8279 19.6813 10.9612 19.4625 11.1912ZM19.8593 12.3281C19.8593 12.3436 19.8593 12.3591 19.8593 12.375C20.3491 12.4774 20.9661 12.5842 21.4183 12.311C21.9327 11.9314 22.3691 11.4203 22.7655 10.9219C22.7655 10.9064 22.7655 10.8909 22.7655 10.875C21.3629 10.5818 20.7005 11.2705 19.8593 12.3281ZM22.6768 12.114C22.6093 12.1803 22.5414 12.2463 22.4732 12.3119C22.3749 12.4064 22.2778 12.502 22.1809 12.5978C22.1503 12.6269 22.1197 12.656 22.0881 12.6859C21.9355 12.8392 21.8788 12.9003 21.8558 13.1228C21.8621 13.1699 21.8684 13.2171 21.8749 13.2656C21.8964 13.2464 21.9179 13.2272 21.9401 13.2074C21.9689 13.1821 21.9976 13.1569 22.0273 13.1308C22.0555 13.1058 22.0838 13.0808 22.113 13.055C22.203 12.9844 22.203 12.9844 22.3905 12.8906C22.5452 13.0453 22.6999 13.2 22.8593 13.3594C22.7644 13.5491 22.7282 13.584 22.5616 13.6957C22.2175 13.956 21.8974 14.2129 21.8332 14.6583C21.7849 15.1919 21.826 15.7333 21.8749 16.2656C21.9171 16.2289 21.9593 16.1923 22.0028 16.1545C22.1112 16.0606 22.2207 15.9709 22.3345 15.8836C23.0408 15.3417 23.0408 15.3417 23.4065 14.5603C23.4613 14.1215 23.4349 13.6791 23.4053 13.2393C23.3936 13.0461 23.3886 12.8528 23.383 12.6594C23.3711 12.2828 23.352 11.9072 23.328 11.5312C23.1509 11.5312 22.8059 11.9867 22.6768 12.114ZM15.1249 13.125C15.1249 13.3725 15.1249 13.62 15.1249 13.875C15.7437 13.875 16.3624 13.875 16.9999 13.875C16.9999 13.6275 16.9999 13.38 16.9999 13.125C16.3812 13.125 15.7624 13.125 15.1249 13.125ZM17.7499 13.125C17.7499 14.3625 17.7499 15.6 17.7499 16.875C17.9974 16.875 18.2449 16.875 18.4999 16.875C18.4999 15.6375 18.4999 14.4 18.4999 13.125C18.2524 13.125 18.0049 13.125 17.7499 13.125ZM19.2499 13.125C19.2499 13.8675 19.2499 14.61 19.2499 15.375C19.6212 15.375 19.9924 15.375 20.3749 15.375C20.3749 15.6225 20.3749 15.87 20.3749 16.125C20.0037 16.125 19.6324 16.125 19.2499 16.125C19.2499 16.3725 19.2499 16.62 19.2499 16.875C19.8532 16.875 20.4565 16.875 21.078 16.875C21.078 16.1325 21.078 15.39 21.078 14.625C20.846 14.625 20.614 14.625 20.3749 14.625C20.3749 14.3775 20.3749 14.13 20.3749 13.875C20.607 13.875 20.839 13.875 21.078 13.875C21.078 13.6275 21.078 13.38 21.078 13.125C20.4748 13.125 19.8715 13.125 19.2499 13.125ZM15.1249 14.625C15.1249 15.3675 15.1249 16.11 15.1249 16.875C15.7437 16.875 16.3624 16.875 16.9999 16.875C16.9999 16.6275 16.9999 16.38 16.9999 16.125C16.6287 16.125 16.2574 16.125 15.8749 16.125C15.8749 15.8775 15.8749 15.63 15.8749 15.375C16.2462 15.375 16.6174 15.375 16.9999 15.375C16.9999 15.1275 16.9999 14.88 16.9999 14.625C16.3812 14.625 15.7624 14.625 15.1249 14.625ZM1.62492 15C1.62492 17.475 1.62492 19.95 1.62492 22.5C2.36742 22.5 3.10992 22.5 3.87492 22.5C3.87492 20.025 3.87492 17.55 3.87492 15C3.13242 15 2.38992 15 1.62492 15ZM4.6718 16.125C4.6718 17.8575 4.6718 19.59 4.6718 21.375C5.29828 21.4446 5.29828 21.4446 5.93742 21.5156C6.78221 21.6604 7.58851 21.8971 8.4075 22.1463C8.45123 22.1595 8.49496 22.1728 8.54002 22.1864C8.62211 22.2114 8.70413 22.2365 8.78608 22.2618C10.2809 22.716 11.6054 22.3661 12.9581 21.6976C13.1161 21.6196 13.2745 21.5424 13.4328 21.4653C13.4649 21.4496 13.497 21.434 13.53 21.4179C13.8371 21.2685 14.1467 21.125 14.457 20.9824C14.9916 20.7362 15.5212 20.4807 16.05 20.2222C16.5773 19.9646 17.1069 19.7133 17.6412 19.4706C18.3166 19.2125 18.3166 19.2125 18.828 18.75C18.8609 18.5092 18.8609 18.5092 18.7786 18.2898C18.6956 18.1879 18.6183 18.1061 18.4999 18.0469C18.1897 18.0223 17.9751 18.0877 17.6924 18.2104C17.6511 18.2277 17.6097 18.2451 17.5671 18.263C17.4776 18.3007 17.3882 18.3386 17.299 18.3767C17.1549 18.4379 17.0103 18.4973 16.8654 18.5564C16.4334 18.7338 16.0061 18.9129 15.5924 19.1302C13.8774 20.0299 12.137 19.9383 10.2499 19.875C10.2499 19.6275 10.2499 19.38 10.2499 19.125C10.3045 19.1257 10.3591 19.1265 10.4153 19.1272C10.6195 19.1298 10.8237 19.1314 11.0278 19.1327C11.1159 19.1334 11.204 19.1344 11.292 19.1356C11.4192 19.1373 11.5464 19.1381 11.6736 19.1387C11.7124 19.1394 11.7512 19.1402 11.7913 19.1409C12.0776 19.141 12.4004 19.1148 12.6232 18.9163C12.8128 18.6934 12.8447 18.544 12.841 18.2596C12.8218 18.0832 12.7585 17.9898 12.6405 17.8594C12.3946 17.6657 12.1962 17.6172 11.8887 17.6235C11.8428 17.6243 11.7969 17.625 11.7496 17.6258C11.7003 17.6266 11.6509 17.6274 11.6001 17.6283C11.4939 17.6288 11.3876 17.6292 11.2814 17.6294C11.1152 17.6297 10.9493 17.6308 10.7831 17.6345C10.025 17.6501 9.51783 17.5671 8.89423 17.1263C7.69277 16.3393 6.07027 16.125 4.6718 16.125ZM13.4843 17.625C13.4998 17.6714 13.5152 17.7178 13.5312 17.7656C13.5817 17.9679 13.5886 18.1675 13.5898 18.375C13.5904 18.4217 13.5904 18.4217 13.591 18.4693C13.5897 18.7007 13.5469 18.9023 13.4843 19.125C14.2244 18.8351 14.9594 18.5329 15.6936 18.2283C15.797 18.1854 15.9006 18.1426 16.0041 18.0998C16.1515 18.039 16.2988 17.9778 16.446 17.9165C16.491 17.898 16.5361 17.8794 16.5825 17.8603C16.6237 17.8431 16.665 17.8258 16.7076 17.808C16.7438 17.793 16.78 17.7779 16.8174 17.7625C16.9143 17.7206 16.9143 17.7206 16.9999 17.625C16.6038 17.6178 16.2078 17.6108 15.8117 17.6042C15.6277 17.6012 15.4437 17.598 15.2598 17.5946C15.082 17.5913 14.9042 17.5883 14.7264 17.5855C14.6588 17.5844 14.5913 17.5832 14.5237 17.5818C14.1735 17.5751 13.8318 17.5752 13.4843 17.625Z" fill="#FF8000"/>
<path d="M12.1249 8.25C12.3724 8.25 12.6199 8.25 12.8749 8.25C12.8749 8.51297 12.8749 8.77594 12.8749 9.04688C12.9677 9.06234 13.0605 9.07781 13.1562 9.09375C13.553 9.297 13.7906 9.58649 13.9706 9.9873C13.9999 10.125 13.9999 10.125 13.9999 10.5C13.7369 10.5 13.474 10.5 13.203 10.5C13.1847 10.4343 13.1663 10.3685 13.1474 10.3008C13.0815 10.1013 13.0109 10.0032 12.828 9.89062C12.654 9.80362 12.4554 9.82275 12.2655 9.84375C12.059 9.94514 11.9281 10.0499 11.8437 10.2656C11.8116 10.502 11.8167 10.6796 11.9228 10.8955C12.1288 11.1238 12.3352 11.1795 12.6317 11.2236C13.0737 11.2985 13.4572 11.4316 13.7379 11.8072C14.013 12.2282 14.0394 12.6359 13.9999 13.125C13.959 13.2832 13.8993 13.4091 13.8124 13.5469C13.796 13.576 13.7795 13.6051 13.7626 13.6351C13.6149 13.872 13.4059 14.034 13.1562 14.1562C13.0169 14.1795 13.0169 14.1795 12.8749 14.2031C12.8749 14.4661 12.8749 14.7291 12.8749 15C12.6274 15 12.3799 15 12.1249 15C12.1249 14.737 12.1249 14.4741 12.1249 14.2031C12.0321 14.1877 11.9393 14.1722 11.8437 14.1562C11.4468 13.953 11.2092 13.6635 11.0292 13.2627C10.9999 13.125 10.9999 13.125 10.9999 12.75C11.2629 12.75 11.5258 12.75 11.7968 12.75C11.8151 12.8157 11.8335 12.8815 11.8524 12.9492C11.9183 13.1487 11.9889 13.2468 12.1718 13.3594C12.3458 13.4464 12.5444 13.4273 12.7343 13.4062C12.9408 13.3049 13.0717 13.2001 13.1562 12.9844C13.1882 12.748 13.1831 12.5704 13.0771 12.3545C12.871 12.1262 12.6646 12.0705 12.3681 12.0264C11.9261 11.9515 11.5426 11.8184 11.2619 11.4428C10.9869 11.0218 10.9604 10.6141 10.9999 10.125C11.0408 9.96677 11.1005 9.84087 11.1874 9.70312C11.2038 9.674 11.2203 9.64488 11.2372 9.61487C11.3849 9.37797 11.5939 9.21595 11.8437 9.09375C11.9365 9.07828 12.0293 9.06281 12.1249 9.04688C12.1249 8.78391 12.1249 8.52094 12.1249 8.25Z" fill="#FF8000"/>
</g>
<defs>
<clipPath id="clip0_1017_18739">
<rect width="24" height="24" fill="white" transform="translate(0.5)"/>
</clipPath>
</defs>
</svg>
