<svg width="37" height="37" viewBox="0 0 37 37" fill="none" xmlns="http://www.w3.org/2000/svg">
<path d="M5.51768 3.18001C4.49814 3.51048 3.62627 4.40345 3.32393 5.43001C3.22549 5.77455 3.21143 7.05423 3.21143 17.6785C3.21143 29.1253 3.21846 29.5542 3.34502 29.9691C3.66846 31.0027 4.55439 31.8816 5.59502 32.1839C5.93252 32.2824 6.81846 32.2964 13.2239 32.2964H20.4731L20.8247 32.5847C21.9849 33.5409 23.2786 34.1456 24.7903 34.4339C25.5286 34.5745 26.9771 34.5816 27.7575 34.4409C31.006 33.8784 33.6005 31.4808 34.4864 28.2183C34.6552 27.6066 34.6692 27.4308 34.6763 26.1441C34.6763 24.8925 34.6552 24.6675 34.5145 24.105C34.1981 22.8956 33.6356 21.7706 32.8692 20.8144L32.4614 20.3081V13.0589C32.4614 6.65345 32.4474 5.76751 32.3489 5.43001C32.0466 4.38939 31.1677 3.50345 30.1341 3.18001C29.7192 3.05345 29.2974 3.04642 17.8153 3.05345C6.47393 3.05345 5.89736 3.06048 5.51768 3.18001ZM11.0864 8.91751C11.0864 12.412 11.0935 12.5456 11.2341 12.9253C11.431 13.4456 11.9372 13.9519 12.4575 14.1488C12.8442 14.2964 12.9497 14.2964 17.8364 14.2964C22.7231 14.2964 22.8286 14.2964 23.2153 14.1488C23.7356 13.9519 24.2419 13.4456 24.4388 12.9253C24.5794 12.5456 24.5864 12.412 24.5864 8.91048V5.28939L26.963 5.31048C29.1849 5.33158 29.3466 5.33861 29.5716 5.4722C29.881 5.65501 30.0638 5.90814 30.1411 6.25267C30.1833 6.40736 30.2114 9.19173 30.2114 12.5527V18.5785L29.6349 18.3324C28.5872 17.8824 27.856 17.7277 26.5903 17.6925C25.7255 17.6644 25.3177 17.6785 24.8325 17.7699C23.1591 18.0792 21.5841 18.8738 20.3747 20.0199C19.5239 20.8285 18.6169 22.2909 18.2372 23.4722C17.9067 24.4917 17.8153 25.1808 17.8575 26.4253C17.8927 27.6909 18.0474 28.4222 18.4974 29.4699L18.7435 30.0534L12.5419 30.0324C6.43174 30.0113 6.3333 30.0113 6.09424 29.8636C5.75674 29.6667 5.5458 29.3363 5.49658 28.9003C5.47549 28.6964 5.46143 23.5074 5.47549 17.355C5.49658 6.32298 5.49658 6.17533 5.63721 5.93626C5.81299 5.64095 6.07314 5.43704 6.38252 5.36673C6.51611 5.33861 7.62705 5.31048 8.85752 5.30345L11.0864 5.29642V8.91751ZM22.3364 8.67142V12.0464H17.8364H13.3364V8.67142V5.29642H17.8364H22.3364V8.67142ZM27.8208 20.1675C28.0739 20.2308 28.5942 20.4347 28.981 20.6245C31.9903 22.08 33.256 25.7363 31.7935 28.7597C29.8317 32.7886 24.4388 33.4495 21.5419 30.0113C21.0286 29.3995 20.4942 28.3238 20.2974 27.5152C20.1075 26.6995 20.1075 25.5183 20.2974 24.7027C20.5997 23.4511 21.3872 22.1925 22.3927 21.3558C22.927 20.9128 24.052 20.3363 24.7271 20.1605C25.6481 19.9214 26.8786 19.9214 27.8208 20.1675Z" fill="#F44336"/>
<path d="M8.21768 21.1875C7.88018 21.3984 7.71143 21.7148 7.71143 22.1719C7.71143 22.6289 7.88018 22.9453 8.21768 23.1562C8.43564 23.2898 8.57627 23.2969 10.5239 23.2969C12.4716 23.2969 12.6122 23.2898 12.8302 23.1562C13.1677 22.9453 13.3364 22.6289 13.3364 22.1719C13.3364 21.7148 13.1677 21.3984 12.8302 21.1875C12.6122 21.0539 12.4716 21.0469 10.5239 21.0469C8.57627 21.0469 8.43564 21.0539 8.21768 21.1875Z" fill="#F44336"/>
<path d="M8.21768 25.6875C7.88018 25.8984 7.71143 26.2148 7.71143 26.6719C7.71143 27.1289 7.88018 27.4453 8.21768 27.6562C8.44268 27.7898 8.5833 27.7969 11.6489 27.7969C14.7146 27.7969 14.8552 27.7898 15.0802 27.6562C15.4177 27.4453 15.5864 27.1289 15.5864 26.6719C15.5864 26.2148 15.4177 25.8984 15.0802 25.6875C14.8552 25.5539 14.7146 25.5469 11.6489 25.5469C8.5833 25.5469 8.44268 25.5539 8.21768 25.6875Z" fill="#F44336"/>
<path d="M25.6558 21.7495C25.5293 21.8268 25.3676 21.9886 25.2902 22.1151C25.1496 22.3331 25.1496 22.4456 25.1637 24.3511C25.1848 26.3057 25.1918 26.362 25.3535 26.6714C25.5293 27.0159 27.6668 29.2237 27.9762 29.3854C28.2223 29.512 28.8269 29.512 29.0871 29.3784C29.5371 29.1464 29.7832 28.5768 29.6426 28.0565C29.5793 27.8104 29.3824 27.5714 28.4824 26.6714L27.3996 25.5745V23.9643C27.3996 22.4737 27.3855 22.3261 27.259 22.1151C27.1816 21.9886 27.0199 21.8268 26.8933 21.7495C26.5769 21.5597 25.9723 21.5597 25.6558 21.7495Z" fill="#F44336"/>
</svg>
