<svg width="36" height="37" viewBox="0 0 36 37" fill="none" xmlns="http://www.w3.org/2000/svg">
<g clip-path="url(#clip0_1_19072)">
<path d="M14.9766 1.29609C13.2539 1.47187 11.1516 2.07656 9.54844 2.85703C4.40156 5.36719 0.970311 10.3242 0.414842 16.0547C0.309374 17.2008 0.372655 19.1344 0.555467 20.2383C1.2164 24.1688 3.24844 27.6984 6.31406 30.2648C8.59219 32.1633 11.4539 33.4289 14.4844 33.8859C15.3562 34.0195 17.3391 34.0547 18.3234 33.9633L18.893 33.9141L18.9352 34.35C19.0266 35.2711 19.3922 35.8688 20.1164 36.2695L20.4961 36.4805H27.3164H34.1367L34.4883 36.3047C34.9664 36.0727 35.3953 35.6086 35.5711 35.1375C35.7047 34.7859 35.7187 34.6031 35.7187 33.0492C35.7187 31.5797 35.6977 31.3125 35.5922 31.0734C35.4727 30.8063 35.4727 30.7781 35.5922 30.4406C35.6977 30.1383 35.7117 29.8219 35.7117 28.4297C35.7117 27.0023 35.6977 26.7422 35.5922 26.5031C35.4727 26.2359 35.4727 26.2078 35.5992 25.8422C35.7117 25.4977 35.7258 25.2586 35.7047 23.7961L35.6836 22.1367L35.4867 21.7641C35.0648 20.9555 34.418 20.5547 33.4758 20.4984L32.8922 20.4633L32.9344 20.2102C33.5109 16.8422 33.0187 13.4883 31.5 10.3875C29.8969 7.13203 27.2742 4.50938 24.0117 2.90625C22.3031 2.06953 20.2289 1.47187 18.3586 1.28906C17.5148 1.20469 15.8344 1.21172 14.9766 1.29609ZM18.5414 3.64453C20.0953 3.84844 21.4594 4.24922 22.8867 4.94531C26.325 6.60469 28.9617 9.62109 30.15 13.2422C30.8742 15.443 31.057 17.9672 30.6492 20.0766L30.5648 20.4773L25.5305 20.4984L20.4961 20.5195L20.0953 20.7164C19.6031 20.9555 19.1742 21.4266 19.0055 21.9117C18.9 22.2281 18.8789 22.5234 18.8789 24C18.8789 25.5188 18.893 25.7508 19.0055 25.9547C19.125 26.1727 19.125 26.1938 18.9773 26.6719C18.8437 27.1148 18.8367 27.2906 18.8578 28.725C18.8789 30.0539 18.9 30.3281 19.0055 30.518C19.118 30.7219 19.118 30.7781 19.0195 31.1438C18.9633 31.3617 18.907 31.5586 18.8859 31.5727C18.8719 31.5867 18.3797 31.6359 17.7961 31.6852C15.9469 31.8258 14.2172 31.6008 12.382 30.9891C8.69765 29.7656 5.70234 27.1148 4.02187 23.5922C3.05156 21.5531 2.60859 19.3805 2.69297 17.1094C2.77734 14.9438 3.24844 13.1367 4.22578 11.2313C6.91875 5.98594 12.7406 2.89922 18.5414 3.64453ZM33.3281 23.9297V25.0547H27.2461H21.1641V23.9297V22.8047H27.2461H33.3281V23.9297ZM33.3281 28.5V29.625H27.2461H21.1641V28.5V27.375H27.2461H33.3281V28.5ZM33.3281 33.0703V34.1953H27.2461H21.1641V33.0703V31.9453H27.2461H33.3281V33.0703Z" fill="#FF9800"/>
<path d="M16.0313 12.2227V18.7266H20.0742H24.1172V17.5664V16.4062H21.2344H18.3516V11.0625V5.71875H17.1914H16.0313V12.2227Z" fill="#FF9800"/>
</g>
<defs>
<clipPath id="clip0_1_19072">
<rect width="36" height="36" fill="white" transform="translate(0 0.867188)"/>
</clipPath>
</defs>
</svg>
