<svg width="25" height="25" viewBox="0 0 25 25" fill="none" xmlns="http://www.w3.org/2000/svg">
<path d="M20.3672 7.18674H16.4991C16.6976 7.06212 16.8857 6.92167 17.0616 6.76674C17.3268 6.53042 17.5405 6.24194 17.6892 5.91933C17.8379 5.59672 17.9185 5.2469 17.9259 4.89174C17.9374 4.50104 17.8691 4.1121 17.725 3.74876C17.5809 3.38541 17.3642 3.0553 17.0881 2.77865C16.8119 2.502 16.4822 2.28463 16.1192 2.13987C15.7561 1.9951 15.3673 1.92598 14.9766 1.93674C14.6214 1.94418 14.2716 2.02478 13.949 2.1735C13.6264 2.32223 13.3379 2.53588 13.1016 2.80112C12.6673 3.3136 12.3334 3.90323 12.1172 4.53924C11.9015 3.90371 11.5682 3.31441 11.1347 2.80205C10.8982 2.53642 10.6095 2.32246 10.2865 2.17356C9.96358 2.02466 9.61336 1.94404 9.25781 1.93674C8.86686 1.92547 8.47773 1.99417 8.11428 2.13865C7.75083 2.28313 7.42072 2.50033 7.14421 2.77693C6.86769 3.05353 6.6506 3.38371 6.50623 3.7472C6.36187 4.1107 6.29329 4.49986 6.30469 4.8908C6.31213 5.24597 6.39273 5.59578 6.54145 5.91839C6.69017 6.241 6.90383 6.52948 7.16906 6.7658C7.34484 6.92086 7.53296 7.06132 7.73156 7.1858H3.86719C3.69475 7.1858 3.524 7.21978 3.3647 7.2858C3.2054 7.35182 3.06067 7.44858 2.93878 7.57056C2.81689 7.69253 2.72023 7.83733 2.65433 7.99668C2.58842 8.15603 2.55456 8.3268 2.55469 8.49924V11.4992C2.55469 11.8473 2.69297 12.1812 2.93911 12.4273C3.18525 12.6735 3.51909 12.8117 3.86719 12.8117H4.05469V18.9992C4.05469 19.3473 4.19297 19.6812 4.43911 19.9273C4.68525 20.1735 5.01909 20.3117 5.36719 20.3117H18.8672C19.2153 20.3117 19.5491 20.1735 19.7953 19.9273C20.0414 19.6812 20.1797 19.3473 20.1797 18.9992V12.8117H20.3672C20.7153 12.8117 21.0491 12.6735 21.2953 12.4273C21.5414 12.1812 21.6797 11.8473 21.6797 11.4992V8.49924C21.6797 8.15114 21.5414 7.8173 21.2953 7.57116C21.0491 7.32502 20.7153 7.18674 20.3672 7.18674ZM12.8456 6.15549C13.0566 5.01924 13.4353 4.11643 13.9416 3.54455C14.077 3.39504 14.2418 3.27502 14.4257 3.19195C14.6096 3.10889 14.8086 3.06457 15.0103 3.06174H15.0619C15.2951 3.06177 15.526 3.10858 15.7408 3.19942C15.9556 3.29026 16.15 3.42327 16.3125 3.59058C16.475 3.75789 16.6023 3.95609 16.6869 4.17347C16.7714 4.39085 16.8115 4.62298 16.8047 4.85612C16.8015 5.05806 16.7567 5.25719 16.6732 5.44107C16.5896 5.62495 16.4691 5.78964 16.3191 5.92487C15.3141 6.81174 13.6097 7.07705 12.7116 7.15393C12.735 6.88299 12.7734 6.53799 12.8456 6.15549ZM7.94063 3.57268C8.26791 3.24673 8.7106 3.06312 9.1725 3.06174H9.22406C9.42601 3.06492 9.62514 3.10969 9.80902 3.19324C9.9929 3.27679 10.1576 3.39734 10.2928 3.54737C11.1797 4.55237 11.445 6.25674 11.5219 7.15487C11.2509 7.13143 10.9059 7.09111 10.5272 7.0208C9.39094 6.81174 8.48813 6.43111 7.91625 5.92393C7.76599 5.78904 7.64522 5.62456 7.56149 5.44082C7.47776 5.25707 7.43289 5.05801 7.42969 4.85612C7.42322 4.6187 7.46519 4.38246 7.55303 4.1618C7.64088 3.94114 7.77276 3.74069 7.94063 3.57268ZM3.67969 11.4992V8.49924C3.67969 8.44951 3.69944 8.40182 3.73461 8.36666C3.76977 8.33149 3.81746 8.31174 3.86719 8.31174H11.5547V11.6867H3.86719C3.81746 11.6867 3.76977 11.667 3.73461 11.6318C3.69944 11.5967 3.67969 11.549 3.67969 11.4992ZM5.17969 18.9992V12.8117H11.5547V19.1867H5.36719C5.31746 19.1867 5.26977 19.167 5.23461 19.1318C5.19944 19.0967 5.17969 19.049 5.17969 18.9992ZM19.0547 18.9992C19.0547 19.049 19.0349 19.0967 18.9998 19.1318C18.9646 19.167 18.9169 19.1867 18.8672 19.1867H12.6797V12.8117H19.0547V18.9992ZM20.5547 11.4992C20.5547 11.549 20.5349 11.5967 20.4998 11.6318C20.4646 11.667 20.4169 11.6867 20.3672 11.6867H12.6797V8.31174H20.3672C20.4169 8.31174 20.4646 8.33149 20.4998 8.36666C20.5349 8.40182 20.5547 8.44951 20.5547 8.49924V11.4992Z" fill="#061F61"/>
</svg>
