<svg width="24" height="25" viewBox="0 0 24 25" fill="none" xmlns="http://www.w3.org/2000/svg">
<g clip-path="url(#clip0_1_4021)">
<g clip-path="url(#clip1_1_4021)">
<mask id="mask0_1_4021" style="mask-type:luminance" maskUnits="userSpaceOnUse" x="-1" y="0" width="25" height="25">
<path d="M-0.595703 0.386719H23.4043V24.3867H-0.595703V0.386719Z" fill="white"/>
</mask>
<g mask="url(#mask0_1_4021)">
<path d="M20.0124 18.4458C19.7115 18.1425 19.1991 17.7568 18.4753 17.2885C17.8458 16.8813 17.2824 16.5523 16.7851 16.3015C16.3062 16.0603 16.0333 15.9396 15.9666 15.9395C15.921 15.9395 15.7461 16.0525 15.442 16.2784C15.3971 16.3118 15.3309 16.362 15.2434 16.4289C14.8879 16.7007 14.6051 16.8831 14.3952 16.9759C13.9967 17.1523 13.58 17.1941 13.1452 17.1013C12.6671 16.9993 12.0747 16.7282 11.368 16.288C10.5973 15.808 9.88286 15.2399 9.22465 14.5838C8.56519 13.9264 7.98813 13.2069 7.49347 12.4253C7.03466 11.7003 6.75426 11.1003 6.65225 10.6251C6.56007 10.1957 6.60067 9.78393 6.77403 9.38981C6.86514 9.18271 7.04366 8.9045 7.30961 8.55518C7.38296 8.45883 7.43788 8.38583 7.47437 8.33615C7.67915 8.05732 7.7815 7.88874 7.7814 7.83041C7.78126 7.74521 7.66808 7.45939 7.44188 6.97295C7.23148 6.5216 6.90974 5.96664 6.47665 5.30806C6.01056 4.59929 5.6196 4.08956 5.30377 3.77885C5.13472 3.61187 5.00692 3.49281 4.92036 3.42166C4.88618 3.39356 4.85873 3.37287 4.83799 3.35958C4.83425 3.35719 4.832 3.35579 4.83125 3.3554C4.83653 3.35814 4.84319 3.36102 4.85123 3.36405C4.91972 3.38985 4.98989 3.39474 5.06172 3.37873L5.06368 3.37975C5.04736 3.38623 5.01434 3.40063 4.96459 3.42294C4.89433 3.45445 4.83724 3.47933 4.79333 3.49758C4.60526 3.57671 4.42021 3.6648 4.2382 3.76183C4.05617 3.85887 3.87897 3.96401 3.70658 4.07727C3.37101 4.30023 3.11367 4.50483 2.93456 4.69106C2.76358 4.86884 2.62429 5.07268 2.51671 5.30257C2.39105 5.57109 2.36773 5.96591 2.44675 6.48703C2.57176 7.31149 2.94813 8.2939 3.57586 9.43426C4.30866 10.7655 4.99459 11.8557 5.63365 12.7048C6.26859 13.5484 7.12048 14.5032 8.18934 15.5691C9.2114 16.5883 10.2019 17.4514 11.161 18.1586C12.0185 18.7908 13.0788 19.4611 14.3421 20.1696C15.5918 20.8695 16.6059 21.268 17.3844 21.3651C17.8003 21.417 18.1663 21.3693 18.4824 21.222C18.7145 21.114 18.9195 20.9749 19.0975 20.805C19.2847 20.6263 19.4901 20.369 19.7137 20.0332C19.8261 19.8629 19.9308 19.6869 20.028 19.5052C20.1251 19.3235 20.2137 19.1377 20.2938 18.9479C20.3115 18.9057 20.3361 18.8497 20.3676 18.7798C20.3899 18.7303 20.4043 18.6974 20.4108 18.6812L20.4115 18.6839C20.3953 18.7564 20.4002 18.8272 20.4263 18.8963C20.4294 18.9044 20.4323 18.9111 20.4351 18.9165C20.4347 18.9157 20.4334 18.9135 20.431 18.9097C20.4176 18.889 20.3969 18.8616 20.3687 18.8274C20.2974 18.7409 20.1791 18.6141 20.0124 18.4458ZM21.0777 17.3898C21.2765 17.5905 21.426 17.7517 21.5263 17.8734C21.6705 18.0484 21.7716 18.2127 21.8296 18.3663C21.9093 18.5771 21.9245 18.7923 21.8753 19.0119C21.8535 19.1091 21.8068 19.2372 21.735 19.3963C21.7092 19.4536 21.6895 19.4984 21.676 19.5308C21.578 19.7631 21.4695 19.9904 21.3507 20.2127C21.2318 20.435 21.1023 20.6522 20.9623 20.8643C20.6772 21.2927 20.4008 21.6346 20.1331 21.8901C19.8361 22.1736 19.497 22.4042 19.1158 22.5818C18.539 22.8504 17.9 22.941 17.1988 22.8535C16.2261 22.7323 15.0293 22.2737 13.6084 21.4779C12.2909 20.739 11.1783 20.035 10.2708 19.3659C9.25183 18.6145 8.20495 17.7029 7.13017 16.6312C6.01108 15.5153 5.11275 14.5071 4.43516 13.6068C3.75334 12.7009 3.02888 11.5511 2.26179 10.1576C1.54812 8.86113 1.11543 7.71256 0.963701 6.71189C0.83928 5.89132 0.904085 5.20961 1.15812 4.66678C1.33588 4.28692 1.56765 3.94841 1.85343 3.65127C2.10856 3.38599 2.45172 3.11012 2.88293 2.82364C3.09358 2.68524 3.31012 2.55675 3.53255 2.43818C3.75497 2.3196 3.98337 2.21101 4.21775 2.11241C4.24884 2.09949 4.29318 2.08011 4.35077 2.05428C4.51005 1.98285 4.63826 1.9363 4.73542 1.91465C4.95455 1.86581 5.16937 1.88102 5.37986 1.96029C5.5335 2.01814 5.69783 2.11901 5.87286 2.26289C5.99469 2.36303 6.15565 2.51192 6.35574 2.70957C6.74735 3.09484 7.20541 3.68627 7.72993 4.48388C8.20307 5.20335 8.56044 5.82221 8.80201 6.34047C8.96386 6.68851 9.07285 6.9382 9.12899 7.08955C9.23023 7.36247 9.28103 7.60859 9.2814 7.82793C9.28182 8.0805 9.21899 8.33344 9.09292 8.58676C9.01095 8.75146 8.8744 8.96392 8.68327 9.22414C8.6417 9.28074 8.58164 9.36063 8.50309 9.46381C8.30905 9.71868 8.19037 9.89534 8.14706 9.9938C8.10398 10.0917 8.09457 10.1972 8.11883 10.3102C8.18343 10.6112 8.39748 11.0488 8.76097 11.6232C9.19582 12.3103 9.70337 12.9431 10.2836 13.5215C10.8612 14.0972 11.487 14.595 12.161 15.0148C12.719 15.3624 13.1514 15.5689 13.4581 15.6343C13.576 15.6595 13.6861 15.6494 13.7884 15.6042C13.8897 15.5593 14.0711 15.437 14.3323 15.2373C14.4252 15.1662 14.4969 15.1119 14.5475 15.0743C14.8213 14.8709 15.0374 14.7275 15.1957 14.6443C15.4559 14.5075 15.7134 14.4393 15.9682 14.4395C16.1929 14.4398 16.4432 14.4962 16.7191 14.6089C16.8596 14.6662 17.1068 14.784 17.4606 14.9622C18.0057 15.2371 18.6155 15.5927 19.29 16.0291C20.1044 16.5559 20.7007 17.01 21.0777 17.3898Z" fill="#4B5563"/>
</g>
</g>
</g>
<defs>
<clipPath id="clip0_1_4021">
<rect width="24" height="24" fill="white" transform="translate(0 0.386719)"/>
</clipPath>
<clipPath id="clip1_1_4021">
<rect width="24" height="24" fill="white" transform="translate(-0.595703 0.386719)"/>
</clipPath>
</defs>
</svg>
