<svg width="20" height="20" viewBox="0 0 20 20" fill="none" xmlns="http://www.w3.org/2000/svg">
<path d="M18.3327 7.49935V12.4993C18.3327 12.6827 18.3327 12.866 18.316 13.041C17.6327 12.1994 16.591 11.666 15.416 11.666C14.5327 11.666 13.716 11.9743 13.0744 12.491C12.2077 13.1743 11.666 14.2327 11.666 15.416C11.666 16.591 12.1993 17.6327 13.041 18.316C12.866 18.3327 12.6827 18.3327 12.4993 18.3327H7.49935C3.33268 18.3327 1.66602 16.666 1.66602 12.4993V7.49935C1.66602 3.33268 3.33268 1.66602 7.49935 1.66602H12.4993C16.666 1.66602 18.3327 3.33268 18.3327 7.49935Z" stroke="#222222" stroke-linecap="round" stroke-linejoin="round"/>
<path d="M2.09961 5.92578H17.8996" stroke="#222222" stroke-linecap="round" stroke-linejoin="round"/>
<path d="M7.09961 1.75781V5.8078" stroke="#222222" stroke-linecap="round" stroke-linejoin="round"/>
<path d="M12.9004 1.75781V5.43284" stroke="#222222" stroke-linecap="round" stroke-linejoin="round"/>
<path d="M19.166 15.416C19.166 16.541 18.666 17.541 17.891 18.2327C17.2243 18.8077 16.366 19.166 15.416 19.166C14.516 19.166 13.6827 18.8493 13.041 18.316C12.1993 17.6327 11.666 16.591 11.666 15.416C11.666 14.2327 12.2077 13.1743 13.0744 12.491C13.716 11.9743 14.5327 11.666 15.416 11.666C16.591 11.666 17.6327 12.1994 18.316 13.041C18.8494 13.6827 19.166 14.516 19.166 15.416Z" stroke="#222222" stroke-miterlimit="10" stroke-linecap="round" stroke-linejoin="round"/>
<path d="M15.6491 14.2402V15.6486L14.4824 16.3485" stroke="#222222" stroke-miterlimit="10" stroke-linecap="round" stroke-linejoin="round"/>
</svg>
