<svg width="37" height="37" viewBox="0 0 37 37" fill="none" xmlns="http://www.w3.org/2000/svg">
<g clip-path="url(#clip0_2_50145)">
<path d="M3.68416 0.902153C2.77713 1.14825 1.76463 1.9709 1.36385 2.77246C0.941971 3.62325 0.963065 2.58262 0.963065 18.7967C0.963065 31.467 0.977127 33.724 1.06853 34.0475C1.399 35.299 2.46775 36.3607 3.74041 36.6982C4.26072 36.8389 33.6654 36.8389 34.1857 36.6982C35.4654 36.3607 36.5271 35.299 36.8646 34.0193C36.942 33.7311 36.9631 31.242 36.9631 20.4631C36.9631 11.5404 36.942 7.20918 36.8928 7.11778C36.6959 6.75215 37.6592 6.77324 20.7842 6.77324H5.16775L4.92869 7.01231C4.59119 7.34981 4.59119 7.74356 4.92869 8.08106L5.16775 8.32012H20.292H35.4162V20.8709V33.4146L35.2615 33.8225C35.0576 34.3639 34.5303 34.8912 33.9888 35.0951L33.581 35.2498H18.9631H4.3451L3.93728 35.0951C3.39588 34.8912 2.86853 34.3639 2.66463 33.8225L2.50994 33.4146V18.7967V4.17871L2.66463 3.7709C2.86853 3.2295 3.39588 2.70215 3.93728 2.49825L4.3451 2.34356H18.9209C33.4685 2.34356 33.5037 2.34356 33.9748 2.49121C34.8396 2.7584 35.4162 3.51778 35.4162 4.38965C35.4162 4.98028 35.6904 5.29668 36.2107 5.29668C36.492 5.29668 36.5834 5.26153 36.7592 5.09278C36.949 4.90293 36.9631 4.84668 36.9631 4.36856C36.9631 2.65997 35.9154 1.35215 34.1857 0.902153C33.8201 0.810745 32.0693 0.796684 18.8928 0.803715C6.79197 0.810745 3.95838 0.824806 3.68416 0.902153Z" fill="#F44336"/>
<path d="M5.13945 3.81328C4.90039 3.91875 4.68945 4.23516 4.68945 4.50234C4.68945 4.79063 4.85117 5.12813 5.03398 5.22656C5.11133 5.26172 5.63867 5.29688 6.23633 5.29688H7.30508L7.50898 5.09297C7.67773 4.91719 7.71289 4.82578 7.71289 4.54453C7.71289 4.24922 7.67773 4.16484 7.49492 3.98906L7.28398 3.78516L6.28555 3.77109C5.73711 3.76406 5.2168 3.78516 5.13945 3.81328Z" fill="#F44336"/>
<path d="M9.63945 3.81328C9.40039 3.91875 9.18945 4.23516 9.18945 4.50234C9.18945 4.79063 9.35117 5.12813 9.53398 5.22656C9.61133 5.26172 10.1387 5.29688 10.7363 5.29688H11.8051L12.009 5.09297C12.1777 4.91719 12.2129 4.82578 12.2129 4.54453C12.2129 4.24922 12.1777 4.16484 11.9949 3.98906L11.784 3.78516L10.7855 3.77109C10.2371 3.76406 9.7168 3.78516 9.63945 3.81328Z" fill="#F44336"/>
<path d="M31.2949 3.88359C30.866 4.14375 30.8098 4.74844 31.1754 5.11406C31.3582 5.29688 31.3653 5.29688 32.4621 5.29688C33.559 5.29688 33.566 5.29688 33.7489 5.11406C34.1145 4.74844 34.0582 4.14375 33.6293 3.88359C33.4465 3.77109 33.2637 3.75 32.4621 3.75C31.6606 3.75 31.4778 3.77109 31.2949 3.88359Z" fill="#F44336"/>
<path d="M24.236 10.5426C24.1376 10.5567 23.8212 10.6059 23.5329 10.6481C22.3798 10.8168 20.9595 11.4356 19.9259 12.2161C18.3579 13.3973 17.1977 15.2746 16.8181 17.2645C16.6704 18.0309 16.6704 19.5637 16.8181 20.3301C16.9516 21.0051 17.2681 21.9543 17.5774 22.559C18.1259 23.6489 19.1735 24.8653 20.1579 25.5614C22.9985 27.5653 26.8306 27.5793 29.6993 25.6036C30.4306 25.0973 30.7048 24.7739 30.7048 24.4153C30.7048 24.1832 30.6626 24.0848 30.4657 23.8879C30.1071 23.5293 29.6782 23.5575 29.2282 23.9653C28.6516 24.4856 27.5126 25.0692 26.6407 25.2942C24.8196 25.7723 22.8016 25.4207 21.2056 24.352C20.5446 23.909 19.6165 22.9317 19.2227 22.2567C17.1063 18.6637 18.6391 14.1356 22.4923 12.5746C23.2798 12.2582 24.011 12.1176 24.9251 12.1176C26.1415 12.1176 26.9571 12.3145 28.0329 12.8629C29.5306 13.6293 30.6977 14.9512 31.2673 16.5403C31.6821 17.6793 31.6962 17.8973 31.6751 24.4293L31.654 30.3426L31.422 30.5465L31.197 30.7504H18.9626H6.72821L6.50321 30.5465L6.27118 30.3426L6.25009 21.8981C6.23602 14.4309 6.25009 13.4254 6.34149 13.2426C6.56649 12.8067 6.36259 12.8207 11.9384 12.8207H17.0079L17.247 12.5817C17.4438 12.3848 17.486 12.2864 17.486 12.0473C17.486 11.8082 17.4438 11.7098 17.247 11.5129L17.0079 11.2739L11.6712 11.2879L6.34149 11.309L5.94071 11.5059C5.44852 11.752 5.01962 12.2161 4.82977 12.7293C4.68915 13.109 4.68915 13.1934 4.70321 21.9121L4.7243 30.7153L4.91415 31.0739C5.01962 31.2707 5.26571 31.5801 5.46259 31.7559C6.11649 32.3465 4.92821 32.2973 18.9626 32.2973C33.1798 32.2973 31.8368 32.3606 32.5399 31.6715C32.8282 31.3832 32.9759 31.1653 33.0884 30.87C33.236 30.4692 33.236 30.4059 33.236 24.3168C33.236 20.3301 33.2079 17.9817 33.1587 17.6301C32.6806 14.1778 30.0509 11.3864 26.6126 10.6832C26.0712 10.5707 24.5735 10.4793 24.236 10.5426Z" fill="#F44336"/>
<path d="M23.281 15.5766C22.1841 16.6805 21.9943 16.9055 21.9451 17.1375C21.8466 17.7 22.3037 18.1711 22.8591 18.0656C23.049 18.0305 23.2599 17.8828 23.6466 17.5172L24.1669 17.018V19.8375C24.1669 21.4266 24.1951 22.7273 24.2302 22.8258C24.3568 23.1492 24.5818 23.2969 24.9615 23.2969C25.2427 23.2969 25.3341 23.2617 25.5099 23.093L25.7138 22.8891V19.9148V16.9477L26.2622 17.482C26.9794 18.1781 27.324 18.2555 27.774 17.8266C27.9287 17.6789 27.9638 17.5875 27.9638 17.2922V16.9406L26.6419 15.6188L25.3201 14.2969H24.9404H24.5607L23.281 15.5766Z" fill="#F44336"/>
</g>
<defs>
<clipPath id="clip0_2_50145">
<rect width="36" height="36" fill="white" transform="translate(0.962891 0.796875)"/>
</clipPath>
</defs>
</svg>
