<svg width="25" height="24" viewBox="0 0 25 24" fill="none" xmlns="http://www.w3.org/2000/svg">
<path d="M12.1172 22C17.64 22 22.1172 17.5228 22.1172 12C22.1172 6.47715 17.64 2 12.1172 2C6.59434 2 2.11719 6.47715 2.11719 12C2.11719 17.5228 6.59434 22 12.1172 22Z" stroke="#061F61" stroke-width="1.5"/>
<path d="M12.1172 6V18M15.1172 9.5C15.1172 8.12 13.7742 7 12.1172 7C10.4602 7 9.11719 8.12 9.11719 9.5C9.11719 10.88 10.4602 12 12.1172 12C13.7742 12 15.1172 13.12 15.1172 14.5C15.1172 15.88 13.7742 17 12.1172 17C10.4602 17 9.11719 15.88 9.11719 14.5" stroke="#061F61" stroke-width="1.5" stroke-linecap="round"/>
</svg>
