<svg width="24" height="24" viewBox="0 0 24 24" fill="none" xmlns="http://www.w3.org/2000/svg">
<g clip-path="url(#clip0_1_791)">
<path fill-rule="evenodd" clip-rule="evenodd" d="M16.8331 18.509C17.2491 18.201 17.5401 17.754 17.6531 17.249C17.657 17.1834 17.648 17.1177 17.6265 17.0556C17.605 16.9934 17.5714 16.9362 17.5278 16.8871C17.4841 16.8379 17.4312 16.7979 17.3721 16.7692C17.3129 16.7406 17.2487 16.7238 17.1831 16.72H16.8431C15.8942 16.7343 14.9455 16.6775 14.0051 16.55L13.7451 16.06C13.5251 15.61 13.3051 15.191 13.0651 14.761C12.8251 14.331 12.7351 14.191 12.5451 13.911C12.4934 13.8404 12.4258 13.7829 12.3478 13.7431C12.2699 13.7034 12.1836 13.6824 12.0961 13.682C12.0091 13.6787 11.9227 13.6982 11.8456 13.7385C11.7684 13.7789 11.7031 13.8387 11.6561 13.912C11.4604 14.185 11.2801 14.4688 11.1161 14.762C10.8761 15.192 10.6671 15.611 10.4471 16.061L10.1771 16.541C9.21912 16.6677 8.25645 16.7243 7.28912 16.711H6.90912C6.77577 16.7211 6.65117 16.7812 6.56029 16.8793C6.46942 16.9774 6.41899 17.1063 6.41912 17.24C6.53912 17.747 6.83712 18.194 7.25912 18.499C7.84578 18.9677 8.46578 19.3877 9.11912 19.759C9.18445 19.7935 9.24469 19.8369 9.29812 19.888L9.23812 20.018C9.08812 20.378 8.48812 21.497 8.23812 22.187C8.17325 22.3836 8.14281 22.59 8.14812 22.797C8.15048 22.8671 8.16993 22.9355 8.20479 22.9963C8.23965 23.0572 8.28885 23.1085 8.34812 23.146C8.55388 23.2817 8.78838 23.3677 9.03308 23.3972C9.27778 23.4267 9.526 23.3989 9.75812 23.316C10.5833 22.9974 11.3447 22.5334 12.0061 21.946C12.6945 22.5149 13.4756 22.9614 14.3151 23.266C14.5495 23.3573 14.8013 23.3948 15.0521 23.3758C15.3029 23.3567 15.5462 23.2816 15.7641 23.156C15.8223 23.1126 15.8704 23.057 15.9049 22.9931C15.9395 22.9292 15.9597 22.8585 15.9641 22.786C15.9812 22.571 15.9469 22.3551 15.8641 22.156C15.6341 21.467 15.0341 20.348 14.8641 19.998V19.828L15.0041 19.748C15.6448 19.382 16.2548 18.9687 16.8341 18.508M13.8361 19.847C13.8948 20.027 13.9681 20.2003 14.0561 20.367C14.4748 21.095 14.8348 21.851 15.1361 22.635C14.7978 22.7084 14.4445 22.6624 14.1361 22.505C12.6361 21.915 12.2271 21.076 11.8271 21.356C11.242 21.84 10.6015 22.2529 9.91912 22.586C9.75732 22.6716 9.57926 22.7222 9.39659 22.7342C9.21393 22.7463 9.03077 22.7196 8.85912 22.656C9.18245 21.8593 9.56578 21.0927 10.0091 20.356C10.0951 20.1927 10.1684 20.023 10.2291 19.847C10.2578 19.7525 10.2578 19.6515 10.2291 19.557C10.2291 19.507 10.1091 19.377 9.88912 19.217C9.66912 19.057 8.81912 18.527 8.19912 18.038C8.06226 17.9332 7.93232 17.8196 7.81012 17.698C8.69112 17.728 9.57312 17.688 10.4481 17.578C10.6359 17.5235 10.8076 17.424 10.9481 17.288C11.1348 17.0613 11.2848 16.8117 11.3981 16.539C11.6181 16.119 11.8281 15.699 12.0581 15.29C12.2871 15.7 12.4971 16.12 12.7071 16.54C12.8238 16.8093 12.9738 17.059 13.1571 17.289C13.3031 17.427 13.4811 17.527 13.6771 17.579C14.5481 17.683 15.4271 17.723 16.3041 17.699L15.9041 18.039C15.2951 18.528 14.5561 18.978 14.2061 19.207C14.068 19.2967 13.9518 19.4164 13.8661 19.557C13.8407 19.6525 13.8442 19.7534 13.8761 19.847H13.8361ZM6.22012 20.947C6.18939 20.8794 6.13388 20.8261 6.06504 20.7982C5.9962 20.7703 5.91927 20.7699 5.85012 20.797C5.81577 20.8112 5.7846 20.8321 5.75841 20.8584C5.73223 20.8848 5.71155 20.9161 5.69759 20.9506C5.68363 20.985 5.67666 21.0219 5.67709 21.059C5.67753 21.0962 5.68535 21.1329 5.70012 21.167C5.95545 21.681 6.18212 22.2077 6.38012 22.747C6.16591 22.751 5.95477 22.6956 5.77012 22.587C5.30334 22.3562 4.86978 22.0635 4.48112 21.717C4.40106 21.6592 4.30484 21.6281 4.20612 21.6281C4.10739 21.6281 4.01118 21.6592 3.93112 21.717C3.57218 21.9922 3.19498 22.2428 2.80212 22.467C2.60609 22.6015 2.36856 22.6618 2.13212 22.637C2.38278 22.1763 2.65612 21.7297 2.95212 21.297C3.02212 21.1623 3.07878 21.0223 3.12212 20.877C3.1549 20.766 3.1549 20.648 3.12212 20.537C3.03942 20.394 2.92261 20.2738 2.78212 20.187C2.55212 20.037 2.04212 19.738 1.60312 19.408C2.07912 19.3773 2.54912 19.304 3.01312 19.188C3.1713 19.153 3.31443 19.069 3.42212 18.948C3.56212 18.7793 3.67212 18.593 3.75212 18.389C3.89212 18.089 4.03212 17.779 4.19212 17.479V17.419C4.36212 17.699 4.52212 17.999 4.68112 18.299C4.75812 18.486 4.86612 18.659 5.00112 18.809C5.09395 18.9056 5.21158 18.9748 5.34112 19.009C5.4185 19.0148 5.49544 18.9931 5.55842 18.9478C5.6214 18.9024 5.6664 18.8364 5.6855 18.7611C5.7046 18.6859 5.69658 18.6064 5.66286 18.5365C5.62914 18.4666 5.57187 18.4109 5.50112 18.379L5.28012 17.999C5.13012 17.669 4.98012 17.359 4.82012 17.059C4.70966 16.842 4.5861 16.632 4.45012 16.43C4.41498 16.3805 4.3685 16.3402 4.31456 16.3123C4.26063 16.2845 4.20081 16.27 4.14012 16.27C4.07788 16.2692 4.01636 16.2833 3.96069 16.3111C3.90502 16.339 3.85682 16.3797 3.82012 16.43C3.67454 16.625 3.54096 16.8287 3.42012 17.04C3.24278 17.342 3.07312 17.6487 2.91112 17.96L2.74112 18.259C2.05512 18.3097 1.36912 18.3097 0.683117 18.259H0.503117C0.425983 18.2614 0.350341 18.2809 0.281678 18.3161C0.213015 18.3513 0.153053 18.4014 0.106141 18.4626C0.059228 18.5239 0.0265414 18.5949 0.0104515 18.6703C-0.00563826 18.7458 -0.00472783 18.8239 0.0131168 18.899C0.0969764 19.2966 0.320474 19.651 0.643117 19.898C1.04845 20.2433 1.47812 20.5567 1.93212 20.838C1.62419 21.4037 1.36653 21.9953 1.16212 22.606C1.12786 22.7379 1.13227 22.8768 1.17482 23.0063C1.21738 23.1357 1.29628 23.2502 1.40212 23.336C1.58586 23.453 1.79316 23.528 2.00924 23.5557C2.22531 23.5833 2.44483 23.563 2.65212 23.496C3.2216 23.2538 3.74523 22.9156 4.20012 22.496C4.68706 22.8359 5.22331 23.0989 5.79012 23.276C5.97432 23.3404 6.17073 23.3621 6.36456 23.3396C6.55838 23.3171 6.74458 23.2509 6.90912 23.146C6.98567 23.0793 7.04145 22.992 7.06982 22.8945C7.09818 22.797 7.09794 22.6934 7.06912 22.596C6.8276 22.0097 6.54351 21.4418 6.21912 20.897L6.22012 20.947ZM23.9981 18.949C24.0036 18.8799 23.9951 18.8104 23.9733 18.7446C23.9515 18.6788 23.9167 18.618 23.8711 18.5658C23.8254 18.5136 23.7698 18.4711 23.7074 18.4407C23.6451 18.4104 23.5773 18.3928 23.5081 18.389H23.2581C22.5734 18.439 21.8875 18.439 21.2001 18.389L21.0301 18.089C20.8682 17.7779 20.6982 17.4711 20.5201 17.169C20.3992 16.9581 20.2657 16.7547 20.1201 16.56C20.0839 16.5106 20.0365 16.4704 19.9819 16.4427C19.9273 16.4151 19.8669 16.4006 19.8056 16.4006C19.7444 16.4006 19.684 16.4151 19.6293 16.4427C19.5747 16.4704 19.5273 16.5106 19.4911 16.56C19.3551 16.762 19.2318 16.972 19.1211 17.19C18.9611 17.49 18.8111 17.8 18.6611 18.13L18.4421 18.509C18.3714 18.5409 18.3141 18.5966 18.2804 18.6665C18.2466 18.7364 18.2386 18.8159 18.2577 18.8911C18.2768 18.9664 18.3218 19.0324 18.3848 19.0778C18.4478 19.1231 18.5247 19.1448 18.6021 19.139C18.7317 19.1048 18.8493 19.0356 18.9421 18.939C19.0767 18.7882 19.1848 18.6158 19.2621 18.429C19.4221 18.129 19.5821 17.829 19.7521 17.549V17.499C19.9111 17.799 20.0511 18.109 20.1911 18.409C20.2711 18.613 20.3811 18.7997 20.5211 18.969C20.6251 19.083 20.761 19.1632 20.9111 19.199C21.3911 19.291 21.8801 19.337 22.3691 19.339C21.9291 19.669 21.3701 19.968 21.1901 20.118C21.0496 20.2048 20.9328 20.325 20.8501 20.468C20.8173 20.579 20.8173 20.697 20.8501 20.808C20.8941 20.9527 20.9508 21.0927 21.0201 21.228C21.3161 21.6593 21.5894 22.1053 21.8401 22.566C21.6037 22.5908 21.3661 22.5305 21.1701 22.396C20.7773 22.1718 20.4001 21.9212 20.0411 21.646C19.9611 21.5882 19.8648 21.5571 19.7661 21.5571C19.6674 21.5571 19.5712 21.5882 19.4911 21.646C19.1025 21.9925 18.6689 22.2852 18.2021 22.516C18.0175 22.6246 17.8063 22.68 17.5921 22.676C17.7914 22.1373 18.0181 21.611 18.2721 21.097C18.2944 21.0458 18.3008 20.9891 18.2905 20.9343C18.2802 20.8794 18.2536 20.8289 18.2143 20.7893C18.175 20.7497 18.1247 20.7227 18.07 20.712C18.0152 20.7012 17.9585 20.7072 17.9071 20.729C17.8394 20.7578 17.7846 20.8104 17.7531 20.877C17.4256 21.4447 17.1414 22.0364 16.9031 22.647C16.8745 22.7442 16.8744 22.8476 16.9027 22.9449C16.9311 23.0422 16.9867 23.1294 17.0631 23.196C17.2278 23.301 17.4141 23.3673 17.6082 23.3898C17.8022 23.4124 17.9988 23.3905 18.1831 23.326C18.7498 23.1502 19.2856 22.8871 19.7711 22.546C20.2261 22.966 20.7501 23.305 21.3211 23.546C21.5281 23.6127 21.7473 23.6329 21.963 23.6052C22.1787 23.5776 22.3856 23.5027 22.5691 23.386C22.675 23.3002 22.7539 23.1857 22.7964 23.0563C22.839 22.9268 22.8434 22.7879 22.8091 22.656C22.6048 22.0449 22.3471 21.453 22.0391 20.887C22.5084 20.5883 22.9518 20.2553 23.3691 19.888C23.692 19.6407 23.9155 19.286 23.9991 18.888L23.9981 18.949Z" fill="#222222"/>
<path fill-rule="evenodd" clip-rule="evenodd" d="M2.6125 9.19534C2.7875 9.26534 2.9745 9.30234 3.1625 9.30534C3.11469 9.94261 3.14154 10.5833 3.2425 11.2143C3.3325 11.6543 3.4525 12.0873 3.6025 12.5133C3.8125 13.1533 4.0725 13.7623 4.2725 14.3923C4.28697 14.4533 4.31904 14.5087 4.36473 14.5517C4.41042 14.5946 4.46771 14.6232 4.52949 14.6338C4.59127 14.6445 4.65481 14.6367 4.71224 14.6116C4.76966 14.5864 4.81844 14.545 4.8525 14.4923C4.89902 14.4216 4.91656 14.3357 4.9015 14.2523C4.8212 13.5068 4.70103 12.766 4.5415 12.0333C4.4515 11.6033 4.3415 11.1833 4.2215 10.7643C4.1015 10.3443 3.9415 9.76434 3.8315 9.31434H19.4615C19.3515 9.80434 19.2015 10.3143 19.0615 10.7743C18.9215 11.2343 18.8415 11.6143 18.7415 12.0443C18.592 12.7781 18.4756 13.5181 18.3925 14.2623C18.3739 14.3459 18.3893 14.4334 18.4353 14.5056C18.4812 14.5778 18.554 14.6288 18.6375 14.6473C18.721 14.6659 18.8085 14.6505 18.8807 14.6046C18.9529 14.5586 19.0039 14.4859 19.0225 14.4023C19.2225 13.7723 19.4825 13.1623 19.6925 12.5223C19.8378 12.0977 19.9542 11.665 20.0415 11.2243C20.1515 10.5803 20.1815 9.92634 20.1315 9.27534H20.2515C20.6481 9.24051 21.0347 9.13199 21.3915 8.95534C21.5883 8.82979 21.7406 8.64538 21.8266 8.42833C21.9126 8.21127 21.9279 7.97263 21.8705 7.74634C21.8228 7.47874 21.721 7.22368 21.5715 6.99673C21.4219 6.76977 21.2276 6.57569 21.0005 6.42634C20.4746 6.31611 19.9389 6.25916 19.4015 6.25634C19.4875 5.58634 19.4325 4.90634 19.2415 4.25834C19.1341 3.90221 18.9722 3.56487 18.7615 3.25834C18.5472 2.94739 18.2761 2.6797 17.9625 2.46934C17.372 2.11565 16.6925 1.93866 16.0045 1.95934C15.8914 1.68113 15.7171 1.43196 15.4945 1.23034C15.1607 0.913214 14.7562 0.68012 14.3145 0.550336C13.7277 0.396067 13.1233 0.318752 12.5165 0.320336H11.2365C10.8075 0.320336 10.3875 0.320336 9.9685 0.380336C9.89245 0.385417 9.82119 0.419254 9.76918 0.474974C9.71718 0.530693 9.68833 0.604118 9.6885 0.680336C9.69104 0.719763 9.70134 0.7583 9.71882 0.793734C9.73629 0.829169 9.76059 0.860802 9.79033 0.886819C9.82006 0.912836 9.85464 0.932723 9.89208 0.945339C9.92952 0.957955 9.96908 0.963052 10.0085 0.960336H11.2475C11.6575 0.960336 12.0675 1.02034 12.4865 1.07034C13.0052 1.12467 13.5153 1.24221 14.0055 1.42034C14.2985 1.51834 14.5655 1.68234 14.7855 1.90034C14.9218 2.0198 15.0134 2.18198 15.0455 2.36034C15.0455 2.45034 14.9755 2.49034 14.8655 2.54034C14.6993 2.61723 14.5186 2.65812 14.3355 2.66034H13.2655L9.7785 2.77034C9.54517 2.78034 9.31517 2.76034 9.0885 2.71034C8.89292 2.67506 8.71011 2.58883 8.5585 2.46034C8.50678 2.38882 8.47491 2.30489 8.46613 2.21707C8.45734 2.12925 8.47196 2.04068 8.5085 1.96034C8.58296 1.67849 8.76167 1.43544 9.0085 1.28034C9.08276 1.23127 9.13449 1.15472 9.1523 1.06751C9.17012 0.980307 9.15256 0.889597 9.1035 0.815336C9.05443 0.741076 8.97788 0.689348 8.89067 0.671532C8.80347 0.653716 8.71276 0.671271 8.6385 0.720336C8.2125 0.980336 7.9045 1.39634 7.7795 1.88034C7.16997 2.03732 6.59191 2.29777 6.0705 2.65034C5.55186 3.03652 5.15035 3.55884 4.9105 4.15934C4.64523 4.83258 4.52626 5.55457 4.5615 6.27734C4.56435 6.34341 4.58896 6.40669 4.6315 6.45734C3.8115 6.45734 3.0225 6.45734 2.2935 6.55734C2.25546 6.55582 2.21754 6.56236 2.18221 6.57654C2.14688 6.59071 2.11494 6.6122 2.0885 6.63958C2.06206 6.66697 2.04171 6.69963 2.02879 6.73544C2.01586 6.77124 2.01065 6.80938 2.0135 6.84734C2.01864 6.92249 2.05283 6.99269 2.10882 7.04309C2.16482 7.09348 2.23822 7.12011 2.3135 7.11734H5.0705C7.2585 7.11734 9.5875 7.26734 11.5465 7.25734H18.0415C18.8875 7.248 19.7305 7.29134 20.5705 7.38734C20.6865 7.578 20.7865 7.77767 20.8705 7.98634C20.6339 8.08035 20.3844 8.13768 20.1305 8.15634C19.6592 8.20434 19.1858 8.22434 18.7105 8.21634L4.1205 8.59634C3.7105 8.66634 3.2915 8.66634 2.8815 8.59634C2.78294 8.54394 2.69643 8.47149 2.62754 8.38366C2.55865 8.29583 2.5089 8.19455 2.4815 8.08634V7.53634C2.48676 7.48426 2.47875 7.43169 2.45821 7.38354C2.43768 7.33539 2.40528 7.29323 2.36405 7.26098C2.32281 7.22873 2.27408 7.20745 2.22241 7.19912C2.17073 7.19079 2.11778 7.19568 2.0685 7.21334C2.00852 7.23381 1.95597 7.27164 1.91751 7.32203C1.87906 7.37241 1.85643 7.43308 1.8525 7.49634C1.83209 7.64897 1.81874 7.80247 1.8125 7.95634C1.8125 8.063 1.8325 8.16634 1.8725 8.26634C1.92021 8.46596 2.01122 8.65266 2.1391 8.8132C2.26698 8.97374 2.4286 9.1042 2.6125 9.19534ZM11.5375 6.36734C9.5975 6.44734 7.2995 6.36734 5.1415 6.44734C5.17544 6.41191 5.19655 6.36615 5.2015 6.31734C5.29855 5.71053 5.50887 5.12739 5.8215 4.59834C5.9475 4.37634 6.08717 4.163 6.2405 3.95834C6.39383 3.76367 6.5605 3.58034 6.7405 3.40834C7.06291 3.09209 7.41789 2.81086 7.7995 2.56934C7.8355 2.73334 7.9075 2.88634 8.0095 3.01934C8.1995 3.20534 8.4225 3.35134 8.6695 3.44934C9.0125 3.57134 9.3735 3.63934 9.7385 3.64934L13.2365 3.72934H14.4055C14.7196 3.70442 15.0273 3.62666 15.3155 3.49934C15.5056 3.42094 15.6733 3.29689 15.804 3.13815C15.9346 2.97942 16.0241 2.79092 16.0645 2.58934C16.5315 2.73934 16.9615 2.98834 17.3235 3.31934C17.5475 3.50134 17.7435 3.71734 17.9035 3.95934C18.0702 4.18334 18.2102 4.423 18.3235 4.67834C18.5405 5.18334 18.6755 5.71934 18.7225 6.26734H18.0625C15.7345 6.21734 12.6465 6.32734 11.5375 6.36734Z" fill="#222222"/>
<path fill-rule="evenodd" clip-rule="evenodd" d="M11.8963 9.6758C11.7763 9.6758 11.5763 9.6758 11.3763 10.8848C11.367 11.0181 11.367 11.1515 11.3763 11.2848V11.6948C11.5563 12.8338 11.7063 12.9538 11.9463 12.9438C12.1863 12.9338 12.2463 12.8138 12.3863 11.6838V11.2838C12.3963 11.1538 12.3963 11.0238 12.3863 10.8938C12.2263 9.6558 12.0063 9.6758 11.8963 9.6758ZM16.1543 10.1148C15.853 10.5308 15.6013 10.9805 15.4043 11.4548C15.3085 11.7376 15.2382 12.0284 15.1943 12.3238C15.1143 12.7538 15.0943 13.1838 15.0143 13.6238C14.9896 13.7046 14.9978 13.7918 15.0371 13.8666C15.0764 13.9413 15.1437 13.9975 15.2243 14.0228C15.2637 14.0368 15.3054 14.0427 15.3471 14.0402C15.3888 14.0376 15.4296 14.0267 15.4669 14.008C15.5043 13.9894 15.5375 13.9633 15.5645 13.9315C15.5916 13.8997 15.6119 13.8627 15.6243 13.8228C15.8243 13.4295 16.0043 13.0261 16.1643 12.6128C16.2323 12.4461 16.2923 12.2765 16.3443 12.1038C16.3443 11.9238 16.4343 11.7538 16.4643 11.5738C16.5443 11.1638 16.5643 10.7548 16.6643 10.3448C16.6952 10.2757 16.6978 10.1973 16.6716 10.1263C16.6455 10.0553 16.5926 9.99736 16.5243 9.9648C16.4902 9.95004 16.4535 9.94221 16.4164 9.94178C16.3792 9.94134 16.3423 9.94831 16.3079 9.96227C16.2734 9.97623 16.2421 9.99691 16.2158 10.0231C16.1894 10.0493 16.1685 10.0805 16.1543 10.1148ZM7.53031 10.1148C7.51709 10.0796 7.4969 10.0474 7.47096 10.0201C7.44501 9.99287 7.41384 9.97113 7.3793 9.95619C7.34477 9.94126 7.30758 9.93344 7.26995 9.9332C7.23232 9.93296 7.19504 9.94031 7.16031 9.9548C7.09202 9.98736 7.03915 10.0453 7.013 10.1163C6.98684 10.1873 6.98947 10.2657 7.02031 10.3348C7.12031 10.7448 7.15031 11.1548 7.22031 11.5648C7.22031 11.7448 7.30031 11.9148 7.35031 12.0948C7.40031 12.2738 7.46031 12.4338 7.52031 12.6038C7.67965 13.0158 7.85931 13.4188 8.05931 13.8128C8.08583 13.8937 8.1434 13.9607 8.21935 13.9992C8.29531 14.0376 8.38342 14.0443 8.46431 14.0178C8.5452 13.9913 8.61225 13.9337 8.65069 13.8578C8.68914 13.7818 8.69583 13.6937 8.66931 13.6128C8.58931 13.1728 8.57931 12.7428 8.49931 12.3138C8.4478 12.0187 8.37426 11.7279 8.27931 11.4438C8.0869 10.9707 7.83486 10.5241 7.52931 10.1148" fill="#222222"/>
</g>
<defs>
<clipPath id="clip0_1_791">
<rect width="24" height="24" fill="white"/>
</clipPath>
</defs>
</svg>
