<svg width="36" height="37" viewBox="0 0 36 37" fill="none" xmlns="http://www.w3.org/2000/svg">
<path d="M2.95312 2.24525C1.98984 2.49838 1.32187 3.28588 1.20937 4.29838C1.18125 4.55853 1.17422 8.70697 1.19531 13.5234L1.23047 22.2773L1.39922 22.5937C1.65937 23.0859 1.82812 23.2828 2.20781 23.5429C2.925 24.0351 1.83515 23.9999 18 23.9999C34.193 23.9999 33.068 24.0351 33.7992 23.5359C34.0031 23.3953 34.2633 23.1421 34.3758 22.9663C34.8328 22.2773 34.8117 22.9031 34.7906 12.9187L34.7695 3.85541L34.5727 3.48275C34.3125 2.99056 33.9328 2.61791 33.4266 2.37181L33.0117 2.16791L18.1758 2.15385C5.32265 2.13978 3.29062 2.15385 2.95312 2.24525ZM6.46875 4.47416C6.46875 4.72728 6.27187 5.41635 6.11015 5.73275C5.92734 6.08431 5.33672 6.73119 4.97812 6.95619C4.64062 7.17416 3.9375 7.40619 3.62109 7.40619H3.375V5.94369C3.375 4.90306 3.39609 4.4601 3.45937 4.39681C3.52265 4.33353 3.96562 4.31244 5.00625 4.31244H6.46875V4.47416ZM27.3797 4.74838C27.5062 5.90853 27.8578 6.78041 28.5398 7.63822C29.4469 8.77728 31.0008 9.57885 32.3297 9.58588H32.6953V13.0663V16.5468H32.2875C32.0555 16.5468 31.6336 16.6101 31.3312 16.6874C29.1656 17.2429 27.6047 19.0781 27.3797 21.3281L27.3305 21.8203H18.007H8.67656L8.59218 21.1874C8.31093 19.1203 6.94687 17.4257 5.02734 16.7859C4.71093 16.6804 4.22578 16.582 3.92343 16.5609L3.375 16.5257V13.0593V9.58588H3.69843C4.56328 9.58588 5.92031 9.0515 6.72187 8.3976C7.72031 7.58197 8.40937 6.30931 8.59218 4.93119L8.67656 4.31244H18.007H27.3305L27.3797 4.74838ZM32.5828 4.46713C32.6742 4.60072 32.6953 4.87494 32.6953 6.0351V7.44838L32.2945 7.39916C31.8094 7.33588 31.4016 7.19525 31.0359 6.96322C30.6703 6.73119 30.0727 6.09134 29.8898 5.73275C29.7281 5.41635 29.5312 4.72728 29.5312 4.47416V4.31244H31.0008C32.4492 4.31244 32.4773 4.31244 32.5828 4.46713ZM4.6125 19.0007C5.1539 19.2538 5.80781 19.8515 6.06797 20.3296C6.25781 20.6812 6.46875 21.3773 6.46875 21.6585V21.8203H5.00625C3.96562 21.8203 3.52265 21.7992 3.45937 21.7359C3.39609 21.6726 3.375 21.2296 3.375 20.182V18.7054L3.76875 18.7476C3.97968 18.7687 4.35937 18.8812 4.6125 19.0007ZM32.6812 20.1538C32.6672 21.2437 32.6391 21.6163 32.5617 21.7007C32.4773 21.8062 32.2805 21.8203 31.0008 21.8203H29.5312V21.6585C29.5312 21.3703 29.7422 20.6671 29.932 20.3437C30.15 19.957 30.6703 19.4015 31.0219 19.1765C31.3805 18.9445 32.0414 18.7335 32.4 18.7265H32.7023L32.6812 20.1538Z" fill="#4CAF50"/>
<path d="M17.4023 6.14766C15.75 6.27422 14.182 7.00547 13.0359 8.19375C12.1711 9.08672 11.5805 10.1344 11.2359 11.4C11.0109 12.2156 11.018 13.9523 11.243 14.7891C11.4187 15.457 11.8898 16.5047 12.2414 17.0109C12.9305 18.0164 14.2453 19.0781 15.3 19.4859C16.4109 19.9148 16.664 19.957 18.0351 19.957C19.139 19.957 19.3711 19.9359 19.8492 19.7953C21.818 19.2328 23.4281 17.8687 24.293 16.0406C24.6937 15.1898 24.8906 14.3953 24.9398 13.3828C25.0734 10.6336 23.6461 8.16562 21.1922 6.89297C19.9125 6.23906 18.8859 6.03516 17.4023 6.14766ZM19.3851 8.49609C21.3258 9.10781 22.6547 10.8094 22.7601 12.8273C22.8094 13.7062 22.6617 14.3812 22.2328 15.232C21.6351 16.4414 20.4539 17.3766 19.125 17.7211C18.5273 17.8687 17.4726 17.8687 16.875 17.7211C15.3 17.3133 13.964 16.0758 13.4437 14.5219C13.282 14.0508 13.2609 13.8609 13.2609 13.0664C13.2539 12.2508 13.275 12.0961 13.4437 11.618C14.0695 9.84609 15.539 8.60156 17.332 8.32734C17.9226 8.23594 18.7875 8.30625 19.3851 8.49609Z" fill="#4CAF50"/>
<path d="M33.4406 26.4961C33.068 26.6297 32.7797 26.925 32.7234 27.2273C32.7023 27.368 32.632 27.5508 32.5828 27.6352L32.4844 27.7969H18.007C6.27891 27.7969 3.51562 27.7828 3.45938 27.7055C3.41719 27.6562 3.35391 27.4875 3.31875 27.3258C3.19219 26.7633 2.83359 26.4609 2.29922 26.4609C1.89844 26.4609 1.63125 26.5875 1.37813 26.8828C1.22344 27.0727 1.19531 27.1711 1.19531 27.5508C1.19531 28.4789 1.71563 29.2805 2.5875 29.7094L3.05859 29.9414H17.9648C32.4563 29.9414 32.8852 29.9344 33.2578 29.8078C33.7922 29.618 34.4461 28.9711 34.65 28.4086C34.8398 27.9023 34.8539 27.2414 34.6852 26.9391C34.4391 26.5242 33.8977 26.3273 33.4406 26.4961Z" fill="#4CAF50"/>
<path d="M33.4406 32.1211C33.068 32.2547 32.7797 32.55 32.7234 32.8523C32.7023 32.993 32.632 33.1758 32.5828 33.2602L32.4844 33.4219H18.007C6.27891 33.4219 3.51562 33.4078 3.45938 33.3305C3.41719 33.2812 3.35391 33.1125 3.31875 32.9508C3.19219 32.3883 2.83359 32.0859 2.29922 32.0859C1.89844 32.0859 1.63125 32.2125 1.37813 32.5078C1.22344 32.6977 1.19531 32.7961 1.19531 33.1758C1.19531 34.1039 1.71563 34.9055 2.5875 35.3344L3.05859 35.5664H17.9648C32.4563 35.5664 32.8852 35.5594 33.2578 35.4328C33.7922 35.243 34.4461 34.5961 34.65 34.0336C34.8398 33.5273 34.8539 32.8664 34.6852 32.5641C34.4391 32.1492 33.8977 31.9523 33.4406 32.1211Z" fill="#4CAF50"/>
</svg>
