<svg width="24" height="24" viewBox="0 0 24 24" fill="none" xmlns="http://www.w3.org/2000/svg">
<g clip-path="url(#clip0_4401_13781)">
<path d="M0.865169 -0.023126C0.904348 -0.0233985 0.943526 -0.023671 0.983892 -0.0239518C1.11549 -0.0246374 1.24705 -0.0239848 1.37864 -0.0233402C1.47381 -0.0235562 1.56898 -0.023854 1.66415 -0.0242266C1.92593 -0.0250109 2.18769 -0.0246217 2.44947 -0.0240417C2.73168 -0.0236183 3.01389 -0.0242718 3.2961 -0.0247879C3.81708 -0.0255744 4.33806 -0.0255049 4.85904 -0.024992C5.34031 -0.0245205 5.82158 -0.0243971 6.30285 -0.0246212C6.35072 -0.0246427 6.35072 -0.0246427 6.39956 -0.0246646C6.5291 -0.024723 6.65864 -0.0247827 6.78818 -0.0248446C8.00359 -0.0254183 9.21901 -0.024898 10.4344 -0.0238889C11.5145 -0.0229991 12.5945 -0.0230787 13.6745 -0.0239754C14.8877 -0.0249792 16.1009 -0.0253776 17.3141 -0.0247981C17.4434 -0.0247379 17.5727 -0.0246793 17.702 -0.0246212C17.7338 -0.0246064 17.7657 -0.0245916 17.7985 -0.0245763C18.2795 -0.024363 18.7605 -0.0246126 19.2415 -0.0250862C19.7883 -0.0256219 20.3352 -0.025471 20.882 -0.024471C21.1612 -0.0239774 21.4403 -0.0237867 21.7195 -0.0244052C21.9748 -0.0249625 22.2302 -0.0246592 22.4855 -0.0236594C22.5781 -0.0234494 22.6706 -0.0235579 22.7632 -0.0240112C22.8887 -0.0245789 23.0142 -0.0239991 23.1397 -0.023126C23.1759 -0.023565 23.212 -0.0240039 23.2493 -0.0244562C23.4925 -0.0210604 23.6309 0.0296475 23.8149 0.187969C24.0013 0.40471 24.0294 0.586216 24.026 0.863216C24.0263 0.902395 24.0266 0.941573 24.0268 0.981939C24.0275 1.11354 24.0269 1.24509 24.0262 1.37669C24.0264 1.47186 24.0267 1.56703 24.0271 1.6622C24.0279 1.92398 24.0275 2.18574 24.0269 2.44751C24.0265 2.72973 24.0272 3.01194 24.0277 3.29415C24.0285 3.81513 24.0284 4.3361 24.0279 4.85708C24.0274 5.33836 24.0273 5.81963 24.0275 6.3009C24.0275 6.34877 24.0275 6.34877 24.0276 6.3976C24.0276 6.52714 24.0277 6.65668 24.0277 6.78622C24.0283 8.00164 24.0278 9.21705 24.0268 10.4325C24.0259 11.5125 24.026 12.5925 24.0269 13.6726C24.0279 14.8858 24.0283 16.0989 24.0277 17.3121C24.0276 17.4414 24.0276 17.5707 24.0275 17.7C24.0275 17.7319 24.0275 17.7637 24.0275 17.7965C24.0273 18.2775 24.0275 18.7585 24.028 19.2395C24.0285 19.7864 24.0284 20.3332 24.0274 20.8801C24.0269 21.1592 24.0267 21.4384 24.0273 21.7175C24.0279 21.9729 24.0276 22.2282 24.0266 22.4836C24.0263 22.5761 24.0264 22.6687 24.0269 22.7612C24.0275 22.8868 24.0269 23.0122 24.026 23.1377C24.0265 23.1739 24.0269 23.2101 24.0273 23.2474C24.024 23.4906 23.9732 23.6289 23.8149 23.813C23.5982 23.9994 23.4167 24.0274 23.1397 24.0241C23.1005 24.0243 23.0613 24.0246 23.021 24.0249C22.8894 24.0256 22.7578 24.0249 22.6262 24.0243C22.531 24.0245 22.4359 24.0248 22.3407 24.0252C22.0789 24.026 21.8172 24.0256 21.5554 24.025C21.2732 24.0246 20.991 24.0252 20.7087 24.0257C20.1878 24.0265 19.6668 24.0264 19.1458 24.0259C18.6645 24.0255 18.1833 24.0253 17.702 24.0256C17.6701 24.0256 17.6382 24.0256 17.6053 24.0256C17.4757 24.0257 17.3462 24.0257 17.2167 24.0258C16.0013 24.0264 14.7858 24.0258 13.5704 24.0248C12.4904 24.0239 11.4103 24.024 10.3303 24.0249C9.11712 24.0259 7.90395 24.0263 6.69077 24.0257C6.56146 24.0257 6.43216 24.0256 6.30285 24.0256C6.27101 24.0255 6.23917 24.0255 6.20637 24.0255C5.72538 24.0253 5.24439 24.0256 4.76339 24.026C4.21653 24.0266 3.66968 24.0264 3.12282 24.0254C2.84367 24.0249 2.56453 24.0247 2.28538 24.0253C2.03002 24.0259 1.77466 24.0256 1.5193 24.0246C1.42675 24.0244 1.3342 24.0245 1.24166 24.025C1.11614 24.0255 0.990682 24.0249 0.865169 24.0241C0.828989 24.0245 0.792808 24.0249 0.75553 24.0254C0.51233 24.022 0.373992 23.9713 0.189922 23.813C0.00349943 23.5962 -0.0245336 23.4147 -0.0211729 23.1377C-0.0214454 23.0985 -0.0217179 23.0594 -0.0219987 23.019C-0.0226843 22.8874 -0.0220316 22.7558 -0.0213871 22.6242C-0.0216031 22.5291 -0.0219009 22.4339 -0.0222735 22.3387C-0.0230578 22.077 -0.0226685 21.8152 -0.0220885 21.5534C-0.0216651 21.2712 -0.0223187 20.989 -0.0228348 20.7068C-0.0236213 20.1858 -0.0235518 19.6648 -0.0230389 19.1439C-0.0225674 18.6626 -0.022444 18.1813 -0.0226681 17.7C-0.0226824 17.6681 -0.0226967 17.6362 -0.0227115 17.6033C-0.0227699 17.4738 -0.0228296 17.3443 -0.0228915 17.2147C-0.0234651 15.9993 -0.0229448 14.7839 -0.0219358 13.5685C-0.021046 12.4884 -0.0211256 11.4084 -0.0220222 10.3283C-0.023026 9.11517 -0.0234245 7.90199 -0.022845 6.68882C-0.0227848 6.55951 -0.0227261 6.4302 -0.0226681 6.3009C-0.0226533 6.26906 -0.0226384 6.23722 -0.0226231 6.20442C-0.0224098 5.72342 -0.0226595 5.24243 -0.023133 4.76144C-0.0236687 4.21458 -0.0235179 3.66772 -0.0225179 3.12086C-0.0220243 2.84172 -0.0218336 2.56258 -0.0224521 2.28343C-0.0230094 2.02806 -0.0227061 1.77271 -0.0217063 1.51735C-0.0214962 1.4248 -0.0216047 1.33225 -0.022058 1.2397C-0.0226258 1.11419 -0.0220459 0.988729 -0.0211729 0.863216C-0.0216118 0.827035 -0.0220508 0.790854 -0.0225031 0.753577C-0.0191073 0.510377 0.0316006 0.372039 0.189922 0.187969C0.406663 0.00154629 0.588169 -0.0264867 0.865169 -0.023126ZM1.50242 1.50047C1.50242 2.49047 1.50242 3.48047 1.50242 4.50047C2.49242 4.50047 3.48242 4.50047 4.50242 4.50047C4.50242 3.51047 4.50242 2.52047 4.50242 1.50047C3.51242 1.50047 2.52242 1.50047 1.50242 1.50047ZM6.00242 1.50047C6.00242 2.49047 6.00242 3.48047 6.00242 4.50047C6.99242 4.50047 7.98242 4.50047 9.00242 4.50047C9.00242 3.51047 9.00242 2.52047 9.00242 1.50047C8.01242 1.50047 7.02242 1.50047 6.00242 1.50047ZM10.5024 1.50047C10.5024 2.49047 10.5024 3.48047 10.5024 4.50047C11.4924 4.50047 12.4824 4.50047 13.5024 4.50047C13.5024 3.51047 13.5024 2.52047 13.5024 1.50047C12.5124 1.50047 11.5224 1.50047 10.5024 1.50047ZM15.0024 1.50047C15.0024 2.49047 15.0024 3.48047 15.0024 4.50047C15.9924 4.50047 16.9824 4.50047 18.0024 4.50047C18.0024 3.51047 18.0024 2.52047 18.0024 1.50047C17.0124 1.50047 16.0224 1.50047 15.0024 1.50047ZM19.5024 1.50047C19.5024 2.49047 19.5024 3.48047 19.5024 4.50047C20.4924 4.50047 21.4824 4.50047 22.5024 4.50047C22.5024 3.51047 22.5024 2.52047 22.5024 1.50047C21.5124 1.50047 20.5224 1.50047 19.5024 1.50047ZM1.50242 6.00047C1.50242 9.96047 1.50242 13.9205 1.50242 18.0005C4.71992 18.0005 7.93742 18.0005 11.2524 18.0005C11.2524 14.0405 11.2524 10.0805 11.2524 6.00047C8.03492 6.00047 4.81742 6.00047 1.50242 6.00047ZM12.7524 6.00047C12.7524 9.96047 12.7524 13.9205 12.7524 18.0005C15.9699 18.0005 19.1874 18.0005 22.5024 18.0005C22.5024 14.0405 22.5024 10.0805 22.5024 6.00047C19.2849 6.00047 16.0674 6.00047 12.7524 6.00047ZM1.50242 19.5005C1.50242 20.4905 1.50242 21.4805 1.50242 22.5005C2.49242 22.5005 3.48242 22.5005 4.50242 22.5005C4.50242 21.5105 4.50242 20.5205 4.50242 19.5005C3.51242 19.5005 2.52242 19.5005 1.50242 19.5005ZM6.00242 19.5005C6.00242 20.4905 6.00242 21.4805 6.00242 22.5005C6.99242 22.5005 7.98242 22.5005 9.00242 22.5005C9.00242 21.5105 9.00242 20.5205 9.00242 19.5005C8.01242 19.5005 7.02242 19.5005 6.00242 19.5005ZM10.5024 19.5005C10.5024 20.4905 10.5024 21.4805 10.5024 22.5005C11.4924 22.5005 12.4824 22.5005 13.5024 22.5005C13.5024 21.5105 13.5024 20.5205 13.5024 19.5005C12.5124 19.5005 11.5224 19.5005 10.5024 19.5005ZM15.0024 19.5005C15.0024 20.4905 15.0024 21.4805 15.0024 22.5005C15.9924 22.5005 16.9824 22.5005 18.0024 22.5005C18.0024 21.5105 18.0024 20.5205 18.0024 19.5005C17.0124 19.5005 16.0224 19.5005 15.0024 19.5005ZM19.5024 19.5005C19.5024 20.4905 19.5024 21.4805 19.5024 22.5005C20.4924 22.5005 21.4824 22.5005 22.5024 22.5005C22.5024 21.5105 22.5024 20.5205 22.5024 19.5005C21.5124 19.5005 20.5224 19.5005 19.5024 19.5005Z" fill="#282828"/>
</g>
<defs>
<clipPath id="clip0_4401_13781">
<rect width="24" height="24" fill="white"/>
</clipPath>
</defs>
</svg>
