<svg width="24" height="25" viewBox="0 0 24 25" fill="none" xmlns="http://www.w3.org/2000/svg">
<g clip-path="url(#clip0_164_10532)">
<path d="M19.3125 2.03125V3.57812H17.7656H16.2188V4.375V5.17187H17.7656H19.3125V6.74219V8.3125H20.1094H20.9062V6.74219V5.17187H22.4531H24V4.375V3.57812H22.4531H20.9062V2.03125V0.484375H20.1094H19.3125V2.03125Z" fill="#222"/>
<path d="M8.30156 2.10625C5.88281 2.51406 4.0125 4.55312 3.80156 7.01875C3.675 8.5 4.10156 10.525 4.84688 12.0109L5.01094 12.3297L4.63594 12.4141C3.95156 12.5594 3.03281 12.9484 2.39531 13.3656C1.81875 13.7406 1.10625 14.3969 0.623438 14.9922C0.407813 15.2594 0 15.9016 0 15.9766C0 16.0422 1.37344 16.8203 1.39219 16.7641C1.44375 16.6094 1.92188 15.9625 2.23125 15.6344C3.14531 14.65 4.27031 14.0641 5.64375 13.8438L5.96719 13.7922L6.15938 13.975C6.85781 14.6406 7.73438 15.1141 8.49375 15.2266C8.70938 15.2594 8.71406 15.2594 8.76562 15.5031C8.86875 15.9437 9.15 16.7219 9.40313 17.2609C9.54375 17.5562 9.65156 17.8 9.64688 17.8047C9.6375 17.8094 9.50625 17.8375 9.35156 17.8703C8.92031 17.9641 8.2875 18.1891 7.80938 18.4141C6.30469 19.1312 5.05313 20.3969 4.33594 21.9203C4.11094 22.4031 4.02656 22.6328 3.86719 23.2281C3.76875 23.6031 3.76406 23.6406 3.83438 23.6594C3.97969 23.7062 5.30625 24.0156 5.34844 24.0156C5.37188 24.0156 5.39062 23.9875 5.39062 23.95C5.39062 23.7906 5.64844 23.0172 5.83125 22.6328C6.68438 20.8281 8.35313 19.5766 10.3031 19.2766L10.6828 19.2203L10.9875 19.5062C11.7234 20.1953 12.5156 20.5703 13.4953 20.6875C14.6391 20.8328 16.0078 20.3406 16.8281 19.4969L17.0859 19.2297L17.3672 19.2578C17.7938 19.3047 18.5109 19.4875 18.9469 19.6656C20.5641 20.3266 21.6703 21.5828 22.2703 23.4531C22.3688 23.7672 22.4672 23.9969 22.5047 24.0016C22.5422 24.0109 22.8891 23.9359 23.2734 23.8328L23.9766 23.6547L23.9672 23.4625C23.9531 23.1625 23.6016 22.1687 23.3156 21.625C22.3266 19.7547 20.6531 18.4281 18.6141 17.8937C18.3703 17.8328 18.1641 17.7719 18.1547 17.7625C18.1453 17.7578 18.2438 17.5281 18.375 17.2562C19.1344 15.6391 19.5188 13.4547 19.2844 12.0578C19.0875 10.8766 18.6047 9.94844 17.7422 9.08125C17.0859 8.42031 16.4859 8.04531 15.6328 7.75937C15.3984 7.67969 15.1031 7.60469 14.9766 7.58594C14.8453 7.56719 14.7281 7.525 14.7094 7.49687C14.6906 7.46875 14.6719 7.30937 14.6719 7.15C14.6719 6.98594 14.6297 6.64375 14.5781 6.39531C13.9922 3.50781 11.2219 1.61875 8.30156 2.10625ZM9.98906 3.5125C10.8281 3.67188 11.55 4.06562 12.15 4.69375C12.8344 5.41094 13.2656 6.39531 13.2656 7.24844V7.50156L12.9703 7.55312C12.5672 7.62812 12.1453 7.76875 11.6813 7.98906C9.67031 8.92656 8.37656 11.0219 8.44688 13.2297L8.46094 13.7406L8.29688 13.675C6.92813 13.0984 5.80313 11.2703 5.38594 8.94062C5.24063 8.12969 5.24063 6.98125 5.38125 6.46094C5.69531 5.32656 6.38906 4.45937 7.41563 3.91094C8.20312 3.48906 9.11719 3.34844 9.98906 3.5125ZM14.8125 8.96875C15.6516 9.17031 16.4859 9.70469 17.0391 10.3984C17.8969 11.4812 18.1031 12.8172 17.7 14.7344C17.1281 17.4437 15.6047 19.2906 13.9453 19.2859C12.7078 19.2812 11.6203 18.4234 10.8047 16.8062C10.2141 15.6297 9.91875 14.3547 9.91875 12.9766C9.91875 12.2406 9.92813 12.1469 10.05 11.7578C10.3781 10.6797 11.0859 9.82187 12.0703 9.31094C12.4078 9.1375 12.9094 8.96406 13.2188 8.90781C13.5703 8.84687 14.4328 8.87969 14.8125 8.96875Z" fill="#222"/>
</g>
<defs>
<clipPath id="clip0_164_10532">
<rect width="24" height="24" fill="white" transform="translate(0 0.25)"/>
</clipPath>
</defs>
</svg>
