<svg width="24" height="25" viewBox="0 0 24 25" fill="none" xmlns="http://www.w3.org/2000/svg">
<path fill-rule="evenodd" clip-rule="evenodd" d="M14.386 12.5835C14.2481 12.1935 13.9927 11.8558 13.655 11.617C13.3172 11.3781 12.9137 11.2499 12.5 11.25V10.75H11.5V11.25C10.9696 11.25 10.4609 11.4607 10.0858 11.8358C9.71071 12.2109 9.5 12.7196 9.5 13.25C9.5 13.7804 9.71071 14.2891 10.0858 14.6642C10.4609 15.0393 10.9696 15.25 11.5 15.25V17.25C11.065 17.25 10.6945 16.9725 10.5565 16.5835C10.536 16.5199 10.503 16.461 10.4594 16.4103C10.4157 16.3597 10.3624 16.3183 10.3025 16.2886C10.2426 16.2589 10.1773 16.2416 10.1106 16.2375C10.0439 16.2335 9.97699 16.2429 9.91396 16.2652C9.85092 16.2875 9.79299 16.3221 9.7436 16.3672C9.6942 16.4122 9.65434 16.4667 9.62637 16.5275C9.59841 16.5882 9.5829 16.6539 9.58078 16.7207C9.57865 16.7876 9.58995 16.8541 9.614 16.9165C9.75186 17.3065 10.0073 17.6442 10.345 17.883C10.6828 18.1219 11.0863 18.2501 11.5 18.25V18.75H12.5V18.25C13.0304 18.25 13.5391 18.0393 13.9142 17.6642C14.2893 17.2891 14.5 16.7804 14.5 16.25C14.5 15.7196 14.2893 15.2109 13.9142 14.8358C13.5391 14.4607 13.0304 14.25 12.5 14.25V12.25C12.7068 12.2499 12.9085 12.314 13.0774 12.4334C13.2463 12.5527 13.374 12.7215 13.443 12.9165C13.4872 13.0415 13.5792 13.1439 13.6988 13.2011C13.7581 13.2295 13.8223 13.2458 13.8879 13.2493C13.9535 13.2528 14.0191 13.2434 14.081 13.2215C14.1429 13.1996 14.1999 13.1658 14.2488 13.1219C14.2976 13.078 14.3373 13.0249 14.3656 12.9657C14.394 12.9064 14.4103 12.8422 14.4138 12.7766C14.4173 12.711 14.4079 12.6454 14.386 12.5835ZM11.5 12.25C11.2348 12.25 10.9804 12.3554 10.7929 12.5429C10.6054 12.7304 10.5 12.9848 10.5 13.25C10.5 13.5152 10.6054 13.7696 10.7929 13.9571C10.9804 14.1446 11.2348 14.25 11.5 14.25V12.25ZM12.5 17.25C12.7652 17.25 13.0196 17.1446 13.2071 16.9571C13.3946 16.7696 13.5 16.5152 13.5 16.25C13.5 15.9848 13.3946 15.7304 13.2071 15.5429C13.0196 15.3554 12.7652 15.25 12.5 15.25V17.25Z" fill="#222"/>
<path fill-rule="evenodd" clip-rule="evenodd" d="M6.57649 4.5605C7.80349 3.96 9.81649 3.25 12.0195 3.25C14.1765 3.25 16.1365 3.9305 17.357 4.523L17.426 4.5565C17.794 4.7385 18.091 4.9105 18.3 5.05L16.453 7.75C20.711 12.103 24 21.2485 12.0195 21.2485C0.03899 21.2485 3.23949 12.269 7.53449 7.75L5.69949 5.05C5.84099 4.9575 6.02049 4.85 6.23449 4.736C6.34049 4.679 6.45449 4.62017 6.57649 4.5605ZM15.266 7.7145L16.7445 5.553C15.3695 5.652 13.7335 5.975 12.1585 6.431C11.0335 6.756 9.78349 6.7065 8.62599 6.493C8.33429 6.43899 8.04461 6.37462 7.75749 6.3L8.71749 7.7135C10.775 8.446 13.208 8.446 15.266 7.7145ZM8.13999 8.565C10.5475 9.495 13.441 9.495 15.8485 8.564C16.8532 9.62356 17.6938 10.8274 18.3425 12.1355C19.0185 13.5145 19.3865 14.893 19.3265 16.081C19.2685 17.2275 18.8175 18.207 17.7875 18.935C16.714 19.6935 14.9085 20.2485 12.019 20.2485C9.12649 20.2485 7.31249 19.703 6.22899 18.953C5.19149 18.2345 4.73599 17.268 4.67149 16.137C4.60399 14.962 4.96399 13.5905 5.63749 12.202C6.27999 10.878 7.17649 9.6035 8.13999 8.565ZM7.56499 5.208C7.96499 5.327 8.38299 5.4305 8.80699 5.509C9.88199 5.707 10.96 5.736 11.88 5.4695C12.9521 5.15705 14.0425 4.91141 15.145 4.734C14.225 4.457 13.149 4.25 12.019 4.25C10.2965 4.25 8.68999 4.7305 7.56499 5.208Z" fill="#222"/>
</svg>
