<svg width="24" height="24" viewBox="0 0 24 24" fill="none" xmlns="http://www.w3.org/2000/svg">
<mask id="mask0_1_802" style="mask-type:luminance" maskUnits="userSpaceOnUse" x="4" y="18" width="5" height="6">
<path d="M4.91113 18.6313H8.44394V23.8762H4.91113V18.6313Z" fill="white"/>
</mask>
<g mask="url(#mask0_1_802)">
<path fill-rule="evenodd" clip-rule="evenodd" d="M8.15697 23.8761H5.29821C5.15719 23.8761 5.0166 23.7825 5.0166 23.5949V19.0038C5.0166 18.8632 5.15719 18.7227 5.29821 18.7227H8.15697C8.29756 18.7227 8.43815 18.8632 8.43815 19.0038V23.5949C8.43815 23.7825 8.29756 23.8761 8.15697 23.8761ZM5.57938 23.3138H7.8758V19.285H5.57938V23.3138Z" fill="#222222"/>
</g>
<mask id="mask1_1_802" style="mask-type:luminance" maskUnits="userSpaceOnUse" x="9" y="16" width="5" height="8">
<path d="M9.54785 16.7544H13.0807V23.8761H9.54785V16.7544Z" fill="white"/>
</mask>
<g mask="url(#mask1_1_802)">
<path fill-rule="evenodd" clip-rule="evenodd" d="M12.7962 23.8759H9.93743C9.79684 23.8759 9.65625 23.7823 9.65625 23.5947V17.1298C9.65625 16.9892 9.79684 16.8486 9.93743 16.8486H12.7962C12.9838 16.8486 13.0774 16.9892 13.0774 17.1298V23.5947C13.0774 23.7823 12.9838 23.8759 12.7962 23.8759ZM10.2186 23.3135H12.515V17.411H10.2186V23.3135Z" fill="#222222"/>
</g>
<mask id="mask2_1_802" style="mask-type:luminance" maskUnits="userSpaceOnUse" x="14" y="14" width="4" height="10">
<path d="M14.2949 14.1045H17.8277V23.8758H14.2949V14.1045Z" fill="white"/>
</mask>
<g mask="url(#mask2_1_802)">
<path fill-rule="evenodd" clip-rule="evenodd" d="M17.4828 23.8759H14.5771C14.4365 23.8759 14.2959 23.7823 14.2959 23.5947V14.4125C14.2959 14.2719 14.4365 14.1313 14.5771 14.1313H17.4828C17.6234 14.1313 17.764 14.2719 17.764 14.4125V23.5947C17.764 23.7823 17.6234 23.8759 17.4828 23.8759ZM14.8583 23.3135H17.2017V14.6937H14.8583V23.3135Z" fill="#222222"/>
</g>
<mask id="mask3_1_802" style="mask-type:luminance" maskUnits="userSpaceOnUse" x="17" y="5" width="7" height="19">
<path d="M17.3857 5.27246H23.9994V23.8758H17.3857V5.27246Z" fill="white"/>
</mask>
<g mask="url(#mask3_1_802)">
<path fill-rule="evenodd" clip-rule="evenodd" d="M22.1225 23.8762H19.2633C19.1227 23.8762 18.9821 23.7826 18.9821 23.595V10.3841H17.6702C17.5762 10.3841 17.4827 10.3371 17.4356 10.2435C17.3886 10.1495 17.3886 10.0559 17.4356 9.96233L20.3884 5.46481C20.435 5.37123 20.529 5.32422 20.6226 5.32422C20.7162 5.32422 20.7632 5.37123 20.8568 5.46481L23.9031 9.91532C23.9501 9.96233 23.9971 10.0559 23.9971 10.1029C23.9971 10.2435 23.8565 10.3841 23.716 10.3841H22.4037V23.595C22.4037 23.7826 22.2631 23.8762 22.1225 23.8762ZM19.5449 23.3139H21.8413V10.1029C21.8413 9.96233 21.9819 9.82174 22.1225 9.82174H23.1532L20.6226 6.12074L18.1856 9.82174H19.2633C19.4039 9.82174 19.5449 9.96233 19.5449 10.1029V23.3139Z" fill="#222222"/>
</g>
<mask id="mask4_1_802" style="mask-type:luminance" maskUnits="userSpaceOnUse" x="3" y="23" width="21" height="1">
<path d="M3.25488 23.2681H23.5685V23.8761H3.25488V23.2681Z" fill="white"/>
</mask>
<g mask="url(#mask4_1_802)">
<path fill-rule="evenodd" clip-rule="evenodd" d="M23.2003 23.8758H3.61028C3.46969 23.8758 3.3291 23.7822 3.3291 23.5947C3.3291 23.4541 3.46969 23.3135 3.61028 23.3135H23.2003C23.3879 23.3135 23.4815 23.4541 23.4815 23.5947C23.4815 23.7822 23.3879 23.8758 23.2003 23.8758Z" fill="#222222"/>
</g>
<mask id="mask5_1_802" style="mask-type:luminance" maskUnits="userSpaceOnUse" x="2" y="0" width="18" height="18">
<path d="M2.15137 0.124023H19.0426V17.6376H2.15137V0.124023Z" fill="white"/>
</mask>
<g mask="url(#mask5_1_802)">
<path fill-rule="evenodd" clip-rule="evenodd" d="M3.37695 17.5512C2.76759 17.5512 2.25225 17.1299 2.15823 16.5676C2.11166 16.0522 2.39284 15.4433 3.14278 15.2091C3.65813 15.0685 4.22048 14.8344 4.59524 14.6468C4.73582 14.6002 4.87641 14.5532 5.017 14.4596C6.04812 13.9908 7.07924 13.3353 8.01678 12.6794C10.9221 10.571 13.0314 7.9007 14.2967 4.76206C14.4843 4.1997 14.7184 3.59078 14.859 3.02843L14.906 2.88784L13.3596 2.23234C13.2655 2.18533 13.172 2.09175 13.172 1.95116C13.172 1.85715 13.2655 1.76357 13.3596 1.71699L17.0618 0.170954C17.2024 0.123948 17.3896 0.170954 17.4366 0.311542L18.9831 4.05912C19.0301 4.1527 18.9831 4.29329 18.9365 4.34029C18.8425 4.43387 18.7019 4.48088 18.6083 4.43387L17.1084 3.77794C16.4525 5.97991 15.4684 7.99428 14.2031 9.8215C12.8908 11.6017 11.2503 13.2413 9.37566 14.6002C8.15737 15.4903 6.84507 16.2398 5.53278 16.8017C5.06401 17.0363 4.45465 17.3171 3.84572 17.4577C3.65813 17.5047 3.51754 17.5512 3.37695 17.5512ZM14.2031 1.95116L15.3744 2.46651C15.4684 2.51308 15.562 2.65367 15.5154 2.79426L15.4214 3.16901C15.2338 3.77794 15.0466 4.3873 14.812 4.99622C13.5001 8.22888 11.3443 10.9458 8.39154 13.1007C7.36042 13.8502 6.3293 14.4596 5.2516 14.9749C5.11101 15.0215 4.97042 15.1155 4.82984 15.1621C4.40807 15.3497 3.84572 15.6309 3.32994 15.771C2.8146 15.9116 2.67401 16.2398 2.72059 16.474C2.76759 16.7552 2.95519 16.9893 3.37695 16.9893C3.47053 16.9893 3.56454 16.9893 3.65813 16.9423C4.22048 16.7552 4.82984 16.521 5.29861 16.2864C6.61047 15.7245 7.82919 14.9749 9.04747 14.1314C12.7502 11.4611 15.3744 7.80712 16.5931 3.4972L16.6401 3.3096C16.6401 3.26259 16.7337 3.16901 16.7807 3.16901C16.8743 3.12244 16.9213 3.12244 17.0148 3.16901L18.1866 3.63778L17.0148 0.779881L14.2031 1.95116Z" fill="#222222"/>
</g>
<mask id="mask6_1_802" style="mask-type:luminance" maskUnits="userSpaceOnUse" x="0" y="0" width="11" height="12">
<path d="M0 0.635742H10.3207V11.0134H0V0.635742Z" fill="white"/>
</mask>
<g mask="url(#mask6_1_802)">
<path fill-rule="evenodd" clip-rule="evenodd" d="M5.15713 10.946C2.34537 10.946 0.00195312 8.65044 0.00195312 5.83954C0.00195312 2.98207 2.34537 0.686523 5.15713 0.686523C8.01633 0.686523 10.3127 2.98207 10.3127 5.83954C10.3127 8.65044 8.01633 10.946 5.15713 10.946ZM5.15713 1.24844C2.62655 1.24844 0.564305 3.30982 0.564305 5.83954C0.564305 8.36926 2.62655 10.3841 5.15713 10.3841C7.68814 10.3841 9.75039 8.36926 9.75039 5.83954C9.75039 3.30982 7.68814 1.24844 5.15713 1.24844Z" fill="#222222"/>
</g>
<path fill-rule="evenodd" clip-rule="evenodd" d="M5.15763 8.88456C4.26752 8.88456 3.51758 8.13505 3.51758 7.19837C3.51758 7.05778 3.61116 6.9172 3.79875 6.9172C3.93934 6.9172 4.07993 7.05778 4.07993 7.19837C4.07993 7.8073 4.5487 8.32264 5.15763 8.32264C5.76698 8.32264 6.28276 7.8073 6.28276 7.19837C6.28276 6.58901 5.76698 6.12067 5.15763 6.12067C4.26752 6.12067 3.51758 5.37116 3.51758 4.43405C3.51758 3.54395 4.26752 2.79443 5.15763 2.79443C6.09517 2.79443 6.84511 3.54395 6.84511 4.43405C6.84511 4.57464 6.70452 4.71523 6.56394 4.71523C6.37634 4.71523 6.28276 4.57464 6.28276 4.43405C6.28276 3.82512 5.76698 3.35679 5.15763 3.35679C4.5487 3.35679 4.07993 3.82512 4.07993 4.43405C4.07993 5.04341 4.5487 5.55832 5.15763 5.55832C6.09517 5.55832 6.84511 6.30827 6.84511 7.19837C6.84511 8.13505 6.09517 8.88456 5.15763 8.88456Z" fill="#222222"/>
<path fill-rule="evenodd" clip-rule="evenodd" d="M5.15715 9.30622C5.01656 9.30622 4.87598 9.16563 4.87598 9.02504V2.65373C4.87598 2.46657 5.01656 2.37256 5.15715 2.37256C5.29817 2.37256 5.43876 2.46657 5.43876 2.65373V9.02504C5.43876 9.16563 5.29817 9.30622 5.15715 9.30622Z" fill="#222222"/>
</svg>
