<svg width="24" height="24" viewBox="0 0 24 24" fill="none" xmlns="http://www.w3.org/2000/svg">
<g clip-path="url(#clip0_2_15970)">
<path d="M4.78135 1.03125C4.70166 1.11094 4.6876 1.18594 4.6876 1.48594C4.69229 2.55937 5.24072 3.71719 6.08447 4.43437L6.37979 4.6875H3.88135C1.09229 4.6875 1.18135 4.67812 0.85791 5.02031C0.581348 5.31094 0.562598 5.41875 0.562598 6.57187C0.562598 7.73906 0.586035 7.85156 0.89541 8.14219C1.1251 8.35781 1.3501 8.4375 1.73447 8.4375H2.0626V11.8125V15.1875H1.7251C1.32666 15.1875 1.08291 15.2812 0.85791 15.5203C0.548535 15.8437 0.562598 15.6937 0.562598 19.3125C0.562598 22.9312 0.548535 22.7812 0.85791 23.1047C0.942285 23.1891 1.09229 23.3016 1.19541 23.3484C1.37354 23.4328 1.61729 23.4375 6.5626 23.4375H11.7423L13.0548 22.3125L14.3673 21.1922L17.0438 21.1875C19.3407 21.1875 19.7532 21.1781 19.9735 21.1125C20.6673 20.9109 21.2579 20.325 21.4735 19.6359C21.5532 19.3828 21.5626 19.1906 21.5626 17.8312V16.3125H21.722C21.8063 16.3125 21.947 16.3359 22.0313 16.3641C22.2938 16.4578 22.3126 16.5609 22.3126 18.1172C22.3126 19.4391 22.3173 19.5047 22.4063 19.5937C22.5329 19.7203 22.8423 19.7203 22.9688 19.5937C23.0579 19.5047 23.0626 19.4391 23.0626 17.9531C23.0626 16.2422 23.0579 16.2 22.7673 15.8953C22.5423 15.6562 22.2985 15.5625 21.9048 15.5625H21.5626V12V8.4375H21.8907C22.2751 8.4375 22.5001 8.35781 22.7298 8.14219C23.0392 7.84687 23.0626 7.73906 23.0626 6.5625C23.0626 5.38594 23.0392 5.27812 22.7298 4.98281C22.411 4.68281 22.4767 4.6875 19.7345 4.6875H17.2454L17.5501 4.42969C18.347 3.75 18.872 2.69062 18.9235 1.63594C18.947 1.17188 18.9423 1.12969 18.8485 1.03594C18.7407 0.928123 18.4829 0.904686 18.3282 0.984375C18.2251 1.04062 18.1407 1.30312 18.1407 1.575C18.1407 2.17031 17.747 3.04688 17.2454 3.57656L16.9267 3.91406L17.0907 3.6C17.3532 3.09375 17.4376 2.67656 17.4376 1.84219C17.4376 1.18594 17.4282 1.11562 17.3438 1.03125C17.2548 0.942186 17.1892 0.9375 15.947 0.9375C14.7892 0.9375 14.597 0.946875 14.2688 1.03125C13.5423 1.21875 12.9704 1.55625 12.4454 2.11875C12.2673 2.31094 12.0563 2.57344 11.9767 2.70937C11.9017 2.84062 11.8267 2.95312 11.8126 2.95312C11.7985 2.95312 11.7282 2.84062 11.6485 2.70937C11.5735 2.57344 11.3626 2.31094 11.1798 2.11875C10.6548 1.55625 10.0829 1.21875 9.35635 1.03125C9.02822 0.946875 8.83604 0.9375 7.67822 0.9375C6.43604 0.9375 6.37041 0.942186 6.28135 1.03125C6.19697 1.11562 6.1876 1.18594 6.1876 1.84219C6.1876 2.67656 6.27197 3.09375 6.53447 3.6L6.69854 3.91406L6.37979 3.57656C5.87822 3.04688 5.48447 2.17031 5.48447 1.575C5.48447 1.30312 5.4001 1.04062 5.29697 0.984375C5.14697 0.904686 4.88447 0.928123 4.78135 1.03125ZM8.73291 1.73438C9.89072 1.87031 10.861 2.63437 11.236 3.70781C11.3017 3.9 11.3673 4.2 11.3813 4.37812L11.4048 4.70156L10.2845 4.67344C9.13603 4.64531 8.9251 4.61719 8.48447 4.42031C8.15166 4.27031 7.74385 3.94219 7.51416 3.63281C7.15791 3.16406 7.01729 2.77031 6.95635 2.04844L6.92822 1.6875H7.62197C8.00635 1.6875 8.50322 1.71094 8.73291 1.73438ZM16.6688 2.04844C16.6079 2.77031 16.4673 3.16406 16.111 3.63281C15.8813 3.94219 15.4735 4.27031 15.1407 4.42031C14.7001 4.61719 14.4892 4.64531 13.3407 4.67344L12.2204 4.70156L12.2485 4.35469C12.3235 3.31406 13.097 2.31562 14.1376 1.9125C14.5688 1.74844 14.9392 1.70156 15.9329 1.69219L16.697 1.6875L16.6688 2.04844ZM8.0626 6.5625V7.6875H4.89854C1.40166 7.6875 1.46729 7.69219 1.36416 7.40625C1.29385 7.20469 1.29385 5.92031 1.36416 5.71875C1.46729 5.4375 1.39229 5.44219 4.88916 5.4375H8.0626V6.5625ZM14.8126 6.5625V7.6875H11.8126H8.8126V6.5625V5.4375H11.8126H14.8126V6.5625ZM22.0501 5.50312C22.1579 5.54531 22.2235 5.61562 22.261 5.71875C22.3313 5.92031 22.3313 7.20469 22.261 7.40625C22.1579 7.69219 22.2235 7.6875 18.7267 7.6875H15.5626V6.5625V5.4375H18.7267C21.3282 5.4375 21.9235 5.44687 22.0501 5.50312ZM9.5626 11.8125V15.1875H6.1876H2.8126V11.8125V8.4375H6.1876H9.5626V11.8125ZM13.3126 12.4688C13.3126 14.6859 13.3079 16.5 13.2985 16.5C13.2892 16.5 12.9376 16.2047 12.511 15.8437L11.7423 15.1875H11.0298H10.3126V11.8125V8.4375H11.8126H13.3126V12.4688ZM20.8126 12V15.5625H19.922C18.9329 15.5625 18.8063 15.5906 18.5204 15.8578C18.211 16.1531 18.1876 16.2609 18.1876 17.4422C18.1876 18.1078 18.1688 18.5578 18.136 18.6562C18.047 18.9 17.8923 18.9375 16.9454 18.9375H16.1251L15.0938 18.0562L14.0673 17.1797L14.0626 12.8062V8.4375H17.4376H20.8126V12ZM13.3173 17.6016C14.386 18.5156 15.2579 19.2844 15.2579 19.3125C15.2579 19.3406 14.386 20.1094 13.3173 21.0234L11.3767 22.6875H6.5626C3.08916 22.6875 1.70635 22.6734 1.59385 22.6359C1.30791 22.5328 1.3126 22.5797 1.3126 19.3219C1.3126 17.2453 1.32666 16.3266 1.36416 16.2187C1.46729 15.9281 1.2376 15.9422 6.54385 15.9375H11.3767L13.3173 17.6016ZM20.8126 17.5641C20.8126 19.2703 20.7563 19.5562 20.3438 19.9687C19.8985 20.4141 19.6876 20.4422 17.2126 20.4281L15.2767 20.4141L15.6985 20.0484L16.1204 19.6875H17.1188C18.2345 19.6875 18.3517 19.6594 18.6423 19.3547C18.9188 19.0641 18.9376 18.9562 18.9376 17.7984C18.9376 17.1375 18.9563 16.6922 18.9892 16.5937C19.0735 16.3547 19.2282 16.3172 20.0767 16.3125H20.8126V17.5641Z" fill="#222222" stroke="#222222" stroke-width="0.3"/>
<path d="M12.0703 18.2766C11.6625 18.4641 11.4375 18.8391 11.4375 19.3219C11.4422 19.9875 11.8922 20.4375 12.5625 20.4375C13.2375 20.4375 13.6875 19.9875 13.6875 19.3125C13.6875 18.825 13.4391 18.4359 13.0219 18.2625C12.7781 18.1594 12.3047 18.1687 12.0703 18.2766ZM12.7969 19.0781C12.8484 19.1297 12.8906 19.2328 12.8906 19.3125C12.8906 19.3922 12.8484 19.4953 12.7969 19.5469C12.5953 19.7484 12.2344 19.5984 12.2344 19.3125C12.2344 19.1344 12.3844 18.9844 12.5625 18.9844C12.6422 18.9844 12.7453 19.0266 12.7969 19.0781Z" fill="#222222" stroke="#222222" stroke-width="0.3"/>
</g>
<defs>
<clipPath id="clip0_2_15970">
<rect width="24" height="24" fill="white"/>
</clipPath>
</defs>
</svg>
