<svg width="24" height="24" viewBox="0 0 24 24" fill="none" xmlns="http://www.w3.org/2000/svg">
<path d="M11.7955 2.09103C11.7221 2.14246 10.1964 3.44531 7.98249 5.35062C7.65187 5.6347 6.95881 6.23225 6.43963 6.67552C5.92044 7.12123 5.48208 7.51552 5.46493 7.55225C5.45024 7.58899 5.43555 7.66246 5.43555 7.71633C5.43555 7.93919 5.58983 8.09103 5.80779 8.08858C5.94249 8.08613 5.99391 8.05674 6.22167 7.85593C6.30983 7.77756 6.39065 7.71389 6.398 7.71389C6.40779 7.71389 6.41759 9.03878 6.42004 10.66L6.42738 13.6086L6.49351 13.6943C6.6331 13.8755 6.16779 13.8633 12.0527 13.8559L17.3351 13.8486L17.4013 13.7972C17.438 13.7702 17.4894 13.7212 17.5139 13.6869C17.5555 13.6306 17.558 13.4837 17.5678 10.682C17.5751 9.06082 17.5849 7.72858 17.5923 7.72123C17.5996 7.71389 17.6951 7.78735 17.8053 7.88287C18.0307 8.07878 18.1384 8.12287 18.2878 8.08368C18.5106 8.02246 18.6258 7.78001 18.5351 7.56205C18.5155 7.51307 18.2192 7.24368 17.6462 6.75144C17.1735 6.34735 16.7719 5.9996 16.7572 5.98001C16.7327 5.95062 16.7253 5.55633 16.7253 4.1996V2.45593L16.6715 2.37511C16.6396 2.33103 16.5833 2.2698 16.5466 2.24286C16.478 2.19388 16.4511 2.19144 15.5768 2.19144H14.678L14.5898 2.25266C14.4282 2.36286 14.4233 2.38735 14.4233 3.20776C14.4233 3.66817 14.4135 3.94246 14.3988 3.94246C14.3866 3.94246 13.9066 3.53837 13.3335 3.04613C12.758 2.55388 12.2511 2.12531 12.2021 2.09103C12.0821 2.01021 11.9155 2.01021 11.7955 2.09103ZM12.5547 3.37429C13.0666 3.81511 16.1253 6.44287 16.598 6.8445L16.8233 7.03797V10.0698V13.1016H12.0013H7.18167L7.16942 12.7392C7.15718 12.3988 7.15718 11.9261 7.16942 8.47307L7.17432 7.03797L8.25677 6.1098C8.85187 5.59797 9.70902 4.86082 10.1621 4.47389C10.6127 4.0845 11.1858 3.59225 11.4355 3.37919C11.6853 3.16613 11.9058 2.97511 11.9229 2.95307C11.94 2.93103 11.9694 2.91389 11.989 2.91389C12.0062 2.91389 12.2609 3.12205 12.5547 3.37429ZM15.9858 4.12368C15.9906 5.18409 15.9882 5.29429 15.9515 5.2796C15.9319 5.27225 15.7482 5.12531 15.5498 4.95389L15.1849 4.64042L15.18 4.02817C15.1776 3.69021 15.1727 3.33266 15.1678 3.23225C15.1507 2.91389 15.1188 2.93593 15.5817 2.94327L15.9784 2.95062L15.9858 4.12368Z" fill="#222222"/>
<path d="M11.8281 5.62945C11.6714 5.71272 11.6469 5.77394 11.6322 6.09231L11.6199 6.37639L11.4975 6.42537C11.1546 6.56741 10.8999 6.80007 10.753 7.11109C10.6428 7.34129 10.6036 7.50292 10.6036 7.73313C10.6036 8.10292 10.753 8.45313 11.0199 8.71762C11.2746 8.96986 11.5538 9.09476 11.9358 9.12415C12.046 9.13394 12.1856 9.16333 12.2518 9.19027C12.3938 9.24905 12.5677 9.43517 12.6069 9.56986C12.7367 10.0033 12.4477 10.4074 12.0044 10.4074C11.6542 10.4074 11.4216 10.1993 11.3628 9.8319C11.3309 9.63109 11.2795 9.53313 11.1669 9.45966C11.0052 9.34945 10.7456 9.42048 10.6501 9.59925C10.5644 9.75843 10.5987 10.0719 10.7383 10.3731C10.7946 10.4956 10.8705 10.6033 10.9979 10.7356C11.1473 10.8948 11.2134 10.9437 11.4044 11.0344L11.6322 11.1446V11.4066C11.6322 11.627 11.6395 11.6809 11.6811 11.7495C11.735 11.8376 11.8967 11.9233 12.0069 11.9258C12.1146 11.9258 12.2395 11.8548 12.3081 11.7568C12.362 11.6784 12.3669 11.6441 12.3669 11.4066V11.1446L12.5946 11.0344C12.7856 10.9437 12.8518 10.8948 13.0011 10.7356C13.3562 10.3633 13.4738 9.91272 13.3465 9.41803C13.2607 9.08252 13.0501 8.79354 12.7538 8.60007C12.5505 8.47027 12.3595 8.40905 12.0583 8.37966C11.7742 8.35027 11.6591 8.30374 11.5293 8.15925C11.2967 7.90211 11.3138 7.48823 11.5636 7.25558C11.664 7.16007 11.8526 7.09394 12.0118 7.09394C12.3497 7.09394 12.602 7.34129 12.6485 7.71843C12.6852 8.0319 12.9399 8.18864 13.1995 8.05639C13.4371 7.93639 13.4616 7.56905 13.2607 7.13803C13.1114 6.81476 12.8493 6.56496 12.526 6.43517L12.3791 6.37639L12.3669 6.09231C12.3571 5.85476 12.3473 5.79598 12.3032 5.73721C12.1954 5.59027 11.9873 5.54374 11.8281 5.62945Z" fill="#222222"/>
<path d="M17.8379 14.3284C17.6811 14.348 17.4779 14.4215 17.3505 14.5072C17.2697 14.5586 17.086 14.7178 16.2877 15.4133L15.766 15.8688L15.6534 15.7709C15.4868 15.6215 15.2297 15.5064 15.0117 15.477C14.757 15.4452 9.72194 15.4452 9.45255 15.477C9.04602 15.526 8.70316 15.6656 8.41908 15.8982C8.33091 15.9692 7.98071 16.2705 7.6403 16.5668C7.29989 16.8631 7.01336 17.108 7.00357 17.1129C6.99132 17.1178 6.90316 17.0615 6.8052 16.9856C6.56275 16.8019 6.22479 16.6868 6.00928 16.7137C5.9701 16.7186 5.87459 16.7309 5.79622 16.7382C5.59051 16.7603 5.30398 16.9121 5.14479 17.0811C4.81418 17.4313 4.75785 17.9039 5.00275 18.3129C5.08847 18.4574 5.32847 18.6729 8.46806 21.3986C8.68847 21.5897 8.91867 21.7758 8.97989 21.8101C9.15622 21.9154 9.35949 21.9668 9.59704 21.9668C9.9252 21.9668 10.1872 21.8737 10.415 21.6729C10.8681 21.2713 10.8974 20.6321 10.4787 20.1913C10.4052 20.1129 10.3611 20.0468 10.3734 20.0346C11.0934 19.4052 11.5121 19.0501 11.6028 18.9962C11.6664 18.9594 11.7889 18.9056 11.877 18.8762C12.0338 18.8223 12.0632 18.8223 13.7628 18.8076C15.8934 18.7929 15.6558 18.8468 16.3979 18.2027C18.2713 16.5741 18.8591 16.0574 18.9374 15.9668C19.0819 15.7978 19.1358 15.6288 19.1383 15.3546C19.1383 15.1513 19.1285 15.1023 19.0697 14.9774C18.9791 14.779 18.8615 14.6443 18.6828 14.5243C18.4403 14.3627 18.1415 14.2941 17.8379 14.3284ZM18.2248 15.1243C18.3668 15.1978 18.4281 15.3497 18.3595 15.4672C18.3423 15.4941 18.1097 15.7097 17.8403 15.9448C15.3472 18.1219 15.5015 17.9921 15.3815 18.0239C15.3301 18.0386 14.615 18.0509 13.6281 18.0558L11.9628 18.0656L11.7374 18.1292C11.4803 18.2027 11.2305 18.3227 11.0615 18.4501C10.9587 18.5284 10.5154 18.9105 9.98398 19.3758C9.87867 19.4688 9.77826 19.5423 9.76112 19.5374C9.74153 19.5325 9.27132 19.1309 8.7154 18.646C8.15704 18.1586 7.66969 17.735 7.63051 17.7007L7.55949 17.6394L7.94887 17.3015C8.16194 17.1129 8.4754 16.8411 8.64194 16.6966C8.97255 16.4052 9.18561 16.2827 9.43785 16.2386C9.53581 16.2215 10.4542 16.2117 12.2542 16.2117C14.7938 16.2117 14.9309 16.2141 15.024 16.2582C15.1611 16.3219 15.2199 16.3929 15.2199 16.5056C15.2199 16.6084 15.1685 16.6819 15.0485 16.748C14.9823 16.7823 14.8109 16.7897 13.5252 16.7994C12.1097 16.8117 12.0754 16.8117 12.0093 16.8631C11.8893 16.9513 11.8428 17.0346 11.8428 17.1619C11.8428 17.3039 11.9064 17.419 12.024 17.4925C12.1097 17.5464 12.1219 17.5464 13.4566 17.5537C14.9774 17.5611 15.1072 17.5537 15.3668 17.4264C15.6632 17.2794 15.8272 17.1056 15.9276 16.8264C15.9791 16.6843 15.9889 16.6746 16.8803 15.8982C17.637 15.2394 17.7987 15.1072 17.8844 15.0901C18.0019 15.0631 18.1293 15.0754 18.2248 15.1243ZM6.25418 17.5268C6.29336 17.5488 6.62398 17.8256 6.98887 18.1439C7.35377 18.4623 8.16194 19.1652 8.78398 19.7064C9.40357 20.2476 9.935 20.7203 9.96438 20.757C10.1187 20.9529 9.9203 21.2101 9.61173 21.2101C9.38153 21.2101 9.54316 21.3374 7.31949 19.3978C7.11132 19.2141 6.65091 18.8125 6.29826 18.5064C5.94561 18.1978 5.64683 17.926 5.63214 17.9015C5.61989 17.877 5.60765 17.828 5.60765 17.7913C5.60765 17.5366 5.97745 17.3872 6.25418 17.5268Z" fill="#222222"/>
</svg>
