<svg width="19" height="20" viewBox="0 0 19 20" fill="none" xmlns="http://www.w3.org/2000/svg">
<path d="M17.59 13L15.77 11.7C16.07 10.62 16.09 9.45 15.77 8.28L17.59 7L16.14 4.5L14.11 5.42C13.32 4.62 12.32 4 11.15 3.71L10.95 1.5H8.04996L7.84996 3.71C6.67996 4 5.67996 4.62 4.88996 5.42L2.85996 4.5L1.40996 7L3.22996 8.28C2.90996 9.45 2.92996 10.62 3.22996 11.7L1.40996 13L2.85996 15.5L4.88996 14.57C5.67996 15.36 6.67996 15.96 7.84996 16.27L8.04996 18.5H10.95L11.15 16.27C12.32 15.96 13.32 15.36 14.11 14.57L16.14 15.5L17.59 13ZM11.5 0.5C11.77 0.5 12 0.7 12 0.96L12.18 3C12.94 3.28 13.62 3.69 14.23 4.18L16.08 3.31C16.31 3.19 16.6 3.27 16.74 3.5L18.74 7C18.88 7.21 18.8 7.5 18.58 7.65L16.91 8.82C17.04 9.62 17.03 10.41 16.91 11.18L18.58 12.35C18.8 12.5 18.88 12.79 18.74 13L16.74 16.5C16.6 16.71 16.31 16.79 16.08 16.67L14.23 15.81C13.62 16.3 12.94 16.7 12.18 17L12 19C12 19.29 11.77 19.5 11.5 19.5H7.49996C7.36735 19.5 7.24017 19.4473 7.1464 19.3536C7.05263 19.2598 6.99996 19.1326 6.99996 19L6.81996 17C6.05996 16.7 5.37996 16.3 4.76996 15.81L2.91996 16.67C2.68996 16.79 2.39996 16.71 2.25996 16.5L0.259956 13C0.119956 12.79 0.199956 12.5 0.419956 12.35L2.08996 11.18C1.96996 10.41 1.95996 9.62 2.08996 8.82L0.419956 7.65C0.199956 7.5 0.119956 7.21 0.259956 7L2.25996 3.5C2.39996 3.27 2.68996 3.19 2.91996 3.31L4.76996 4.18C5.37996 3.69 6.05996 3.28 6.81996 3L6.99996 0.96C6.99996 0.7 7.22996 0.5 7.49996 0.5H11.5ZM9.49996 6.5C10.4282 6.5 11.3185 6.86875 11.9748 7.52513C12.6312 8.1815 13 9.07174 13 10C13 10.9283 12.6312 11.8185 11.9748 12.4749C11.3185 13.1313 10.4282 13.5 9.49996 13.5C8.5717 13.5 7.68146 13.1313 7.02508 12.4749C6.36871 11.8185 5.99996 10.9283 5.99996 10C5.99996 9.07174 6.36871 8.1815 7.02508 7.52513C7.68146 6.86875 8.5717 6.5 9.49996 6.5ZM9.49996 7.5C8.83692 7.5 8.20103 7.76339 7.73219 8.23223C7.26335 8.70107 6.99996 9.33696 6.99996 10C6.99996 10.663 7.26335 11.2989 7.73219 11.7678C8.20103 12.2366 8.83692 12.5 9.49996 12.5C10.163 12.5 10.7989 12.2366 11.2677 11.7678C11.7366 11.2989 12 10.663 12 10C12 9.33696 11.7366 8.70107 11.2677 8.23223C10.7989 7.76339 10.163 7.5 9.49996 7.5Z" fill="#222222"/>
</svg>
