<svg width="24" height="24" viewBox="0 0 24 24" fill="none" xmlns="http://www.w3.org/2000/svg">
<path d="M3.93242 0.881248C3.74961 0.974998 3.6418 1.07344 3.53867 1.24219L3.39805 1.46719L3.37461 2.7375L3.35117 4.00781L2.23555 5.85938L1.11523 7.71094L1.13398 8.25C1.14805 8.71406 1.1668 8.82656 1.27461 9.05625C1.44805 9.43125 1.77617 9.76406 2.14648 9.94687C2.41367 10.0781 2.51211 10.1016 2.91523 10.1156L3.37461 10.1344V16.6922V23.25H11.5965H19.8184L20.0668 23.1187C20.2496 23.025 20.3574 22.9266 20.4605 22.7578L20.6012 22.5328L20.6152 16.3312L20.6246 10.1344L21.084 10.1156C21.4496 10.1016 21.5902 10.0734 21.8059 9.975C22.1809 9.80156 22.5137 9.47344 22.7012 9.09844C22.8371 8.81719 22.8512 8.74687 22.8652 8.25L22.884 7.71094L21.7637 5.85938L20.648 4.00781L20.6246 2.7375L20.6012 1.46719L20.4605 1.24219C20.3574 1.07344 20.2496 0.974998 20.0668 0.881248L19.8184 0.75H11.9996H4.18086L3.93242 0.881248ZM19.7434 1.63125C19.8465 1.73438 19.8512 1.76719 19.8652 2.74219L19.8793 3.75H11.9996H4.11992L4.13398 2.74687C4.14805 1.84687 4.15742 1.73438 4.23711 1.65C4.28398 1.59375 4.36836 1.54219 4.42461 1.53281C4.47617 1.52344 7.92617 1.51406 12.0793 1.51875L19.6355 1.52344L19.7434 1.63125ZM5.39023 4.52344C5.39023 4.5375 5.12305 5.2125 4.79961 6.02344L4.20898 7.5H3.20586H2.20742L3.10742 6L4.00742 4.5H4.69648C5.08086 4.5 5.39023 4.50937 5.39023 4.52344ZM7.51836 5.75156C7.37773 6.44531 7.2418 7.12031 7.21367 7.25156L7.1668 7.5H6.13086C5.16992 7.5 5.09961 7.49531 5.12305 7.41562C5.13242 7.37344 5.38086 6.74531 5.67148 6.02344C5.96211 5.30156 6.21523 4.66406 6.23867 4.60312C6.27617 4.5 6.29492 4.5 7.02148 4.5H7.7668L7.51836 5.75156ZM10.1246 6V7.5H9.06992C8.25898 7.5 8.01523 7.48594 8.01523 7.43906C8.01523 7.41094 8.14648 6.73594 8.30117 5.93906L8.5918 4.5H9.35586H10.1246V6ZM12.8949 5.78906C12.9652 6.48281 13.0355 7.15312 13.0496 7.275L13.073 7.5H11.9762H10.8746V6V4.5L11.8215 4.50937L12.773 4.52344L12.8949 5.78906ZM15.698 5.93906C15.8527 6.73594 15.984 7.41094 15.984 7.43906C15.984 7.48594 15.7402 7.5 14.934 7.5H13.8793L13.8512 7.29844C13.809 6.95625 13.5934 4.7625 13.5934 4.62656V4.5H14.5027H15.4074L15.698 5.93906ZM18.2762 5.93906C18.5949 6.73594 18.8621 7.41094 18.8762 7.43906C18.8949 7.48594 18.6746 7.5 17.8684 7.5H16.8324L16.7855 7.25156C16.7574 7.12031 16.6215 6.44531 16.4809 5.75156L16.2324 4.5H16.9684H17.6996L18.2762 5.93906ZM20.8918 6L21.7918 7.5L20.7793 7.49062L19.7621 7.47656L19.1668 5.98594L18.5715 4.5H19.2793H19.9918L20.8918 6ZM4.07773 8.4C4.07773 8.48437 4.01211 8.66719 3.93711 8.79844C3.52461 9.51562 2.47461 9.51562 2.06211 8.79844C1.98711 8.66719 1.92148 8.48437 1.92148 8.4V8.25H2.99961H4.07773V8.4ZM7.07773 8.4C7.07773 8.48437 7.01211 8.66719 6.93711 8.79844C6.52461 9.51562 5.47461 9.51562 5.06211 8.79844C4.98711 8.66719 4.92148 8.48437 4.92148 8.4V8.25H5.99961H7.07773V8.4ZM10.0777 8.4C10.0777 8.48437 10.0121 8.66719 9.93711 8.79844C9.52461 9.51562 8.47461 9.51562 8.06211 8.79844C7.98711 8.66719 7.92148 8.48437 7.92148 8.4V8.25H8.99961H10.0777V8.4ZM13.0777 8.4C13.0777 8.48437 13.0121 8.66719 12.9371 8.79844C12.5246 9.51562 11.4746 9.51562 11.0621 8.79844C10.9871 8.66719 10.9215 8.48437 10.9215 8.4V8.25H11.9996H13.0777V8.4ZM16.0777 8.4C16.0777 8.48437 16.0121 8.66719 15.9371 8.79844C15.5246 9.51562 14.4746 9.51562 14.0621 8.79844C13.9871 8.66719 13.9215 8.48437 13.9215 8.4V8.25H14.9996H16.0777V8.4ZM19.0777 8.4C19.0777 8.48437 19.0121 8.66719 18.9371 8.79844C18.5246 9.51562 17.4746 9.51562 17.0621 8.79844C16.9871 8.66719 16.9215 8.48437 16.9215 8.4V8.25H17.9996H19.0777V8.4ZM22.0777 8.4C22.0777 8.48437 22.0121 8.66719 21.9371 8.79844C21.5246 9.51562 20.4746 9.51562 20.0621 8.79844C19.9871 8.66719 19.9215 8.48437 19.9215 8.4V8.25H20.9996H22.0777V8.4ZM4.71992 9.66094C4.83711 9.76406 5.04805 9.90937 5.19336 9.975C5.43242 10.0875 5.51211 10.1016 5.99961 10.1016C6.48711 10.1016 6.5668 10.0875 6.80586 9.975C6.95117 9.90937 7.1668 9.76406 7.28398 9.65625L7.49961 9.45469L7.71523 9.65625C7.83242 9.76406 8.04805 9.90937 8.19336 9.975C8.43242 10.0875 8.51211 10.1016 8.99961 10.1016C9.48711 10.1016 9.5668 10.0875 9.80586 9.975C9.95117 9.90937 10.1668 9.76406 10.284 9.65625L10.4996 9.45469L10.7152 9.65625C10.8324 9.76406 11.048 9.90937 11.1934 9.975C11.4324 10.0875 11.5121 10.1016 11.9996 10.1016C12.4871 10.1016 12.5668 10.0875 12.8059 9.975C12.9512 9.90937 13.1668 9.76406 13.284 9.65625L13.4996 9.45469L13.7152 9.65625C13.8324 9.76406 14.048 9.90937 14.1934 9.975C14.4324 10.0875 14.5121 10.1016 14.9996 10.1016C15.4871 10.1016 15.5668 10.0875 15.8059 9.975C15.9512 9.90937 16.1668 9.76406 16.284 9.65625L16.4996 9.45469L16.7152 9.65625C16.8324 9.76406 17.048 9.90937 17.1934 9.975C17.4324 10.0875 17.5121 10.1016 17.9996 10.1016C18.4871 10.1016 18.5668 10.0875 18.8059 9.975C18.9512 9.90937 19.1668 9.76406 19.2887 9.65156L19.5043 9.45469L19.6918 9.6375L19.8746 9.81562L19.8652 16.0406L19.8512 22.2609L19.7434 22.3687L19.6355 22.4766H11.9996H4.36367L4.25586 22.3687L4.14805 22.2609L4.13398 16.0453L4.12461 9.825L4.29805 9.64687C4.3918 9.54844 4.48086 9.46875 4.49023 9.46875C4.5043 9.46875 4.60742 9.55312 4.71992 9.66094Z" fill="#222222"/>
<path d="M15.4688 2.34375C15.4078 2.40469 15.375 2.49844 15.375 2.625C15.375 2.75156 15.4078 2.84531 15.4688 2.90625C15.5297 2.96719 15.6234 3 15.75 3C15.8766 3 15.9703 2.96719 16.0312 2.90625C16.0922 2.84531 16.125 2.75156 16.125 2.625C16.125 2.49844 16.0922 2.40469 16.0312 2.34375C15.9703 2.28281 15.8766 2.25 15.75 2.25C15.6234 2.25 15.5297 2.28281 15.4688 2.34375Z" fill="#222222"/>
<path d="M16.9688 2.34375C16.9078 2.40469 16.875 2.49844 16.875 2.625C16.875 2.75156 16.9078 2.84531 16.9688 2.90625C17.0297 2.96719 17.1234 3 17.25 3C17.3766 3 17.4703 2.96719 17.5312 2.90625C17.5922 2.84531 17.625 2.75156 17.625 2.625C17.625 2.49844 17.5922 2.40469 17.5312 2.34375C17.4703 2.28281 17.3766 2.25 17.25 2.25C17.1234 2.25 17.0297 2.28281 16.9688 2.34375Z" fill="#222222"/>
<path d="M18.4688 2.34375C18.4078 2.40469 18.375 2.49844 18.375 2.625C18.375 2.75156 18.4078 2.84531 18.4688 2.90625C18.5297 2.96719 18.6234 3 18.75 3C18.8766 3 18.9703 2.96719 19.0312 2.90625C19.0922 2.84531 19.125 2.75156 19.125 2.625C19.125 2.49844 19.0922 2.40469 19.0312 2.34375C18.9703 2.28281 18.8766 2.25 18.75 2.25C18.6234 2.25 18.5297 2.28281 18.4688 2.34375Z" fill="#222222"/>
<path d="M10.8047 11.5172C10.6594 12.6562 10.6781 12.5812 10.5375 12.6281C10.425 12.6656 10.3547 12.6234 9.75469 12.15C9.39375 11.8594 9.06563 11.625 9.03281 11.625C8.95781 11.625 7.5 13.0828 7.5 13.1625C7.5 13.1953 7.73438 13.5187 8.025 13.8797C8.49844 14.4797 8.54063 14.55 8.50313 14.6625C8.45625 14.8031 8.53125 14.7844 7.39688 14.9297L6.75 15.0141V16.125V17.2359L7.39688 17.3203C8.53125 17.4656 8.45625 17.4469 8.50313 17.5875C8.54063 17.7 8.49844 17.7703 8.025 18.3703C7.73438 18.7312 7.5 19.0594 7.5 19.0922C7.5 19.1672 8.95781 20.625 9.0375 20.625C9.07031 20.625 9.39375 20.3906 9.75469 20.1C10.3547 19.6266 10.425 19.5844 10.5375 19.6219C10.6781 19.6687 10.6594 19.5937 10.8047 20.7328L10.8891 21.375H12H13.1109L13.1953 20.7516C13.3453 19.5844 13.3219 19.6687 13.4625 19.6219C13.575 19.5844 13.6453 19.6266 14.2453 20.1C14.6063 20.3906 14.9344 20.625 14.9672 20.625C15.0422 20.625 16.5 19.1672 16.5 19.0875C16.5 19.0547 16.2656 18.7312 15.975 18.3703C15.5016 17.7703 15.4594 17.7 15.4969 17.5875C15.5438 17.4469 15.4688 17.4656 16.6078 17.3203L17.25 17.2359V16.125V15.0141L16.6313 14.9297C15.4594 14.7797 15.5438 14.8031 15.4969 14.6625C15.4594 14.55 15.5016 14.4797 15.975 13.8797C16.2656 13.5187 16.5 13.1906 16.5 13.1578C16.5 13.0875 15.0422 11.625 14.9672 11.625C14.9391 11.625 14.6156 11.8594 14.2453 12.1453C13.6453 12.6187 13.5703 12.6656 13.4578 12.6281C13.3266 12.5812 13.3453 12.6656 13.1953 11.4937L13.1109 10.875H12H10.8891L10.8047 11.5172ZM12.3938 11.7047C12.4031 11.7516 12.45 12.1125 12.4969 12.5016L12.5766 13.2188L12.8859 13.3125C13.0547 13.3641 13.2984 13.4672 13.4203 13.5469L13.65 13.6922L14.0766 13.3547C14.3156 13.1672 14.5922 12.9469 14.7 12.8625L14.8875 12.7078L15.1547 12.975C15.3 13.125 15.4219 13.2609 15.4219 13.2797C15.4219 13.2984 15.225 13.5609 14.9859 13.8656C14.7469 14.1656 14.5359 14.4375 14.5172 14.4703C14.4984 14.5031 14.5219 14.6062 14.5688 14.7047C14.6156 14.8031 14.7141 15.0422 14.7844 15.2344L14.9109 15.5906L15.6844 15.6797L16.4531 15.7641V16.1531C16.4531 16.6078 16.5516 16.5469 15.5672 16.6641C15.2203 16.7062 14.9203 16.7484 14.9016 16.7625C14.8828 16.7719 14.8453 16.8891 14.8172 17.0156C14.7891 17.1469 14.7 17.3766 14.625 17.5359L14.4797 17.8172L14.9578 18.4266L15.4359 19.0406L15.1547 19.3172L14.8781 19.5984L14.2734 19.125C13.8609 18.8016 13.6453 18.6609 13.5984 18.6844C13.5563 18.7031 13.3172 18.7922 13.0688 18.8906C12.8156 18.9844 12.6 19.0687 12.5906 19.0828C12.5813 19.0922 12.5391 19.3969 12.4969 19.7578C12.3844 20.7188 12.4359 20.625 12 20.625C11.5641 20.625 11.625 20.7281 11.4844 19.7391C11.4328 19.3734 11.3813 19.05 11.3672 19.0312C11.3531 19.0078 11.2359 18.9703 11.1094 18.9422C10.9781 18.9141 10.7484 18.825 10.5891 18.75L10.3078 18.6047L9.69844 19.0828L9.08438 19.5609L8.80781 19.2797L8.52656 19.0031L9 18.3984C9.31406 17.9953 9.46406 17.7703 9.44063 17.7234C9.42656 17.6812 9.33281 17.4422 9.23438 17.1891C9.14062 16.9406 9.05156 16.725 9.04219 16.7156C9.03281 16.7062 8.72813 16.6641 8.36719 16.6219C7.40625 16.5094 7.5 16.5609 7.5 16.125C7.5 15.6891 7.39688 15.7453 8.40469 15.6281L9.09375 15.5484L9.16875 15.2906C9.21094 15.15 9.30469 14.9016 9.38438 14.7375L9.525 14.4375L9.04219 13.8234L8.56406 13.2094L8.84531 12.9328L9.12188 12.6516L9.72656 13.125C10.1391 13.4484 10.3547 13.5891 10.4016 13.5656C10.4438 13.5469 10.6828 13.4578 10.9313 13.3594C11.1844 13.2656 11.4 13.1812 11.4094 13.1672C11.4188 13.1578 11.4609 12.8531 11.5031 12.4922C11.6156 11.5312 11.5641 11.625 12 11.625C12.3094 11.625 12.3703 11.6391 12.3938 11.7047Z" fill="#222222"/>
<path d="M11.4752 14.6954C10.8283 14.9345 10.472 15.4876 10.5095 16.2095C10.5377 16.7907 10.8283 17.2454 11.3345 17.4938C11.6533 17.6485 12.347 17.6485 12.6658 17.4938C12.947 17.3532 13.2283 17.072 13.3689 16.7907C13.5236 16.472 13.5236 15.7782 13.3689 15.4595C13.2142 15.1454 12.8814 14.8313 12.5767 14.7188C12.2814 14.6063 11.7423 14.597 11.4752 14.6954ZM12.3658 15.5157C12.9752 15.886 12.7127 16.8282 12.0002 16.8282C11.6017 16.8282 11.297 16.5235 11.297 16.1251C11.297 15.5813 11.9017 15.2345 12.3658 15.5157Z" fill="#222222"/>
</svg>
