<svg width="25" height="25" viewBox="0 0 25 25" fill="none" xmlns="http://www.w3.org/2000/svg">
<path d="M12.1172 22.75C17.64 22.75 22.1172 18.2728 22.1172 12.75C22.1172 7.22715 17.64 2.75 12.1172 2.75C6.59434 2.75 2.11719 7.22715 2.11719 12.75C2.11719 18.2728 6.59434 22.75 12.1172 22.75Z" stroke="#066F55" stroke-width="1.5"/>
<path d="M12.1172 6.75V18.75M15.1172 10.25C15.1172 8.87 13.7742 7.75 12.1172 7.75C10.4602 7.75 9.11719 8.87 9.11719 10.25C9.11719 11.63 10.4602 12.75 12.1172 12.75C13.7742 12.75 15.1172 13.87 15.1172 15.25C15.1172 16.63 13.7742 17.75 12.1172 17.75C10.4602 17.75 9.11719 16.63 9.11719 15.25" stroke="#066F55" stroke-width="1.5" stroke-linecap="round"/>
</svg>
