<svg width="25" height="24" viewBox="0 0 25 24" fill="none" xmlns="http://www.w3.org/2000/svg">
<path d="M13.3437 1.59114C14.2645 2.36491 14.9824 3.36634 15.1249 4.59114C15.219 5.9216 14.9895 7.08677 14.1332 8.13697C13.7485 8.57792 13.3319 8.93389 12.8281 9.23176C12.9106 9.26076 12.9106 9.26076 12.9949 9.29035C14.018 9.65487 14.9539 10.1089 15.7812 10.8255C15.8189 10.8581 15.8566 10.8906 15.8954 10.9242C16.694 11.6292 16.694 11.6292 16.8188 11.8626C16.9322 11.9766 17.0211 11.973 17.1774 11.9747C17.2328 11.9739 17.2328 11.9739 17.2892 11.9731C17.3283 11.9733 17.3673 11.9735 17.4075 11.9737C17.4923 11.974 17.5771 11.9738 17.6619 11.9733C17.7961 11.9725 17.9302 11.9728 18.0644 11.9735C18.3976 11.9749 18.7308 11.9743 19.064 11.9737C19.3455 11.9733 19.627 11.9737 19.9085 11.9751C20.0408 11.9754 20.1729 11.9746 20.3052 11.9738C20.3862 11.9741 20.4673 11.9744 20.5483 11.9748C20.5851 11.9742 20.6219 11.9737 20.6598 11.9732C20.8247 11.975 20.9192 11.9838 21.0533 12.0834C21.1501 12.2205 21.1615 12.3354 21.1835 12.5013C21.3446 13.4643 22.0835 14.38 22.8264 14.9857C22.9531 15.0911 22.9531 15.0911 22.9999 15.1849C23.1155 16.7321 22.8217 18.3318 22.1562 19.7318C22.1343 19.7785 22.1343 19.7785 22.1119 19.8261C21.3846 21.352 20.0432 22.5272 18.4666 23.1192C17.689 23.3922 17.0918 23.1687 16.3797 22.8337C15.8596 22.5792 15.4016 22.2524 14.9609 21.8792C14.9339 21.8564 14.9069 21.8336 14.8791 21.8101C14.7074 21.661 14.5632 21.5036 14.4218 21.3255C14.3842 21.3333 14.3465 21.3411 14.3078 21.3491C12.3786 21.7445 10.3779 21.9644 8.42182 21.6068C8.32692 21.5912 8.23201 21.5756 8.13709 21.5601C6.17801 21.2247 4.26468 20.5333 2.48627 19.6585C2.42794 19.63 2.42794 19.63 2.36843 19.6009C2.33324 19.5831 2.29804 19.5653 2.26178 19.547C2.21614 19.524 2.21614 19.524 2.16957 19.5006C2.09369 19.4505 2.09369 19.4505 1.99994 19.3099C1.97854 19.1115 1.98439 18.9116 1.98529 18.7122C1.98553 18.6532 1.98576 18.5942 1.98599 18.5334C2.0185 15.8922 3.03669 13.2973 4.85932 11.388C4.89739 11.3475 4.93545 11.3069 4.97467 11.2651C5.92668 10.2777 7.15034 9.69317 8.42182 9.23176C8.38665 9.20958 8.35148 9.18741 8.31525 9.16456C7.24767 8.4748 6.47507 7.49937 6.17809 6.2459C5.93708 5.02796 6.15463 3.7867 6.82221 2.74543C7.52086 1.75255 8.52588 1.01831 9.73029 0.779978C10.9943 0.578169 12.3119 0.810043 13.3437 1.59114ZM7.90619 2.66926C7.1477 3.45861 6.89512 4.45775 6.90918 5.52387C6.93297 6.28863 7.26714 7.05761 7.76557 7.63801C7.78883 7.66792 7.81209 7.69783 7.83606 7.72865C8.37566 8.39567 9.22203 8.82255 10.0624 8.95051C10.1069 8.95764 10.1513 8.96477 10.197 8.97212C11.1411 9.08741 12.1343 8.79255 12.8912 8.22688C13.5957 7.67373 14.1379 6.87949 14.3092 5.98951C14.4227 4.90862 14.2742 3.91433 13.622 3.02082C13.5767 2.96563 13.5308 2.91092 13.4843 2.85676C13.4611 2.82685 13.4378 2.79694 13.4138 2.76612C12.8269 2.04056 11.9268 1.65561 11.0221 1.51936C9.83354 1.40171 8.74867 1.85433 7.90619 2.66926ZM5.46869 11.9036C4.00652 13.3248 3.2138 15.3147 2.89057 17.2943C2.88448 17.3305 2.87839 17.3668 2.87212 17.4042C2.79136 17.8996 2.7864 18.3879 2.79682 18.888C4.86637 19.9613 7.25468 20.7781 9.59369 20.9505C9.63073 20.9536 9.66777 20.9567 9.70594 20.9598C11.1081 21.0707 12.4868 20.8992 13.8593 20.6224C13.8439 20.5955 13.8285 20.5686 13.8126 20.5409C13.2207 19.4837 12.8563 18.439 12.6406 17.2474C12.6343 17.2137 12.628 17.18 12.6215 17.1453C12.5417 16.7032 12.5337 16.2571 12.5263 15.8089C12.5247 15.7512 12.5231 15.6935 12.5214 15.634C12.5195 15.2222 12.5195 15.2222 12.6514 15.0422C12.6942 15.012 12.7371 14.9817 12.7812 14.9505C13.5402 14.2141 14.2635 13.3777 14.3958 12.29C14.4277 12.1612 14.4566 12.1238 14.5624 12.0443C14.6946 12.024 14.6946 12.024 14.853 12.0203C14.9097 12.0186 14.9663 12.017 15.0247 12.0152C15.0839 12.0142 15.1431 12.0131 15.204 12.012C15.2638 12.0104 15.3235 12.0088 15.385 12.0072C15.5327 12.0033 15.6804 12.0001 15.8281 11.9974C15.6061 11.7205 15.3589 11.5115 15.0781 11.2943C15.0303 11.2569 14.9825 11.2196 14.9332 11.1811C14.1871 10.6144 13.3513 10.236 12.4531 9.98176C12.3987 9.96599 12.3443 9.95022 12.2883 9.93397C9.80382 9.31286 7.28728 10.193 5.46869 11.9036ZM15.1249 12.7474C14.9625 13.1882 14.9625 13.1882 14.7968 13.638C14.4961 14.1683 14.15 14.7318 13.6652 15.1184C13.4634 15.2868 13.2958 15.4299 13.258 15.6987C13.2445 15.9359 13.2689 16.1682 13.2968 16.4036C13.3021 16.4526 13.3075 16.5015 13.313 16.5519C13.5254 18.4212 14.1886 20.2088 15.6736 21.4385C16.2151 21.865 17.1007 22.4941 17.8173 22.4593C19.0831 22.2062 20.2695 21.226 20.9717 20.1774C21.0073 20.1227 21.0428 20.0679 21.0781 20.013C21.1108 19.9626 21.1434 19.9122 21.1771 19.8603C21.7852 18.8614 22.0752 17.6833 22.19 16.5288C22.1986 16.4467 22.2085 16.3646 22.22 16.2828C22.2849 15.834 22.2849 15.834 22.1417 15.4177C21.9768 15.2231 21.784 15.0608 21.5915 14.8943C21.2353 14.5658 20.9812 14.1221 20.7529 13.6995C20.7363 13.669 20.7197 13.6384 20.7026 13.6069C20.5568 13.3242 20.4788 13.059 20.3749 12.7474C18.6424 12.7474 16.9099 12.7474 15.1249 12.7474Z" fill="#FF8000"/>
<path d="M18.6853 15.2471C18.9548 15.4529 19.1947 15.7868 19.2502 16.126C19.2795 16.5605 19.2877 16.9565 19.0627 17.3448C19.0387 17.3694 19.0148 17.394 18.9901 17.4193C18.8906 17.5845 18.9033 17.7465 18.9047 17.9336C18.9039 18.0134 18.9031 18.0931 18.9022 18.1728C18.9018 18.2981 18.9016 18.4234 18.9017 18.5487C18.9015 18.6698 18.9002 18.791 18.8988 18.9122C18.8992 18.9496 18.8996 18.987 18.9 19.0255C18.8979 19.1825 18.8865 19.2943 18.8064 19.4308C18.6288 19.5359 18.4688 19.5279 18.2658 19.5259C18.2249 19.5261 18.184 19.5263 18.1419 19.5265C18.0555 19.5266 17.9692 19.5263 17.8828 19.5255C17.7507 19.5245 17.6187 19.5255 17.4865 19.5267C17.4026 19.5265 17.3186 19.5263 17.2346 19.5259C17.1754 19.5265 17.1754 19.5265 17.115 19.5271C16.9458 19.5244 16.841 19.5179 16.6938 19.4302C16.5959 19.2637 16.6023 19.1094 16.6065 18.922C16.6063 18.8436 16.6061 18.7652 16.6058 18.6868C16.6065 18.564 16.6076 18.4412 16.6093 18.3184C16.6263 17.6989 16.6263 17.6989 16.3622 17.1524C16.1672 16.8861 16.2212 16.4421 16.2502 16.126C16.3335 15.7571 16.5253 15.4646 16.8347 15.2482C17.4065 14.8934 18.1115 14.8791 18.6853 15.2471ZM17.1233 16.1085C17.0203 16.3223 17.0084 16.502 17.0471 16.7354C17.1279 16.8958 17.1279 16.8958 17.2346 17.0167C17.3489 17.1881 17.3446 17.3211 17.3478 17.5196C17.3487 17.5548 17.3496 17.59 17.3505 17.6262C17.3533 17.7385 17.3555 17.8507 17.3576 17.9629C17.3594 18.0391 17.3613 18.1152 17.3631 18.1914C17.3677 18.3779 17.3714 18.5645 17.3752 18.751C17.6227 18.751 17.8702 18.751 18.1252 18.751C18.1253 18.6409 18.1255 18.5307 18.1256 18.4172C18.1267 18.3092 18.1282 18.2013 18.1298 18.0933C18.1306 18.0189 18.131 17.9444 18.1309 17.87C18.1299 17.119 18.1299 17.119 18.3904 16.8225C18.4921 16.6818 18.4861 16.5426 18.4746 16.3741C18.4297 16.1468 18.3097 16.0251 18.1428 15.8741C17.7395 15.6799 17.4159 15.785 17.1233 16.1085Z" fill="#FF8000"/>
</svg>
