<svg width="41" height="36" viewBox="0 0 41 36" fill="none" xmlns="http://www.w3.org/2000/svg">
<path d="M30.4758 0.198635C28.0665 0.725655 26.0337 2.30672 24.9259 4.50084L24.4957 5.36129L15.9235 5.41507L7.35138 5.46884L6.84587 5.75924C5.7488 6.41533 5.3616 7.23275 5.3616 8.92137V10.0184L4.42587 10.0615C3.3073 10.1152 2.66197 10.3949 1.9521 11.137C1.16695 11.9437 1.01637 12.4277 0.973349 14.2669C0.930327 16.0738 0.984104 16.2244 1.69397 16.3319C2.30703 16.4395 2.46837 16.5255 3.25352 17.2461C4.00641 17.9237 4.68401 18.3109 5.12498 18.3217H5.3616V26.6357C5.3616 34.5625 5.37236 34.9713 5.5552 35.1326C5.73805 35.3047 6.96418 35.3154 20.9786 35.3154C35.5846 35.3154 36.2085 35.3047 36.3698 35.1218C36.5419 34.939 36.5526 34.1969 36.5526 26.625V18.3217H36.8538C37.3593 18.3109 38.0261 17.9345 38.8005 17.2031C39.2092 16.8159 39.6825 16.4717 39.8546 16.4287C40.9732 16.1813 40.9624 16.2029 40.9624 14.5035C40.9624 12.8686 40.8118 12.2233 40.274 11.5134C40.0374 11.2015 39.9406 10.9864 39.9944 10.8896C40.0482 10.8036 40.1665 10.3303 40.274 9.82483C40.5107 8.65248 40.4354 6.97462 40.102 5.89906C39.3598 3.5436 37.5421 1.50005 35.4018 0.628857C34.0143 0.0695686 31.9062 -0.113277 30.4758 0.198635ZM33.81 1.70441C35.0253 2.01632 35.9933 2.57561 36.9291 3.52209C38.295 4.8988 38.9188 6.39382 38.9188 8.25452C38.9188 10.0399 38.2843 11.535 36.9291 12.9009C36.23 13.6108 35.8965 13.8582 35.1544 14.2131C33.9821 14.7616 33.4228 14.8907 32.2074 14.8907C31.0135 14.8907 30.2176 14.6863 29.1206 14.1163C26.1305 12.5567 24.7646 8.93212 25.9799 5.84529C26.7974 3.79098 28.572 2.19916 30.6156 1.71516C31.4438 1.51081 33.0248 1.51081 33.81 1.70441ZM24.0762 8.07168C24.0762 8.71701 24.1085 9.41612 24.1408 9.63123L24.216 10.0399H15.5363H6.86738V9.01817C6.86738 7.84581 7.0072 7.45861 7.54498 7.13595C7.8784 6.93159 8.14728 6.92084 15.9881 6.92084H24.0762V8.07168ZM8.69582 13.2451V14.9445L8.27635 15.1273C8.03973 15.2349 7.51271 15.6328 7.104 16.0093C5.8456 17.1709 5.47991 17.1816 4.21076 16.0523C3.74827 15.6436 3.16748 15.2241 2.9201 15.1273L2.45761 14.9337V14.0518C2.45761 13.03 2.55441 12.6966 3.02765 12.2018C3.60845 11.5887 3.78054 11.5565 6.36187 11.5457H8.69582V13.2451ZM16.3322 13.2558V14.966L15.9881 15.1058C15.7945 15.1811 15.289 15.5683 14.8802 15.9662C13.6003 17.1601 13.1378 17.1709 11.8579 15.9662C11.3524 15.493 10.8899 15.1596 10.5995 15.0628L10.1478 14.9122L10.1155 13.2343L10.0833 11.5457H13.2131H16.3322V13.2558ZM24.0762 13.2451V14.9445L23.689 15.0843C23.4739 15.1596 22.9469 15.5575 22.5167 15.9662C21.2583 17.1601 20.7958 17.1709 19.6234 16.063C18.8705 15.3424 18.322 14.9875 17.9993 14.9875C17.8595 14.9875 17.838 14.7509 17.838 13.2666V11.5457H20.9571H24.0762V13.2451ZM39.4351 13.8904L39.4781 14.9337L39.0909 15.0735C38.8758 15.1488 38.3273 15.5683 37.854 15.9985C36.6925 17.0633 36.1977 17.1386 35.348 16.3965L34.8963 15.9985L35.3803 15.8049C36.5741 15.3317 38.3058 13.9442 38.9726 12.9117C39.2738 12.4492 39.4028 12.7073 39.4351 13.8904ZM27.2276 14.7294C27.9697 15.2886 28.8517 15.7511 29.54 15.9555C29.7874 16.0308 29.9918 16.1383 29.9918 16.1813C29.9918 16.2997 29.4432 16.6761 29.0775 16.8159C28.5828 16.9988 28.1633 16.8374 27.4642 16.1706C26.6898 15.4392 26.2596 15.1381 25.8724 15.0413C25.582 14.966 25.582 14.9552 25.582 14.0302V13.1053L26.0767 13.6646C26.3456 13.9765 26.8619 14.4497 27.2276 14.7294ZM10.1801 16.5363C10.3414 16.6223 10.7179 16.945 11.0083 17.2461C11.7504 18.0205 12.4172 18.3217 13.3745 18.3217C14.364 18.3217 14.7942 18.1173 15.8267 17.1493C16.6226 16.4072 16.6764 16.3857 17.1927 16.3857C17.7197 16.3857 17.7627 16.4072 18.5479 17.1386C19.5481 18.0958 20.0214 18.3217 21.0109 18.3217C21.9789 18.3217 22.4952 18.0851 23.3556 17.2677C24.1515 16.504 24.3666 16.3857 24.9044 16.3857C25.3884 16.3857 25.6035 16.5255 26.5607 17.4075C27.3782 18.1711 27.9052 18.3755 28.9377 18.3002C29.8197 18.2464 30.2391 18.0313 31.2179 17.1278C32.003 16.418 32.0676 16.3857 32.5623 16.3857C33.0678 16.3857 33.1324 16.418 33.9713 17.1924C34.4553 17.6333 34.8963 17.999 34.9501 17.999C35.0038 17.999 35.0469 21.2149 35.0469 25.9581V33.9172H20.9571H6.86738V26.0119C6.86738 20.8277 6.89964 18.1066 6.97493 18.1066C7.02871 18.1066 7.43742 17.7732 7.85689 17.3752C8.28711 16.9665 8.73884 16.5793 8.85715 16.5148C9.15831 16.3427 9.8359 16.3534 10.1801 16.5363Z" fill="#2196F3"/>
<path d="M28.1078 4.9644C27.4948 5.2548 27.0215 5.8356 26.8817 6.48093C26.7526 7.08324 26.8494 7.49195 27.1398 7.61026C27.6884 7.81462 28.2692 7.53497 28.2692 7.06173C28.2692 6.94342 28.366 6.71755 28.495 6.55622C28.6886 6.30884 28.7962 6.27658 29.3555 6.27658C30.0869 6.27658 30.4203 6.50244 30.4203 6.9972C30.4203 7.51346 30.0546 7.93293 28.452 9.22359C26.7526 10.5895 26.5913 10.8262 26.957 11.3209L27.1614 11.6006L29.3232 11.6328C31.3775 11.6543 31.5066 11.6436 31.7109 11.4392C31.9798 11.1703 31.9906 10.7831 31.7217 10.4605C31.5496 10.2454 31.3883 10.2023 30.6461 10.1486L29.7642 10.0948L30.3127 9.67532C31.399 8.84715 31.9261 7.95444 31.9261 6.92191C31.9261 6.34111 31.4528 5.49142 30.9473 5.13649C30.5493 4.8676 30.3988 4.82458 29.5168 4.80307C28.7317 4.7708 28.452 4.80307 28.1078 4.9644Z" fill="#2196F3"/>
<path d="M35.1199 4.89885C34.8295 5.12472 32.5708 9.10426 32.5708 9.39466C32.5708 10.0292 32.9042 10.1475 34.6466 10.1475H36.0879L36.1416 10.6853C36.2062 11.3414 36.4535 11.6533 36.9268 11.6533C37.6151 11.6533 37.6259 11.5995 37.6259 8.17929C37.6259 5.12472 37.6259 5.1032 37.3893 4.94187C37.0881 4.72676 35.3887 4.70525 35.1199 4.89885ZM36.1201 7.45866V8.64177H35.3565H34.5928L34.9263 8.07173C35.1091 7.77058 35.421 7.2328 35.6039 6.88862C35.7975 6.5552 35.9911 6.27556 36.0341 6.27556C36.0879 6.27556 36.1201 6.80258 36.1201 7.45866Z" fill="#2196F3"/>
<path d="M9.83335 19.9464L9.55371 20.1615V25.6791C9.55371 30.4868 9.57522 31.2074 9.7258 31.4226L9.88713 31.6592H20.847H31.8069L31.9682 31.4226C32.1188 31.2074 32.1403 30.4868 32.1403 25.6791V20.1615L31.8607 19.9464C31.5703 19.7205 31.538 19.7205 20.847 19.7205C10.156 19.7205 10.1238 19.7205 9.83335 19.9464ZM30.6345 25.7436V30.261H20.847H11.0595V25.7436V21.2263H20.847H30.6345V25.7436Z" fill="#2196F3"/>
</svg>
