<svg width="34" height="37" viewBox="0 0 34 37" fill="none" xmlns="http://www.w3.org/2000/svg">
<path d="M17.9773 0.984097C17.4359 1.11769 16.8664 1.37785 16.3109 1.75753C15.9664 1.98254 15.7625 2.07394 15.5867 2.07394C15.3547 2.07394 15.2703 2.02472 14.4828 1.49738C13.632 0.927849 12.3453 1.79269 12.5352 2.80519C12.5633 2.93176 12.8445 3.74035 13.1539 4.59816L13.7305 6.1591L13.407 6.4966C13.2102 6.7005 13.0344 6.96769 12.9641 7.1716C12.8094 7.64972 12.8164 8.35988 12.9992 8.7466L13.1398 9.063L12.943 9.288C12.8375 9.41457 12.4367 9.8716 12.057 10.3146C9.89141 12.7966 8.18984 15.5388 7.19141 18.1193L6.93125 18.8083H6.21406C3.93594 18.8083 1.48203 19.6028 0.736719 20.5943C0.300781 21.1638 0.300781 21.1638 0.300781 22.9568C0.300781 24.5458 0.307812 24.6232 0.4625 24.9396C0.792969 25.6075 1.79844 26.2896 2.96562 26.6482L3.46484 26.8028L3.48594 28.0122L3.5 29.2216L3.18359 29.3552C2.41719 29.6857 1.69297 30.2903 1.45391 30.7966C1.34141 31.0427 1.32031 31.2677 1.32031 32.7232C1.32031 34.6568 1.33437 34.72 2.03047 35.3599C2.65625 35.9435 3.63359 36.3724 5.00469 36.6818C5.93281 36.8857 8.16875 36.9349 9.25156 36.7802C10.8055 36.5482 12.0992 36.0419 12.8234 35.381L13.2031 35.0364L13.8711 35.2544C14.7008 35.5286 15.4812 35.7114 16.4727 35.8732C17.5906 36.0489 20.6422 36.0489 21.7812 35.8661C22.8219 35.7044 23.968 35.4161 24.7766 35.1068L25.4164 34.8677L25.6484 35.0646C26.682 35.9224 28.5594 36.288 29.9797 35.8943C31.3789 35.5146 32.518 34.5935 33.1227 33.363C33.5586 32.4841 33.6852 31.9568 33.6852 31.0427C33.6852 29.8685 33.3687 28.9263 32.6516 27.97C32.4687 27.731 32.2367 27.4568 32.1242 27.3724L31.9273 27.2036L32.0609 26.4724C32.2437 25.4599 32.2648 23.3083 32.0961 22.1833C31.4773 17.9857 29.1711 13.5208 25.6555 9.71691C25.3391 9.37941 25.0859 9.09113 25.0859 9.07707C25.0859 9.063 25.1492 8.91535 25.2266 8.7466C25.3953 8.35988 25.4094 7.64269 25.2547 7.18566C25.1914 7.00285 25.0016 6.7005 24.8328 6.51066C24.6641 6.32082 24.5234 6.14503 24.5234 6.11691C24.5234 6.08879 24.7906 5.34347 25.1211 4.45753C25.4516 3.57863 25.7187 2.75597 25.7187 2.62238C25.7117 2.07394 25.2687 1.51144 24.7203 1.37082C24.2914 1.25129 23.9398 1.34269 23.4617 1.70129C23.1523 1.93332 22.9555 2.03175 22.7234 2.05988C22.4422 2.08801 22.3648 2.05988 21.9219 1.76456C20.9516 1.11066 20.1922 0.878628 19.1023 0.885658C18.7016 0.885658 18.1953 0.934879 17.9773 0.984097ZM19.6016 2.15128C20.1289 2.23566 20.8039 2.53097 21.3031 2.8966C21.7531 3.22707 22.0695 3.33253 22.5898 3.33957C23.1523 3.33957 23.4336 3.25519 23.9609 2.91066C24.2 2.75597 24.4039 2.63644 24.418 2.65051C24.425 2.66457 24.1719 3.36769 23.8555 4.21847L23.2789 5.76535L19.1305 5.78644C15.2211 5.8005 14.975 5.79347 14.9258 5.68097C14.6094 4.87941 13.8359 2.73488 13.85 2.69269C13.8641 2.65754 14.0047 2.72785 14.1734 2.85441C14.6094 3.17785 15.1016 3.33957 15.6148 3.33957C16.1492 3.33253 16.4586 3.22707 16.9156 2.8966C17.3937 2.54504 18.0828 2.22863 18.5469 2.15128C19.0812 2.06691 19.0883 2.06691 19.6016 2.15128ZM23.6797 7.17863C24.1016 7.43175 24.2422 8.06457 23.9539 8.43019C23.6375 8.838 23.7781 8.82394 19.1445 8.82394C14.4477 8.82394 14.532 8.83097 14.2578 8.388C13.9906 7.9591 14.1875 7.32628 14.6445 7.13644C14.7219 7.10128 16.7398 7.07316 19.1305 7.07316C23.0398 7.06613 23.5039 7.08019 23.6797 7.17863ZM18.8633 10.0685C21.8797 10.0896 23.3633 10.0755 23.6797 10.0193L24.1367 9.94191L24.4742 10.3146C28.5805 14.8778 30.732 19.3216 30.9641 23.7021C31.0062 24.5107 30.9289 25.8185 30.8094 26.3036L30.7672 26.4513L30.2328 26.2755C29.4453 26.0224 28.2781 25.9802 27.4906 26.1771C25.6484 26.6482 24.2844 27.9771 23.8062 29.77C23.7078 30.1568 23.6656 30.5224 23.6727 31.0778C23.6727 31.9849 23.7781 32.456 24.1719 33.2857C24.3266 33.6091 24.4461 33.8833 24.4391 33.8903C24.3547 33.9677 22.9414 34.3614 22.3437 34.481C21.1766 34.713 20.5086 34.7693 19.0742 34.7693C17.1758 34.7693 15.6781 34.5302 14.082 33.9818L13.5898 33.806L13.5687 32.6528L13.5547 31.4997L14.1242 31.2255C14.7852 30.9091 15.4812 30.3044 15.6711 29.8825C15.7836 29.6364 15.8047 29.3974 15.8047 27.956C15.8047 26.4302 15.7906 26.2825 15.657 26.0083C15.3336 25.3403 14.3141 24.6443 13.1187 24.2857L12.5703 24.1169V22.7458C12.5703 21.4591 12.5562 21.3536 12.4016 21.0232C11.9937 20.1443 10.5031 19.3146 8.79453 19.0193C8.51328 18.97 8.28125 18.9068 8.28125 18.8786C8.28125 18.8505 8.40781 18.513 8.56953 18.1403C9.63828 15.5739 11.3117 13.0216 13.5898 10.4903C14.0469 9.97707 14.0961 9.94191 14.293 9.99113C14.4125 10.0193 16.4656 10.0544 18.8633 10.0685ZM7.97891 20.1513C9.87031 20.3622 11.3047 21.0232 11.3047 21.6911C11.3047 22.563 9.06172 23.3083 6.43203 23.3083C3.95 23.3083 1.77031 22.6333 1.55937 21.7966C1.43281 21.3044 2.24141 20.7138 3.5 20.3903C4.625 20.095 6.57969 19.9966 7.97891 20.1513ZM3.07812 24.1099C5.56016 24.8622 9.18828 24.6443 10.9953 23.6318L11.3047 23.456V23.9763C11.3047 24.4825 11.2977 24.5107 11.0586 24.7497C10.3695 25.4318 8.60469 25.8607 6.45312 25.8607C5.16641 25.8607 4.41406 25.7763 3.45078 25.5232C2.68437 25.3193 2.07266 25.0239 1.77734 24.7146C1.59453 24.5177 1.56641 24.4403 1.54531 23.9693L1.51719 23.4419L2.00234 23.681C2.26953 23.8146 2.75469 24.0114 3.07812 24.1099ZM13.0766 25.5232C13.9344 25.8114 14.5391 26.2755 14.5391 26.6411C14.5391 27.07 13.8781 27.5763 12.9289 27.8646C11.2414 28.3919 8.63984 28.4411 6.82578 27.9841C6.0875 27.7943 5.36328 27.4708 5.13828 27.2318L4.98359 27.063L5.63047 27.1193C7.92969 27.3232 10.7211 26.6482 11.8109 25.6286C12.2328 25.2349 12.2258 25.2349 13.0766 25.5232ZM29.7336 27.4568C31.0766 27.8646 32.082 28.9685 32.3703 30.3396C32.7852 32.3013 31.4352 34.3052 29.4102 34.7341C28.7914 34.8607 28.5523 34.8607 27.9336 34.7341C26.5695 34.4458 25.4656 33.4122 25.0578 32.0341C24.9102 31.5349 24.9102 30.5505 25.0578 30.0513C25.4164 28.8208 26.3094 27.8997 27.5469 27.4778C28.1586 27.2669 29.1008 27.2599 29.7336 27.4568ZM6.45312 29.1372C7.58516 29.4466 8.26016 29.5239 9.6875 29.5239C10.6789 29.5239 11.2555 29.4888 11.7617 29.3974C12.5562 29.2568 13.7937 28.87 14.2437 28.6169L14.5391 28.4482V28.9333C14.5391 29.3763 14.518 29.4396 14.3141 29.6716C13.6883 30.3888 11.8883 30.8388 9.6875 30.8388C7.26875 30.8388 5.28594 30.2833 4.89219 29.4958C4.81484 29.3482 4.76562 29.088 4.76562 28.8489V28.4482L5.34922 28.7224C5.66562 28.87 6.16484 29.0599 6.45312 29.1372ZM4.31562 30.656C5.39141 31.5349 7.05078 32.013 9.2375 32.0763C10.2992 32.1114 11.607 32.0341 11.9937 31.9146C12.0641 31.8935 12.0008 31.9708 11.8672 32.0903C11.1641 32.7161 9.0125 33.138 6.94531 33.0607C5.75 33.0114 4.89922 32.8708 4.04141 32.5825C2.70547 32.1396 2.24844 31.5208 2.825 30.9513C3.03594 30.7403 3.71797 30.3396 3.86562 30.3396C3.90078 30.3396 4.09766 30.4802 4.31562 30.656ZM4.13281 33.8763C5.25078 34.1997 6.03828 34.2982 7.4375 34.2982C9.24453 34.3052 10.6508 34.038 11.818 33.4755L12.2891 33.2505V33.7638C12.2891 34.2489 12.282 34.2841 12.043 34.5161C11.3539 35.2122 9.58906 35.6411 7.4375 35.6341C5.27891 35.6341 3.52812 35.2122 2.84609 34.5302C2.59297 34.2771 2.58594 34.256 2.58594 33.7638V33.2505L3.06406 33.4755C3.32422 33.6021 3.80234 33.7849 4.13281 33.8763Z" fill="#2196F3"/>
<path d="M18.7785 15.7852C18.5395 15.8836 18.4762 16.0805 18.4762 16.7555V17.3883L18.0332 17.5992C17.2528 17.9648 16.8309 18.4359 16.6059 19.2023C16.3598 20.0461 16.6621 21.1078 17.302 21.6562C17.4637 21.7969 18.1598 22.1906 18.8488 22.5422C19.8824 23.0766 20.1285 23.2242 20.2692 23.4422C20.5082 23.8078 20.5574 24.1664 20.4168 24.532C20.2059 25.0734 19.7278 25.3617 19.0317 25.3617C18.5254 25.3617 18.2512 25.2211 17.9418 24.7922C17.6676 24.4055 17.5973 24.3633 17.2035 24.3633C16.8942 24.3633 16.6481 24.5531 16.6481 24.7852C16.6481 24.8625 16.6973 25.0383 16.7465 25.1719C16.9856 25.7273 17.4637 26.1703 18.1387 26.4445L18.4621 26.5781L18.4903 27.3023C18.5184 28.1461 18.5676 28.2305 19.109 28.2305C19.6504 28.2305 19.6996 28.1461 19.7278 27.2953L19.7559 26.5641L20.0793 26.4445C21.4293 25.9523 22.0832 24.3914 21.4785 23.0836C21.1903 22.4367 20.8668 22.1836 19.4746 21.4875C18.1317 20.8125 17.9067 20.6367 17.7731 20.1375C17.4145 18.8156 19.3059 18.0141 20.1918 19.1039C20.2973 19.2305 20.4309 19.3922 20.4871 19.4555C20.6348 19.6383 21.2957 19.6312 21.4645 19.4414C21.6403 19.2445 21.5629 18.8648 21.2535 18.4148C20.9793 18.0141 20.6278 17.7539 20.1074 17.55L19.777 17.4164L19.7418 16.7133C19.7137 16.1859 19.6785 15.968 19.5942 15.8906C19.4535 15.75 18.9895 15.6937 18.7785 15.7852Z" fill="#2196F3"/>
<path d="M27.9202 29.1023C27.1678 29.5664 26.5139 30.0445 26.4647 30.1711C26.3663 30.4172 26.4296 30.6984 26.6264 30.9164C26.8796 31.2047 27.2171 31.2117 27.6178 30.9445C27.7725 30.8461 27.9131 30.7617 27.9272 30.7617C27.9413 30.7617 27.9694 31.2469 27.9835 31.8445C28.0046 32.8781 28.0116 32.9414 28.1733 33.1102C28.3139 33.2578 28.4124 33.293 28.6725 33.293C28.9327 33.293 29.0311 33.2578 29.1717 33.1102C29.3335 32.9414 29.3405 32.8781 29.3616 31.8445C29.3756 31.2469 29.4038 30.7617 29.4178 30.7617C29.4319 30.7617 29.5655 30.8391 29.7131 30.9234C30.0577 31.1414 30.2546 31.1906 30.5077 31.0992C30.8733 30.9727 31.0421 30.4031 30.8171 30.0867C30.7046 29.918 29.6288 29.1656 29.1858 28.9406C28.7358 28.7156 28.4897 28.7508 27.9202 29.1023Z" fill="#2196F3"/>
</svg>
