<svg width="36" height="37" viewBox="0 0 36 37" fill="none" xmlns="http://www.w3.org/2000/svg">
<g clip-path="url(#clip0_164_14389)">
<path d="M20.2398 0.820312C19.0797 1.01719 17.7508 1.58672 16.8227 2.28984C15.4234 3.34453 14.418 4.83516 13.9469 6.55078C13.7641 7.19766 13.75 7.35234 13.75 8.55469C13.75 9.75703 13.7641 9.91172 13.9469 10.5586C14.6922 13.2797 16.7805 15.368 19.5156 16.1273C20.1625 16.3102 20.3031 16.3242 21.5477 16.3242C22.7922 16.3242 22.9328 16.3102 23.5867 16.1273C26.3219 15.368 28.4242 13.2656 29.1625 10.5375C29.3313 9.91875 29.3453 9.73594 29.3453 8.55469C29.3453 7.37344 29.3313 7.19062 29.1625 6.57187C28.3609 3.62578 25.9914 1.41797 23.0031 0.848437C22.4477 0.742969 20.8023 0.728906 20.2398 0.820312ZM22.3563 3C24.6133 3.35859 26.4273 4.98984 27.0039 7.18359C27.2078 7.96406 27.2078 9.14531 27.0039 9.92578C26.5258 11.7609 25.1336 13.2516 23.3336 13.8633C20.275 14.9039 16.9281 13.0828 16.0914 9.91875C15.8875 9.15234 15.8875 7.96406 16.0914 7.19062C16.8297 4.39922 19.5789 2.56406 22.3563 3Z" fill="#FF9800"/>
<path d="M23.7993 5.55084C23.6868 5.60006 22.8922 6.38053 22.0485 7.28053C20.811 8.58834 20.4875 8.89069 20.4313 8.81334C19.7 7.82897 19.1938 7.42115 18.7157 7.42115C18.3993 7.42115 17.9211 7.70944 17.7735 7.98365C17.6399 8.24381 17.6047 8.7149 17.7102 8.98209C17.7454 9.0735 18.2165 9.67115 18.7649 10.311C19.468 11.1477 19.8125 11.5063 19.9743 11.5626C20.2766 11.668 20.6985 11.661 20.9727 11.5415C21.2891 11.4149 25.093 7.37897 25.2618 6.98522C25.6696 6.08522 24.7204 5.15006 23.7993 5.55084Z" fill="#FF9800"/>
<path d="M2.39722 3.54366C2.0316 3.72647 1.87691 3.98662 1.84878 4.45069C1.81363 4.92881 1.96128 5.23116 2.33394 5.45615C2.55191 5.58975 2.69253 5.59678 4.41519 5.59678C5.42769 5.59678 6.25738 5.61084 6.25738 5.6249C6.25738 5.63897 7.3191 10.139 8.61285 15.6233C9.9066 21.1077 10.9613 25.6147 10.9543 25.6429C10.9402 25.671 10.2863 26.1913 9.49175 26.803C8.69722 27.4077 7.91675 28.0335 7.748 28.1952C6.70738 29.1937 6.84097 31.0288 8.02925 31.971C8.58472 32.4069 8.86597 32.4562 10.7011 32.4562H12.3043L12.2339 32.6249C12.1144 32.9483 12.0793 33.6163 12.1636 34.0733C12.3535 35.1351 13.0074 35.9858 13.9847 36.4569C14.5121 36.703 14.5332 36.7101 15.398 36.7101C16.2628 36.7101 16.2839 36.703 16.8113 36.4569C17.7886 35.9858 18.4425 35.1351 18.6324 34.0733C18.7168 33.6163 18.6816 32.9483 18.5621 32.6249L18.4918 32.4562H21.3816H24.2714L24.2292 32.6108C24.2011 32.7022 24.166 33.0116 24.1378 33.2999C24.0253 34.7905 24.9183 36.1194 26.3738 36.6046C26.7535 36.7312 26.9433 36.7522 27.5621 36.7312C28.2371 36.7101 28.3425 36.6819 28.8277 36.4499C29.4957 36.1265 30.0722 35.5429 30.3957 34.8679C30.6066 34.4179 30.6207 34.3476 30.6207 33.5812C30.6207 33.1382 30.5925 32.7022 30.5644 32.6108L30.5082 32.4562H31.9355C33.1519 32.4562 33.398 32.4351 33.6019 32.3296C33.9675 32.1468 34.1222 31.8866 34.1503 31.4226C34.1855 30.9444 34.0378 30.6421 33.6652 30.4171C33.4332 30.2765 33.2855 30.2765 21.466 30.2765C9.51988 30.2765 9.49175 30.2765 9.35113 30.1358C9.25269 30.0374 9.22456 29.953 9.26675 29.8897C9.29488 29.8265 10.0613 29.2147 10.9683 28.5187L12.6136 27.253L22.2535 27.239L31.8863 27.2179L32.2871 27.0562C32.7863 26.8522 33.3207 26.353 33.5738 25.8468C33.841 25.3194 33.8621 24.8905 33.9675 18.7733C34.0589 13.2608 34.0589 13.2538 33.7144 12.6562C33.4894 12.2765 32.9761 11.8124 32.5683 11.6296C32.1042 11.4257 31.4433 11.4187 31.1691 11.6155C30.3746 12.1991 30.5292 13.3171 31.4503 13.6124C31.591 13.6546 31.7386 13.746 31.7738 13.8093C31.8511 13.964 31.6542 24.6374 31.5699 24.8483L31.4996 25.003L22.3097 24.989L13.1128 24.9679L11.4464 17.7608C10.5253 13.7952 9.773 10.5187 9.773 10.4765C9.773 10.4272 10.0894 10.4483 10.7293 10.5397C11.6293 10.6663 11.6925 10.6663 11.9949 10.5538C12.4378 10.3851 12.6558 10.0476 12.6558 9.53428C12.6558 9.07022 12.4871 8.75381 12.1496 8.57803C12.023 8.51475 11.3199 8.36709 10.5816 8.25459C9.85035 8.14209 9.22456 8.02959 9.20347 8.00147C9.17535 7.97334 8.92925 7.06631 8.65503 5.99053C8.36675 4.87959 8.09253 3.94444 8.01519 3.83897C7.72691 3.43116 7.62144 3.41709 5.01285 3.41709C2.88941 3.41709 2.60816 3.43116 2.39722 3.54366ZM15.9535 32.653C16.6074 33.1382 16.6003 33.8905 15.9394 34.3827C15.6652 34.5866 15.1308 34.5866 14.8566 34.3827C14.2449 33.9257 14.1816 33.2507 14.7089 32.7585C15.0605 32.428 15.5949 32.3858 15.9535 32.653ZM27.7941 32.5546C28.5253 32.8569 28.68 33.7851 28.0753 34.2772C27.7238 34.5726 27.3652 34.6147 26.9644 34.4249C26.1699 34.0382 26.1558 32.9976 26.9503 32.6038C27.2949 32.428 27.4777 32.421 27.7941 32.5546Z" fill="#FF9800"/>
</g>
<defs>
<clipPath id="clip0_164_14389">
<rect width="36" height="36" fill="white" transform="translate(0 0.746094)"/>
</clipPath>
</defs>
</svg>
