<svg width="34" height="34" viewBox="0 0 34 34" fill="none" xmlns="http://www.w3.org/2000/svg">
<path d="M7.11953 0.315624C5.83281 0.653126 4.58828 1.6586 4.03984 2.80469C3.14687 4.68906 3.44219 6.72813 4.84141 8.21172C5.13672 8.52813 5.36875 8.79531 5.35469 8.80235C5.34062 8.80938 5.04531 8.95703 4.70078 9.12578C2.73203 10.1031 1.21328 11.9664 0.608594 14.132C0.460938 14.6664 0.41875 15.0039 0.390625 15.8828L0.355469 16.9727L0.545312 17.1695L0.742188 17.3594H5.56562H10.3891L10.5297 17.6195C10.9164 18.3438 11.9852 19.5391 12.5547 19.8766C12.6602 19.9398 12.7445 20.0102 12.7445 20.0312C12.7445 20.0523 12.4984 20.1227 12.1961 20.193C11.4156 20.3828 10.2344 20.875 9.46797 21.332C7.32344 22.6117 5.60781 24.7141 4.83437 27.0203C4.39141 28.3422 4.36328 28.5883 4.32812 31.1758L4.29297 33.5734L4.48281 33.7633L4.67969 33.9531H16.9633H29.2469L29.4437 33.7633L29.6336 33.5734L29.5984 31.1758C29.5633 28.5883 29.5352 28.3422 29.0922 27.0203C28.3187 24.7211 26.6031 22.6117 24.4656 21.3391C23.6641 20.8609 22.6797 20.4391 21.8289 20.2211L21.182 20.0523L21.7305 19.5953C22.3281 19.0961 23.0172 18.2875 23.3406 17.7109L23.5375 17.3594H28.5016H33.4586L33.6555 17.1555L33.8594 16.9445L33.8172 15.8687C33.775 14.575 33.5922 13.8297 33.0648 12.7469C32.2773 11.1297 30.8852 9.75156 29.2961 9.02031L28.7828 8.78125L29.2047 8.38047C29.732 7.88125 30.182 7.15703 30.4352 6.42578C30.6109 5.92656 30.632 5.76484 30.632 4.94922C30.632 4.12656 30.6109 3.97188 30.4281 3.44453C29.9078 1.91875 28.593 0.695312 27.0531 0.308594C26.5117 0.167969 25.2742 0.167969 24.7328 0.308594C23.425 0.639065 22.1734 1.64453 21.618 2.80469C20.725 4.68906 21.0203 6.72813 22.4195 8.21172C22.7148 8.52813 22.9469 8.79531 22.9328 8.80235C22.9187 8.81641 22.8203 8.85859 22.7219 8.90078C22.5531 8.97109 22.5109 8.95703 22.2648 8.69688C21.4844 7.89531 20.1555 7.11485 18.9672 6.77031C18.4469 6.61563 18.1445 6.58047 17.2375 6.55235C15.7258 6.50313 14.8328 6.68594 13.5812 7.31172C13.0117 7.59297 12.0906 8.26094 11.6969 8.66875C11.507 8.86563 11.4297 8.90078 11.3312 8.85156C11.2258 8.78828 11.2609 8.73203 11.6266 8.38047C12.1539 7.88125 12.6039 7.15703 12.857 6.42578C13.0328 5.92656 13.0539 5.76484 13.0539 4.94922C13.0539 4.12656 13.0328 3.97188 12.85 3.44453C12.3297 1.91875 11.0148 0.695312 9.475 0.308594C8.94766 0.174999 7.63984 0.174999 7.11953 0.315624ZM9.29219 1.81328C10.825 2.29141 11.8305 3.91563 11.5562 5.46953C11.0711 8.19063 7.78047 9.175 5.90312 7.17109C5.53047 6.77734 5.26328 6.2711 5.11562 5.7086C4.69375 4.09844 5.69219 2.3336 7.31641 1.81328C7.86484 1.64453 8.73672 1.6375 9.29219 1.81328ZM26.8703 1.81328C28.4031 2.29141 29.4086 3.91563 29.1344 5.46953C28.6492 8.19063 25.3586 9.175 23.4812 7.17109C23.1086 6.77734 22.8414 6.2711 22.6937 5.7086C22.2719 4.09844 23.2703 2.3336 24.8945 1.81328C25.443 1.64453 26.3148 1.6375 26.8703 1.81328ZM18.3695 8.15547C20.3102 8.59844 21.9062 10.082 22.6023 12.0859C22.8273 12.7398 22.8344 12.782 22.8344 13.9141C22.8344 15.0461 22.8273 15.0883 22.6023 15.7422C21.9484 17.6125 20.6477 18.9133 18.7563 19.5602C18.2008 19.75 18.0039 19.7781 17.1672 19.8063C15.9859 19.8414 15.3672 19.7078 14.3266 19.1945C12.85 18.4633 11.8656 17.3242 11.3312 15.7422C11.1273 15.1586 11.0992 14.9617 11.0711 14.1461C11.05 13.443 11.0711 13.0914 11.1625 12.6836C11.6195 10.6094 13.1102 8.95703 15.1211 8.28906C16.2039 7.93047 17.1953 7.88828 18.3695 8.15547ZM9.43281 9.83594C9.62969 9.87109 9.96719 9.95547 10.1711 10.0117L10.5578 10.1242L10.2836 10.7008C9.79141 11.7344 9.63672 12.3953 9.60156 13.6398C9.57344 14.4836 9.5875 14.8703 9.67891 15.2992C9.74219 15.6086 9.79141 15.8828 9.79141 15.9039C9.79141 15.932 8.00547 15.9531 5.81875 15.9531H1.84609V15.707C1.84609 14.9758 2.24687 13.7594 2.78828 12.8242C3.16797 12.1773 4.25781 11.0875 4.90469 10.7078C5.55859 10.3281 6.33906 10.0117 6.94375 9.88516C7.51328 9.75859 8.90547 9.73047 9.43281 9.83594ZM27.7211 10.0117C29.5352 10.6023 30.8781 11.7414 31.7219 13.4008C31.9961 13.9422 32.2703 14.8984 32.3336 15.4961L32.3828 15.9531H28.2555C25.9914 15.9531 24.1352 15.932 24.1352 15.9039C24.1352 15.8828 24.1844 15.6086 24.2477 15.2992C24.3391 14.8703 24.3531 14.4836 24.325 13.6398C24.2898 12.4164 24.1352 11.7414 23.6711 10.757C23.5375 10.4688 23.4391 10.2297 23.4461 10.2227C23.4602 10.2156 23.6078 10.1523 23.7836 10.0891C24.4727 9.83594 24.9859 9.76562 26.0687 9.79375C26.9898 9.81484 27.2008 9.84297 27.7211 10.0117ZM20.7602 21.4938C23.5656 22.0773 25.8438 23.7859 27.1516 26.2961C27.8898 27.7094 28.1289 28.7922 28.1922 31.0141L28.2344 32.5469H16.9633H5.69219L5.73438 31.0141C5.79766 28.7922 6.04375 27.6883 6.775 26.2961C8.06172 23.8492 10.3187 22.1125 12.9625 21.5359C13.8414 21.3461 14.7203 21.3039 17.4555 21.332C19.7406 21.3531 20.1836 21.3742 20.7602 21.4938Z" fill="#4CAF50"/>
</svg>
