<svg width="24" height="24" viewBox="0 0 24 24" fill="none" xmlns="http://www.w3.org/2000/svg">
<path d="M10.4901 2.23055L5.50015 4.10054C4.35015 4.53054 3.41016 5.89053 3.41016 7.12053V14.5505C3.41016 15.7305 4.19017 17.2805 5.14017 17.9905L9.44016 21.2005C10.8502 22.2605 13.1701 22.2605 14.5801 21.2005L18.8802 17.9905C19.8302 17.2805 20.6101 15.7305 20.6101 14.5505V7.12053C20.6101 5.89053 19.6701 4.53054 18.5201 4.10054L13.5302 2.23055C12.6802 1.92055 11.3201 1.92055 10.4901 2.23055Z" stroke="#222222" stroke-linecap="round" stroke-linejoin="round"/>
<path d="M11.9997 10.9204C11.9597 10.9204 11.9097 10.9204 11.8697 10.9204C10.9297 10.8904 10.1797 10.1104 10.1797 9.1604C10.1797 8.1904 10.9697 7.40039 11.9397 7.40039C12.9097 7.40039 13.6997 8.1904 13.6997 9.1604C13.6897 10.1204 12.9397 10.8904 11.9997 10.9204Z" stroke="#222222" stroke-linecap="round" stroke-linejoin="round"/>
<path d="M10.0091 13.7213C9.04906 14.3613 9.04906 15.4113 10.0091 16.0513C11.0991 16.7813 12.8891 16.7813 13.9791 16.0513C14.9391 15.4113 14.9391 14.3613 13.9791 13.7213C12.8991 12.9913 11.1091 12.9913 10.0091 13.7213Z" stroke="#222222" stroke-linecap="round" stroke-linejoin="round"/>
</svg>
