<svg width="25" height="25" viewBox="0 0 25 25" fill="none" xmlns="http://www.w3.org/2000/svg">
<path fill-rule="evenodd" clip-rule="evenodd" d="M12.3642 21.219C13.5143 20.1754 14.5787 19.0411 15.5472 17.827C17.5872 15.264 18.8282 12.737 18.9122 10.49C18.9454 9.57679 18.7943 8.66626 18.4677 7.81278C18.1412 6.9593 17.646 6.1804 17.0117 5.52259C16.3774 4.86478 15.617 4.34157 14.776 3.9842C13.9349 3.62684 13.0305 3.44265 12.1167 3.44265C11.2029 3.44265 10.2984 3.62684 9.45741 3.9842C8.61637 4.34157 7.85599 4.86478 7.22169 5.52259C6.58739 6.1804 6.09218 6.9593 5.76565 7.81278C5.43911 8.66626 5.28795 9.57679 5.32119 10.49C5.40619 12.737 6.64819 15.264 8.68719 17.827C9.65565 19.0411 10.7201 20.1754 11.8702 21.219C11.9809 21.319 12.0632 21.3917 12.1172 21.437L12.3642 21.219ZM11.3792 22.384C11.3792 22.384 4.11719 16.268 4.11719 10.25C4.11719 8.12827 4.96004 6.09344 6.46033 4.59315C7.96062 3.09285 9.99546 2.25 12.1172 2.25C14.2389 2.25 16.2738 3.09285 17.774 4.59315C19.2743 6.09344 20.1172 8.12827 20.1172 10.25C20.1172 16.268 12.8552 22.384 12.8552 22.384C12.4512 22.756 11.7862 22.752 11.3792 22.384ZM12.1172 13.05C12.8598 13.05 13.572 12.755 14.0971 12.2299C14.6222 11.7048 14.9172 10.9926 14.9172 10.25C14.9172 9.50739 14.6222 8.7952 14.0971 8.2701C13.572 7.745 12.8598 7.45 12.1172 7.45C11.3746 7.45 10.6624 7.745 10.1373 8.2701C9.61219 8.7952 9.31719 9.50739 9.31719 10.25C9.31719 10.9926 9.61219 11.7048 10.1373 12.2299C10.6624 12.755 11.3746 13.05 12.1172 13.05ZM12.1172 14.25C11.0563 14.25 10.0389 13.8286 9.28876 13.0784C8.53861 12.3283 8.11719 11.3109 8.11719 10.25C8.11719 9.18913 8.53861 8.17172 9.28876 7.42157C10.0389 6.67143 11.0563 6.25 12.1172 6.25C13.1781 6.25 14.1955 6.67143 14.9456 7.42157C15.6958 8.17172 16.1172 9.18913 16.1172 10.25C16.1172 11.3109 15.6958 12.3283 14.9456 13.0784C14.1955 13.8286 13.1781 14.25 12.1172 14.25Z" fill="#061F61"/>
</svg>
