<svg width="37" height="37" viewBox="0 0 37 37" fill="none" xmlns="http://www.w3.org/2000/svg">
<g clip-path="url(#clip0_2_50091)">
<path d="M7.17119 7.99453C7.19229 14.8852 7.19229 15.0961 7.33994 15.7148C7.579 16.7484 7.64229 16.9453 7.74072 16.9453C7.79697 16.9453 8.04307 16.882 8.29619 16.8047L8.75322 16.6641L8.6126 16.1508C8.28916 14.9133 8.2751 14.6742 8.2751 8.13516V1.96875H11.2282H14.1813V1.44141V0.914062H10.6657H7.14307L7.17119 7.99453Z" fill="#F44336"/>
<path d="M15.166 1.47656V2.03906H22.4082H29.6504V2.88281V3.72656H20.8262H12.002V4.28906V4.85156H20.8262H29.6504V6.57422V8.29688H30.2129H30.7754V4.60547V0.914062H22.9707H15.166V1.47656Z" fill="#F44336"/>
<path d="M9.75195 4.28906V4.85156H10.3145H10.877V4.28906V3.72656H10.3145H9.75195V4.28906Z" fill="#F44336"/>
<path d="M0.983691 9.57618C0.997754 14.1184 1.01885 14.7723 1.11729 15.1098C1.18057 15.3137 1.25088 15.4965 1.27197 15.5176C1.29307 15.5387 1.53213 15.4895 1.79932 15.4051C2.36182 15.2363 2.35479 15.2504 2.19307 14.5895C2.10869 14.2449 2.0876 13.3801 2.0876 9.85743V5.55431H3.98604H5.88447V4.99181V4.42931H3.42354H0.955566L0.983691 9.57618Z" fill="#F44336"/>
<path d="M32.041 4.99219V5.55469H33.9395H35.8379V6.39844V7.24219H36.4004H36.9629V5.83594V4.42969H34.502H32.041V4.99219Z" fill="#F44336"/>
<path d="M19.666 7.3897C18.759 7.92408 18.0207 8.39517 18.0277 8.42329C18.0348 8.45845 18.1543 8.67642 18.2949 8.91548C18.5973 9.42173 18.4074 9.45689 19.8418 8.62017C20.341 8.32486 20.7629 8.10689 20.7699 8.13501C21.3957 10.4061 22.5418 14.7936 22.5207 14.8217C22.4996 14.8358 20.9527 14.8288 19.0824 14.8006L15.6863 14.7444L15.4613 13.8936C15.3418 13.4295 15.1449 12.7053 15.0324 12.2905L14.8285 11.5381L16.2488 10.7155C17.0223 10.2655 17.6691 9.88579 17.6832 9.87876C17.7113 9.85064 17.5145 9.47095 17.3035 9.12642L17.1348 8.86626L15.5387 9.80142L13.9355 10.7366L12.023 11.2499C10.9684 11.5381 10.1035 11.7983 10.1035 11.8335C10.1035 11.9178 11.4395 16.896 11.4676 16.9241C11.4816 16.9381 11.8191 16.8608 12.227 16.7483L12.9582 16.5514L13.2254 17.571C13.6895 19.3217 13.7387 19.4624 14.0621 19.7858C15.0676 20.7913 16.7902 20.0952 16.7902 18.6819C16.7902 18.3795 16.502 17.1139 16.1715 16.01C16.1363 15.8835 16.2699 15.8764 20.0809 15.9327C22.2535 15.9608 24.0254 15.9608 24.0254 15.9397C24.0254 15.9186 23.4559 13.7741 22.7598 11.1795C22.0637 8.58501 21.4941 6.44751 21.4941 6.42642C21.4941 6.32798 21.1496 6.51079 19.666 7.3897ZM14.1746 13.4717C14.3715 14.21 14.5332 14.8428 14.5332 14.885C14.5332 14.9764 12.3465 15.56 12.2762 15.4897C12.1988 15.4053 11.4957 12.7335 11.5309 12.635C11.566 12.5085 13.7105 11.953 13.7668 12.0514C13.7949 12.0936 13.9777 12.7335 14.1746 13.4717ZM15.3348 17.2475C15.5105 17.9225 15.6582 18.5553 15.6582 18.6538C15.6582 18.8928 15.4332 19.1249 15.2012 19.1249C14.9621 19.1249 14.7652 18.9139 14.6738 18.5483C14.6246 18.3795 14.4699 17.803 14.3223 17.2616L14.0551 16.2772L14.4207 16.1577C15.0254 15.9678 14.9691 15.8975 15.3348 17.2475Z" fill="#F44336"/>
<path d="M3.07227 10.3219C3.07227 13.8656 3.0793 14.1469 3.21289 14.6531C3.55039 15.982 4.46445 17.0859 5.73008 17.7188C5.96211 17.8313 6.20117 17.9297 6.26445 17.9297C6.35586 17.9297 6.6582 17.1984 6.6582 16.9875C6.6582 16.9453 6.44727 16.8047 6.18008 16.6711C5.59648 16.3688 4.87227 15.6516 4.59805 15.1102C4.21133 14.3297 4.19727 14.2242 4.19727 10.807V7.66406H5.04102H5.88477V7.10156V6.53906H4.47852H3.07227V10.3219Z" fill="#F44336"/>
<path d="M24.2504 7.26328C23.8566 7.65703 23.5332 8.01562 23.5332 8.05781C23.5332 8.09297 23.702 8.28984 23.9059 8.49375L24.2715 8.85938L25.0449 8.08594L25.8113 7.3125L25.4316 6.92578C25.2207 6.71484 25.0309 6.53906 25.0098 6.53906C24.9887 6.53906 24.6512 6.8625 24.2504 7.26328Z" fill="#F44336"/>
<path d="M32.041 7.10156V7.66406H32.8848H33.7285V10.807C33.7285 14.2242 33.7145 14.3297 33.3277 15.1102C33.0535 15.6516 32.3293 16.3688 31.7457 16.6711C31.4785 16.8047 31.2676 16.9453 31.2676 16.9875C31.2676 17.1773 31.5699 17.9297 31.6543 17.9297C31.809 17.9297 32.252 17.7188 32.716 17.4305C33.6512 16.8328 34.4316 15.75 34.7129 14.6531C34.8465 14.1469 34.8535 13.8656 34.8535 10.3219V6.53906H33.4473H32.041V7.10156Z" fill="#F44336"/>
<path d="M35.8376 11.1934C35.8376 13.9075 35.8235 14.2168 35.697 14.7442C35.1345 17.1067 33.1587 18.8504 30.7188 19.1598L30.3462 19.209L30.3954 19.7434C30.4235 20.0457 30.4517 20.2989 30.4657 20.3129C30.529 20.3832 31.7735 20.1371 32.3431 19.9403C34.4595 19.209 36.0485 17.5496 36.7306 15.3559L36.9204 14.7301L36.9485 11.4746L36.9696 8.2262H36.4071H35.8376V11.1934Z" fill="#F44336"/>
<path d="M29.6293 12.1082C29.6012 14.9137 29.6012 14.9488 29.4113 15.7504C28.3918 19.9762 25.1574 23.091 20.8965 23.9559C19.9402 24.1457 17.8449 24.1316 16.8816 23.9207C13.6051 23.2105 10.9543 21.2066 9.45664 18.3027C9.25273 17.902 9.04883 17.5785 8.99961 17.5785C8.83789 17.5785 8.06445 17.9512 8.06445 18.0285C8.06445 18.0707 8.22617 18.4152 8.41602 18.7949C10.0613 22.0363 13.0848 24.3145 16.727 25.0457C17.8801 25.2777 20.0457 25.2777 21.1988 25.0457C25.9309 24.0965 29.5098 20.5527 30.5715 15.7785C30.7121 15.1387 30.7262 14.8504 30.7543 12.1785L30.7895 9.28164H30.227H29.6645L29.6293 12.1082Z" fill="#F44336"/>
<path d="M25.8954 9.71016C25.3611 9.85781 24.9111 9.99141 24.897 10.0055C24.8829 10.0195 24.897 10.125 24.9321 10.2375C24.9743 10.35 25.0376 10.575 25.0798 10.7367C25.129 10.9336 25.1923 11.0391 25.2626 11.0391C25.3892 11.0391 27.2032 10.5539 27.2454 10.5117C27.2946 10.4625 27.0064 9.46406 26.9361 9.45C26.9009 9.44297 26.4368 9.5625 25.8954 9.71016Z" fill="#F44336"/>
<path d="M25.1292 12.7402C24.8972 13.5417 24.7987 13.4292 25.9589 13.7386C26.5495 13.8933 27.0066 13.9847 27.0417 13.9495C27.1402 13.837 27.337 12.9862 27.2808 12.937C27.2527 12.9089 26.8308 12.7823 26.3456 12.6558C25.8605 12.5292 25.4175 12.4097 25.3472 12.3956C25.2628 12.3675 25.2066 12.4519 25.1292 12.7402Z" fill="#F44336"/>
<path d="M2.17227 16.3053L1.66602 16.5584L1.91211 16.9803C3.01602 18.8014 4.94258 20.0318 7.10117 20.285L7.50195 20.3271V20.0881C7.50195 19.9545 7.52305 19.7014 7.54414 19.5326L7.58633 19.2092L7.21367 19.16C5.48398 18.942 3.93711 17.9787 3.00195 16.5514L2.67852 16.0521L2.17227 16.3053Z" fill="#F44336"/>
<path d="M24.8339 19.6594C24.1519 20.2922 22.8933 21.1289 22.3519 21.3117C22.2886 21.3328 22.3238 21.4875 22.4855 21.8531C22.6121 22.1273 22.7386 22.3594 22.7738 22.3594C22.9074 22.3594 23.8214 21.8602 24.4191 21.4594C24.7636 21.2273 25.3121 20.7844 25.6425 20.482L26.2402 19.9195L25.8535 19.5609C25.6425 19.3641 25.4386 19.2023 25.3964 19.2023C25.3613 19.2023 25.1082 19.4062 24.8339 19.6594Z" fill="#F44336"/>
<path d="M20.8609 21.7831C20.6077 21.8464 20.3968 21.8956 20.3898 21.8956C20.3687 21.9097 20.5655 22.9292 20.6007 22.9644C20.664 23.0347 21.7046 22.7816 21.7046 22.6972C21.7046 22.5425 21.4163 21.6566 21.3671 21.6636C21.339 21.6706 21.114 21.7198 20.8609 21.7831Z" fill="#F44336"/>
<path d="M15.9254 28.9828L15.9043 31.7461L13.6402 32.4422L11.3691 33.1453V35.0297V36.9141H13.3027H15.2363V36.3867V35.8594H13.8652H12.4941V34.9242V33.9891L14.7793 33.2859L17.0645 32.5898V29.4047V26.2266H16.502H15.9395L15.9254 28.9828Z" fill="#F44336"/>
<path d="M20.8754 29.4047L20.8965 32.5898L23.1676 33.2859L25.4316 33.982V34.9242V35.8594H20.8262H16.2207V36.3867V36.9141H21.3887H26.5566V35.0297V33.1383L24.2926 32.4422L22.0215 31.7391L22.0004 28.9828L21.9863 26.2266H21.4238H20.8613L20.8754 29.4047Z" fill="#F44336"/>
<path d="M17.3457 34.2422V34.8047H17.9082H18.4707V34.2422V33.6797H17.9082H17.3457V34.2422Z" fill="#F44336"/>
<path d="M19.4551 34.2422V34.8047H20.0176H20.5801V34.2422V33.6797H20.0176H19.4551V34.2422Z" fill="#F44336"/>
</g>
<defs>
<clipPath id="clip0_2_50091">
<rect width="36" height="36" fill="white" transform="translate(0.962402 0.914062)"/>
</clipPath>
</defs>
</svg>
